<?xml version="1.0" encoding="UTF-8"?>
<svg id="Layer_1" xmlns="http://www.w3.org/2000/svg" viewBox="0 0 500 500">
  <defs>
    <style>
      .cls-1 {
        fill: #fbf289;
      }

      .cls-2 {
        fill: #6e71b5;
      }
    </style>
  </defs>
  <circle class="cls-1" cx="250" cy="250" r="242"/>
  <path class="cls-2" d="M265.37,78.32c29.82.77,58.1,8.02,80.56,30.73,3.52,3.56,6.78,7.45,9.64,11.55,6.33,9.09,5.45,15.04-2.76,22.12-8.48,7.31-15.62,7.43-23.28.37-49.6-45.67-123.3-32.48-151.21,28.88-23.96,52.7-23.74,107.14.67,159.89,14.45,31.23,40,49.5,75.29,51.83,26.31,1.74,46.29-11.28,64.35-28.39,6.17-5.84,11.91-12.14,18.12-17.94,8.04-7.5,15.75-7.26,24.17.31,7.59,6.83,8.07,13.38,1.47,22.31-17.82,24.1-38.23,44.38-67.63,54.83-54.06,19.22-109.83-3.88-139.56-45.24-29.24-40.69-37.44-87.02-33.41-136.29,2.28-27.86,7.75-54.65,20.53-79.76,25.46-50.01,66.49-74.33,123.05-75.21Z"/>
</svg>