<?xml version="1.0" encoding="utf-8"?>
<!-- Generator: Adobe Illustrator 25.2.3, SVG Export Plug-In . SVG Version: 6.00 Build 0)  -->
<svg version="1.1" id="Layer_1" xmlns="http://www.w3.org/2000/svg" xmlns:xlink="http://www.w3.org/1999/xlink" x="0px" y="0px"
	 viewBox="0 0 1280 358" style="enable-background:new 0 0 1280 358;" xml:space="preserve">
<style type="text/css">
	.st0{fill:#FFE2E2;stroke:#E48484;stroke-miterlimit:10;}
	.st1{fill:#F4D3DD;}
	.st2{fill:none;stroke:#E48484;stroke-miterlimit:10;}
	.st3{fill:#F4D3DD;stroke:#E48484;stroke-miterlimit:10;}
	.st4{display:none;}
	.st5{display:inline;fill:none;stroke:#00A651;stroke-width:0.1;}
	.st6{display:inline;fill:none;stroke:#002BA2;stroke-width:7;}
	.st7{display:inline;fill:none;stroke:#0010A2;stroke-width:5;}
</style>
<rect x="0.5" y="0.5" class="st0" width="160" height="89.5"/>
<g id="XMLID_1_">
	<g>
		<rect x="160.5" y="0.5" class="st1" width="160" height="89.5"/>
	</g>
	<g>
		<rect x="160.5" y="0.5" class="st2" width="160" height="89.5"/>
	</g>
</g>
<rect x="320.5" y="0.5" class="st0" width="160" height="89.5"/>
<rect x="480.5" y="0.5" class="st3" width="160" height="89.5"/>
<rect x="640.5" y="0.5" class="st0" width="160" height="89.5"/>
<rect x="800.5" y="0.5" class="st3" width="160" height="89.5"/>
<rect x="960.5" y="0.5" class="st0" width="160" height="89.5"/>
<rect x="1120.5" y="0.5" class="st3" width="160" height="89.5"/>
<rect x="0.5" y="90" class="st3" width="160" height="89.5"/>
<rect x="160.5" y="90" class="st0" width="160" height="89.5"/>
<rect x="320.5" y="90" class="st3" width="160" height="89.5"/>
<rect x="480.5" y="90" class="st0" width="160" height="89.5"/>
<rect x="640.5" y="90" class="st3" width="160" height="89.5"/>
<rect x="800.5" y="90" class="st0" width="160" height="89.5"/>
<rect x="960.5" y="90" class="st3" width="160" height="89.5"/>
<rect x="1120.5" y="90" class="st0" width="160" height="89.5"/>
<rect x="0.5" y="179.5" class="st0" width="160" height="89.5"/>
<g id="XMLID_2_">
	<g>
		<rect x="160.5" y="179.5" class="st1" width="160" height="89.5"/>
	</g>
	<g>
		<rect x="160.5" y="179.5" class="st2" width="160" height="89.5"/>
	</g>
</g>
<rect x="320.5" y="179.5" class="st0" width="160" height="89.5"/>
<rect x="480.5" y="179.5" class="st3" width="160" height="89.5"/>
<rect x="640.5" y="179.5" class="st0" width="160" height="89.5"/>
<rect x="800.5" y="179.5" class="st3" width="160" height="89.5"/>
<rect x="960.5" y="179.5" class="st0" width="160" height="89.5"/>
<rect x="1120.5" y="179.5" class="st3" width="160" height="89.5"/>
<rect x="0.5" y="269" class="st3" width="160" height="89.5"/>
<rect x="160.5" y="269" class="st0" width="160" height="89.5"/>
<rect x="320.5" y="269" class="st3" width="160" height="89.5"/>
<rect x="480.5" y="269" class="st0" width="160" height="89.5"/>
<rect x="640.5" y="269" class="st3" width="160" height="89.5"/>
<rect x="800.5" y="269" class="st0" width="160" height="89.5"/>
<rect x="960.5" y="269" class="st3" width="160" height="89.5"/>
<rect x="1120.5" y="269" class="st0" width="160" height="89.5"/>
<g class="st4">
	<line class="st5" x1="1280.5" y1="-168" x2="1280.5" y2="748"/>
	<line class="st5" x1="1120.5" y1="-168" x2="1120.5" y2="748"/>
	<line class="st5" x1="1120.5" y1="-168" x2="1120.5" y2="748"/>
	<line class="st5" x1="960.5" y1="-168" x2="960.5" y2="748"/>
	<line class="st5" x1="960.5" y1="-168" x2="960.5" y2="748"/>
	<line class="st5" x1="800.5" y1="-168" x2="800.5" y2="748"/>
	<line class="st5" x1="800.5" y1="-168" x2="800.5" y2="748"/>
	<line class="st5" x1="640.5" y1="-168" x2="640.5" y2="748"/>
	<line class="st6" x1="640.5" y1="-168" x2="640.5" y2="748"/>
	<line class="st5" x1="480.5" y1="-168" x2="480.5" y2="748"/>
	<line class="st5" x1="480.5" y1="-168" x2="480.5" y2="748"/>
	<line class="st5" x1="320.5" y1="-168" x2="320.5" y2="748"/>
	<line class="st5" x1="320.5" y1="-168" x2="320.5" y2="748"/>
	<line class="st5" x1="160.5" y1="-168" x2="160.5" y2="748"/>
	<line class="st5" x1="160.5" y1="-168" x2="160.5" y2="748"/>
	<line class="st5" x1="0.5" y1="-168" x2="0.5" y2="748"/>
	<line class="st5" x1="-100" y1="716.5" x2="1380" y2="716.5"/>
	<line class="st5" x1="-100" y1="627" x2="1380" y2="627"/>
	<line class="st5" x1="-100" y1="627" x2="1380" y2="627"/>
	<line class="st5" x1="-100" y1="537.5" x2="1380" y2="537.5"/>
	<line class="st5" x1="-100" y1="537.5" x2="1380" y2="537.5"/>
	<line class="st5" x1="-100" y1="448" x2="1380" y2="448"/>
	<line class="st5" x1="-100" y1="448" x2="1380" y2="448"/>
	<line class="st5" x1="-100" y1="358.5" x2="1380" y2="358.5"/>
	<line class="st7" x1="-100" y1="358.5" x2="1380" y2="358.5"/>
	<line class="st5" x1="-100" y1="269" x2="1380" y2="269"/>
	<line class="st5" x1="-100" y1="269" x2="1380" y2="269"/>
	<line class="st5" x1="-100" y1="179.5" x2="1380" y2="179.5"/>
	<line class="st5" x1="-100" y1="179.5" x2="1380" y2="179.5"/>
	<line class="st5" x1="-100" y1="90" x2="1380" y2="90"/>
	<line class="st5" x1="-100" y1="90" x2="1380" y2="90"/>
	<line class="st5" x1="-100" y1="0.5" x2="1380" y2="0.5"/>
</g>
</svg>
