<?xml version="1.0" encoding="UTF-8"?>
<svg id="Layer_2" xmlns="http://www.w3.org/2000/svg" viewBox="0 0 564 809">
  <defs>
    <style>
      .cls-1 {
        fill:#fc8b83;
      }
    </style>
  </defs>
  <path class="cls-1" d="M281,50.5c0,18.5-15,33.5-33.5,33.5s-33.5-15-33.5-33.5,15-33.5,33.5-33.5,33.5,15,33.5,33.5ZM314.5,16c-18.5,0-33.5,15-33.5,33.5s15,33.5,33.5,33.5,33.5-15,33.5-33.5-15-33.5-33.5-33.5ZM447.5,17c-18.5,0-33.5,15-33.5,33.5s15,33.5,33.5,33.5,33.5-15,33.5-33.5-15-33.5-33.5-33.5ZM381,16.5c-18.5,0-33.5,15-33.5,33.5s15,33.5,33.5,33.5,33.5-15,33.5-33.5-15-33.5-33.5-33.5ZM514,18.5c-18.5,0-33.5,15-33.5,33.5s15,33.5,33.5,33.5,33.5-15,33.5-33.5-15-33.5-33.5-33.5ZM58,17.5c-18.5,0-33.5,15-33.5,33.5s15,33.5,33.5,33.5,33.5-15,33.5-33.5-15-33.5-33.5-33.5ZM180.5,16c-18.5,0-33.5,15-33.5,33.5s15,33.5,33.5,33.5,33.5-15,33.5-33.5-15-33.5-33.5-33.5ZM118.5,16c-18.5,0-33.5,15-33.5,33.5s15,33.5,33.5,33.5,33.5-15,33.5-33.5-15-33.5-33.5-33.5ZM246.5,728c-18.5,0-33.5,15-33.5,33.5s15,33.5,33.5,33.5,33.5-15,33.5-33.5-15-33.5-33.5-33.5ZM313.5,727c-18.5,0-33.5,15-33.5,33.5s15,33.5,33.5,33.5,33.5-15,33.5-33.5-15-33.5-33.5-33.5ZM446.5,728c-18.5,0-33.5,15-33.5,33.5s15,33.5,33.5,33.5,33.5-15,33.5-33.5-15-33.5-33.5-33.5ZM380,727.5c-18.5,0-33.5,15-33.5,33.5s15,33.5,33.5,33.5,33.5-15,33.5-33.5-15-33.5-33.5-33.5ZM513,729.5c-18.5,0-33.5,15-33.5,33.5s15,33.5,33.5,33.5,33.5-15,33.5-33.5-15-33.5-33.5-33.5ZM57,728.5c-18.5,0-33.5,15-33.5,33.5s15,33.5,33.5,33.5,33.5-15,33.5-33.5-15-33.5-33.5-33.5ZM179.5,727c-18.5,0-33.5,15-33.5,33.5s15,33.5,33.5,33.5,33.5-15,33.5-33.5-15-33.5-33.5-33.5ZM117.5,727c-18.5,0-33.5,15-33.5,33.5s15,33.5,33.5,33.5,33.5-15,33.5-33.5-15-33.5-33.5-33.5ZM480,385.5c0,18.5,15,33.5,33.5,33.5s33.5-15,33.5-33.5c0-18.5-15-33.5-33.5-33.5-18.5,0-33.5,15-33.5,33.5ZM479,318.5c0,18.5,15,33.5,33.5,33.5s33.5-15,33.5-33.5-15-33.5-33.5-33.5c-18.5,0-33.5,15-33.5,33.5ZM480,185.5c0,18.5,15,33.5,33.5,33.5,18.5,0,33.5-15,33.5-33.5,0-18.5-15-33.5-33.5-33.5s-33.5,15-33.5,33.5ZM479.5,252c0,18.5,15,33.5,33.5,33.5s33.5-15,33.5-33.5-15-33.5-33.5-33.5c-18.5,0-33.5,15-33.5,33.5ZM481.5,119c0,18.5,15,33.5,33.5,33.5s33.5-15,33.5-33.5c0-18.5-15-33.5-33.5-33.5-18.5,0-33.5,15-33.5,33.5ZM480.5,575c0,18.5,15,33.5,33.5,33.5,18.5,0,33.5-15,33.5-33.5s-15-33.5-33.5-33.5-33.5,15-33.5,33.5ZM479,452.5c0,18.5,15,33.5,33.5,33.5s33.5-15,33.5-33.5-15-33.5-33.5-33.5c-18.5,0-33.5,15-33.5,33.5ZM479,514.5c0,18.5,15,33.5,33.5,33.5,18.5,0,33.5-15,33.5-33.5s-15-33.5-33.5-33.5-33.5,15-33.5,33.5ZM24,385.5c0,18.5,15,33.5,33.5,33.5s33.5-15,33.5-33.5c0-18.5-15-33.5-33.5-33.5-18.5,0-33.5,15-33.5,33.5ZM23,318.5c0,18.5,15,33.5,33.5,33.5s33.5-15,33.5-33.5-15-33.5-33.5-33.5c-18.5,0-33.5,15-33.5,33.5ZM24,185.5c0,18.5,15,33.5,33.5,33.5,18.5,0,33.5-15,33.5-33.5,0-18.5-15-33.5-33.5-33.5s-33.5,15-33.5,33.5ZM23.5,252c0,18.5,15,33.5,33.5,33.5s33.5-15,33.5-33.5-15-33.5-33.5-33.5c-18.5,0-33.5,15-33.5,33.5ZM25.5,119c0,18.5,15,33.5,33.5,33.5s33.5-15,33.5-33.5c0-18.5-15-33.5-33.5-33.5-18.5,0-33.5,15-33.5,33.5ZM24.5,575c0,18.5,15,33.5,33.5,33.5,18.5,0,33.5-15,33.5-33.5s-15-33.5-33.5-33.5-33.5,15-33.5,33.5ZM23,452.5c0,18.5,15,33.5,33.5,33.5s33.5-15,33.5-33.5-15-33.5-33.5-33.5c-18.5,0-33.5,15-33.5,33.5ZM23,514.5c0,18.5,15,33.5,33.5,33.5,18.5,0,33.5-15,33.5-33.5s-15-33.5-33.5-33.5-33.5,15-33.5,33.5ZM481.5,639c0,18.5,15,33.5,33.5,33.5,18.5,0,33.5-15,33.5-33.5s-15-33.5-33.5-33.5-33.5,15-33.5,33.5ZM479.5,702c0,18.5,15,33.5,33.5,33.5,18.5,0,33.5-15,33.5-33.5s-15-33.5-33.5-33.5-33.5,15-33.5,33.5ZM23.5,639c0,18.5,15,33.5,33.5,33.5,18.5,0,33.5-15,33.5-33.5s-15-33.5-33.5-33.5-33.5,15-33.5,33.5ZM23.5,702c0,18.5,15,33.5,33.5,33.5,18.5,0,33.5-15,33.5-33.5s-15-33.5-33.5-33.5-33.5,15-33.5,33.5Z"/>
</svg>