<?xml version="1.0" encoding="utf-8"?>
<!-- Generator: Adobe Illustrator 25.2.3, SVG Export Plug-In . SVG Version: 6.00 Build 0)  -->
<svg version="1.1" id="Layer_1" xmlns="http://www.w3.org/2000/svg" xmlns:xlink="http://www.w3.org/1999/xlink" x="0px" y="0px"
	 viewBox="0 0 1031 114" style="enable-background:new 0 0 1031 114;" xml:space="preserve">
<style type="text/css">
	.st0{fill:#F6E0E0;}
	.st1{fill:#EDB4B4;}
	.st2{fill:#FFFFFF;}
</style> 
<polygon class="st0" points="923.2,30.8 919.3,81.4 927.5,86.7 954.3,82.2 978.3,78.8 972.5,73.2 976.4,68.9 975.7,59.8 974.5,52.7 
	981.7,44.5 988.7,40.4 995.8,30.8 987.6,22.7 971.2,27.3 956.7,28 "/>
<g>
	<path d="M978.5,26.6c0.5-0.2,1.1-0.4,1.6-0.7c0-0.1,0-0.2,0-0.3c-1,0-2-0.2-3-0.1c-3.5,0.3-7,0.8-10.6,1.2
		c-1.1,0.1-2.2-0.3-3.3-0.1c-2.8,0.5-5.5,1.3-8.3,1.9c-1,0.2-2,0.5-3,0.7c0.1,0.3,0.1,0.4,0.1,0.4c2.1-0.2,4.2-0.4,6.3-0.6
		c0.9-0.1,1.7-0.6,2.5-0.8c2-0.4,3.9-0.7,5.9-0.9c1.4-0.1,2.8-0.1,4.3-0.2c1.7-0.1,3.4-0.4,5.1-0.5c0.4,0,0.8,0.2,1.1,0.3
		c0,0.1,0,0.3,0,0.5c-1.1,0.2-2.2,0.6-3.3,0.7c-1.9,0.2-3.7,0.2-5.6,0.5c-2.2,0.3-4.3,0.8-6.5,1c-1.7,0.2-3.3,0.5-5,1.1
		c-2,0.7-4.2,0.7-6.4,1c-2.2,0.2-4.5,0.6-6.7,0.5c-1.6,0-3.2-0.7-4.8-0.8c-2.2-0.2-4.5-0.2-6.8-0.1c-1.6,0.1-3.1,0.5-4.7,0.7
		c-1.2,0.2-2.4,0.3-3.6,0.5c-0.3,0.1-0.9,0.5-0.9,0.6c0.1,0.6,0.3,1.4,0.7,1.5c0.9,0.3,2,0.4,2.9-0.3c0.4-0.3,1-0.4,1.6-0.5
		c0.9-0.2,1.9-0.3,2.8-0.4c0.4,0,0.9,0,1.3,0.1c2,0.3,3.9,0.5,5.9,0.8c1.1,0.2,2.2,0.5,3.4,0.5c2.8-0.1,5.6-0.4,8.3-0.6
		c0.2,0,0.3,0,0.7,0c-0.4,1.1-1.3,1.1-2,1.2c-2.5,0.4-5,0.7-7.4,1.1c-0.7,0.1-1.4,0.1-2.1,0.1c-2.7,0-5.3,0-8-0.1
		c-0.5,0-1-0.6-1.5-1c-1.2,1.6-3.3,1.3-5,1.7c-1,0.3-1.4,0.9-1.4,1.6c-0.1,0.9,0.6,1.4,1.6,1.3c2-0.3,4.1-0.7,6.1-0.8
		c2.8-0.2,5.7-0.1,8.6-0.1c2.2,0,4.4,0.1,6.6,0c3.5-0.1,7-0.4,10.5-0.6c0.5,0,1-0.2,1.6-0.3c2.2-0.5,4.5-1,6.7-1.4
		c3.3-0.5,6.7-1,10.1-1.4c2.3-0.2,4.6-0.2,6.9-0.3c0.5,0,1-0.3,1.4-0.5c0.7-0.3,1.4-0.9,2.2-1c2.4-0.4,4.9-0.7,7.4-0.9
		c2.8-0.3,5.6-0.4,8.2,1.2c0,0.9-0.5,1.5-1.5,1.5s-1.9-0.3-2.9-0.2c-1.2,0-2.4,0.4-3.6,0.4c-4.1,0.2-8.1,0.3-12.2,0.6
		c-2.9,0.2-5.8,0.8-8.7,1.2c-2.3,0.3-4.7,0.7-7,1.1c-4.6,0.7-9.2,1.6-13.8,2.1c-2.6,0.3-5.2,0.1-7.8,0.1c-2.2,0-4.4-0.1-6.7,0
		c-3.5,0.1-7,0.4-10.5,0.7c-0.3,0-0.7,0-1.1-0.1c-0.9-0.1-1.5,0.3-1.9,1.1c-0.4,0.7-0.2,1,0.5,1c0.8,0,1.5,0.1,2.3,0
		c1.9-0.3,3.7-0.8,5.6-0.9c3.4-0.2,6.9-0.2,10.3-0.1c3.5,0.2,6.9,0.9,10.4,0c1.8-0.5,3.8-0.4,5.7-0.7c0.9-0.1,1.7-0.3,2.6-0.4
		c4.4-0.7,8.8-1.4,13.2-1.9c3.4-0.4,6.9-0.5,10.4-0.8c0.6,0,1.1-0.3,1.6-0.4c1.5-0.2,2.9-0.5,4.4-0.6c2.5-0.2,4.9-0.2,7.4-0.4
		c1.3-0.1,2.3,0.3,3.3,1.1c0.7,0.6,0.5,1.1-0.2,1.2c-1.1,0.2-2.2,0.3-3.3,0.4c-1.8,0.1-3.6,0.2-5.4,0.3c-1.8,0.1-3.6,0-5.5,0.1
		c-0.1,0-0.3,0-0.4-0.1c-2.5-2-5.2-0.9-7.9-0.6c-2,0.2-4.1,0.4-6.1,0.7c-2.3,0.4-4.7,0.9-7,1.4c-0.3,0.1-0.6,0.3-0.9,0.3
		c-3.2,0.4-6.5,0.9-9.7,1.3c-0.5,0.1-1.1,0.1-1.5,0.4c-1.6,1-3.4,0.7-5.2,0.6c-2.1-0.1-4.2-0.3-6.3-0.4c-2.2-0.1-4.4-0.3-6.6-0.1
		c-2.6,0.1-5.1,0.6-7.6,0.9c-0.7,0.1-1.3,0.2-2,0.2c-2,0.1-2.5,0.9-2.4,2.9c0,0.4-0.5,0.9-0.5,1.3c0.1,0.7,0.5,1.4,0.8,2.1
		c0.1,0,0.2,0,0.4,0c-0.5,0.8-1,1.6-1.3,2.4c-0.2,0.3-0.1,0.8,0,1.2c0.1,0.5,0.6,1,0.6,1.5c-0.1,1.3,0.5,1.2,1.5,1.1
		c3.7-0.5,7.4-1.1,11.1-1.5c3.3-0.3,6.7-0.4,10.1-0.5c2-0.1,4,0.2,6,0.1c1.2,0,2.3-0.2,3.4-0.4c4.6-0.6,9.2-1.1,13.7-1.7
		c0.9-0.1,1.9-0.1,2.8-0.2c0.9-0.2,1.7-0.6,2.6-0.8c1.1-0.1,2.2-0.1,3.2-0.1c0.5,0,1.1,0.1,1.6,0.2c2.2,0.2,4.4,0.2,6.6,0.5
		c0.6,0.1,1.5,0.8,1.5,1.3c0,1-1,1.2-1.9,1.2c-1.9,0-3.9,0-5.8-0.2c-1.8-0.1-3.7-0.6-5.5-0.7c-1.7-0.1-3.5-0.1-5.2,0
		c-3.6,0.3-7.1,0.8-10.7,1.2c-0.2,0-0.4,0.2-0.6,0.6c0.7,0.1,1.5,0.3,2.2,0.3c2.8,0,5.6,0,8.4,0c0.2,0,0.4,0,0.5,0.1
		c0.5,0.2,0.9,0.5,1.3,0.8c-0.5,0-0.9,0.1-1.4,0.1c-0.6,0.1-1.1,0.2-1.7,0.2c-1.7,0.1-3.4,0.1-5.2,0.1c-1.3,0-2.6-0.2-3.9-0.2
		c-1.5,0-3.1,0.2-4.6,0.4c-3.3,0.4-6.6,1-9.8,1.4c-1.2,0.2-2.4,0.2-3.9,0.3c3.2-0.8,6.1-1.5,9-2.3c0-0.1,0-0.2-0.1-0.3
		c-0.1,0-0.2-0.1-0.3-0.1c-3.9,0.2-7.8,0.4-11.7,0.6c-3.3,0.2-6.6,0.6-10,0.9c-0.8,0.1-1.7,0-2.5,0.2c-1.7,0.5-2,1.4-1.5,3.1
		c0.1,0.3,0.1,0.7,0.1,1.3c2.2-0.3,4.4-0.6,6.5-0.7c3.8-0.3,7.5-0.6,11.3-0.9c6.3-0.5,12.5-1,18.8-1.4c3-0.2,6-0.3,9-0.5
		c1-0.1,1.9-0.2,2.9-0.4c0.4-0.1,0.8-0.4,1.2-0.5c-0.2-0.4-0.4-0.7-0.7-1.1c1.8-0.3,3.8-1,5.6-0.9c2.7,0.2,5.3,0.8,8,1.4
		c0.5,0.1,0.8,0.8,1.3,1.3c-0.8,0.7-1.3,0.9-2.3,0.8c-2.1-0.2-4.3,0-6.4,0.2c-1.4,0.1-2.9,0.4-4.3,0.5c-1.4,0.1-2.7,0.1-4.1,0.2
		c-3.7,0.2-7.3,0.3-11,0.6c-2.9,0.2-5.7,0.6-8.6,1c-0.1,0-0.3,0.2-0.4,0.2c0,0.1,0,0.3,0,0.4c2,0,3.9,0.1,5.9-0.1
		c2.7-0.2,5.3-0.7,7.9-0.8c2.5-0.1,5.1,0,7.6-0.1c0.4,0,0.9,0.1,1.1-0.1c1.4-1.1,2.8-0.8,4.4-0.4c0.4,0.1,0.9,0.1,1.3,0.1
		c1.8,0.2,3.5,0.4,5.2,0.7c0.9,0.2,1,1,0.3,1.3c-1,0.5-2.1,0.6-3.1,0.8c-0.8,0.1-1.6,0.2-2.8,0.3c1.2,1.4,3.7,0.1,3.9,2.6
		c-1.6,0.3-3.2,0.8-4.9,0.9c-2.2,0.2-4.5,0.1-6.7,0.1c-2.5,0.1-5,0.2-7.5,0.3c-2.2,0.1-4.5,0.1-6.7,0.2c-1.1,0-2.2,0.2-3.3,0.2
		c-2.9,0-5.8-0.2-8.7,0.5c-1.1,0.2-2.2,0.2-3.3,0.1c-3-0.4-5.9-0.1-8.9,0c-2.5,0.1-4.9,0.3-7.4,0.5c-1.3,0.1-1.7,0.4-2.8,2.4
		c1.7-0.2,3.2-0.6,4.6-0.5c1.4,0.1,2.9,0.6,4.3,1c-0.5,0-1,0-1.5,0c-1.9,0.2-3.8,0.3-5.7,0.5c-0.8,0.1-1.5,0.4-1.2,1.5
		c0.3,1,0.7,1,1.7,0.9c4.5-0.6,9-1.1,13.5-1.4c4.1-0.3,8.2-0.5,12.2-0.5c4.7,0,9.4-0.9,14.1-1.3c1-0.1,2-0.4,3-0.8c-1.3,0-2.7,0-4,0
		c-2.1,0.1-4.1,0.4-6.2,0.5c-3.7,0.2-7.4,0.4-11.1,0.5c-3.3,0.1-6.6,0.2-9.9,0.2c-1,0-1.9-0.4-2.9-0.8c1-0.1,2-0.1,3-0.2
		c2.3-0.1,4.5-0.2,6.8-0.3c3.4-0.2,6.8-0.3,10.3-0.5c4.7-0.3,9.5-0.6,14.2-0.9c1.4-0.1,2.9,0.3,4.3,0c2.2-0.5,4.2,0.4,6.3,0.8
		c1.9,0.3,1.8,0.4,1.1,2.1c1,0.6,2.1,1.2,2.1,2.7c0,0.3,1,0.6,1.5,1c0.5,0.3,1,0.7,1.5,1c-0.5,0.7-0.9,1.8-1.5,2.1
		c-1.7,0.5-3.6,0.6-5.3,1c-1.8,0.4-3.7,1-5.5,1.4c-1.2,0.2-2.5,0.2-3.8,0.4c-3.1,0.4-6.2,0.8-9.2,1.1c-2.3,0.2-4.7,0.3-7,0.4
		c-1.3,0.1-2.6,0-4,0.1c-0.3,0-0.6,0.3-0.9,0.3c-0.4,0.1-0.9,0-1.4,0.1c-1.3,0.1-2.7,0.1-4,0.4c-1.9,0.3-3.7,1-5.6,1.1
		c-3.5,0.1-7.1,0-10.6-0.1c-1.6,0-3,0-3.7,2c-0.2,0.7-1.5,1-2.4,1.3s-1.8,0.4-2.7,0.5c-1.6,0.2-3.3,0.4-4.9,0.5
		c-3.8,0.2-7.5,0.5-11.3,0.5c-3.7,0.1-7.4-0.2-11.1-0.1c-3.7,0-7.3,0.2-11,0.3c-1,0-2.2-0.5-3.1-0.2c-1.9,0.6-3.7-0.1-5.5,0.1
		c-0.3,0-0.7,0-1,0.1c-3,1.2-6,1.6-9.2,1.3c-1.8-0.2-3.6,0.1-5.5,0c-2.9-0.2-5.8-0.5-8.7-0.7c-2.4-0.1-4.8-0.1-7.2-0.2
		c-1.2-0.1-2.5-0.1-3.7-0.3c-4.5-0.5-8.9-1-13.4-1.5c-2.2-0.3-4.3-0.7-6.4-1c-1.8-0.2-3.5-0.4-5.3-0.6c-2.1-0.2-4.1-0.5-6.2-0.7
		c-2.4-0.3-4.8-0.5-7.2-0.7c-3.5-0.4-7.1-0.8-10.6-1.2c-4.1-0.4-8.1-0.7-12.2-1.1c-4.2-0.4-8.3-0.8-12.5-1.1
		c-3.6-0.3-7.2-0.6-10.9-0.8c-3.2-0.2-6.3-0.4-9.5-0.4c-2.7,0-5.4,0.3-8.2,0.4s-5.6,0-8.4,0.1c-1.4,0.1-2.8,0.4-4.2,0.7
		c-1.2,0.3-2.3,0.8-3.5,1.2c-1.3,0.4-2.6,0.6-3.9,1c-0.4,0.1-0.9,0.3-1.2,0.5c-0.8,0.8-1.5,0.8-2.5,0.5c-1.5-0.4-3-0.3-4.6-0.3
		c-1.7-0.1-3.4,0-5.2-0.6c-1.7-0.6-3.5-0.5-5.3-0.9c-1-0.2-1.9-0.7-2.7-1.3c-2.1-1.6-4.1-1.3-6.2-0.1c-0.8,0.4-1.7,0.8-2.5,1
		c-2.4,0.7-4.7,1.5-7.3,1.4c-1.5-0.1-3,0.5-4.6,0.6c-1.8,0.2-3.6,0-5.4,0.3c-1.8,0.3-3.4,0-5.1-0.3c-0.9-0.2-1.4-0.3-1.8-1.1
		c-0.8-1.5-2.2-2-3.8-1.9c-2.7,0.1-5.5,0.2-8.2,0.4c-2.7,0.2-5.5,0.5-8.2,0.8c-0.5,0-1.2-0.1-1.7-0.4c-1.5-1-3.1-0.3-4.5,0
		c-3.7,0.8-7.3,1.9-11,2.7c-2.7,0.6-5.5,0.8-8.2,1.3c-3.3,0.7-6.5,1.6-9.8,2.2c-3.7,0.6-7.5,1-11.3,1.5c-2.2,0.3-4.4,0.7-6.6,0.9
		c-2.1,0.2-4.1,0.3-6.2,0.5c-2.8,0.3-5.6,0.8-8.4,1.1c-6.9,0.8-13.9,1.6-20.8,2.4c-3.5,0.4-7.1,0.5-10.6,0.8
		c-0.9,0.1-1.8,0.5-2.7,0.6c-1.4,0.2-2.8,0.2-4.2,0.4c-1.7,0.2-3.3,0.6-5,0.8c-3.1,0.5-6.2,1-9.3,1.4c-3.9,0.4-7.9,0.6-11.8,1
		c-3.2,0.3-6.4,0.6-9.6,0.9c-0.5,0-1,0-1.5-0.1c-3-0.1-6-0.1-8.9-0.2c-3-0.1-6-0.3-9-0.5c-4.7-0.4-9.4-1-14.1-1.3
		c-2.3-0.2-4.5-0.1-6.8-0.2c-1.3-0.1-2.6-0.4-3.9-0.5c-1.7-0.1-3.4-0.2-5.2-0.2c-2,0-4,0.1-6,0s-3.9-0.4-5.9-0.6
		c-1.9-0.1-3.9-0.1-5.8-0.3c-2.5-0.3-5-0.8-7.5-1.1c-1.4-0.1-2.8,0.1-4.2,0.1c-1.3,0-2.6-0.2-4-0.3c-2.9-0.2-5.8-0.3-8.6-0.5
		c-4.3-0.3-8.7-0.6-13-1.1c-3-0.3-6-1.1-9-1.6c-0.8-0.1-1.6,0.2-2.3,0.2c-5.2-0.3-10.4-0.7-15.5-1c-2.5-0.2-5.1-0.3-7.6-0.4
		c-0.5,0-1.1-0.1-1.6-0.1c-3-0.3-6-0.6-9.1-0.8c-1.4-0.1-2.7,0.3-4.1,0.2c-2.5,0-5.1-0.1-7.6-0.3c-4.6-0.2-9.1-0.5-13.7-0.8
		c-2.9-0.2-5.8-0.5-8.7-0.7c-2.6-0.1-5.2,0-7.8-0.1c-2.9-0.1-5.8-0.4-8.8-0.6c-2.2-0.1-4.4-0.2-6.6-0.4c-1.3-0.1-2.5-0.6-3.8-0.7
		c-1.5-0.1-2.9-0.1-4.4-0.1c-1.6-0.1-3.3-0.2-4.9-0.3c-2.3,0-4.6,0.1-6.9,0.1c-0.5,0-1,0.2-1.4,0c-3.1-0.9-6.4-0.8-9.6-1
		c-4.1-0.3-8.1-1.1-12.2-1.3c-3.9-0.2-7.9,0.1-11.8,0.2c-2.7,0.1-5.5,0.1-8.2,0.2c-1.5,0-3,0.1-4.5,0c-3.1-0.1-6.2-0.3-9.3-0.5
		c-1.4-0.1-2.7-0.5-4.1-0.6c-1.6-0.2-3.2-0.3-4.8-0.5c-0.9-0.1-2-0.2-2.7-0.7c-0.9-0.6-1.7-0.6-2.7-0.7c-1.9-0.1-3.8-0.3-5.7-0.6
		c-2.5-0.3-5-0.8-7.5-1.1c-2.6-0.3-5.2-0.3-7.8-0.5c-3.9-0.4-7.7-0.9-11.6-1.3c-2-0.2-4.1-0.4-6-0.9c-3.2-0.7-6.4-0.5-9.6-1
		c-4.6-0.7-9.3-1.3-13.9-1.8c-3.2-0.4-6.4-0.5-9.5-0.8c-4.2-0.4-8.5-0.9-12.7-1.3c-1.5-0.1-3-0.2-4.5-0.2c-3.6,0.1-7.2,0.3-10.8-0.2
		c-2.8-0.4-5.6-0.6-8.4-0.9c-0.2,0-0.5-0.1-0.6,0.1c-1.5,1.4-3.3,0.9-4.9,0.7c-4.9-0.6-9.8-1.3-14.6-2.1c-3-0.5-5.9-1.1-8.9-1.9
		c-4.4-1.2-9-2.2-12.9-4.7c-2.2-1.4-4.1-3.1-5.9-4.9c-0.6-0.6-0.4-1.9-0.6-2.9c-0.6-3.4,0.6-6.5,2-9.4c0.5-1.2,1.6-1.9,3-1.9
		c0.6,0,1.3-0.2,1.9-0.3c4-0.6,8-1.1,11.9-1.8c4.9-0.8,9.8-1.9,14.7-2.7c2.8-0.5,5.6-0.7,8.4-0.9c3.3-0.3,6.6-0.7,10-1
		c1.3-0.1,2.7,0.1,4,0c0.9,0,1.8-0.4,2.7-0.4c2.8,0,5.6,0.1,8.4,0.1c1.8,0,3.6-0.1,5.4-0.1c1.9,0,3.8,0.1,5.7,0
		c5.6-0.1,11.2-0.1,16.7-0.2c2.8,0,5.6,0,8.4-0.1c0.7,0,1.4-0.3,2.1-0.3c1.2-0.1,2.4-0.1,3.5-0.2c0.5,0,1.1-0.1,1.4-0.4
		c2.1-2,4.7-1.5,7.2-1.3c3.6,0.2,7.1,0.9,10.6,0.9c3,0,6,0.4,9.1-0.2c3.4-0.7,7-0.5,10.5-0.8c2.2-0.2,4.5-0.5,6.7-0.8
		c1.3-0.1,2.5-0.2,3.8-0.3c2.4-0.1,4.8-0.3,7.2-0.4c4-0.1,8-0.2,11.9-0.3c2.7-0.1,5.4-0.3,8.1-0.4c2.1-0.1,4.3,0,6.4,0
		c4-0.1,8-0.1,12.1-0.2c2.8-0.1,5.7-0.5,8.5-0.7c3.3-0.2,6.7-0.2,10-0.2c3.4,0,6.7,0.2,10.1,0c3.2-0.3,6.5-0.1,9.7-0.2
		c2.3,0,4.6-0.1,6.9-0.2c3.5-0.1,6.9-0.4,10.4-0.5c0.7,0,1.4,0,2.1,0c3.5,0,6.9-0.2,10.4-0.1c5.6,0.1,11.2,0.3,16.8,0.5
		c3.9,0.1,7.8,0.4,11.7,0.5c2.1,0.1,4.1,0,6.2,0c3.5,0,7.1,0,10.6-0.1c3.2,0,6.3-0.2,9.5-0.1c4,0.1,8.1,0.1,12.1,0.4
		c5.1,0.3,10.2,0.9,15.4,1.3c4.3,0.3,8.5,0.5,12.8,0.8c2.9,0.2,5.7,0.3,8.6,0.5c3.6,0.2,7.3,0.6,10.9,0.7c2.4,0.1,4.9-0.5,7.3-0.1
		c3.5,0.5,7-0.1,10.4-0.3c2.8-0.1,5.7-0.3,8.5-0.4c1.4,0,2.8,0.3,4.1,0.3c3.2-0.1,6.3-0.2,9.4-1.4c1-0.4,2.3,0,3.5,0
		c2.2,0,4.5,0.1,6.5-1c0.2-0.1,0.5,0,0.7,0.2c1.7,1.3,3.7,1,5.6,0.7c2.6-0.4,5.2-0.7,7.8-1.1c1.7-0.2,3.3-0.5,5-0.6
		c3.1-0.3,6.2-0.5,9.3-0.6c2.8,0,5.6,0.3,8.3,0.4c1.1,0,2.2-0.2,3.3-0.1c2.9,0.1,5.7,0.3,8.6,0.5c1.9,0.2,3.8,0.6,5.7,0.8
		c0.6,0.1,1.1-0.1,1.7-0.1c2.1,0.1,4.1,0.2,6.2,0.3c2.1,0.1,4.2,0.2,6.3,0.4c3.2,0.4,6.4,1,9.7,1.5c3.1,0.5,6.3,0.9,9.4,1.3
		c0.9,0.1,1.7,0.3,2.6,0.4c3.1,0.3,6.3,0.5,9.4,0.9c2.6,0.3,5.2,0.9,7.7,1.2c1.6,0.2,3.2,0.3,4.8,0.5c1.7,0.2,3.3,0.5,5,0.7
		c2.3,0.3,4.5,0.6,6.8,0.9c3,0.4,6.1,0.4,9,1.2c2.5,0.6,4.9,0.2,7.4,0.4c3.1,0.2,6.1,0.2,9.2,0.3c5.2,0.2,10.4,0.3,15.7,0.6
		c1.7,0.1,3.3,0.5,5,0.6c1.1,0,2.2-0.4,3.3-0.5c1.5-0.1,2.9,0,4.4-0.1c0.4,0,0.9-0.1,1.1-0.3c1.5-2.2,3.9-2.5,6.1-2.9
		c4.7-0.9,9.4-1,14.1-0.8c1.4,0.1,2.8-0.3,4.1,0c3.2,0.5,6.3,1.2,9.5,1.9c0.8,0.2,1.6,0.7,2.2,1.2c1.5,1.1,3.1,0.5,4.1-0.2
		c1.7-1.2,3.4-1.4,5.1-1.1c3.1,0.5,6.5,0.4,9.1,2.7c0.3,0.3,1,0,1.5,0.1c1.5,0.3,2.9,0.7,4.3,0.9c2.5,0.3,5.1,0.9,7.6-0.1
		c0.3-0.1,0.6,0,0.9-0.1c2.9-0.3,5.8-0.7,8.7-1c0.7-0.1,1.3,0,2,0c3.3-0.1,6.5-0.3,9.8-0.4c3.5-0.1,7.1-0.2,10.6-0.4
		c0.4,0,0.7-0.1,1.1-0.1c2-0.3,4-0.5,6-0.8c1.6-0.2,3.2-0.4,4.8-0.6c3.6-0.5,7.1-1,10.7-1.4c3.5-0.4,7.1-0.5,10.7-0.8
		c1.9-0.2,3.8-0.6,5.8-0.8c4.1-0.3,8.3-0.5,12.4-0.8c1.1-0.1,2.2-0.4,3.3-0.6c3.8-0.4,7.6-0.6,11.3-1.2c4.1-0.6,8.3-0.3,12.4-1.5
		c2.4-0.7,5-0.4,7.5-0.7c1.6-0.2,3.1-0.7,4.7-1c0.8-0.1,1.6-0.2,2.4-0.3c2.7-0.3,5.4-0.1,8.1-0.8c2-0.5,4.1,0,6.2-0.1
		c3.4-0.2,6.8-0.6,10.3-0.7c3.2-0.1,6.3-0.7,9.5-0.3c2.5,0.3,5.2,0.5,7.8-0.5c1-0.4,2.2-0.2,3.3-0.2c1.9-0.1,3.8-0.2,5.7-0.4
		c1.7-0.2,3.3-0.7,5-0.9c1.8-0.2,3.7,0.2,5.5-0.2c2.5-0.5,5-1.2,7.4-2.1c1.8-0.7,3.6-0.4,4.9,1c0.6,0.7,1.3,0.8,2.3,0.7
		c2.4-0.4,4.9-0.4,7.3-0.6c1.8-0.1,3.5-0.3,5.3-0.4c2.6-0.2,5.2-0.4,7.8-0.5c1.8-0.1,3.5,0.1,5.3,0c1.1-0.1,2.2-0.3,3.2-0.6
		c1.8-0.5,3.5-1.1,5.3-1.6c0.1,0,0.2,0,0.3-0.1c2.6-1.8,5.6-1,8.4-1.2c2.5-0.2,4.9-0.7,7.4-1c2.1-0.2,4.1-0.6,6.3,0
		c1.2,0.3,2.7,0,4-0.1c3.4-0.3,6.7-0.8,10.1-1.1c1.2-0.1,2.5,0.2,3.6,0.6c0.4,0.1,0.7,1,0.8,1.6c0.1,0.8-0.6,0.9-1.3,0.9
		c-1.4,0-3-0.2-4.2,0.3c-2.7,1-5.5,0.5-8.3,0.9c-1.7,0.2-3.5,0.6-5.2,0.9c-0.3,0.1-0.6,0-0.9,0C978.6,26.9,978.6,26.8,978.5,26.6z
		 M658.7,57.2c-0.5-2.1-1-4.5-1.9-6.8c-0.3-0.8-1.6-1.7-2.4-1.7c-3.7-0.1-7.4,0.2-11.1,0.3c-2.9,0-5.8-0.2-8.7-0.3
		c-1.4,0-2.9-0.1-4.3-0.1c-2.2-0.1-4.4-0.3-6.7-0.3c-4.4-0.1-8.8-0.2-13.2-0.4c-2.5-0.2-5-0.7-7.5-1c-3.9-0.4-7.8-0.6-11.7-1.1
		c-6.3-0.8-12.5-1.7-18.8-2.5c-4.6-0.6-9.2-1.3-13.7-1.9c-3.2-0.4-6.3-0.8-9.5-1.1c-4.9-0.5-9.7-1-14.6-1.5c-2.5-0.2-5-0.4-7.5-0.7
		c-2.3-0.2-4.5-0.6-6.7-0.7c-1.7-0.1-3.4,0-5.2,0c-3.4,0-6.8-0.1-10.3,0c-2.4,0-4.8,0.3-7.2,0.5c-2,0.1-4,0.2-6,0.3
		c-0.9,0.1-1.9,0.1-2.9,0.2c-1.4,0.2-2.9,0.6-4.3,0.7c-1.7,0.2-3.5,0.2-5.3,0.4c-0.8,0.1-1.6,0.3-2.4,0.3c-3.2-0.1-6.4-0.4-9.6-0.3
		c-3.6,0-7.2,0.4-10.8,0.5c-1.6,0.1-3.3,0.1-4.9,0.1c-2.8,0.1-5.5,0.4-8.3,0.5c-4.3,0.1-8.5,0-12.8,0.1c-1.3,0-2.7,0.6-4,0.5
		c-2.9-0.1-5.8-0.5-8.7-0.7c-2.7-0.1-5.5-0.9-8.2-0.1c-0.2,0.1-0.4,0-0.5,0c-3.4-0.7-6.8-1-10.3-0.9s-7-0.1-10.5-0.3
		c-2.5-0.1-5-0.5-7.6-0.7c-2.7-0.2-5.4-0.4-8.1-0.5c-1.3-0.1-2.6,0.1-3.8,0.1c-2.2-0.2-4.4,0.3-6.6-0.2c-1.6-0.4-3.4,0.2-5.1,0.3
		c-3.2,0.1-6.4,0.2-9.7,0.1c-2.5-0.1-4.9-0.4-7.4-0.5c-1.8-0.1-3.5,0.1-5.3,0.2c-1.3,0-2.6,0-3.9-0.1c-1.9-0.1-3.8-0.4-5.8-0.5
		c-2.4-0.1-4.8,0-7.2-0.1c-4.1-0.1-8.3-0.3-12.4-0.3c-3.8,0-7.6,0.4-11.3,0.5c-4.3,0.1-8.6,0-12.9,0.2c-1.8,0.1-3.6,0.5-5.4,0.5
		c-2.8,0.1-5.7-0.1-8.5,0c-5.6,0.2-11.2-0.8-16.8,0.3c-1.5,0.3-3.1-0.1-4.6,0c-1.3,0.1-2.8-0.5-4,0.5c-0.2,0.2-0.7,0-1,0
		c-4.3-0.8-8.7-0.4-13,0c-1.1,0.1-2.3,0-3.5-0.1c-1.1-0.1-2.1-0.3-3.2-0.2c-3,0.1-5.9,0.2-8.9,0.3c-1.6,0.1-3.2,0.2-4.8,0.3
		c-3,0.2-6.1,0.4-9.1,0.7c-2.3,0.2-4.6-0.3-7,0.3c-1.8,0.5-3.7,0.1-5.6,0.3c-2.4,0.2-4.8,0.5-7.3,0.7c-0.8,0.1-1.6,0-2.4,0.2
		c-2.9,1-5.9,0.4-8.8,0.4c-2.2,0-4.4-0.5-6.6-0.5c-3.2,0-6.4,0.3-9.6,0.5c-3.6,0.2-7.1,0.4-10.7,0.5c-3.8,0.2-7.5,0.4-11.3,0.5
		c-2.2,0.1-4.4-0.1-6.6,0c-3.2,0-6.3,0.4-9.5,0.2c-6.9-0.4-13.7-0.2-20.5,0.8c-1.9,0.3-3.8,0.4-5.7,0.5c-2.7,0.2-5.4,0.2-8.1,0.4
		c-0.4,0-0.9,0.4-1.3,0.5c-1.8,0.3-3.6,0.2-5.3,0.8c-2.4,0.8-4.9,0.7-7.3,1.5c-1.1,0.4-2.5,0.2-3.7,0.5c-1.3,0.2-2.5,0.7-3.8,0.8
		c-2.3,0.3-4.7,0.1-7,1.1c-1.6,0.7-3.3,1-5,1.5c-0.2,0.1-0.4,0.3-0.5,0.6c-0.6,1.6-1,3.2-0.8,4.9c0.1,0.7,0.4,1.5,0.8,2
		c1.1,1.2,2.4,2.2,3.6,3.3c0.6,0.5,1.1,1.1,1.8,1.4c2.7,0.9,5.4,1.8,8.1,2.4c5.9,1.3,11.8,2.5,17.8,3.7c1,0.2,2.1,0.4,3.1,0.2
		c3-0.8,6.1-0.6,9.1-0.3c3.8,0.4,7.6,0.8,11.4,1.1c2.2,0.2,4.4-0.1,6.7,0c2.4,0.1,4.7,0.3,7.1,0.5c5.3,0.4,10.6,0.7,15.8,1.3
		c6.1,0.6,12.2,1.5,18.3,2.2c4.9,0.6,9.7,1.1,14.6,1.7c2.6,0.3,5.2,0.9,7.8,1.3c4.7,0.6,9.4,1.2,14,1.7c2.8,0.3,5.5,0.6,8.3,0.9
		c3.6,0.4,7.2,0.7,10.8,1.1c2,0.2,3.9,0.7,5.9,0.9c2.5,0.3,5,0.5,7.6,0.6c3.9,0.2,7.8,0.3,11.7,0.3c3.2-0.1,6.4-0.7,9.7-0.7
		c3,0,6,0.3,9,0.5c4.9,0.4,9.8,1.1,14.8,1.4c2.4,0.2,4.9-0.3,7.3-0.3s4.9,0.3,7.3,0.4c3.8,0.3,7.7,0.7,11.5,0.9
		c4.4,0.3,8.8,0.6,13.2,0.8c3,0.1,6.1,0.1,9.1,0.3c4,0.2,8.1,0.4,12.1,0.7c2.7,0.2,5.5,0.3,8.2,0.5s5.3,0.5,8,0.6
		c1.9,0.1,3.9-0.2,5.8-0.1c4.6,0.2,9.1,0.5,13.7,0.8c1,0.1,2,0,3.1,0.1c3.8,0.3,7.5,0.7,11.3,0.9c1.9,0.1,3.8-0.2,5.7,0
		c3.8,0.4,7.7,1,11.5,1.6c1.7,0.2,3.4,0.6,5.1,0.7c2.4,0.1,4.9,0,7.3,0.1c2.7,0.1,5.5,0.3,8.2,0.4c3.4,0.2,6.7,0.5,10.1,0.7
		c1.7,0.1,3.4,0.2,5,0.5c1.9,0.5,3.7,0.8,5.7,0.4c1-0.2,2-0.1,3,0.1c3.5,0.9,7.1,0.6,10.7,0.8c1.9,0.1,3.9,0.3,5.8,0.4
		c1.4,0.1,2.8,0.4,4.2,0.5c4.1,0.3,8.2,0.6,12.3,1c2,0.2,4,0.5,6.1,0.7s4.1,0.2,6.2,0.3c2.7,0.1,5.4,0.1,8.1,0.2
		c2.3,0,4.5-0.1,6.7-0.1c1.5,0,3,0.1,4.6,0c2-0.2,4-0.5,6-0.7c4.4-0.4,8.8-0.7,13.1-1.2c5.1-0.6,10.1-1.5,15.2-2.1
		c2.5-0.3,5-0.5,7.5-0.8c1.3-0.1,2.6-0.2,4-0.3c2.3-0.2,4.7-0.5,7-0.7c3-0.3,5.9-0.5,8.9-0.8c2.7-0.3,5.5-0.7,8.2-1
		c2.2-0.3,4.4-0.4,6.6-0.7c2.1-0.3,4.2-0.8,6.4-1c3.7-0.4,7.4-0.6,11.1-1c2.7-0.3,5.5-0.6,8.2-1.1c2.9-0.5,5.7-1.3,8.6-2
		c5.4-1.2,10.7-2.3,16.1-3.3c1.4-0.3,2.9-0.3,4.4-0.6c3.6-0.7,7.1-2,10.9-1.6c0.1,0,0.3,0,0.4-0.1c2.4-0.5,4.7-1,7.1-1.5
		c2.5-0.6,4.9-1.2,7.4-1.9c0.4-0.1,0.9-0.3,1-0.6c0.5-1.2,1-2.4,1.4-3.6c0.1-0.2,0-0.4,0-0.5c-0.1-2.4-0.3-4.7-0.2-7.1
		C658.1,61.9,658.5,59.7,658.7,57.2z M854.5,58.1c0.7-0.5,1.3-1.2,1.8-1.2c1.6,0.1,3.2,0.4,4.8,0.7c3.5,0.5,6.8,2,10.1,3.2
		c0.3,0.1,0.8,0.3,1,0.2c0.7-0.7,1.4-1.5,2.3-2.5c-1.3-0.6-2.5-1.3-3.8-1.7c-1.9-0.6-3.8-1.2-5.8-1.6c-1.6-0.3-3.3-0.5-5-0.5
		c-1.5,0-2.9,1-4.4,0c-0.2-0.1-0.6,0.1-0.9,0.2c-1.7,0.6-4.1-0.2-5.3-1.5c-0.4-0.5-1.4-0.8-2-0.7c-0.5,0.1-0.9,0.9-1.5,1.5
		c0.3,0.1,0.6,0.2,0.9,0.4c2,0.7,4.1,1.3,6,2.1s1.9,2.1,0,3.3c0.6,0.2,1.2,0.2,1.6,0.5c0.4,0.3,0.7,0.9,1.1,1.4
		c-0.4,0.2-0.7,0.6-1.1,0.6c-1,0-2.1,0-3.1-0.2c-3.1-0.7-6.1-1.4-9.2-2.1c-0.8-0.2-1.6-0.1-2-1c-0.1-0.2-0.7-0.3-0.9-0.2
		c-1,0.2-1-0.1-1-1c0.1-1.4,1-1.5,2-1.3c2.2,0.5,4.4,1,6.7,1.5c0.3,0.1,0.6,0,0.9-0.1c-0.3-0.5-0.7-0.7-1-0.8
		c-1.7-0.3-3.5-0.5-5.1-1c-2.2-0.8-3.9-0.8-6.1,0.5c-1.5,0.9-3.7,0.5-5.6,0.6c-1.8,0.1-3.6,0-4.9,0.1c-0.6,1-0.9,2-1.5,2.2
		c-0.8,0.4-1.8,0.2-2.8,0.2c-0.4,0-0.8,0-1.2,0c0,0.2,0,0.3-0.1,0.5c0.5,0.1,0.9,0.3,1.4,0.3c2.1,0,4.2-0.1,6.3-0.1
		c0.9,0,1.4-0.2,1.5-1.2c0.1-1.3,0.6-1.6,1.9-1.5c1.6,0.1,1.7,1.3,1.7,2.6c0.8-0.1,1.4-0.2,2-0.2c1.6,0,3.2,0,4.8,0.2
		c0.4,0,0.9,0.8,0.9,1.3c0.1,0.7-0.5,1-1.2,1c-0.8,0-1.6,0-2.4,0.1c-1.8,0.2-3.6,0.6-5.4,0.7c-2.1,0.2-4.3,0.2-6.4,0.3
		c-0.8,0-1.7,0-2.5-0.1c-1.1-0.1-2.3-0.4-3.4-0.4c-2.4,0-4.8,0.2-7.2,0.3c-0.7,0-1.4,0.3-2.1,0.3c-3.3,0.1-6.6,0.2-9.9,0.2
		c-1.3,0-2.6,0-3.9,0.1c-2,0.2-4,0.4-6,0.6c-2.2,0.2-4.4,0.6-6.6,0.7c-1.5,0.1-3.1-0.2-4.7-0.1c-2.9,0.4-3.4,0-3.5-2.8
		c-0.4,0-0.8,0-1.2,0.1c-1.3,0.5-2.6,1.3-3.9,1.6c-3.5,0.8-7,1.5-10.5,2.2c-0.8,0.2-1.6,0.3-2.3,0.5c-0.6,0.2-1.2,0.8-1.8,0.9
		c-1.4,0.2-2.9,0.2-4.4,0.2c-1,0-2-0.2-2-1.6c0-0.2-0.4-0.6-0.7-0.6c-1.3,0-2.7,0.2-4,0.3c0.3,1.8,0,2.1-2,2.1c-1.3,0-2.7-0.1-4,0
		c-2.6,0.1-5.1,0.4-7.7,0.4c-0.9,0-2.3,0-2.3-1.6c-0.8,0-1.5,0-2.1,0c0.2,1.3-0.3,1.9-1.5,1.9c-1.4,0-2.8-0.1-4.2,0
		c-0.7,0.1-1.4,0.5-2.3,0.9c0.9,0.5,1.4,0.7,1.9,1c0.7,0.6,1.3,1.5,2.4,0.5c0.1-0.1,0.7,0.1,1,0.2c1.4,0.3,2.8,0.4,4.4,0
		c-0.4-0.5-0.7-0.8-1.3-1.4c1.5-0.3,2.7-0.9,3.9-0.8c2,0.1,3.9,0.7,5.9,0.9c2.6,0.2,5.3,0.2,8,0.2c0.6,0,1.3-0.5,1.9-0.7
		c0.6-0.2,1.4-0.7,1.9-0.5c4.5,1.5,9.1,1.5,13.7,1.9c0.8,0.1,1.8-0.2,2.6-0.6c1.1-0.7,2.1-0.6,3.3-0.5c1.4,0.1,2.8,0,4.2-0.2
		s2.8-0.7,4.2-0.9c0.9-0.2,1.9-0.1,2.9-0.2c1.9-0.2,3.9-0.6,5.8-0.5c2,0,3.9,0.5,5.9,0.7c3,0.3,5.9,1.8,9,1.5
		c0.8-0.1,1.7-0.2,2.4,0.2c2.2,1.1,4.7,0.5,6.9,0.9c2.3,0.4,4.7,0.2,6.6,2c0.2,0.1,0.5,0.1,0.8,0.2c2.2,0.3,4.5,0.5,6.7,0.9
		c2.3,0.5,4.7-0.1,6.8,1.3c0.1,0,0.2,0,0.3,0c1.7,0.1,3.5,0.1,5.2,0.4c4.5,0.8,8.9,1.9,13.4,2.6c1.6,0.3,3.4-0.3,5.1-0.4
		c0,0,0.1,0,0.1-0.1c1.8-1.9,3.9-1.1,5.7-0.4c1.9,0.7,3.5,2.1,5.2,3.1c1.5,1,3.1,1.9,4.6,2.9c0.4,0.3,0.9,0.6,1.2,0.9
		c1.6,1.8,3.3,2.9,5.8,2.1c0.2-0.1,0.4,0,0.7,0c2.9-0.1,5.8-0.2,8.7-0.3c2.6-0.2,5.2-0.5,7.8-0.7s5.1-0.3,7.7-0.3
		c2.3-0.1,4.6-0.1,6.9-0.1c2.3,0,4.7-1.5,6.8,0.6c0.1,0.1,0.4,0,0.6,0c1.3,0.1,1.7-1,1.8-1.8c0.1-0.9-0.1-2.4-0.7-2.8
		c-1.4-0.8-3-1.6-4.6-1.6c-1.8,0-3.3-0.4-4.8-1.2c-1.1-0.6-2.3-1-3.6-0.9c-1.3,0-2.6-0.5-3.9-0.5c-3.4,0-6.8,0.2-10.2,0.4
		c-0.2,0-0.3-0.1-0.5-0.1c-1.5-0.3-3.1-1-4.5,0.4c-0.2,0.2-0.7,0.1-1,0.2c-2.5,0.5-5.2,0-7.2,2.2c-0.2,0.2-1.3-0.1-1.4-0.4
		c-0.3-0.6-0.6-1.4,0.5-1.7c0.7-0.2,1.3-0.7,1.9-1.1c-0.1-0.2-0.1-0.3-0.1-0.5c-1-0.1-2-0.1-3-0.2c-0.5,0-1.1,0-1.5-0.3
		c-1.7-0.9-3.4-1.9-5.1-2.7c-1.9-0.9-3.9-1.5-5.8-2.4c-1.4-0.7-2.7-1.6-4-2.4c-0.8-0.5-0.6-1.3-0.2-1.9c0.5-0.7,1.1-0.5,1.8-0.1
		c2.5,1.4,5.1,2.7,7.7,4c1.3,0.6,2.8,1,3.7,2.3c0.3,0.5,0.9,1,1.4,1.1c0.4,0.1,1.3-0.2,1.4-0.5c0.4-1-0.2-1.6-1-2.2
		c-0.9-0.6-1.1-1.7-0.3-2c0.9-0.4,1.9-0.5,2.9-0.7c0.4-0.1,0.8,0.1,1.2,0c0.2-0.1,0.4-0.3,0.6-0.5c-0.2-0.2-0.4-0.5-0.6-0.6
		c-0.3-0.1-0.6-0.1-0.9-0.1c-1.3,0.1-2.6,0.3-3.9,0.4c-0.4,0-1-0.2-1.2-0.5c-1-1.1-0.9-1.7,0.2-2.7c1.3-1.1,1.2-1.4-0.4-2
		c-1-0.4-2-0.7-3.1-0.9c-2.9-0.7-5.8-1.6-8.8-2C856.7,59.8,855.7,59.4,854.5,58.1z M691.2,57.7c-1.4-1.8-1.4-1.8-2.9-0.1
		c-0.1,0.2-0.2,0.4-0.4,0.5c-0.6,0.7-1.2,1-1.9,0.2c-0.3-0.2-0.7-0.5-1-0.5c-1.8,0.1-3.4,1.6-3.6,3c-0.8,0.4-1.5,0.8-2.1,1.1
		c0.4,0.5,0.9,1,1.6,1.8c0.1,1.1-0.9,2.1-1.7,3.2c-0.2,0.3-0.9,0.3-1.4,0.4c-0.7,0.1-1.5,0-2.2,0.1s-1.4,0.4-2.1,0.4
		c-1.8,0.2-3.7,0.3-5.6,0.4c0,0.2,0,0.4,0,0.6c0.5,0,1,0,1.5,0c1-0.1,1.9-0.3,2.9-0.2c1.2,0.1,2.4,0.3,3.5,0.8
		c1.2,0.6,2.3,1.4,3.4,2.2c0.7,0.6,1.3,1.4,0.7,2.4c-0.1,0.1,0.2,0.5,0.4,0.6c0.9,0.6,1.9,1,2.6,1.7c0.7,0.7,1.1,0.9,1.9,0.2
		c0.6-0.5,1.6-1,1.7-1.5c0.2-1.5,0.9-1.7,2.2-1.5c0.2,0,0.5,0,0.6-0.1c0.8-0.4,1.7-0.9,2.6-1.3c-0.8-1-2.1-1.7-3.4-2.2
		c-1.3-0.6-1.7-1.5-0.7-2.6c0.9-1,0.9-1.8-0.1-2.7c-0.2-0.2-0.6-0.3-1.1-0.6c2-1.1,3.5-1.9,5.1-2.7c0-0.2-0.1-0.4-0.1-0.6
		c-0.3-0.9,0-1.4,0.7-2c0.7-0.5,1,0,1.5,0.3c0.3,0.2,1.1,0.1,1.4-0.2c0.6-0.8,1.3-0.6,1.9-0.2c0.8,0.6,1.9,1,1.7,2.3
		c-0.2,1.6-0.9,2.2-2.8,2.7c-0.6,0.2-1.1,0.8-1.4,1.4c-0.1,0.3,0.3,1.1,0.6,1.3c1.1,0.6,1.3,1.5,1,2.2c0.6,0.9,0.9,1.7,1.4,2.3
		c0.2,0.2,0.8,0.4,1.1,0.3c0.9-0.3,1.8-0.7,2.6-1.1c0.2-0.1,0.5-0.4,0.6-0.6c0.5-1.3,1.8-1.6,3-0.8c1.3,0.9,2.6,1.9,4,2.2
		c2.1,0.5,3,1.5,2,3.4c-0.4,0.7-1.1,1.2-1.7,1.9c0.6,1.1,2.6,1.5,4.5,1c0.7-0.2,2.2-2.4,2.1-3.4c-0.3,0-0.7,0-1,0
		c-1.1-0.2-1.8-1.8-1.3-2.7c0.7-1.1,1.5-2.2,1.9-3.4c0.7-2.1,2.3-2.5,4-2.9c1.8-0.5,3.7-0.8,5.7-1.3c-1.3-1.1-0.7-1.9,0.2-2.6
		c0.9-0.7,1.5,0,2.1,0.6c-0.7,1.2-0.7,1.5,0.6,1.7c1.1,0.2,2.2,0.1,3.3,0.1c0.8,0,1.6,0,2.2,0c0-1.1,0-1.9,0-2.6
		c2.1-0.3,2.6,0.2,2.5,2.6c1.4,0,2.7,0,4.1-0.1c0.3,0,1-0.5,0.9-0.6c-0.3-1,0.2-1.6,1-1.7c0.6,0,1.2,0.7,1.8,1
		c0.4,0.2,0.8,0.6,1.2,0.6c0.8,0,1.6-0.2,2.3-0.3c0-0.2,0-0.4,0-0.5c-0.6-0.9-0.6-1.7,0.5-2.2c1.3-0.6,2.3,0,2.6,1.3
		c0.2,0.8,0.6,1.1,1.4,1c1.6-0.2,3.3-0.4,5-0.5c0.3,0,0.6,0.2,0.9,0.2c0.4,0,0.9-0.2,1.3-0.3c-0.2-0.4-0.2-1-0.5-1.2
		c-1.1-0.6-1.6-1.3-1-2.7c-1.4,0.1-2.6,0.2-3.8,0.3c-5,0.6-9.9,1.2-14.9,1.7c-2.4,0.3-4.9,0.4-7.3,0.5c-2.7,0.1-5.5-0.1-8.2-0.1
		c-0.4,0-0.8-0.1-1.2-0.1c-0.6,0-1.2,0-2,0c0.9,1,2.3,1.3,1.3,2.7c-0.6,0.9-1.4,0.9-2.2,0.5c-1.7-1-0.4-2.1,0.1-3.5
		c-4.6,0.5-9,0.7-13.2-0.8c-0.1-0.8-0.4-1.5-0.8-2.1c-0.5-0.9-0.8-2.2-2.3-2.1c-0.1,0-0.3-0.3-0.4-0.5c-0.3-1.1-1.1-1.1-2-0.9
		c-0.7,0.1-1.3,0.2-2,0.4c-0.5,0.2-0.9,0.5-1.3,0.9c-0.6,0.7-0.8,1.8-2.1,1.6c-0.2,0-0.6,0.3-0.7,0.5
		C693.5,57.2,692.4,57.6,691.2,57.7z M868.9,38c1.5,0.5,3,0.9,4.4,1.5c2,0.9,4,1.9,6.3,1.3c0.7-0.2,1.5-0.1,2.2-0.1
		c1.9,0,3.7,0,5.6,0c0.8,0,1.7-0.3,2.5,0c3.5,0.9,7.1,0.7,10.7,0.7c2.4,0,4.8,0.7,7.1-0.2c0.2-0.1,0.4,0.1,0.6,0.1
		c2.1,0.4,4.1-1,4.5-3.1c0.4-2,2.5-3.7,4.5-3.5c0.8,0.1,1.2-0.4,1.3-1.2c0-0.4,0-0.9,0-1.3c0.1-1.2-0.6-1.8-1.7-1.4
		c-1.1,0.4-2.1,0.9-3.1,1.5c-0.3,0.2-0.4,0.7-0.5,1.1c-0.2,1-0.3,2-0.5,3c-0.3,1.1-1.8,1.8-2.8,1.8c-2.4-0.2-4.9-0.3-7.3-0.3
		c-1.1,0-2.2,0.1-3.3,0.1c-1.9,0-3.8,0-5.6,0.1c-2.7,0.1-5.4,0.2-8.1,0.1c-2.2,0-4.3-0.5-6.3,0.7c-0.4,0.2-1,0-1.5,0
		c-1-0.2-2-0.4-3.4-0.7C873.6,37.1,870.6,36.8,868.9,38z M825,40.2c-0.1-0.1-0.1-0.2-0.2-0.3c-0.1,0-0.3-0.1-0.4-0.1
		c-3.3,0.2-6.5,0.4-9.8,0.6c-0.2,0-0.4,0.1-0.7,0.1c-3.7,0.6-7.5,1.3-11.2,1.7c-3.7,0.5-7.5,0.7-11.2,1.1c-3.9,0.4-7.8,0.8-11.8,1.2
		c-1.7,0.2-3.5,0.2-5.2,0.4c-3.8,0.5-7.6,1-11.4,1.6c-1.2,0.2-2.3,0.3-3.5,0.5c0,0.2,0,0.3,0,0.5c0.8,0,1.6,0.1,2.4,0.1
		c1.4-0.1,2.7-0.5,4.1-0.6c3.9-0.2,7.8-0.4,11.7-0.6c0.7,0,1.6,0,2.2-0.4c1.3-0.7,2.5-0.5,3.9-0.4c1.8,0.1,3.6,0.1,5.3,0
		c3.8-0.4,7.6-1,11.3-1.4c2.1-0.3,4.2-0.5,6.3-0.8c1-0.1,2-0.4,3-0.4c3.3-0.1,6.6-0.1,10-0.1c1.2,0,2.4,0,3-1.4
		c0.1-0.3,0.7-0.4,1-0.6C824.3,40.7,824.6,40.4,825,40.2z M662.3,55.8c-0.3,2.7-0.5,5.2-0.7,7.8c-0.1,0.7,0.3,0.9,1,0.8
		c2-0.4,4.2-0.2,6-1.4c0.2-0.1,0.5-0.1,0.8-0.2c2.7-0.2,4.9-1.8,7-3.3c0.7-0.5,1.4-1.1,2-1.8c0.3-0.3,0.3-0.8,0.4-1.2
		c-0.4-0.1-0.8-0.4-1.2-0.4c-0.7,0.1-1.4,0.4-2,0.7c-0.4,0.1-0.7,0.4-1.1,0.4c-1.9-0.1-3.8-0.2-5.7-0.5
		C666.7,56.3,664.4,57.4,662.3,55.8z M876.4,43.8c0.8,2.2,3.2,3.6,4.9,3.3c1.6-0.3,3.2-0.5,4.8-0.4c5,0.1,10.1,0.7,15.1,0
		c1.3-0.2,2.7-0.2,4-0.3c1.5-0.1,3-0.3,4.5-0.5c0.5-0.1,1-0.3,1.5-0.6c0.2-0.2,0.3-0.6,0.5-0.9c-0.3-0.1-0.6-0.3-0.9-0.3
		c-1.7,0.1-3.4,0.2-5.1,0.3c-2.8,0-5.6-0.1-8.5-0.2c-0.9,0-1.8-0.2-2.7-0.2c-3.5-0.1-7.1-0.2-10.6-0.3
		C881.5,43.7,879,43.8,876.4,43.8z M923.4,69.2c2,0,4.1,0,6.1,0c3.9-0.1,7.9-0.1,11.8-0.2c5-0.2,9.9-0.4,14.9-0.6
		c1.6-0.1,3.2-0.1,4.8-0.2c2.7-0.1,5.3-0.3,8-0.4c0.6,0,1.3,0.5,1.7-0.5c-0.5-0.2-1.1-0.6-1.6-0.6c-2.9,0-5.7,0.1-8.6,0.1
		c-4.1,0-8.2-0.2-12.4-0.2c-3.5,0-6.9,0.1-10.3,0.3c-1.9,0.1-3.7,0.4-5.9,0.6c0.5-0.6,0.8-0.9,1.1-1.3c-0.9-0.8-2-0.1-2.1,0.3
		c-0.4,1.6-1.4,1.2-2.3,1.1c0.3-0.3,0.6-0.5,0.9-0.8c-0.1-0.2-0.1-0.4-0.2-0.5c-1.3,0.1-2.6,0.2-3.8,0.4
		C923,66.9,923,66.9,923.4,69.2z M921,79.6c0.1,1.1,0.5,1.7,1.5,1.6c1.5-0.1,3-0.2,4.5-0.4c5-0.4,9.9-0.8,14.9-1.2
		c3.8-0.3,7.6-0.6,11.4-0.9c4.2-0.3,8.4-0.6,12.7-1c1.4-0.1,2.8-0.4,4.2-0.6c0-0.1,0-0.3,0-0.5c-0.3-0.1-0.5-0.3-0.8-0.3
		C953.3,77.5,937.2,78.5,921,79.6z M780.3,62.7c2,0,4.1,0.1,6.1-0.1c3.7-0.3,7.4-0.8,11.2-1.1c2.5-0.2,5-0.2,7.6-0.4
		c0.3,0,0.7-0.3,0.8-0.5c0.4-1.1,1.3-1.2,2.3-1.1c0.3,0,0.7-0.3,1.3-0.5c-3.9,0-7.4,0-11,0.1c-2.2,0.1-4.3,0.3-6.5,0.6
		c-2.8,0.3-5.6,0.6-8.3,0.9c-0.2,0-0.4,0.1-0.5,0.2C782.2,61.3,781.3,62,780.3,62.7z M792.8,54.7c-0.7,0-1.1,0-1.6,0
		c-2.1,0.2-4.2,0.5-6.3,0.7c-0.8,0.1-1.7,0.1-2.5,0.2c-2.8,0.4-5.6,0.7-8.4,1.1c-1.6,0.2-3.3,0.3-4.8,0.8c-1.2,0.4-1.8,0.1-2.2-0.9
		c-0.2-0.7-0.6-0.8-1.2-0.6c-0.8,0.2-1.6,0.3-2.4,0.4c-1.5,0.2-2.9,0.3-4.7,0.6c0.9,0.7,1.5,1.1,2.1,1.5c-0.3,0.5-0.5,0.8-0.8,1.4
		c2.6-0.3,4.9-0.5,7.3-0.8c1.6-0.2,3.1-0.4,4.7-0.8c2.8-0.7,5.5-1.7,8.5-0.9c0.4,0.1,0.8,0,1.2,0c2.2-0.3,4.3-0.6,6.5-0.9
		c0.3-0.1,0.7-0.1,1.1,0C790.6,56.8,791.9,56.5,792.8,54.7z M882.4,64.2c2.3,0,4.6,0.1,6.9,0.1c2,0,4,0.1,6.1,0
		c0.8,0,1.6-0.5,2.5-0.7c0.4-0.1,0.9-0.3,1.2-0.1c1.7,0.9,3.4,1.1,5.4,0.7c2.6-0.5,5.3-0.5,8-0.7c0.8,0,2,0,2.4,0.5
		c0.8,0.9,1.7,1.2,2.8,1.1c0.3,0,0.9-0.3,0.9-0.5c0-0.4-0.2-1-0.5-1.2c-0.4-0.3-0.9-0.3-1.4-0.4c-2.3-0.2-4.7-0.4-7-0.6
		c-0.3,0-0.6,0-0.9,0c-3.5,0-7.1,0.1-10.6,0.1c-1.9,0-3.7-0.3-5.6-0.3c-2.7,0-5.3,0.2-8,0.1C883.1,62.5,882.3,62.7,882.4,64.2z
		 M889.7,53.6c-0.1,0.2-0.1,0.4-0.2,0.6c0.9,0.4,1.8,1.2,2.8,1.2c2.3,0.1,4.6-0.1,6.9-0.1c3.5-0.1,6.9-0.2,10.4-0.3
		c1.4,0,2.8-0.1,4.2-0.2c1.3-0.1,2.6-0.2,3.9-0.4c0.3,0,0.7-0.4,0.7-0.5c-0.1-0.3-0.3-0.8-0.6-0.9c-0.3-0.1-0.7,0-1,0
		c-1.2,0.1-2.5,0.4-3.7,0.4c-3.2,0.1-6.4,0.1-9.5,0.1c-3.4,0-6.8,0-10.2,0C892.2,53.6,891,53.6,889.7,53.6z M794.1,54.6
		c0,0.2,0,0.4,0,0.6c0.7,0.3,1.4,0.7,2.1,0.8c0.8,0.1,1.7,0.1,2.6-0.1c1.5-0.3,3.2,0.3,4.6-0.8c0.5-0.4,1.5-0.6,1.9-0.3
		c2.2,1.4,4.6,0.3,6.9,0.5c2.6,0.2,5.2-0.6,7.8-0.9c0.9-0.1,1.1-0.7,1.1-1.4c0-0.2-0.7-0.6-1.1-0.6c-1.5,0.1-3.1,0.5-4.6,0.5
		c-1.4,0-2.7,0-3.9,0.9c-0.5,0.4-1.5,0.6-2.1,0.4c-1.3-0.4-2.6-1.2-4-0.1c-0.1,0.1-0.4,0-0.7,0c-2.4-0.1-4.9-0.3-7.3-0.2
		C796.2,53.9,795.1,54.4,794.1,54.6z M880.9,49.9c0,0.2,0,0.4,0,0.5c0.4,0.1,0.8,0.2,1.2,0.2c1.4,0,2.8,0,4.1,0
		c1.2,0.1,2.5,0.3,3.7,0.3c3.7-0.1,7.5-0.3,11.2-0.4c2.2-0.1,4.5-0.1,6.7-0.1c1.3,0,2.6-0.2,3.8-0.3c2.1-0.1,4.1,0,6.2-0.1
		c0.3,0,0.9-0.6,0.9-0.8c-0.1-0.4-0.5-0.8-0.9-1.1c-0.1-0.1-0.3,0-0.5,0c-2.6-0.1-4.9,1.5-7.6,0.6h-0.1c-3.7,0.3-7.4,0.8-11,1
		c-4.1,0.1-8.2-0.1-12.3-0.1C884.6,49.7,882.7,49.8,880.9,49.9z M898.9,68.1c1.5,1.8,2.6,1.8,3.9,0.7c0.4-0.4,1.3-0.3,1.9-0.3
		c0.5,0.1,0.9,0.6,1.4,0.7c2,0.1,4,0,6-0.1c0.9,0,1.8-0.4,1.7,1.1c0,0.3,0.5,0.8,0.8,0.9c0.9,0.1,1.9,0,2.8,0V71
		c0-0.9,0.3-1.9,0-2.7c-0.2-0.4-1.4-0.5-2.1-0.7c-1.8-0.3-3.7,0.5-5.5-0.6c-0.3-0.1-0.7,0-1.1,0.1c-0.9,0.2-1.9,0.6-2.8,0.6
		c-1.5,0-3-0.4-4.6-0.4C900.5,67.4,899.8,67.8,898.9,68.1z M763.4,75.6c-8.4-0.8-16.7-0.7-25.4-0.7c0.8,0.6,1.4,1.1,2,1.6
		c2-1.2,2-1.2,3.7,0.4c0.2,0.1,0.7,0.1,0.9,0c1.7-1.3,1.9-1.3,3.5,0.2c0.7,0.6,2.3,0.7,2.8,0.1c0.9-1,3.3-1.7,4.7-1.3
		c0.8,0.2,1.6,0.3,2.5,0.4c0.8,0.1,1.5,0.1,1.7,1.1c0.1,0.4,0.6,0.8,1,0.9c0.4,0,0.8-0.3,1.1-0.6C762.4,77,762.8,76.4,763.4,75.6z
		 M914.2,58.4c-0.1-0.1-0.1-0.2-0.2-0.3c-8.4,0.1-16.7,0.1-25.1,0.2c0,0.1,0,0.3-0.1,0.4c0.3,0.1,0.7,0.4,1,0.4
		c2.1,0.2,4.1,0.4,6.2,0.5c3.7,0.2,7.5,0.6,11.2,0c1.7-0.3,3.4-0.2,5.2-0.5C913.1,59,913.7,58.6,914.2,58.4z M680,46
		c0,0.2-0.1,0.4-0.1,0.7c3.9,0.1,7.1,1.2,9,5.2c1.4-1.1,2.6-2.2,4-3.3c-0.9-0.4-1.9-0.4-2.2-0.9c-1.7-2.3-4.2-2.3-6.6-2.4
		C682.6,45.3,681.3,45.8,680,46z M891.8,74.7c0.5-0.3,1-0.5,1.3-0.9c0.9-0.9,1.9-0.7,2.4,0.2c0.7,1.1,1.3,0.8,1.9,0.2
		c0.8-0.8,1.6-0.6,2.4-0.2c0.4,0.2,0.9,0.5,1.3,0.5c2-0.1,4-0.3,6-0.5c0.7-0.1,1.4-0.4,2-0.6c0-0.2,0-0.4,0-0.7
		c-0.7-0.1-1.4-0.2-2.1-0.2c-1.2,0-2.5,0.2-3.7,0.2c-1,0-1.9-0.2-2.9-0.2c-2.2,0-4.4,0-6.6,0C892.2,72.4,891.9,72.6,891.8,74.7z
		 M843.8,53.6c0.1-0.2,0.2-0.5,0.2-0.7c-0.5-0.2-1-0.5-1.5-0.6c-1.3-0.3-2.5-0.3-3.4-1.5c-0.2-0.2-0.9-0.2-1.3-0.1
		c-0.6,0.1-1.4,0.6-1.7,0.4c-1.2-0.8-2.1-0.1-3.1,0.1c-1.7,0.4-0.7,1.4-0.6,2.2c0.2,1.1,1,0.6,1.6,0.4c0.4-0.1,0.8-0.3,1-0.6
		c0.9-1.2,1.9-1,3.2-0.7C840,52.9,841.9,53.2,843.8,53.6z M956.4,64.9c0,0.2,0,0.4,0.1,0.6c0.7,0,1.4,0,2.2,0
		c3.6,0.1,7.1,0.3,10.7,0.4c0.8,0,1.6-0.1,2.4-0.3c0.3-0.1,0.6-0.5,0.9-0.8c-0.4-0.2-0.7-0.6-1.1-0.6c-1.2-0.1-2.4,0-3.6,0.1
		c-2.3,0.1-4.5,0.1-6.8,0.3C959.5,64.5,958,64.7,956.4,64.9z M866.2,51.7c1.9,0.8,3.7,1.6,5.5,2.5c1,0.4,1.7,0.1,1.8-0.8
		c0.1-1.3-1.2-2.9-2.5-3.1c-0.8-0.1-1.5-0.2-2.3-0.2C867.3,50.1,866.3,50.8,866.2,51.7z M876.7,55c0.5,0.2,0.9,0.5,1.3,0.5
		c2.9-0.1,5.8-0.1,8.7-0.3c0.5,0,1-0.7,1.7-1.1C886.1,53,878.4,53.7,876.7,55z M924.4,82.4c0,0.1,0,0.2,0,0.4
		c2.4,1,17.3-0.4,18.6-1.8C936.7,81.5,930.6,82,924.4,82.4z M867.4,46.1c0.8,0.5,1.4,1.1,2.1,1.1c2.1,0.2,4,0.8,5.9,1.8
		c0.2,0.1,0.5,0.2,0.8,0.2c0.4-1.4-0.3-2.2-1.4-2.6C872.6,45.7,870.3,44.2,867.4,46.1z M736.8,74.9c-3.3-0.2-6.5-0.4-9.6-0.6
		c-0.5,0-1.1,0.2-1.6,0.3c0,0.2,0,0.3,0.1,0.5c0.5,0,0.9,0,1.4,0.1c0.4,0.1,0.9,0.4,1.1,0.7c0.7,1.2,1.3,1.3,2.3,0.3
		c0.9-0.9,2.2-1,3.1-0.3C735.3,77.2,735.9,77.1,736.8,74.9z M898.4,67.3c-1.2,0-2.4,0-3.6,0c-0.1,0-0.3,0.2-0.4,0.3
		c-0.7,1.2-2,0.9-2.7,0.5c-1.5-0.9-2.6-0.4-4.2,0.2c0.8,0.4,1.3,1,1.8,1c1.6,0.2,3.3,0.2,4.9,0.2c1.6,0,2.6-1.8,4.2-1.8
		C898.4,67.7,898.4,67.7,898.4,67.3z M709.5,50.4c0.8,0.6,1.5,1.3,2.3,1.5c0.7,0.2,1.6-0.2,2.3-0.4c1.1-0.3,2.1-0.7,3.1-1
		c0-0.2-0.1-0.3-0.1-0.5c-1.6-0.3-3.1-0.5-4.7-0.9C711.4,48.8,710.5,49,709.5,50.4z M922.2,65.3c0,0.2,0,0.4,0,0.6
		c0.6,0,1.2,0,1.8-0.2c0.5-0.1,0.9-0.5,1.4-0.5c2.2-0.2,4.5-0.3,6.8-0.4c1.1-0.1,2.1-0.1,3.2-0.2c1-0.1,2-0.2,3-0.4
		c1-0.1,2-0.4,2.9-0.6c0-0.1,0-0.2-0.1-0.3C934.9,63.6,928.5,64.4,922.2,65.3z M771.8,76.4c-1.2-0.5-6.8-0.8-7.5-0.4
		c0.2,0.5,0.5,1,0.7,1.6c0.5,1,0.7,0.9,1.5,0.1c0.6-0.6,1.5-0.9,2.4-1c0.2,0,0.6,1,1,1.5c0.2,0.3,0.5,0.7,0.6,0.7
		c0.3-0.1,0.7-0.4,0.8-0.7C771.6,77.7,771.6,77.1,771.8,76.4z M824.6,49c-4.9,0.4-9.7,0.9-14.6,1.3C811.4,51.3,822.5,50.3,824.6,49z
		 M819.2,59.1c0.1-0.1,0.2-0.2,0.3-0.3c-0.2-0.4-0.4-1-0.7-1.1c-2.2-0.2-4.4-0.2-5.9,1.8c-0.2,0.2,0,0.8,0,1.2
		c1-0.3,2.3-0.3,3.1-0.9C817,59,817.8,58.4,819.2,59.1z M778.8,79.3c3,1.2,4,0.4,4.1-1.9C779.2,76.9,779.2,76.9,778.8,79.3z
		 M738.7,48.1c0,0.1,0,0.3,0,0.4c1.3,0.6,11.4,0.1,12.1-0.5C746.8,48,742.7,48.1,738.7,48.1z M827.3,78.9c0.2,0.8,0.2,1.8,0.5,1.9
		c1.7,0.5,3.4,0.9,5.2,1.2c0.2,0,0.3-0.2,0.8-0.4c-1.2-0.4-2-0.7-2.9-0.9c-1-0.2-1.7-0.6-1.8-1.6c0-0.3-0.4-0.7-0.6-0.7
		c-0.9-0.2-1.8-0.3-2.6-0.4c0,0.1,0,0.2-0.1,0.3C826.4,78.5,826.9,78.7,827.3,78.9z M823.6,51.9c0.6,0.9,0.9,1.8,1.5,2.1
		c0.8,0.3,1.8,0.1,2.7,0c0.8-0.1,0.9-0.5,0.4-1.2C827.2,51.1,825.6,51.5,823.6,51.9z M720.4,49.9c0,0.2,0,0.4,0.1,0.5
		c3.6-0.1,7.2,0.1,10.5-1.8C727.5,49.1,723.9,49.5,720.4,49.9z M875.5,64.9c1-0.2,1.7-0.2,2.2-0.5c0.4-0.3,0.6-1,0.9-1.4
		c-0.4-0.2-0.8-0.5-1.3-0.6c-0.4-0.1-1-0.3-1.3-0.1c-0.6,0.3-1.3,0.8-1.5,1.4C874.4,63.9,875.2,64.5,875.5,64.9z M808.4,81.8
		c0.1-0.2,0.1-0.4,0.2-0.6c-0.5-0.2-1.1-0.4-1.6-0.5c-1-0.2-2.1-0.3-3.1-0.7c-0.9-0.4-1.6-0.3-2.5,0.7c0.6,0.3,1.1,0.7,1.6,0.7
		C804.9,81.6,806.7,81.7,808.4,81.8z M851.2,41.4c1.5,0,3,0,4.5,0c-0.5-1.8-2.8-2.3-5.1-1.5C850.8,40.3,851,40.8,851.2,41.4z
		 M722.3,75c-1.8,0.1-3.5,0.4-3.8,2.6C720.9,78.3,722.1,77.4,722.3,75z M915.7,40.4c0.1,0.1,0.1,0.2,0.2,0.4c0.9-0.1,2,0.2,2.7-0.3
		c0.5-0.3,0.8-1.6,0.6-2.3c-0.2-0.8-1.2-0.8-1.7-0.2C916.8,38.8,916.3,39.6,915.7,40.4z M915.8,58.4c0.2,0.5,0.4,1,0.6,1.5
		c0.4,1.1,1.3,0.5,1.9,0.5c0.3,0,0.8-0.7,0.7-1.1C918.9,57.9,917.2,57.5,915.8,58.4z M793.2,80.2c0.1,0.2,0.2,0.4,0.2,0.5
		c0.8,0,1.6,0,2.5,0.1c0.7,0.1,1.4,0.3,1.5-0.7s-0.7-1.6-1.5-1.4C795,79,794.1,79.7,793.2,80.2z M887.9,74.6c0-0.2,0.1-0.4,0.1-0.6
		c-0.7-0.6-1.3-1.4-2.1-1.6c-1.4-0.4-1.3,1.2-2.1,2C885.2,74.5,886.5,74.5,887.9,74.6z M852.8,44.5c0.9,1.1,4.4,1.5,5.1,0.8
		c0.2-0.2,0.3-0.5,0.3-0.7c-0.1-0.2-0.4-0.4-0.6-0.4C856.1,44.3,854.6,44.4,852.8,44.5z M706.6,48.6c-0.3-1.8-6.8-3.2-8.3-1.7
		C701.4,45.4,703.7,48,706.6,48.6z M814.6,76.1c-0.7-1.2-7-2.3-7.8-1.5C809.4,75.2,811.9,75.6,814.6,76.1z M830.1,48.5
		c0,0.2,0,0.4,0,0.6c1.5,0,2.9,0,4.4-0.1c0.2,0,0.4-0.4,0.6-0.6c-0.2-0.1-0.5-0.4-0.7-0.4C833,48.2,831.5,48.4,830.1,48.5z
		 M703.8,81.4c0.7-0.8,1.1-1.3,1.4-1.9c0-0.1-0.7-0.8-0.9-0.8c-0.7,0.2-1.3,0.7-1.9,1.1C702.8,80.3,703.1,80.7,703.8,81.4z
		 M881.8,58.5c1.3,1.3,4.1,1.1,4.8-0.3C885,58.3,883.6,58.4,881.8,58.5z M697.7,77.3c-1.2-1-2.1,0.2-3.3,0.4
		C696.6,79.6,696.9,79.5,697.7,77.3z M876.5,72.5c0.6,0.3,1,0.6,1.3,0.7c0.7,0.2,1.4,0.2,2.1,0.4c0.6,0.2,1,0.5,1.8,0.9
		C880.5,72.1,879.2,71.6,876.5,72.5z M883.6,69.2c1.6,0,2.8-0.6,3.2-1.5c-0.5,0-1,0-1.4-0.1C883.7,67.3,883.7,67.3,883.6,69.2z
		 M787.5,80.6c0.4-0.6,0.8-0.9,0.8-1.3c0.1-0.6-0.2-1.4-1-1.2c-0.5,0.1-0.9,0.8-1.3,1.3C786.5,79.6,786.8,80,787.5,80.6z
		 M812.2,79.3c0,0.1,0,0.3-0.1,0.4c1,0.2,1.9,0.5,2.9,0.6c0.3,0,0.6-0.4,0.9-0.7c-0.3-0.2-0.6-0.6-0.9-0.6
		C814.1,79,813.2,79.2,812.2,79.3z M916.8,43.7c0,0.2,0,0.4-0.1,0.6c0.8,0.2,1,1.6,2.1,0.8c0.3-0.2,0.2-1,0.3-1.5
		C918.4,43.7,917.6,43.7,916.8,43.7z M664.7,47.8c0,0.1,0,0.3,0,0.4c1.5,0,3,0,4.4,0c0-0.2,0-0.3,0-0.5
		C667.6,47.2,666.1,47.9,664.7,47.8z M854.7,36.1c0,0.2,0,0.4,0,0.6c1.5-0.1,3-0.2,4.5-0.3c0-0.1,0-0.2,0-0.3
		C857.7,36.1,856.2,36.1,854.7,36.1z M674.8,81.9c-1.7-0.1-3-0.2-4.4-0.2c0,0.2,0,0.3,0,0.4C671.8,82.4,673.1,83,674.8,81.9z
		 M694.7,82.7c1.2,0.3,2.4,0.7,3.6,1C695.7,81.9,695.7,81.9,694.7,82.7z M775.2,79.1c0.1-0.8,0.3-1.3,0.2-1.8
		c-0.2-0.6-1.3-0.8-1.8-0.5C774.1,77.4,774.5,78.1,775.2,79.1z M703.9,73.1c-1-0.8-1.6-0.7-1.9,0.1c-0.1,0.3,0.2,0.6,0.3,1
		C702.8,73.9,703.3,73.5,703.9,73.1z M916.9,77.3c-1,0-1.7-0.1-2.5-0.1C915.7,78.4,916.1,78.4,916.9,77.3z M867.6,41.4
		c1.4,1,1.9,1,2.9,0C869.5,41.4,868.7,41.4,867.6,41.4z M786.7,74.9c0-0.2,0.1-0.3,0.1-0.5c-0.8-0.1-1.6-0.3-2.4-0.4
		c0,0.2-0.1,0.4-0.1,0.6C785.1,74.7,785.9,74.8,786.7,74.9z M668.9,75.3c0,0.2-0.1,0.4-0.1,0.6c1.2,0.2,2.4,0.3,3.6,0.5
		c0-0.1,0-0.2,0-0.3C671.3,75.8,670.1,75.5,668.9,75.3z M707.5,83.5c0,0.1,0.1,0.3,0.1,0.4c0.9-0.2,1.9-0.5,2.8-0.7
		c0-0.1-0.1-0.3-0.1-0.4C709.4,83.1,708.5,83.3,707.5,83.5z M820.3,80.6c0-0.2,0-0.4,0.1-0.6c-0.9-0.2-1.7-0.4-2.6-0.6
		c0,0.1-0.1,0.3-0.1,0.4C818.6,80.1,819.5,80.4,820.3,80.6z"/>
	<path d="M995.8,44.7c-1.1,0.2-2.2,0.3-3.3,0.5c-2.4,0.3-4.9,0.5-7.4,0.8c-0.5,0.1-0.9,0.5-1.4,0.8c0,0.1,0,0.3,0,0.5
		c1.1,0.2,2.1,0.5,3.2,0.5c1.8,0.1,3.5,0.1,5.3,0c1-0.1,1,0.6,1.1,1.2c0.1,0.7-0.2,1.1-0.9,1.1c-2.8,0.1-5.6,0.3-8.4,0.4
		c-1.1,0-2.1,0.1-3.2,0.1c-1.3,0.1-2.5,0.1-3.6-0.8c-0.4-0.3-1-0.2-1.5-0.5c0.2,0,0.5,0,0.7-0.1c0.4-0.3,0.8-0.7,1.1-1.1
		c-0.4-0.3-0.7-0.7-1.1-0.8c-1.7-0.2-3.5-0.4-5.2-0.6c0-0.1,0-0.2,0-0.4c2.2-0.2,4.3-0.3,6.5-0.5c0.9-0.1,1.8-0.1,2.7-0.1
		s1.3-0.4,1.3-1.3c0-0.6,0.3-1.2,0.6-1.9c0,0-0.2-0.1-0.6-0.4c0.4,0,0.8-0.2,0.9-0.1c1.2,1.1,2.6,0.6,3.9,0.4
		c1.9-0.2,3.8-0.2,5.6-0.3C993.7,42.1,995.3,42.3,995.8,44.7z"/>
	<path d="M951.7,34c1.1-0.4,1.8-0.9,2.6-1.1c1.9-0.4,3.8-0.8,5.8-1.1c1.1-0.1,2.3,0.1,3.5,0c0.4,0,1.1-0.5,1.2-0.8
		c0.1-1,0.7-1,1.4-1c3.7-0.2,7.4-0.3,11.1-1.3c0.9-0.3,2-0.2,3-0.2c1.7-0.1,3.4-0.3,5.1-0.4c1.5-0.1,3,0,4.5-0.1
		c2.7-0.1,5.3,1,8.1,0.4c0.8-0.2,1.9,0.8,3,1.3c-0.9,1.1-1.8,1.4-3,1.3c-1.8-0.2-3.6-0.1-5.4-0.1c-2.4,0-5,0.4-7.2-0.3
		c-1.8-0.6-3.5-0.2-5.3-0.4c-1.6-0.2-3.3,0.6-5,1c-1.4,0.4-2.8,0.9-4.3,1.3c-2.1,0.4-4.2,0.7-6.3,1c-1.4,0.2-2.8,0.2-4.2,0.2
		c-0.1,0-0.3,0-0.4,0c-2.2,1.1-4.7,0.6-7,1c-0.1,0-0.3,0-0.4,0C952.4,34.5,952.3,34.4,951.7,34z"/>
	<path d="M960.2,52.3c-3.1,2.1-6.6,2-10,2.1c-3.3,0.1-6.6,0.1-9.9,0c0.6-0.1,1.2-0.1,1.7-0.2c2.6-0.3,5.3-0.9,7.9-1
		c1.9,0,3.7-0.1,5.6-0.7C957.9,51.8,957.9,51.8,960.2,52.3z"/>
	<path d="M924.4,48.2c0.5-0.2,0.9-0.5,1.3-0.6c3.3-0.3,6.7-0.6,10.1-0.8c1.4-0.1,2.7,0,4.1-0.1c2.9,0,5.8,0,8.7,0.1
		C940.6,47.4,932.6,47.8,924.4,48.2z"/>
	<path d="M969.9,47.3c-7.3,0.9-14.5,1.8-21.7,2.7c7.1-1.9,14.5-1.9,21.7-3C969.8,47.1,969.9,47.2,969.9,47.3z"/>
	<path d="M980.1,42.6c-2.9,0.3-5.9,0.6-8.8,0.8c0-0.1,0-0.3,0-0.4c2.9-0.4,5.9-0.8,8.8-1.1C980,42.2,980.1,42.4,980.1,42.6z"/>
	<path d="M929.9,51.5c-1.6,0-3.2,0-4.8,0c0-0.1,0-0.2,0-0.2c1.6,0,3.2,0,4.7,0C929.8,51.3,929.8,51.4,929.9,51.5z"/>
	<path d="M961.3,51.6c1-0.1,2.1-0.2,3.1-0.4c0,0.2,0,0.3,0.1,0.5c-1,0.2-2.1,0.3-3.1,0.5C961.4,51.9,961.4,51.7,961.3,51.6z"/>
	<path d="M951.9,46.5c1.6-0.2,3.2-0.3,4.8-0.5v0.1c-1.6,0.3-3.1,0.5-4.7,0.8C951.9,46.8,951.9,46.7,951.9,46.5z"/>
	<path d="M933.5,51.7c-0.9,0-1.7-0.1-2.6-0.1c0-0.1,0-0.3,0-0.4c0.9,0,1.7-0.1,2.6-0.1C933.5,51.3,933.5,51.5,933.5,51.7z"/>
	<path class="st1" d="M658.7,57.2c-0.2,2.6-0.6,4.7-0.6,6.9c-0.1,2.4,0.1,4.7,0.2,7.1c0,0.2,0,0.4,0,0.5c-0.5,1.2-0.9,2.4-1.4,3.6
		c-0.1,0.3-0.6,0.5-1,0.6c-2.5,0.6-4.9,1.3-7.4,1.9c-2.4,0.5-4.7,1-7.1,1.5c-0.1,0-0.3,0.1-0.4,0.1c-3.8-0.4-7.3,0.9-10.9,1.6
		c-1.4,0.3-2.9,0.3-4.4,0.6c-5.4,1.1-10.7,2.2-16.1,3.3c-2.9,0.6-5.7,1.4-8.6,2c-2.7,0.5-5.4,0.8-8.2,1.1c-3.7,0.4-7.4,0.6-11.1,1
		c-2.1,0.2-4.2,0.7-6.4,1s-4.4,0.4-6.6,0.7c-2.7,0.3-5.5,0.7-8.2,1c-3,0.3-5.9,0.5-8.9,0.8c-2.3,0.2-4.7,0.5-7,0.7
		c-1.3,0.1-2.6,0.2-4,0.3c-2.5,0.2-5,0.4-7.5,0.8c-5.1,0.7-10.1,1.5-15.2,2.1c-4.4,0.5-8.7,0.8-13.1,1.2c-2,0.2-4,0.6-6,0.7
		c-1.5,0.1-3,0-4.6,0c-2.2,0-4.5,0.1-6.7,0.1c-2.7,0-5.4-0.1-8.1-0.2c-2.1-0.1-4.2-0.1-6.2-0.3c-2-0.2-4-0.5-6.1-0.7
		c-4.1-0.4-8.2-0.6-12.3-1c-1.4-0.1-2.8-0.4-4.2-0.5c-1.9-0.2-3.9-0.3-5.8-0.4c-3.6-0.2-7.2,0.1-10.7-0.8c-1-0.2-2-0.3-3-0.1
		c-2,0.4-3.8,0-5.7-0.4c-1.6-0.4-3.3-0.4-5-0.5c-3.4-0.3-6.7-0.5-10.1-0.7c-2.7-0.2-5.5-0.4-8.2-0.4c-2.4-0.1-4.9,0.1-7.3-0.1
		c-1.7-0.1-3.4-0.5-5.1-0.7c-3.8-0.5-7.6-1.2-11.5-1.6c-1.9-0.2-3.8,0.1-5.7,0c-3.8-0.2-7.5-0.6-11.3-0.9c-1-0.1-2,0-3.1-0.1
		c-4.6-0.3-9.1-0.6-13.7-0.8c-1.9-0.1-3.9,0.2-5.8,0.1c-2.7-0.1-5.3-0.4-8-0.6s-5.5-0.3-8.2-0.5c-4-0.2-8.1-0.5-12.1-0.7
		c-3-0.1-6.1-0.1-9.1-0.3c-4.4-0.2-8.8-0.5-13.2-0.8c-3.8-0.3-7.7-0.6-11.5-0.9c-2.4-0.2-4.9-0.4-7.3-0.4s-4.9,0.4-7.3,0.3
		c-4.9-0.3-9.8-1-14.8-1.4c-3-0.3-6-0.6-9-0.5c-3.2,0-6.4,0.7-9.7,0.7c-3.9,0.1-7.8-0.1-11.7-0.3c-2.5-0.1-5-0.3-7.6-0.6
		c-2-0.2-3.9-0.7-5.9-0.9c-3.6-0.4-7.2-0.7-10.8-1.1c-2.8-0.3-5.5-0.6-8.3-0.9c-4.7-0.6-9.4-1.1-14-1.7c-2.6-0.3-5.2-0.9-7.8-1.3
		c-4.9-0.6-9.7-1.2-14.6-1.7c-6.1-0.7-12.2-1.6-18.3-2.2c-5.3-0.5-10.5-0.8-15.8-1.3c-2.4-0.2-4.7-0.4-7.1-0.5
		c-2.2-0.1-4.4,0.1-6.7,0c-3.8-0.3-7.6-0.7-11.4-1.1c-3.1-0.3-6.1-0.6-9.1,0.3c-0.9,0.3-2,0-3.1-0.2c-5.9-1.2-11.9-2.4-17.8-3.7
		c-2.8-0.6-5.5-1.5-8.1-2.4c-0.7-0.2-1.2-0.9-1.8-1.4c-1.2-1.1-2.5-2.1-3.6-3.3c-0.5-0.5-0.8-1.3-0.8-2C44,55.3,44.4,53.6,45,52
		c0.1-0.2,0.3-0.5,0.5-0.6c1.7-0.5,3.4-0.8,5-1.5c2.3-1,4.7-0.8,7-1.1c1.3-0.2,2.5-0.6,3.8-0.8c1.2-0.2,2.5-0.1,3.7-0.5
		c2.4-0.8,4.9-0.7,7.3-1.5c1.6-0.6,3.5-0.5,5.3-0.8c0.5-0.1,0.9-0.5,1.3-0.5c2.7-0.2,5.4-0.2,8.1-0.4c1.9-0.1,3.8-0.3,5.7-0.5
		c6.8-0.9,13.7-1.2,20.5-0.8c3.1,0.2,6.3-0.1,9.5-0.2c2.2,0,4.4,0.1,6.6,0c3.8-0.1,7.5-0.3,11.3-0.5c3.6-0.2,7.1-0.3,10.7-0.5
		c3.2-0.2,6.4-0.5,9.6-0.5c2.2,0,4.4,0.5,6.6,0.5c2.9,0,5.9,0.5,8.8-0.4c0.7-0.2,1.6-0.1,2.4-0.2c2.4-0.2,4.8-0.6,7.3-0.7
		c1.9-0.1,3.8,0.2,5.6-0.3c2.4-0.6,4.7,0,7-0.3c3-0.3,6.1-0.5,9.1-0.7c1.6-0.1,3.2-0.2,4.8-0.3c3-0.1,5.9-0.3,8.9-0.3
		c1.1,0,2.1,0.2,3.2,0.2c1.2,0.1,2.3,0.2,3.5,0.1c4.3-0.3,8.7-0.8,13,0c0.3,0.1,0.8,0.2,1,0c1.2-1,2.7-0.4,4-0.5
		c1.5-0.2,3.1,0.2,4.6,0c5.6-1,11.2-0.1,16.8-0.3c2.8-0.1,5.7,0.1,8.5,0c1.8-0.1,3.6-0.5,5.4-0.5c4.3-0.1,8.6,0,12.9-0.2
		c3.8-0.1,7.6-0.5,11.3-0.5c4.1,0,8.3,0.2,12.4,0.3c2.4,0.1,4.8,0,7.2,0.1c1.9,0.1,3.8,0.4,5.8,0.5c1.3,0.1,2.6,0.1,3.9,0.1
		c1.8,0,3.5-0.2,5.3-0.2c2.5,0.1,4.9,0.4,7.4,0.5c3.2,0.1,6.4,0,9.7-0.1c1.7,0,3.5-0.6,5.1-0.3c2.2,0.5,4.4,0,6.6,0.2
		c1.3,0.1,2.6-0.1,3.8-0.1c2.7,0.1,5.4,0.3,8.1,0.5c2.5,0.2,5,0.6,7.6,0.7c3.5,0.2,7,0.4,10.5,0.3c3.5-0.1,6.9,0.2,10.3,0.9
		c0.2,0,0.4,0.1,0.5,0c2.8-0.8,5.5-0.1,8.2,0.1c2.9,0.1,5.8,0.6,8.7,0.7c1.3,0,2.7-0.5,4-0.5c4.3-0.1,8.5,0,12.8-0.1
		c2.8-0.1,5.5-0.3,8.3-0.5c1.6-0.1,3.3-0.1,4.9-0.1c3.6-0.2,7.2-0.5,10.8-0.5c3.2,0,6.4,0.3,9.6,0.3c0.8,0,1.6-0.2,2.4-0.3
		c1.8-0.1,3.5-0.2,5.3-0.4c1.4-0.2,2.9-0.5,4.3-0.7c0.9-0.1,1.9-0.2,2.9-0.2c2-0.1,4-0.2,6-0.3c2.4-0.1,4.8-0.4,7.2-0.5
		c3.4-0.1,6.8,0,10.3,0c1.7,0,3.4-0.1,5.2,0c2.3,0.2,4.5,0.5,6.7,0.7c2.5,0.3,5,0.4,7.5,0.7c4.9,0.5,9.7,1,14.6,1.5
		c3.2,0.3,6.4,0.7,9.5,1.1c4.6,0.6,9.2,1.3,13.7,1.9c6.3,0.9,12.5,1.8,18.8,2.5c3.9,0.5,7.8,0.7,11.7,1.1c2.5,0.3,5,0.9,7.5,1
		c4.4,0.3,8.8,0.3,13.2,0.4c2.2,0.1,4.4,0.2,6.7,0.3c1.4,0.1,2.9,0.1,4.3,0.1c2.9,0.1,5.8,0.3,8.7,0.3c3.7,0,7.4-0.3,11.1-0.3
		c0.8,0,2.1,0.9,2.4,1.7C657.7,52.7,658.2,55.1,658.7,57.2z"/>
	<path class="st2" d="M854.5,58.1c1.2,1.3,2.2,1.7,3.6,1.9c3,0.5,5.9,1.3,8.8,2c1,0.3,2.1,0.6,3.1,0.9c1.6,0.6,1.7,0.9,0.4,2
		c-1.1,1-1.2,1.6-0.2,2.7c0.3,0.3,0.8,0.5,1.2,0.5c1.3-0.1,2.6-0.3,3.9-0.4c0.3,0,0.6,0,0.9,0.1c0.3,0.1,0.4,0.4,0.6,0.6
		c-0.2,0.2-0.4,0.5-0.6,0.5c-0.4,0.1-0.8-0.1-1.2,0c-1,0.2-2,0.4-2.9,0.7c-0.7,0.3-0.6,1.4,0.3,2c0.8,0.5,1.4,1.2,1,2.2
		c-0.1,0.3-1,0.6-1.4,0.5c-0.5-0.1-1.1-0.6-1.4-1.1c-0.9-1.3-2.4-1.6-3.7-2.3c-2.6-1.3-5.1-2.6-7.7-4c-0.7-0.4-1.3-0.6-1.8,0.1
		c-0.4,0.6-0.6,1.4,0.2,1.9c1.3,0.8,2.6,1.8,4,2.4c1.9,0.9,3.9,1.5,5.8,2.4c1.7,0.8,3.4,1.9,5.1,2.7c0.4,0.2,1,0.2,1.5,0.3
		c1,0.1,2,0.1,3,0.2c0.1,0.2,0.1,0.3,0.1,0.5c-0.6,0.4-1.2,0.9-1.9,1.1c-1.1,0.3-0.8,1.2-0.5,1.7c0.1,0.3,1.2,0.6,1.4,0.4
		c2-2.2,4.7-1.7,7.2-2.2c0.3-0.1,0.8,0,1-0.2c1.4-1.5,2.9-0.7,4.5-0.4c0.2,0,0.3,0.1,0.5,0.1c3.4-0.1,6.8-0.3,10.2-0.4
		c1.3,0,2.6,0.5,3.9,0.5c1.3,0,2.5,0.3,3.6,0.9c1.5,0.8,3,1.1,4.8,1.2c1.6,0,3.2,0.8,4.6,1.6c0.6,0.4,0.8,1.8,0.7,2.8
		c-0.1,0.8-0.5,1.9-1.8,1.8c-0.2,0-0.5,0.1-0.6,0c-2.1-2.1-4.5-0.7-6.8-0.6c-2.3,0-4.6,0.1-6.9,0.1c-2.6,0.1-5.1,0.2-7.7,0.3
		c-2.6,0.2-5.2,0.5-7.8,0.7c-2.9,0.2-5.8,0.2-8.7,0.3c-0.2,0-0.5,0-0.7,0c-2.5,0.8-4.3-0.3-5.8-2.1c-0.3-0.4-0.8-0.7-1.2-0.9
		c-1.5-1-3.1-1.9-4.6-2.9c-1.7-1.1-3.4-2.4-5.2-3.1s-4-1.5-5.7,0.4l-0.1,0.1c-1.7,0.2-3.4,0.7-5.1,0.4c-4.5-0.7-8.9-1.8-13.4-2.6
		c-1.7-0.3-3.4-0.3-5.2-0.4c-0.1,0-0.2,0-0.3,0c-2.1-1.4-4.6-0.9-6.8-1.3s-4.5-0.6-6.7-0.9c-0.3,0-0.6,0-0.8-0.2
		c-1.8-1.8-4.3-1.6-6.6-2s-4.7,0.2-6.9-0.9c-0.7-0.3-1.6-0.2-2.4-0.2c-3.1,0.3-6-1.2-9-1.5c-2-0.2-3.9-0.7-5.9-0.7
		c-1.9,0-3.9,0.4-5.8,0.5c-1,0.1-1.9,0-2.9,0.2c-1.4,0.3-2.8,0.7-4.2,0.9c-1.4,0.2-2.8,0.3-4.2,0.2c-1.2-0.1-2.2-0.2-3.3,0.5
		c-0.7,0.4-1.7,0.7-2.6,0.6c-4.6-0.4-9.2-0.4-13.7-1.9c-0.5-0.2-1.3,0.3-1.9,0.5c-0.6,0.2-1.3,0.7-1.9,0.7c-2.6,0-5.3,0-8-0.2
		c-2-0.2-3.9-0.8-5.9-0.9c-1.2-0.1-2.4,0.5-3.9,0.8c0.6,0.7,0.9,1,1.3,1.4c-1.5,0.5-2.9,0.4-4.4,0c-0.3-0.1-0.9-0.3-1-0.2
		c-1.1,1.1-1.7,0.1-2.4-0.5c-0.5-0.4-1.1-0.6-1.9-1c0.8-0.3,1.6-0.8,2.3-0.9c1.4-0.1,2.8,0,4.2,0c1.2,0,1.7-0.7,1.5-1.9
		c0.7,0,1.4,0,2.1,0c0.1,1.6,1.4,1.6,2.3,1.6c2.6,0,5.1-0.3,7.7-0.4c1.3-0.1,2.7,0,4,0c2,0,2.3-0.3,2-2.1c1.3-0.1,2.7-0.2,4-0.3
		c0.2,0,0.7,0.4,0.7,0.6c0,1.4,1.1,1.6,2,1.6c1.5,0,2.9,0,4.4-0.2c0.6-0.1,1.2-0.7,1.8-0.9c0.7-0.3,1.5-0.4,2.3-0.5
		c3.5-0.7,7-1.3,10.5-2.2c1.4-0.3,2.6-1.1,3.9-1.6c0.3-0.1,0.8-0.1,1.2-0.1c0,2.9,0.5,3.2,3.5,2.8c1.5-0.2,3.1,0.2,4.7,0.1
		c2.2-0.1,4.4-0.5,6.6-0.7c2-0.2,4-0.4,6-0.6c1.3-0.1,2.6-0.1,3.9-0.1c3.3-0.1,6.6-0.1,9.9-0.2c0.7,0,1.4-0.3,2.1-0.3
		c2.4-0.2,4.8-0.3,7.2-0.3c1.1,0,2.3,0.3,3.4,0.4c0.8,0.1,1.7,0.1,2.5,0.1c2.1-0.1,4.3-0.1,6.4-0.3c1.8-0.2,3.6-0.5,5.4-0.7
		c0.8-0.1,1.6-0.2,2.4-0.1c0.8,0,1.3-0.3,1.2-1c-0.1-0.5-0.5-1.2-0.9-1.3c-1.6-0.2-3.2-0.2-4.8-0.2c-0.6,0-1.2,0.1-2,0.2
		c0-1.3-0.1-2.5-1.7-2.6c-1.3-0.1-1.9,0.2-1.9,1.5c-0.1,1-0.6,1.2-1.5,1.2c-2.1,0-4.2,0.1-6.3,0.1c-0.5,0-0.9-0.2-1.4-0.3
		c0-0.2,0-0.3,0.1-0.5c0.4,0,0.8,0,1.2,0c0.9,0,2,0.1,2.8-0.2c0.6-0.3,0.9-1.3,1.5-2.2c1.3,0,3.1,0,4.9-0.1c1.9-0.1,4.1,0.2,5.6-0.6
		c2.2-1.3,3.9-1.3,6.1-0.5c1.6,0.6,3.4,0.7,5.1,1c0.4,0.1,0.7,0.3,1,0.8c-0.3,0-0.6,0.1-0.9,0.1c-2.2-0.5-4.4-1.1-6.7-1.5
		c-1-0.2-1.8-0.1-2,1.3c-0.1,0.9,0,1.2,1,1c0.3-0.1,0.8,0,0.9,0.2c0.4,0.9,1.3,0.8,2,1c3.1,0.7,6.1,1.5,9.2,2.1
		c1,0.2,2.1,0.2,3.1,0.2c0.4,0,0.7-0.4,1.1-0.6c-0.4-0.5-0.6-1-1.1-1.4c-0.4-0.3-0.9-0.3-1.6-0.5c1.9-1.2,1.9-2.4,0-3.3
		c-1.9-0.9-4-1.4-6-2.1c-0.3-0.1-0.6-0.2-0.9-0.4c0.6-0.6,1-1.4,1.5-1.5c0.7-0.1,1.6,0.2,2,0.7c1.2,1.4,3.6,2.2,5.3,1.5
		c0.3-0.1,0.7-0.3,0.9-0.2c1.5,1,2.9,0,4.4,0c1.7,0,3.4,0.2,5,0.5c2,0.4,3.9,1,5.8,1.6c1.3,0.4,2.4,1.1,3.8,1.7
		c-0.9,1-1.5,1.8-2.3,2.5c-0.1,0.1-0.7,0-1-0.2c-3.3-1.2-6.6-2.7-10.1-3.2c-1.6-0.2-3.2-0.6-4.8-0.7
		C855.8,56.9,855.2,57.6,854.5,58.1z M854.5,67.3c0.5-0.1,0.9-0.1,1.3-0.3c0.3-0.2,0.8-0.6,0.8-0.9c0-0.4-0.4-1-0.8-1.1
		c-1.9-0.7-3.9-1.4-5.9-2c-1.3-0.4-2.7-0.8-4-1.1c-1.3-0.2-2.6-0.3-3.8-0.2s-1,1.3-1.1,2.1c0,0.2,0.5,0.7,0.9,0.7
		c3,0.3,6,0.6,8.8,1.8C852,66.8,853.3,67,854.5,67.3z M867.6,67.8c0.3-0.1,0.7-0.3,1.2-0.6c-0.3-0.4-0.6-1-1-1.2
		c-1-0.7-2.1-1.3-3.2-1.8c-2-1-4-1.8-6.3-1.8c-0.3,0-0.7,0.3-0.9,0.6c-0.1,0.1,0.2,0.6,0.4,0.8c1.1,0.7,2.1,1.4,3.2,1.9
		c1.7,0.8,3.8,0.6,5.3,1.9C866.6,67.8,867,67.7,867.6,67.8z"/>
	<path class="st2" d="M691.2,57.7c1.2-0.1,2.2-0.5,2.9-1.6c0.1-0.2,0.5-0.5,0.7-0.5c1.3,0.2,1.5-0.9,2.1-1.6
		c0.3-0.4,0.8-0.7,1.3-0.9c0.6-0.2,1.3-0.3,2-0.4c0.9-0.2,1.7-0.2,2,0.9c0.1,0.2,0.3,0.5,0.4,0.5c1.5-0.1,1.8,1.1,2.3,2.1
		c0.3,0.6,0.6,1.3,0.8,2.1c4.2,1.4,8.6,1.3,13.2,0.8c-0.5,1.4-1.7,2.5-0.1,3.5c0.8,0.5,1.6,0.4,2.2-0.5c1-1.4-0.4-1.7-1.3-2.7
		c0.9,0,1.4,0,2,0c0.4,0,0.8,0.1,1.2,0.1c2.7,0.1,5.5,0.2,8.2,0.1c2.4,0,4.9-0.2,7.3-0.5c5-0.5,9.9-1.1,14.9-1.7
		c1.2-0.1,2.4-0.2,3.8-0.3c-0.6,1.3-0.1,2.1,1,2.7c0.3,0.2,0.4,0.8,0.5,1.2c-0.4,0.1-0.9,0.3-1.3,0.3c-0.3,0-0.6-0.2-0.9-0.2
		c-1.7,0.1-3.3,0.3-5,0.5c-0.8,0.1-1.3-0.2-1.4-1c-0.3-1.3-1.3-1.9-2.6-1.3c-1.1,0.5-1,1.3-0.5,2.2c0.1,0.1,0,0.2,0,0.5
		c-0.8,0.1-1.6,0.3-2.3,0.3c-0.4,0-0.8-0.3-1.2-0.6c-0.6-0.3-1.2-1-1.8-1c-0.7,0-1.3,0.7-1,1.7c0,0.1-0.6,0.6-0.9,0.6
		c-1.4,0.1-2.7,0.1-4.1,0.1c0.2-2.4-0.3-2.9-2.5-2.6c0,0.7,0,1.5,0,2.6c-0.6,0-1.4,0-2.2,0c-1.1,0-2.2,0-3.3-0.1
		c-1.3-0.2-1.3-0.6-0.6-1.7c-0.6-0.6-1.2-1.3-2.1-0.6c-0.9,0.7-1.5,1.5-0.2,2.6c-2,0.5-3.9,0.8-5.7,1.3c-1.7,0.4-3.4,0.9-4,2.9
		c-0.4,1.2-1.2,2.3-1.9,3.4c-0.6,0.9,0.2,2.6,1.3,2.7c0.3,0,0.7,0,1,0c0,1-1.4,3.2-2.1,3.4c-1.9,0.6-3.9,0.1-4.5-1
		c0.6-0.7,1.3-1.2,1.7-1.9c1-1.9,0.2-2.9-2-3.4c-1.4-0.3-2.8-1.3-4-2.2c-1.2-0.8-2.5-0.5-3,0.8c-0.1,0.3-0.3,0.5-0.6,0.6
		c-0.9,0.4-1.7,0.8-2.6,1.1c-0.3,0.1-0.9-0.1-1.1-0.3c-0.5-0.6-0.9-1.4-1.4-2.3c0.4-0.7,0.1-1.6-1-2.2c-0.4-0.2-0.8-1-0.6-1.3
		c0.3-0.6,0.8-1.2,1.4-1.4c1.9-0.6,2.6-1.1,2.8-2.7c0.2-1.3-0.9-1.7-1.7-2.3c-0.6-0.4-1.3-0.6-1.9,0.2c-0.2,0.3-1,0.4-1.4,0.2
		c-0.5-0.3-0.8-0.8-1.5-0.3s-1,1.1-0.7,2c0.1,0.2,0.1,0.4,0.1,0.6c-1.6,0.8-3.1,1.6-5.1,2.7c0.6,0.3,0.9,0.4,1.1,0.6
		c1,0.9,1,1.7,0.1,2.7c-1,1.1-0.6,2,0.7,2.6s2.7,1.2,3.4,2.2c-1,0.5-1.8,0.9-2.6,1.3c-0.2,0.1-0.4,0.1-0.6,0.1c-1.2-0.2-2,0-2.2,1.5
		c-0.1,0.6-1.1,1-1.7,1.5c-0.7,0.7-1.2,0.4-1.9-0.2c-0.7-0.7-1.7-1.1-2.6-1.7c-0.2-0.1-0.5-0.5-0.4-0.6c0.7-1.1,0-1.9-0.7-2.4
		c-1-0.9-2.2-1.7-3.4-2.2c-1.1-0.5-2.3-0.7-3.5-0.8c-1-0.1-1.9,0.1-2.9,0.2c-0.5,0-1,0-1.5,0c0-0.2,0-0.4,0-0.6
		c1.9-0.1,3.7-0.3,5.6-0.4c0.7-0.1,1.4-0.4,2.1-0.4c0.7-0.1,1.5,0,2.2-0.1c0.5-0.1,1.2-0.1,1.4-0.4c0.9-1,1.8-2.1,1.7-3.2
		c-0.7-0.8-1.1-1.3-1.6-1.8c0.6-0.3,1.3-0.7,2.1-1.1c0.2-1.4,1.9-2.9,3.6-3c0.3,0,0.8,0.2,1,0.5c0.8,0.7,1.3,0.4,1.9-0.2
		c0.1-0.2,0.2-0.4,0.4-0.5C689.8,56,689.8,56,691.2,57.7z M713.1,63.2c0.4,0.3,0.9,0.9,1.6,1c0.9,0.1,1.8-0.4,1.9-1.4
		c0.1-1.2-1-1.4-1.8-1.5C713.8,61.1,713.3,61.9,713.1,63.2z M712.5,61.8c-0.7-0.2-1.4-0.4-2.1-0.7c-0.2,0.7-0.5,1.4-0.6,2.1
		c0,0.2,0.6,0.6,1,0.6C711.9,63.9,712.4,63.2,712.5,61.8z"/>
	<path class="st2" d="M868.9,38c1.7-1.3,4.7-1,5.6,0.2c1.3,0.3,2.3,0.5,3.4,0.7c0.5,0.1,1.2,0.3,1.5,0c2-1.3,4.2-0.8,6.3-0.7
		c2.7,0,5.4-0.1,8.1-0.1c1.9,0,3.8,0,5.6-0.1c1.1,0,2.2-0.1,3.3-0.1c2.4,0.1,4.9,0.2,7.3,0.3c1.1,0.1,2.6-0.7,2.8-1.8
		c0.3-1,0.3-2,0.5-3c0.1-0.4,0.2-0.9,0.5-1.1c1-0.6,2-1.1,3.1-1.5s1.8,0.3,1.7,1.4c0,0.4,0,0.9,0,1.3c-0.1,0.8-0.5,1.2-1.3,1.2
		c-2.1-0.2-4.2,1.4-4.5,3.5c-0.4,2.1-2.5,3.5-4.5,3.1c-0.2,0-0.5-0.2-0.6-0.1c-2.4,0.9-4.8,0.1-7.1,0.2c-3.6,0.1-7.2,0.2-10.7-0.7
		c-0.8-0.2-1.7,0.1-2.5,0c-1.9,0-3.7,0-5.6,0c-0.7,0-1.5-0.1-2.2,0.1c-2.4,0.6-4.3-0.4-6.3-1.3C871.9,38.9,870.4,38.5,868.9,38z"/>
	<path class="st2" d="M825,40.2c-0.3,0.2-0.7,0.4-1,0.6c-0.3,0.2-0.9,0.3-1,0.6c-0.6,1.4-1.8,1.4-3,1.4c-3.3,0-6.6,0-10,0.1
		c-1,0-2,0.3-3,0.4c-2.1,0.3-4.2,0.5-6.3,0.8c-3.8,0.5-7.6,1-11.3,1.4c-1.7,0.2-3.5,0.1-5.3,0c-1.3,0-2.6-0.3-3.9,0.4
		c-0.6,0.3-1.4,0.4-2.2,0.4c-3.9,0.2-7.8,0.4-11.7,0.6c-1.4,0.1-2.7,0.4-4.1,0.6c-0.8,0.1-1.6,0-2.4-0.1c0-0.2,0-0.3,0-0.5
		c1.2-0.2,2.3-0.3,3.5-0.5c3.8-0.5,7.6-1.1,11.4-1.6c1.7-0.2,3.5-0.3,5.2-0.4c3.9-0.4,7.8-0.8,11.8-1.2c3.7-0.4,7.5-0.6,11.2-1.1
		s7.5-1.2,11.2-1.7c0.2,0,0.4-0.1,0.7-0.1c3.3-0.2,6.5-0.4,9.8-0.6c0.1,0,0.3,0.1,0.4,0.1C824.9,40,824.9,40.1,825,40.2z"/>
	<path class="st2" d="M662.3,55.8c2,1.6,4.4,0.5,6.5,1c1.9,0.3,3.8,0.4,5.7,0.5c0.4,0,0.7-0.3,1.1-0.4c0.7-0.2,1.3-0.6,2-0.7
		c0.4-0.1,0.8,0.2,1.2,0.4c-0.1,0.4-0.2,0.9-0.4,1.2c-0.6,0.7-1.2,1.3-2,1.8c-2.1,1.5-4.3,3.1-7,3.3c-0.3,0-0.6,0-0.8,0.2
		c-1.9,1.2-4,1.1-6,1.4c-0.7,0.1-1.1-0.1-1-0.8C661.8,61,662.1,58.4,662.3,55.8z"/>
	<path class="st2" d="M876.4,43.8c2.6,0,5.1-0.1,7.5,0c3.5,0.1,7.1,0.2,10.6,0.3c0.9,0,1.8,0.2,2.7,0.2c2.8,0.1,5.6,0.2,8.5,0.2
		c1.7,0,3.4-0.2,5.1-0.3c0.3,0,0.6,0.2,0.9,0.3c-0.1,0.3-0.2,0.7-0.5,0.9c-0.4,0.3-1,0.5-1.5,0.6c-1.5,0.2-3,0.3-4.5,0.5
		c-1.3,0.1-2.7,0.1-4,0.3c-5,0.7-10.1,0.1-15.1,0c-1.6,0-3.2,0.2-4.8,0.4C879.6,47.4,877.2,46,876.4,43.8z"/>
	<path class="st2" d="M780.3,62.7c1-0.7,2-1.3,2.9-1.9c0.1-0.1,0.3-0.1,0.5-0.2c2.8-0.3,5.5-0.6,8.3-0.9c2.2-0.2,4.3-0.5,6.5-0.6
		c3.5-0.1,7.1-0.1,11-0.1c-0.6,0.2-0.9,0.5-1.3,0.5c-1-0.1-1.9,0-2.3,1.1c-0.1,0.3-0.5,0.5-0.8,0.5c-2.5,0.2-5,0.2-7.6,0.4
		c-3.7,0.3-7.4,0.8-11.2,1.1C784.3,62.7,782.3,62.7,780.3,62.7z"/>
	<path class="st2" d="M792.8,54.7c-0.9,1.7-2.1,2.1-3.7,1.8c-0.3-0.1-0.7-0.1-1.1,0c-2.2,0.3-4.3,0.6-6.5,0.9
		c-0.4,0.1-0.8,0.1-1.2,0c-3-0.8-5.7,0.2-8.5,0.9c-1.5,0.4-3.1,0.6-4.7,0.8c-2.3,0.3-4.7,0.5-7.3,0.8c0.3-0.6,0.5-0.9,0.8-1.4
		c-0.6-0.4-1.2-0.9-2.1-1.5c1.8-0.2,3.2-0.4,4.7-0.6c0.8-0.1,1.6-0.2,2.4-0.4c0.6-0.2,0.9-0.1,1.2,0.6c0.4,1,1,1.3,2.2,0.9
		c1.5-0.5,3.2-0.5,4.8-0.8c2.8-0.4,5.6-0.8,8.4-1.1c0.8-0.1,1.7-0.1,2.5-0.2c2.1-0.2,4.2-0.5,6.3-0.7
		C791.6,54.7,792.1,54.7,792.8,54.7z"/>
	<path class="st2" d="M882.4,64.2c-0.1-1.5,0.7-1.8,2.1-1.7c2.7,0.1,5.3-0.2,8-0.1c1.9,0,3.7,0.3,5.6,0.3c3.6,0,7.1-0.1,10.6-0.1
		c0.3,0,0.6,0,0.9,0c2.3,0.2,4.7,0.4,7,0.6c0.5,0,1,0.1,1.4,0.4c0.3,0.2,0.5,0.8,0.5,1.2c0,0.1-0.5,0.5-0.9,0.5
		c-1.1,0.1-2-0.2-2.8-1.1c-0.5-0.5-1.6-0.5-2.4-0.5c-2.7,0.1-5.4,0.2-8,0.7c-2,0.4-3.7,0.2-5.4-0.7c-0.3-0.2-0.8,0-1.2,0.1
		c-0.8,0.2-1.6,0.6-2.5,0.7c-2,0.1-4,0-6.1,0C887,64.3,884.7,64.3,882.4,64.2z"/>
	<path class="st2" d="M889.7,53.6c1.2,0,2.5,0,3.7,0c3.4,0,6.8,0,10.2,0c3.2,0,6.4,0,9.5-0.1c1.2,0,2.5-0.3,3.7-0.4
		c0.3,0,0.8-0.2,1,0c0.3,0.2,0.5,0.6,0.6,0.9c0,0.1-0.4,0.5-0.7,0.5c-1.3,0.2-2.6,0.3-3.9,0.4c-1.4,0.1-2.8,0.2-4.2,0.2
		c-3.5,0.1-6.9,0.2-10.4,0.3c-2.3,0.1-4.6,0.2-6.9,0.1c-1-0.1-1.9-0.8-2.8-1.2C889.6,54,889.7,53.8,889.7,53.6z"/>
	<path class="st2" d="M794.1,54.6c1.1-0.3,2.2-0.7,3.3-0.7c2.4,0,4.9,0.1,7.3,0.2c0.2,0,0.5,0.1,0.7,0c1.4-1.1,2.6-0.2,4,0.1
		c0.6,0.2,1.6,0,2.1-0.4c1.2-0.9,2.5-0.9,3.9-0.9c1.5,0,3.1-0.4,4.6-0.5c0.4,0,1.1,0.4,1.1,0.6c0,0.6-0.2,1.3-1.1,1.4
		c-2.6,0.3-5.2,1.1-7.8,0.9c-2.3-0.2-4.7,0.9-6.9-0.5c-0.4-0.3-1.4,0-1.9,0.3c-1.4,1.1-3.1,0.5-4.6,0.8c-0.8,0.2-1.7,0.2-2.6,0.1
		c-0.7-0.1-1.4-0.5-2.1-0.8C794,55,794,54.8,794.1,54.6z"/>
	<path class="st2" d="M880.9,49.9c1.9-0.1,3.8-0.2,5.6-0.2c4.1,0,8.2,0.2,12.3,0.1c3.7-0.1,7.4-0.6,11-1h0.1c2.6,0.9,5-0.7,7.6-0.6
		c0.2,0,0.4-0.1,0.5,0c0.3,0.3,0.8,0.7,0.9,1.1c0.1,0.2-0.6,0.8-0.9,0.8c-2.1,0.1-4.1,0.1-6.2,0.1c-1.3,0-2.6,0.2-3.8,0.3
		c-2.2,0.1-4.5,0.1-6.7,0.1c-3.7,0.1-7.5,0.3-11.2,0.4c-1.2,0-2.5-0.2-3.7-0.3c-1.4,0-2.8,0-4.1,0c-0.4,0-0.8-0.1-1.2-0.2
		C880.8,50.2,880.9,50.1,880.9,49.9z"/>
	<path class="st2" d="M898.9,68.1c0.9-0.3,1.7-0.6,2.4-0.6c1.5,0,3.1,0.4,4.6,0.4c0.9,0,1.9-0.4,2.8-0.6c0.4-0.1,0.8-0.3,1.1-0.1
		c1.8,1,3.7,0.2,5.5,0.6c0.8,0.1,1.9,0.2,2.1,0.7c0.3,0.7,0,1.8,0,2.7v0.1c-0.9,0-1.9,0.1-2.8,0c-0.3,0-0.8-0.6-0.8-0.9
		c0.2-1.6-0.7-1.2-1.7-1.1c-2,0.1-4,0.1-6,0.1c-0.5,0-0.9-0.6-1.4-0.7c-0.6-0.1-1.5-0.1-1.9,0.3C901.5,69.9,900.4,69.9,898.9,68.1z"
		/>
	<path class="st2" d="M763.4,75.6c-0.6,0.8-1.1,1.4-1.6,1.9c-0.3,0.3-0.8,0.7-1.1,0.6c-0.4,0-0.9-0.5-1-0.9c-0.2-1-0.9-1.1-1.7-1.1
		c-0.8-0.1-1.7-0.2-2.5-0.4c-1.3-0.4-3.8,0.2-4.7,1.3c-0.5,0.6-2.1,0.5-2.8-0.1c-1.6-1.4-1.8-1.4-3.5-0.2c-0.2,0.2-0.7,0.2-0.9,0
		c-1.7-1.5-1.7-1.6-3.7-0.4c-0.6-0.5-1.2-0.9-2-1.6C746.7,74.9,755.1,74.8,763.4,75.6z"/>
	<path class="st2" d="M914.2,58.4c-0.6,0.3-1.2,0.7-1.8,0.7c-1.7,0.2-3.5,0.2-5.2,0.5c-3.7,0.6-7.5,0.2-11.2,0
		c-2.1-0.1-4.1-0.3-6.2-0.5c-0.4,0-0.7-0.3-1-0.4c0-0.1,0-0.3,0.1-0.4c8.4-0.1,16.7-0.1,25.1-0.2C914.1,58.2,914.2,58.3,914.2,58.4z
		"/>
	<path class="st2" d="M680,46c1.3-0.2,2.6-0.7,3.9-0.7c2.4,0.1,4.9,0.1,6.6,2.4c0.4,0.5,1.3,0.6,2.2,0.9c-1.4,1.1-2.6,2.2-4,3.3
		c-1.8-4.1-5.1-5.2-9-5.2C679.9,46.5,680,46.2,680,46z"/>
	<path class="st2" d="M891.8,74.7c0.1-2.1,0.4-2.3,2-2.3c2.2,0.1,4.4,0,6.6,0c1,0,1.9,0.2,2.9,0.2c1.2,0,2.5-0.2,3.7-0.2
		c0.7,0,1.4,0.1,2.1,0.2c0,0.2,0,0.4,0,0.7c-0.7,0.2-1.3,0.5-2,0.6c-2,0.2-4,0.4-6,0.5c-0.4,0-0.9-0.3-1.3-0.5
		c-0.9-0.5-1.6-0.6-2.4,0.2c-0.6,0.6-1.3,0.8-1.9-0.2c-0.5-0.9-1.5-1-2.4-0.2C892.8,74.1,892.3,74.4,891.8,74.7z"/>
	<path class="st2" d="M843.8,53.6c-1.9-0.4-3.8-0.6-5.7-1.1c-1.3-0.3-2.3-0.5-3.2,0.7c-0.2,0.3-0.6,0.5-1,0.6
		c-0.6,0.2-1.4,0.7-1.6-0.4c-0.1-0.7-1.1-1.8,0.6-2.2c1.1-0.2,2-0.9,3.1-0.1c0.3,0.2,1.1-0.3,1.7-0.4c0.4-0.1,1.1-0.1,1.3,0.1
		c0.9,1.2,2.2,1.3,3.4,1.5c0.5,0.1,1,0.4,1.5,0.6C844,53.1,843.9,53.3,843.8,53.6z"/>
	<path class="st2" d="M866.2,51.7c0.1-0.9,1-1.7,2.5-1.6c0.8,0,1.5,0.1,2.3,0.2c1.3,0.2,2.6,1.9,2.5,3.1c-0.1,0.9-0.8,1.3-1.8,0.8
		C869.9,53.4,868.1,52.6,866.2,51.7z"/>
	<path class="st2" d="M876.7,55c1.7-1.4,9.4-2.1,11.7-1c-0.7,0.5-1.2,1.1-1.7,1.1c-2.9,0.2-5.8,0.2-8.7,0.3
		C877.6,55.5,877.2,55.2,876.7,55z"/>
	<path class="st2" d="M867.4,46.1c2.9-1.9,5.2-0.4,7.5,0.5c1,0.4,1.8,1.2,1.4,2.6c-0.3-0.1-0.6-0.1-0.8-0.2c-1.8-1-3.8-1.6-5.9-1.8
		C868.9,47.2,868.3,46.6,867.4,46.1z"/>
	<path class="st2" d="M736.8,74.9c-0.9,2.2-1.5,2.3-3.2,1c-0.9-0.7-2.3-0.5-3.1,0.3c-1,1-1.6,0.9-2.3-0.3c-0.2-0.3-0.7-0.6-1.1-0.7
		c-0.4-0.1-0.9-0.1-1.4-0.1c0-0.2,0-0.3-0.1-0.5c0.5-0.1,1.1-0.3,1.6-0.3C730.3,74.5,733.5,74.7,736.8,74.9z"/>
	<path class="st2" d="M898.4,67.3c0,0.4,0,0.4,0,0.5c-1.7,0-2.6,1.8-4.2,1.8c-1.6,0-3.3-0.1-4.9-0.2c-0.6-0.1-1.1-0.6-1.8-1
		c1.6-0.6,2.8-1.1,4.2-0.2c0.7,0.4,2,0.7,2.7-0.5c0.1-0.1,0.3-0.3,0.4-0.3C896,67.3,897.2,67.3,898.4,67.3z"/>
	<path class="st2" d="M709.5,50.4c0.9-1.4,1.8-1.6,3-1.3c1.5,0.4,3.1,0.6,4.7,0.9c0,0.2,0.1,0.3,0.1,0.5c-1,0.3-2.1,0.7-3.1,1
		c-0.8,0.2-1.6,0.6-2.3,0.4C711,51.7,710.3,50.9,709.5,50.4z"/>
	<path class="st2" d="M771.8,76.4c-0.2,0.7-0.2,1.2-0.5,1.7c-0.1,0.3-0.5,0.6-0.8,0.7c-0.1,0-0.5-0.4-0.6-0.7
		c-0.3-0.5-0.7-1.5-1-1.5c-0.8,0.1-1.8,0.4-2.4,1c-0.8,0.8-1,0.9-1.5-0.1c-0.2-0.5-0.5-1-0.7-1.6C765,75.6,770.7,75.9,771.8,76.4z"
		/>
	<path class="st2" d="M824.6,49c-2,1.2-13.2,2.3-14.6,1.3C814.8,49.9,819.7,49.4,824.6,49z"/>
	<path class="st2" d="M819.2,59.1c-1.3-0.8-2.2-0.1-3.2,0.7c-0.8,0.6-2,0.6-3.1,0.9c0-0.4-0.2-0.9,0-1.2c1.5-2,3.7-2,5.9-1.8
		c0.3,0,0.5,0.7,0.7,1.1C819.4,58.9,819.3,59,819.2,59.1z"/>
	<path class="st2" d="M778.8,79.3c0.4-2.5,0.4-2.5,4.1-1.9C782.8,79.7,781.9,80.5,778.8,79.3z"/>
	<path class="st2" d="M738.7,48.1c4.1,0,8.1-0.1,12.1-0.1c-0.7,0.6-10.8,1.2-12.1,0.5C738.7,48.4,738.7,48.3,738.7,48.1z"/>
	<path class="st2" d="M827.3,78.9c-0.4-0.2-1-0.4-1.6-0.6c0-0.1,0-0.2,0.1-0.3c0.9,0.1,1.8,0.2,2.6,0.4c0.3,0.1,0.6,0.4,0.6,0.7
		c0.2,1.1,0.9,1.4,1.8,1.6c0.9,0.2,1.8,0.5,2.9,0.9c-0.5,0.2-0.6,0.4-0.8,0.4c-1.7-0.4-3.5-0.7-5.2-1.2
		C827.6,80.7,827.6,79.7,827.3,78.9z"/>
	<path class="st2" d="M823.6,51.9c2.1-0.4,3.6-0.8,4.7,0.9c0.4,0.7,0.4,1.1-0.4,1.2c-0.9,0.1-1.9,0.3-2.7,0
		C824.5,53.8,824.2,52.8,823.6,51.9z"/>
	<path class="st2" d="M720.4,49.9c3.5-0.4,7.1-0.9,10.6-1.3c-3.3,1.9-7,1.7-10.5,1.8C720.5,50.3,720.4,50.1,720.4,49.9z"/>
	<path class="st2" d="M875.5,64.9c-0.3-0.4-1.1-1-1-1.3c0.2-0.6,0.9-1,1.5-1.4c0.3-0.2,0.9,0,1.3,0.1c0.5,0.1,0.9,0.4,1.3,0.6
		c-0.3,0.5-0.5,1.2-0.9,1.4C877.2,64.7,876.5,64.7,875.5,64.9z"/>
	<path class="st2" d="M808.4,81.8c-1.8-0.1-3.6-0.1-5.4-0.3c-0.5,0-1-0.5-1.6-0.7c0.9-1.1,1.6-1.1,2.5-0.7s2,0.4,3.1,0.7
		c0.5,0.1,1.1,0.3,1.6,0.5C808.6,81.3,808.5,81.6,808.4,81.8z"/>
	<path class="st2" d="M851.2,41.4c-0.2-0.6-0.4-1-0.6-1.5c2.3-0.8,4.5-0.3,5.1,1.5C854.2,41.3,852.8,41.3,851.2,41.4z"/>
	<path class="st2" d="M722.3,75c-0.2,2.5-1.4,3.3-3.8,2.6C718.8,75.4,720.5,75,722.3,75z"/>
	<path class="st2" d="M915.7,40.4c0.6-0.8,1.1-1.6,1.8-2.4c0.6-0.6,1.5-0.6,1.7,0.2c0.2,0.7-0.1,2-0.6,2.3c-0.7,0.4-1.8,0.2-2.7,0.3
		C915.8,40.7,915.8,40.5,915.7,40.4z"/>
	<path class="st2" d="M915.8,58.4c1.4-0.9,3-0.5,3.2,1c0,0.4-0.5,1.1-0.7,1.1c-0.6,0-1.5,0.6-1.9-0.5
		C916.2,59.4,916,58.9,915.8,58.4z"/>
	<path class="st2" d="M793.2,80.2c0.9-0.5,1.8-1.2,2.7-1.4c0.8-0.2,1.6,0.4,1.5,1.4s-0.9,0.7-1.5,0.7c-0.8-0.1-1.6-0.1-2.5-0.1
		C793.4,80.6,793.3,80.4,793.2,80.2z"/>
	<path class="st2" d="M887.9,74.6c-1.4-0.1-2.7-0.1-4.1-0.2c0.8-0.8,0.7-2.4,2.1-2c0.8,0.3,1.4,1.1,2.1,1.6
		C888,74.2,887.9,74.4,887.9,74.6z"/>
	<path class="st2" d="M852.8,44.5c1.8-0.1,3.2-0.2,4.7-0.3c0.2,0,0.5,0.2,0.6,0.4s-0.1,0.5-0.3,0.7C857.2,46,853.7,45.5,852.8,44.5z
		"/>
	<path class="st2" d="M706.6,48.6c-2.8-0.6-5.1-3.2-8.3-1.7C699.8,45.4,706.2,46.8,706.6,48.6z"/>
	<path class="st2" d="M814.6,76.1c-2.7-0.5-5.2-1-7.8-1.5C807.6,73.9,813.9,75,814.6,76.1z"/>
	<path class="st2" d="M830.1,48.5c1.4-0.2,2.9-0.3,4.3-0.4c0.2,0,0.5,0.3,0.7,0.4c-0.2,0.2-0.4,0.6-0.6,0.6
		c-1.5,0.1-2.9,0.1-4.4,0.1C830.1,48.9,830.1,48.7,830.1,48.5z"/>
	<path class="st2" d="M703.8,81.4c-0.6-0.8-1-1.2-1.4-1.6c0.6-0.4,1.2-0.8,1.9-1.1c0.2-0.1,0.9,0.7,0.9,0.8
		C704.9,80.1,704.4,80.6,703.8,81.4z"/>
	<path class="st2" d="M881.8,58.5c1.7-0.1,3.2-0.2,4.8-0.3C885.9,59.6,883.1,59.9,881.8,58.5z"/>
	<path class="st2" d="M697.7,77.3c-0.7,2.3-1.1,2.3-3.3,0.4C695.6,77.4,696.4,76.3,697.7,77.3z"/>
	<path class="st2" d="M876.5,72.5c2.7-0.9,4-0.4,5.2,1.9c-0.8-0.4-1.3-0.7-1.8-0.9c-0.7-0.2-1.4-0.2-2.1-0.4
		C877.4,73.1,877.1,72.8,876.5,72.5z"/>
	<path class="st2" d="M883.6,69.2c0-1.9,0-1.9,1.8-1.6c0.5,0.1,1,0.1,1.4,0.1C886.4,68.6,885.2,69.2,883.6,69.2z"/>
	<path class="st2" d="M787.5,80.6c-0.6-0.6-1-0.9-1.4-1.3c0.4-0.4,0.8-1.1,1.3-1.2c0.8-0.2,1,0.6,1,1.2
		C788.3,79.6,787.9,80,787.5,80.6z"/>
	<path class="st2" d="M812.2,79.3c1-0.1,1.9-0.3,2.9-0.3c0.3,0,0.6,0.4,0.9,0.6c-0.3,0.2-0.7,0.7-0.9,0.7c-1-0.1-2-0.4-2.9-0.6
		C812.2,79.5,812.2,79.4,812.2,79.3z"/>
	<path class="st2" d="M916.8,43.7c0.8,0,1.6,0,2.4-0.1c-0.1,0.5,0,1.3-0.3,1.5c-1.1,0.7-1.4-0.7-2.1-0.8
		C916.7,44.1,916.8,43.9,916.8,43.7z"/>
	<path class="st2" d="M664.7,47.8c1.5,0,3-0.6,4.4-0.1c0,0.2,0,0.3,0,0.5c-1.5,0-3,0-4.4,0C664.7,48.1,664.7,48,664.7,47.8z"/>
	<path class="st2" d="M854.7,36.1c1.5,0,3,0,4.5,0c0,0.1,0,0.2,0,0.3c-1.5,0.1-3,0.2-4.5,0.3C854.8,36.5,854.8,36.3,854.7,36.1z"/>
	<path class="st2" d="M674.8,81.9c-1.7,1.1-3,0.5-4.4,0.2c0-0.1,0-0.3,0-0.4C671.8,81.7,673.1,81.8,674.8,81.9z"/>
	<path class="st2" d="M694.7,82.7c1-0.8,1-0.8,3.6,1C697.1,83.4,695.9,83,694.7,82.7z"/>
	<path class="st2" d="M775.2,79.1c-0.7-1.1-1.1-1.7-1.5-2.3c0.5-0.3,1.6-0.1,1.8,0.5C775.6,77.8,775.3,78.3,775.2,79.1z"/>
	<path class="st2" d="M703.9,73.1c-0.6,0.4-1.1,0.8-1.6,1.1c-0.1-0.3-0.3-0.7-0.3-1C702.3,72.4,702.9,72.3,703.9,73.1z"/>
	<path class="st2" d="M916.9,77.3c-0.8,1.1-1.2,1.1-2.5-0.1C915.1,77.2,915.9,77.3,916.9,77.3z"/>
	<path class="st2" d="M867.6,41.4c1.1,0,1.9,0,2.9,0C869.5,42.4,868.9,42.4,867.6,41.4z"/>
	<path class="st2" d="M786.7,74.9c-0.8-0.1-1.6-0.2-2.4-0.3c0-0.2,0.1-0.4,0.1-0.6c0.8,0.1,1.6,0.3,2.4,0.4
		C786.8,74.6,786.8,74.7,786.7,74.9z"/>
	<path class="st2" d="M668.9,75.3c1.2,0.3,2.3,0.5,3.5,0.8c0,0.1,0,0.2,0,0.3c-1.2-0.2-2.4-0.3-3.6-0.5
		C668.9,75.6,668.9,75.5,668.9,75.3z"/>
	<path class="st2" d="M707.5,83.5c0.9-0.2,1.9-0.5,2.8-0.7c0,0.1,0.1,0.3,0.1,0.4c-0.9,0.2-1.9,0.5-2.8,0.7
		C707.6,83.8,707.6,83.7,707.5,83.5z"/>
	<path class="st2" d="M820.3,80.6c-0.9-0.2-1.7-0.5-2.6-0.7c0-0.1,0.1-0.3,0.1-0.4c0.9,0.2,1.7,0.4,2.6,0.6
		C820.4,80.2,820.4,80.4,820.3,80.6z"/>
	<path d="M854.5,67.3c-1.2-0.3-2.6-0.5-3.7-1c-2.8-1.2-5.8-1.5-8.8-1.8c-0.3,0-0.9-0.5-0.9-0.7c0.1-0.8-0.2-2,1.1-2.1
		c1.2-0.1,2.6,0,3.8,0.2c1.4,0.2,2.7,0.6,4,1.1c2,0.6,4,1.3,5.9,2c0.4,0.1,0.7,0.7,0.8,1.1c0,0.3-0.5,0.7-0.8,0.9
		C855.5,67.2,855,67.2,854.5,67.3z"/>
	<path d="M867.6,67.8c-0.6-0.1-1,0-1.2-0.2c-1.5-1.3-3.6-1.1-5.3-1.9c-1.1-0.6-2.2-1.2-3.2-1.9c-0.2-0.1-0.5-0.6-0.4-0.8
		c0.2-0.3,0.6-0.6,0.9-0.6c2.3,0,4.3,0.8,6.3,1.8c1.1,0.5,2.2,1.1,3.2,1.8c0.4,0.3,0.7,0.8,1,1.2C868.4,67.4,867.9,67.7,867.6,67.8z
		"/>
	<path d="M713.1,63.2c0.2-1.4,0.7-2.1,1.7-1.9c0.8,0.1,1.9,0.4,1.8,1.5c-0.1,1.1-1.1,1.5-1.9,1.4C714.1,64.2,713.5,63.5,713.1,63.2z
		"/>
	<path d="M712.5,61.8c-0.1,1.4-0.6,2.1-1.7,2.1c-0.4,0-1-0.4-1-0.6c0.1-0.7,0.4-1.4,0.6-2.1C711.1,61.4,711.8,61.6,712.5,61.8z"/>
</g>
</svg>
