<?xml version="1.0" encoding="utf-8"?>
<!-- Generator: Adobe Illustrator 25.2.3, SVG Export Plug-In . SVG Version: 6.00 Build 0)  -->
<svg version="1.1" id="Layer_1" xmlns="http://www.w3.org/2000/svg" xmlns:xlink="http://www.w3.org/1999/xlink" x="0px" y="0px"
	 viewBox="0 0 168 1008.06" style="enable-background:new 0 0 168 1008.06;" xml:space="preserve">
<style type="text/css">
	.st0{fill:#FFFFFF;}
</style>
<g>
	<path d="M53.42,53.28c-0.22-0.53-0.43-1.06-0.65-1.59c-0.1-0.02-0.19-0.03-0.29-0.05c-0.04,0.99-0.2,2-0.11,2.98
		c0.32,3.53,0.77,7.05,1.08,10.59c0.1,1.08-0.3,2.22-0.1,3.27c0.52,2.78,1.23,5.52,1.87,8.27c0.23,0.99,0.45,1.99,0.68,2.99
		c0.3-0.09,0.39-0.11,0.38-0.12c-0.18-2.1-0.32-4.2-0.59-6.29c-0.11-0.86-0.59-1.67-0.74-2.52c-0.34-1.97-0.63-3.95-0.82-5.94
		C54,63.46,54.1,62.03,54,60.61c-0.12-1.71-0.37-3.4-0.5-5.11c-0.03-0.36,0.21-0.75,0.32-1.12c0.15,0,0.31,0,0.46,0
		c0.23,1.11,0.54,2.21,0.66,3.34c0.21,1.86,0.22,3.74,0.44,5.6c0.25,2.16,0.72,4.29,0.95,6.46c0.18,1.72,0.48,3.34,1.05,5.01
		c0.69,2,0.7,4.24,0.92,6.39c0.23,2.22,0.53,4.46,0.49,6.69c-0.03,1.62-0.7,3.21-0.83,4.83c-0.19,2.24-0.24,4.51-0.16,6.76
		c0.06,1.57,0.47,3.13,0.69,4.69c0.17,1.18,0.24,2.38,0.45,3.56c0.06,0.35,0.47,0.94,0.62,0.91c0.56-0.11,1.41-0.3,1.55-0.69
		c0.35-0.93,0.46-1.96-0.27-2.91c-0.31-0.41-0.39-1.03-0.49-1.57c-0.17-0.94-0.29-1.89-0.38-2.84c-0.04-0.43,0.05-0.87,0.11-1.3
		c0.27-1.96,0.55-3.91,0.84-5.87c0.17-1.12,0.53-2.24,0.5-3.36c-0.09-2.78-0.35-5.56-0.54-8.34c-0.01-0.17,0-0.35,0-0.66
		c1.08,0.39,1.09,1.29,1.2,2.05c0.38,2.47,0.71,4.96,1.03,7.44c0.09,0.7,0.09,1.41,0.08,2.12c-0.04,2.66-0.05,5.32-0.21,7.98
		c-0.03,0.5-0.65,0.97-1.06,1.54c1.62,1.23,1.27,3.27,1.71,5.02c0.25,1.01,0.87,1.36,1.6,1.4c0.93,0.06,1.45-0.58,1.33-1.58
		c-0.25-2.05-0.63-4.09-0.74-6.15c-0.14-2.85-0.09-5.71-0.08-8.57c0.01-2.21,0.16-4.43,0.09-6.64c-0.1-3.49-0.32-6.97-0.51-10.46
		c-0.03-0.53-0.22-1.05-0.32-1.57c-0.45-2.25-0.98-4.48-1.33-6.74c-0.51-3.35-0.98-6.7-1.3-10.07c-0.22-2.28-0.15-4.58-0.27-6.87
		c-0.02-0.49-0.25-0.98-0.44-1.45c-0.31-0.75-0.85-1.44-0.96-2.21c-0.37-2.45-0.62-4.93-0.86-7.4c-0.27-2.78-0.37-5.56,1.3-8.17
		c0.94-0.04,1.52,0.47,1.46,1.56c-0.05,0.96-0.3,1.91-0.27,2.86c0.04,1.19,0.35,2.37,0.41,3.57c0.19,4.07,0.2,8.14,0.49,12.2
		c0.21,2.91,0.75,5.79,1.16,8.68c0.33,2.33,0.66,4.67,1,7c0.68,4.62,1.5,9.22,2.01,13.85c0.29,2.59,0.08,5.23,0.08,7.85
		c-0.01,2.22-0.13,4.44-0.05,6.66c0.12,3.49,0.38,6.97,0.57,10.46c0.02,0.35-0.04,0.71-0.08,1.06c-0.11,0.92,0.32,1.52,1.11,1.94
		c0.66,0.36,1.03,0.25,1.05-0.54c0.02-0.76,0.08-1.53-0.02-2.27c-0.26-1.88-0.78-3.75-0.85-5.64c-0.13-3.45-0.15-6.91,0.03-10.35
		c0.18-3.48,0.99-6.91,0.11-10.43c-0.46-1.84-0.4-3.8-0.61-5.71c-0.1-0.88-0.29-1.75-0.41-2.62c-0.63-4.39-1.34-8.78-1.84-13.18
		c-0.39-3.45-0.48-6.92-0.73-10.38c-0.04-0.56-0.31-1.1-0.39-1.65c-0.2-1.47-0.43-2.95-0.52-4.43c-0.15-2.47-0.2-4.95-0.31-7.43
		c-0.06-1.26,0.35-2.34,1.17-3.29c0.58-0.68,1.07-0.54,1.22,0.22c0.21,1.06,0.27,2.17,0.33,3.26c0.1,1.81,0.18,3.63,0.22,5.44
		c0.04,1.82,0.02,3.65,0.02,5.47c0,0.13-0.02,0.29-0.1,0.38c-1.97,2.49-0.9,5.23-0.67,7.9c0.18,2.03,0.32,4.08,0.62,6.09
		c0.35,2.34,0.86,4.66,1.32,6.99c0.06,0.3,0.29,0.57,0.33,0.87c0.42,3.24,0.8,6.49,1.22,9.73c0.07,0.53,0.13,1.11,0.39,1.55
		c0.95,1.65,0.68,3.41,0.58,5.16c-0.12,2.1-0.32,4.2-0.42,6.31c-0.11,2.2-0.3,4.42-0.2,6.62c0.12,2.56,0.51,5.1,0.79,7.65
		c0.07,0.66,0.18,1.31,0.23,1.98c0.13,1.98,0.86,2.55,2.87,2.38c0.4-0.03,0.87,0.53,1.26,0.47c0.74-0.12,1.43-0.48,2.15-0.75
		c0-0.12,0-0.25,0-0.37c0.79,0.46,1.56,0.97,2.38,1.36c0.33,0.16,0.81,0.14,1.18,0.05c0.52-0.13,1.02-0.64,1.49-0.59
		c1.32,0.14,1.23-0.52,1.1-1.45c-0.5-3.69-1.04-7.39-1.37-11.1c-0.3-3.34-0.39-6.71-0.46-10.07c-0.04-1.98,0.2-3.97,0.19-5.95
		c0-1.15-0.23-2.3-0.36-3.45c-0.53-4.59-1.07-9.17-1.58-13.76c-0.1-0.93-0.04-1.88-0.2-2.8c-0.15-0.88-0.62-1.7-0.73-2.58
		c-0.14-1.07-0.08-2.17-0.06-3.25c0.01-0.52,0.14-1.05,0.19-1.57c0.19-2.19,0.27-4.4,0.59-6.57c0.08-0.58,0.85-1.5,1.3-1.5
		c1.01,0,1.23,0.99,1.2,1.89c-0.05,1.94-0.05,3.88-0.22,5.81c-0.16,1.84-0.61,3.66-0.75,5.5c-0.13,1.72-0.16,3.46-0.02,5.17
		c0.29,3.58,0.73,7.15,1.12,10.72c0.02,0.23,0.17,0.44,0.55,0.64c0.1-0.72,0.27-1.45,0.28-2.17c0.05-2.79,0.05-5.58,0.07-8.37
		c0-0.18,0-0.38,0.08-0.53c0.24-0.45,0.51-0.89,0.77-1.33c0.04,0.48,0.08,0.95,0.13,1.43c0.06,0.56,0.19,1.12,0.2,1.68
		c0.05,1.72,0.1,3.44,0.07,5.16c-0.02,1.31-0.23,2.62-0.21,3.92c0.02,1.55,0.14,3.1,0.33,4.64c0.41,3.29,0.91,6.57,1.33,9.86
		c0.15,1.2,0.16,2.41,0.24,3.86c-0.78-3.18-1.49-6.1-2.2-9.02c-0.12,0.02-0.24,0.03-0.35,0.05c-0.05,0.1-0.14,0.2-0.14,0.3
		c0.17,3.91,0.29,7.81,0.53,11.72c0.2,3.32,0.52,6.64,0.78,9.96c0.06,0.82-0.04,1.69,0.18,2.47c0.46,1.67,1.4,2.05,3.08,1.5
		c0.33-0.11,0.72-0.06,1.31-0.11c-0.24-2.18-0.52-4.36-0.69-6.54c-0.3-3.77-0.54-7.54-0.8-11.31c-0.43-6.26-0.87-12.51-1.27-18.77
		c-0.19-3.01-0.26-6.02-0.43-9.03c-0.06-0.98-0.22-1.95-0.42-2.91c-0.09-0.43-0.36-0.83-0.54-1.24c-0.37,0.22-0.74,0.44-1.13,0.68
		c-0.29-1.84-0.93-3.76-0.81-5.64c0.18-2.68,0.87-5.34,1.48-7.98c0.11-0.49,0.85-0.84,1.36-1.3c0.72,0.83,0.86,1.35,0.77,2.29
		c-0.21,2.12,0.01,4.3,0.15,6.45c0.09,1.45,0.36,2.88,0.48,4.33c0.11,1.37,0.1,2.75,0.16,4.13c0.17,3.67,0.29,7.33,0.55,10.99
		c0.2,2.88,0.58,5.74,0.9,8.61c0.02,0.15,0.15,0.3,0.23,0.44c0.14-0.01,0.28-0.02,0.42-0.02c0-1.97,0.1-3.94-0.03-5.9
		c-0.17-2.66-0.63-5.3-0.77-7.95c-0.13-2.53-0.01-5.07-0.02-7.6c0-0.39,0.08-0.9-0.13-1.15c-1.12-1.4-0.8-2.85-0.33-4.36
		c0.13-0.41,0.06-0.89,0.12-1.33c0.23-1.75,0.4-3.5,0.72-5.23c0.16-0.86,0.98-0.96,1.31-0.28c0.46,0.96,0.59,2.08,0.78,3.15
		c0.14,0.8,0.15,1.62,0.25,2.79c1.43-1.21,0.15-3.66,2.62-3.87c0.29,1.62,0.73,3.24,0.84,4.88c0.15,2.24,0.02,4.5,0.06,6.75
		c0.05,2.52,0.18,5.03,0.25,7.54c0.06,2.25,0.09,4.49,0.15,6.74c0.03,1.11,0.18,2.22,0.18,3.33c0,2.9-0.23,5.8,0.41,8.69
		c0.23,1.06,0.17,2.22,0.03,3.31c-0.38,2.96-0.19,5.92-0.06,8.88c0.11,2.48,0.3,4.95,0.47,7.42c0.09,1.29,0.37,1.66,2.33,2.86
		c-0.2-1.72-0.56-3.18-0.48-4.62c0.08-1.44,0.6-2.86,1.04-4.32c0,0.49-0.03,0.99,0.01,1.48c0.15,1.91,0.3,3.82,0.49,5.73
		c0.09,0.82,0.37,1.48,1.47,1.2c0.97-0.25,1.03-0.73,0.92-1.67c-0.53-4.51-1.03-9.03-1.34-13.55c-0.28-4.07-0.41-8.17-0.38-12.25
		c0.04-4.73-0.79-9.38-1.18-14.06c-0.08-1-0.35-1.98-0.75-2.96c0,1.33-0.05,2.66,0.01,3.99c0.1,2.07,0.32,4.14,0.41,6.21
		c0.16,3.69,0.3,7.38,0.39,11.08c0.09,3.29,0.16,6.58,0.14,9.87c-0.01,0.95-0.38,1.9-0.82,2.87c-0.06-1.02-0.13-2.03-0.17-3.05
		c-0.1-2.26-0.18-4.52-0.27-6.78c-0.14-3.42-0.25-6.85-0.43-10.27c-0.24-4.74-0.56-9.47-0.79-14.21c-0.07-1.42,0.36-2.9,0.07-4.25
		c-0.49-2.24,0.45-4.2,0.8-6.26c0.31-1.86,0.41-1.84,2.14-1.12c0.58-1.04,1.18-2.06,2.67-2.07c0.32,0,0.63-0.95,0.97-1.46
		c0.33-0.5,0.69-0.99,1.04-1.49c0.71,0.5,1.84,0.88,2.04,1.54c0.52,1.72,0.56,3.57,0.92,5.34c0.37,1.85,0.95,3.66,1.31,5.51
		c0.24,1.24,0.23,2.52,0.36,3.78c0.33,3.09,0.73,6.16,1,9.25c0.2,2.34,0.24,4.69,0.32,7.03c0.04,1.32-0.01,2.65,0.03,3.97
		c0.01,0.29,0.26,0.56,0.31,0.86c0.07,0.45,0.04,0.92,0.08,1.38c0.09,1.34,0.11,2.7,0.32,4.02c0.3,1.87,1,3.71,1.07,5.58
		c0.12,3.54-0.1,7.1-0.18,10.64c-0.04,1.61-0.01,3.03,1.95,3.76c0.65,0.24,0.99,1.54,1.29,2.42c0.29,0.86,0.39,1.8,0.5,2.71
		c0.19,1.64,0.37,3.29,0.46,4.94c0.19,3.76,0.41,7.53,0.45,11.29c0.04,3.69-0.21,7.37-0.21,11.06c0,3.67,0.17,7.34,0.22,11.01
		c0.01,1.03-0.47,2.16-0.19,3.07c0.59,1.87-0.14,3.66,0.06,5.47c0.04,0.34-0.01,0.72,0.12,1.03c1.21,2.98,1.55,6.05,1.21,9.25
		c-0.19,1.8,0.05,3.65-0.06,5.46c-0.19,2.91-0.56,5.81-0.76,8.72c-0.16,2.38-0.16,4.77-0.27,7.15c-0.06,1.24-0.16,2.48-0.3,3.71
		c-0.52,4.45-1.03,8.9-1.61,13.34c-0.28,2.16-0.72,4.29-1.04,6.44c-0.25,1.75-0.43,3.51-0.63,5.27c-0.24,2.05-0.49,4.11-0.72,6.16
		c-0.27,2.41-0.49,4.83-0.77,7.24c-0.41,3.54-0.89,7.07-1.27,10.61c-0.44,4.06-0.79,8.13-1.19,12.2c-0.4,4.16-0.84,8.32-1.21,12.49
		c-0.32,3.62-0.61,7.24-0.86,10.87c-0.22,3.15-0.48,6.3-0.51,9.45c-0.03,2.72,0.27,5.45,0.34,8.17c0.07,2.79-0.04,5.59,0.06,8.39
		c0.05,1.39,0.33,2.79,0.66,4.16c0.28,1.18,0.81,2.3,1.15,3.47c0.36,1.28,0.61,2.6,0.94,3.89c0.11,0.42,0.25,0.9,0.54,1.19
		c0.77,0.76,0.75,1.48,0.49,2.53c-0.37,1.46-0.29,3.04-0.38,4.57c-0.1,1.74,0,3.45-0.6,5.18c-0.57,1.67-0.54,3.53-0.96,5.26
		c-0.23,0.96-0.72,1.93-1.34,2.71c-1.63,2.06-1.34,4.07-0.17,6.18c0.44,0.79,0.77,1.67,1.01,2.55c0.65,2.38,1.47,4.7,1.33,7.27
		c-0.08,1.52,0.43,3.05,0.55,4.59c0.15,1.8-0.02,3.64,0.28,5.4c0.31,1.77-0.07,3.37-0.38,5.05c-0.16,0.87-0.3,1.4-1.1,1.83
		c-1.46,0.79-1.97,2.15-1.9,3.76c0.12,2.73,0.18,5.47,0.36,8.2c0.18,2.74,0.5,5.47,0.69,8.21c0.04,0.55-0.09,1.21-0.39,1.67
		c-0.99,1.53-0.31,3.08-0.03,4.53c0.73,3.7,1.81,7.33,2.57,11.02c0.56,2.7,0.76,5.47,1.28,8.18c0.63,3.28,1.57,6.51,2.12,9.8
		c0.62,3.75,0.96,7.55,1.43,11.33c0.27,2.21,0.62,4.41,0.84,6.62c0.21,2.07,0.23,4.15,0.44,6.21c0.29,2.79,0.72,5.57,1.03,8.36
		c0.77,6.94,1.54,13.89,2.22,20.84c0.35,3.53,0.46,7.09,0.75,10.63c0.07,0.92,0.46,1.82,0.58,2.75c0.18,1.38,0.2,2.79,0.37,4.17
		c0.21,1.67,0.53,3.32,0.77,4.98c0.45,3.11,0.97,6.22,1.28,9.34c0.38,3.93,0.56,7.88,0.86,11.82c0.24,3.19,0.54,6.37,0.78,9.56
		c0.04,0.48-0.05,0.98-0.07,1.46c-0.09,2.97-0.12,5.95-0.26,8.92c-0.15,3-0.34,6.01-0.62,9c-0.44,4.7-1.04,9.38-1.46,14.09
		c-0.2,2.26-0.13,4.54-0.27,6.81c-0.08,1.31-0.39,2.6-0.49,3.9c-0.13,1.71-0.19,3.43-0.22,5.15c-0.04,1.99,0.05,3.99-0.06,5.98
		c-0.11,1.98-0.45,3.94-0.62,5.92c-0.16,1.93-0.11,3.88-0.34,5.8c-0.3,2.51-0.87,5-1.15,7.51c-0.15,1.39,0.12,2.82,0.08,4.23
		c-0.03,1.32-0.24,2.64-0.33,3.97c-0.2,2.87-0.33,5.75-0.56,8.62c-0.35,4.33-0.64,8.67-1.17,12.98c-0.37,3.01-1.14,5.98-1.64,8.98
		c-0.13,0.75,0.19,1.57,0.14,2.35c-0.34,5.18-0.74,10.35-1.09,15.53c-0.18,2.53-0.31,5.05-0.47,7.58c-0.03,0.53-0.08,1.06-0.14,1.58
		c-0.31,3.02-0.69,6.04-0.91,9.07c-0.1,1.36,0.23,2.74,0.21,4.11c-0.04,2.54-0.17,5.08-0.32,7.61c-0.27,4.57-0.57,9.14-0.9,13.7
		c-0.21,2.91-0.58,5.8-0.73,8.71c-0.14,2.58,0,5.17-0.12,7.76c-0.13,2.92-0.42,5.84-0.63,8.75c-0.16,2.21-0.26,4.42-0.5,6.62
		c-0.13,1.26-0.57,2.5-0.7,3.76c-0.15,1.45-0.1,2.91-0.17,4.37c-0.08,1.64-0.27,3.27-0.3,4.9c-0.04,2.29,0.04,4.59,0.06,6.88
		c0.01,0.49,0.16,1.01,0.03,1.45c-0.97,3.14-0.87,6.38-1.12,9.6c-0.33,4.07-1.16,8.09-1.39,12.16c-0.22,3.93,0.06,7.89,0.12,11.84
		c0.04,2.74,0.1,5.48,0.13,8.22c0.02,1.51,0.08,3.03,0,4.53c-0.16,3.09-0.35,6.19-0.61,9.27c-0.12,1.36-0.48,2.7-0.67,4.07
		c-0.22,1.58-0.31,3.18-0.55,4.75c-0.14,0.94-0.24,1.99-0.74,2.73c-0.61,0.9-0.65,1.74-0.7,2.74c-0.09,1.89-0.36,3.78-0.62,5.66
		c-0.35,2.5-0.86,4.99-1.14,7.49c-0.29,2.59-0.33,5.22-0.6,7.81c-0.41,3.88-0.92,7.74-1.42,11.61c-0.26,2.02-0.48,4.06-0.95,6.04
		c-0.74,3.17-0.55,6.41-1.07,9.6c-0.75,4.61-1.35,9.25-1.91,13.88c-0.38,3.16-0.52,6.35-0.85,9.51c-0.44,4.24-0.99,8.47-1.44,12.7
		c-0.16,1.49-0.26,3.01-0.21,4.51c0.11,3.61,0.25,7.21-0.26,10.8c-0.4,2.79-0.65,5.61-0.96,8.42c-0.02,0.21-0.06,0.51,0.06,0.63
		c1.43,1.49,0.89,3.29,0.67,4.95c-0.65,4.88-1.38,9.75-2.22,14.6c-0.51,2.97-1.14,5.93-1.94,8.84c-1.21,4.44-2.28,8.99-4.82,12.9
		c-1.39,2.14-3.13,4.09-4.95,5.88c-0.6,0.59-1.95,0.4-2.95,0.57c-3.42,0.57-6.45-0.7-9.42-2.1c-1.16-0.55-1.84-1.6-1.9-2.98
		c-0.03-0.65-0.18-1.3-0.27-1.95c-0.55-3.99-1.03-7.98-1.66-11.95c-0.79-4.91-1.78-9.8-2.55-14.71c-0.43-2.78-0.62-5.59-0.88-8.39
		c-0.32-3.32-0.65-6.63-0.88-9.96c-0.09-1.32,0.1-2.65,0.05-3.98c-0.03-0.9-0.39-1.8-0.38-2.69c0.01-2.79,0.16-5.58,0.19-8.37
		c0.02-1.8-0.09-3.6-0.09-5.41c0-1.9,0.08-3.81,0.08-5.71c-0.01-5.58-0.06-11.17-0.08-16.75c-0.01-2.79,0.03-5.58,0-8.37
		c-0.01-0.7-0.26-1.39-0.32-2.09c-0.1-1.18-0.11-2.36-0.21-3.54c-0.04-0.47-0.1-1.06-0.39-1.38c-1.96-2.14-1.46-4.72-1.29-7.19
		c0.25-3.55,0.93-7.07,1.01-10.62c0.07-3,0.43-5.99-0.14-9.06c-0.64-3.42-0.44-6.98-0.69-10.48c-0.16-2.25-0.49-4.48-0.72-6.72
		c-0.13-1.26-0.21-2.53-0.28-3.79c-0.12-2.4-0.26-4.81-0.32-7.22c-0.1-3.98-0.11-7.96-0.22-11.94c-0.07-2.71-0.28-5.43-0.34-8.14
		c-0.05-2.13,0.06-4.26,0.05-6.38c-0.02-4.02,0.01-8.05-0.12-12.07c-0.09-2.84-0.49-5.67-0.6-8.5c-0.13-3.33-0.18-6.66-0.12-9.99
		c0.06-3.37,0.3-6.72,0.03-10.11c-0.26-3.22-0.08-6.48-0.1-9.73c-0.02-2.3-0.02-4.61-0.1-6.91c-0.12-3.46-0.3-6.91-0.44-10.36
		c-0.03-0.71-0.01-1.42-0.01-2.13c-0.01-3.46-0.1-6.92,0-10.38c0.16-5.6,0.43-11.2,0.68-16.8c0.17-3.89,0.43-7.78,0.58-11.67
		c0.08-2.06,0.02-4.12,0.03-6.18c0.01-3.54,0.03-7.08,0.02-10.62c-0.01-3.16-0.13-6.32-0.06-9.48c0.09-4.04,0.2-8.09,0.5-12.12
		c0.39-5.13,1.03-10.23,1.46-15.36c0.36-4.25,0.59-8.5,0.86-12.76c0.19-2.85,0.34-5.7,0.54-8.55c0.26-3.64,0.64-7.26,0.8-10.9
		c0.11-2.43-0.42-4.92-0.07-7.29c0.51-3.53-0.08-6.96-0.23-10.44c-0.12-2.85-0.26-5.69-0.29-8.54c-0.01-1.37,0.31-2.75,0.29-4.12
		c-0.04-3.19-0.18-6.35-1.33-9.43c-0.38-1.02,0.02-2.33,0.01-3.5c-0.02-2.22,0.14-4.47-0.98-6.53c-0.09-0.16,0.05-0.52,0.19-0.71
		c1.34-1.72,0.99-3.65,0.73-5.58c-0.34-2.59-0.66-5.18-0.99-7.77c-0.21-1.67-0.48-3.34-0.61-5.02c-0.23-3.1-0.5-6.21-0.51-9.32
		c-0.01-2.77,0.33-5.55,0.45-8.32c0.05-1.1-0.15-2.22-0.09-3.32c0.15-2.86,0.32-5.73,0.59-8.58c0.19-1.9,0.6-3.78,0.86-5.67
		c0.08-0.55-0.07-1.13-0.04-1.7c0.1-2.05,0.21-4.11,0.35-6.16c0.13-2.09,0.19-4.19,0.47-6.26c0.44-3.23,1.05-6.44,1.55-9.66
		c0.48-3.12,0.91-6.26,1.38-9.39c0.13-0.87,0.34-1.72,0.43-2.6c0.32-3.12,0.54-6.26,0.94-9.38c0.33-2.59,0.9-5.16,1.29-7.74
		c0.24-1.57,0.34-3.17,0.54-4.75c0.22-1.66,0.48-3.32,0.73-4.98c0.33-2.27,0.67-4.53,0.97-6.8c0.4-3.01,0.49-6.1,1.23-9.03
		c0.63-2.49,0.19-4.92,0.41-7.37c0.27-3.05,0.26-6.13,0.39-9.2c0.23-5.22,0.43-10.44,0.73-15.66c0.09-1.67,0.55-3.31,0.61-4.98
		c0.04-1.08-0.41-2.17-0.48-3.26c-0.09-1.46,0-2.92-0.04-4.39c-0.01-0.37-0.08-0.89-0.32-1.06c-2.14-1.51-2.44-3.88-2.88-6.14
		c-0.91-4.67-0.93-9.4-0.68-14.14c0.07-1.36-0.23-2.76-0.01-4.08c0.54-3.18,1.24-6.33,1.98-9.47c0.19-0.79,0.69-1.55,1.2-2.2
		c1.15-1.45,0.57-3.05-0.17-4.1c-1.18-1.66-1.41-3.37-1.09-5.14c0.57-3.11,0.49-6.45,2.74-9.08c0.27-0.31,0.05-1.01,0.15-1.51
		c0.29-1.45,0.75-2.88,0.92-4.34c0.29-2.54,0.99-5.11-0.05-7.65c-0.11-0.27-0.02-0.62-0.06-0.92c-0.31-2.89-0.65-5.78-0.94-8.68
		c-0.07-0.66,0.03-1.33,0.01-2c-0.11-3.27-0.24-6.54-0.34-9.81c-0.11-3.55-0.18-7.1-0.28-10.65c-0.01-0.36-0.08-0.71-0.13-1.06
		c-0.25-2-0.5-4-0.75-6.01c-0.19-1.59-0.37-3.17-0.56-4.76c-0.44-3.56-0.96-7.11-1.3-10.67c-0.34-3.55-0.45-7.13-0.74-10.68
		c-0.16-1.93-0.59-3.84-0.73-5.77c-0.3-4.15-0.47-8.3-0.75-12.45c-0.07-1.1-0.43-2.17-0.53-3.26c-0.37-3.78-0.52-7.6-1.07-11.35
		c-0.6-4.1-0.2-8.28-1.37-12.37c-0.67-2.36-0.38-4.97-0.66-7.46c-0.18-1.58-0.63-3.14-0.92-4.71c-0.14-0.78-0.22-1.57-0.3-2.36
		c-0.28-2.7-0.06-5.4-0.71-8.12c-0.47-1.97,0.01-4.14-0.08-6.22c-0.15-3.42-0.51-6.84-0.63-10.26c-0.11-3.17-0.65-6.28-0.22-9.53
		c0.32-2.47,0.54-5.19-0.4-7.76c-0.36-0.98-0.14-2.17-0.21-3.26c-0.11-1.89-0.17-3.78-0.39-5.66c-0.19-1.67-0.7-3.3-0.85-4.96
		c-0.15-1.83,0.2-3.72-0.11-5.51c-0.44-2.52-1.16-5.02-2.01-7.43c-0.65-1.84-0.4-3.63,1.08-4.92c0.68-0.6,0.84-1.27,0.67-2.33
		c-0.39-2.4-0.34-4.87-0.5-7.32c-0.11-1.76-0.29-3.51-0.4-5.27c-0.17-2.62-0.35-5.23-0.44-7.85c-0.06-1.76,0.09-3.53,0.01-5.29
		c-0.05-1.08-0.29-2.16-0.57-3.2c-0.48-1.78-1.06-3.53-1.6-5.29c-0.03-0.09-0.03-0.19-0.07-0.26c-1.74-2.64-0.91-5.61-1.11-8.45
		c-0.18-2.47-0.69-4.91-0.94-7.38c-0.21-2.08-0.54-4.15,0-6.28c0.31-1.24,0.06-2.65-0.06-3.97c-0.31-3.37-0.77-6.73-1-10.1
		c-0.08-1.2,0.21-2.47,0.59-3.62c0.13-0.39,1.03-0.7,1.6-0.74c0.82-0.06,0.89,0.6,0.89,1.31c0,1.42-0.21,2.95,0.25,4.23
		c0.99,2.73,0.44,5.52,0.79,8.26c0.22,1.74,0.58,3.46,0.85,5.2c0.05,0.29,0.01,0.6,0.01,0.91C53.68,53.21,53.55,53.25,53.42,53.28z
		 M81.45,373.34c-2.06,0.53-4.52,0.99-6.83,1.85c-0.78,0.29-1.68,1.56-1.7,2.41c-0.1,3.7,0.18,7.41,0.17,11.12
		c-0.01,2.9-0.24,5.79-0.36,8.69c-0.06,1.42-0.1,2.85-0.18,4.27c-0.12,2.22-0.3,4.44-0.4,6.66c-0.18,4.4-0.23,8.8-0.52,13.19
		c-0.17,2.52-0.77,5.02-1.06,7.53c-0.45,3.88-0.69,7.79-1.2,11.66c-0.82,6.27-1.76,12.52-2.67,18.77
		c-0.67,4.58-1.39,9.14-2.03,13.72c-0.44,3.17-0.81,6.34-1.18,9.52c-0.55,4.85-1.07,9.7-1.59,14.56c-0.26,2.51-0.46,5.03-0.73,7.54
		c-0.24,2.25-0.62,4.49-0.79,6.74c-0.13,1.71-0.03,3.44-0.04,5.17c-0.03,3.42-0.14,6.84-0.1,10.26c0.03,2.39,0.27,4.78,0.4,7.17
		c0.11,1.99,0.19,3.98,0.3,5.97c0.05,0.95,0.07,1.91,0.2,2.86c0.2,1.44,0.55,2.86,0.69,4.31c0.18,1.75,0.2,3.52,0.32,5.27
		c0.06,0.79,0.29,1.59,0.27,2.37c-0.11,3.19-0.43,6.38-0.42,9.57c0.01,3.59,0.31,7.17,0.46,10.76c0.07,1.65,0.04,3.3,0.11,4.95
		c0.12,2.76,0.38,5.52,0.42,8.28c0.06,4.26-0.07,8.53-0.02,12.79c0.02,1.34,0.55,2.68,0.49,4c-0.13,2.91-0.58,5.81-0.73,8.73
		c-0.14,2.74-0.91,5.48-0.12,8.23c0.05,0.16-0.01,0.36-0.05,0.53c-0.77,3.38-1.09,6.79-1.03,10.27c0.06,3.5-0.17,7.02-0.39,10.52
		c-0.16,2.53-0.54,5.04-0.76,7.56c-0.23,2.68-0.42,5.37-0.55,8.05c-0.07,1.28,0.12,2.57,0.02,3.85c-0.17,2.19,0.31,4.36-0.24,6.6
		c-0.39,1.58,0.18,3.38,0.22,5.08c0.06,3.22,0.12,6.45,0.04,9.67c-0.07,2.46-0.43,4.9-0.52,7.36c-0.07,1.76,0.12,3.54,0.14,5.31
		c0.02,1.29,0,2.58-0.1,3.87c-0.15,1.92-0.46,3.83-0.56,5.75c-0.12,2.38-0.08,4.77-0.15,7.15c-0.12,4.14-0.38,8.29-0.37,12.43
		c0,3.78,0.35,7.56,0.42,11.34c0.08,4.29-0.02,8.58,0.07,12.87c0.04,1.8,0.46,3.59,0.5,5.39c0.07,2.84-0.11,5.69-0.06,8.53
		c0.11,5.61-0.86,11.22,0.13,16.83c0.26,1.49-0.14,3.09,0,4.61c0.12,1.32-0.48,2.75,0.5,4c0.16,0.21,0.03,0.69-0.04,1.03
		c-0.84,4.32-0.43,8.65-0.12,12.98c0.08,1.14-0.04,2.3-0.11,3.45c-0.07,1.07-0.28,2.13-0.27,3.19c0.04,2.96,0.15,5.92,0.26,8.88
		c0.06,1.59,0.13,3.19,0.23,4.78c0.2,3.05,0.37,6.11,0.66,9.15c0.22,2.33-0.37,4.63,0.22,7c0.44,1.77,0.1,3.72,0.22,5.58
		c0.17,2.43,0.46,4.84,0.69,7.26c0.07,0.79-0.04,1.63,0.2,2.36c0.97,2.92,0.39,5.9,0.38,8.85c-0.01,2.21-0.54,4.41-0.54,6.62
		c0,3.21,0.28,6.43,0.43,9.64c0.16,3.57,0.31,7.14,0.45,10.7c0.15,3.76,0.32,7.53,0.4,11.29c0.05,2.21-0.1,4.42-0.09,6.63
		c0.02,3.16,0.32,6.34,0.1,9.48c-0.47,6.88-0.27,13.71,0.59,20.53c0.24,1.88,0.39,3.78,0.5,5.67c0.15,2.69,0.2,5.39,0.35,8.08
		c0.03,0.45,0.44,0.88,0.51,1.34c0.26,1.76,0.18,3.62,0.75,5.26c0.83,2.39,0.63,4.94,1.45,7.32c0.39,1.14,0.23,2.46,0.43,3.68
		c0.21,1.28,0.65,2.52,0.81,3.8c0.3,2.35,0.07,4.73,1.07,7.01c0.7,1.59,1,3.35,1.51,5.03c0.07,0.21,0.34,0.43,0.57,0.52
		c1.57,0.62,3.21,1.06,4.91,0.88c0.69-0.07,1.49-0.36,1.98-0.83c1.18-1.11,2.21-2.37,3.28-3.59c0.49-0.56,1.14-1.1,1.37-1.77
		c0.91-2.68,1.84-5.37,2.48-8.12c1.38-5.89,2.61-11.81,3.85-17.73c0.21-0.99,0.44-2.11,0.19-3.05c-0.8-3.05-0.55-6.08-0.2-9.13
		c0.43-3.79,0.9-7.57,1.19-11.37c0.17-2.21-0.03-4.44,0.07-6.66c0.1-2.36,0.36-4.71,0.56-7.07c0.45-5.27,0.8-10.55,1.38-15.8
		c0.68-6.11,1.57-12.19,2.36-18.28c0.63-4.86,1.19-9.73,1.86-14.59c0.36-2.6,0.97-5.16,1.34-7.76c0.67-4.67,1.26-9.35,1.86-14.03
		c0.35-2.75,0.67-5.5,0.97-8.25c0.39-3.61,0.71-7.23,1.15-10.83c0.24-1.98,0.75-3.94,0.99-5.92c0.3-2.51,0.52-5.03,0.65-7.55
		c0.19-3.9,0.41-7.81,0.37-11.71c-0.04-3.23-0.61-6.45-0.64-9.68c-0.02-3.01,0.3-6.04,0.59-9.04c0.47-4.92,1.14-9.82,1.49-14.75
		c0.18-2.42-0.26-4.88-0.23-7.31c0.04-2.44,0.29-4.88,0.5-7.32c0.33-3.84,0.75-7.67,1.04-11.51c0.34-4.39,0.62-8.78,0.87-13.18
		c0.17-3.02,0.18-6.05,0.34-9.07c0.22-4.04,0.51-8.07,0.77-12.11c0.18-2.74,0.33-5.49,0.53-8.23c0.2-2.65,0.52-5.29,0.64-7.95
		c0.09-1.94-0.16-3.89-0.06-5.83c0.23-4.56,0.59-9.12,0.88-13.68c0.06-1.02,0-2.04,0.08-3.06c0.31-3.76,0.71-7.52,0.96-11.29
		c0.13-1.9-0.18-3.84,0.04-5.72c0.44-3.84,1.1-7.66,1.68-11.48c0.26-1.71,0.66-3.41,0.76-5.13c0.15-2.43,0.03-4.87,0.13-7.31
		c0.11-2.74,0.31-5.48,0.51-8.22c0.25-3.36,0.52-6.71,0.81-10.06c0.15-1.68,0.18-3.4,0.58-5.02c0.47-1.88,0.83-3.7,0.48-5.66
		c-0.17-0.97-0.09-2.05,0.16-3.01c0.93-3.53,0.66-7.13,0.88-10.71c0.12-1.94,0.3-3.88,0.49-5.81c0.14-1.4,0.4-2.79,0.52-4.2
		c0.38-4.11,0.7-8.22,1.09-12.33c0.2-2.03,0.57-4.04,0.75-6.07c0.19-2.07,0.27-4.14,0.35-6.21c0.1-2.68,0.19-5.36,0.23-8.05
		c0.03-2.25-0.03-4.49-0.03-6.74c0-1.52,0.16-3.04,0.05-4.55c-0.14-2.01-0.5-4-0.69-6.01c-0.4-4.37-0.64-8.77-1.13-13.13
		c-0.58-5.08-1.39-10.13-2.03-15.2c-0.32-2.51-0.5-5.03-0.72-7.55c-0.11-1.32-0.13-2.65-0.24-3.97c-0.2-2.35-0.45-4.7-0.66-7.04
		c-0.26-2.97-0.45-5.94-0.74-8.91c-0.27-2.74-0.66-5.48-0.96-8.22c-0.24-2.19-0.38-4.4-0.65-6.58c-0.26-2.13-0.72-4.25-0.94-6.38
		c-0.37-3.71-0.58-7.43-0.94-11.14c-0.27-2.73-0.58-5.46-1.06-8.16c-0.52-2.89-1.3-5.73-1.9-8.6c-1.11-5.36-2.19-10.72-3.22-16.1
		c-0.28-1.44-0.25-2.94-0.53-4.38c-0.7-3.6-1.98-7.12-1.53-10.89c0.02-0.13-0.03-0.27-0.05-0.4c-0.49-2.37-0.94-4.75-1.47-7.11
		c-0.56-2.47-1.17-4.93-1.8-7.39c-0.09-0.37-0.29-0.88-0.58-1.02c-1.16-0.55-2.38-0.99-3.58-1.46c-0.16-0.06-0.35-0.04-0.52-0.04
		c-2.37,0.06-4.75,0.24-7.11,0.16C86.16,373.96,84.02,373.61,81.45,373.34z M83.94,177.58c-0.46-0.68-1.22-1.28-1.19-1.85
		c0.07-1.61,0.47-3.2,0.72-4.81c0.55-3.54,2.04-6.77,3.31-10.08c0.12-0.31,0.3-0.82,0.16-0.97c-0.69-0.74-1.48-1.39-2.46-2.27
		c-0.6,1.31-1.27,2.49-1.7,3.75c-0.65,1.89-1.23,3.81-1.65,5.75c-0.35,1.63-0.52,3.32-0.58,5c-0.06,1.45,0.99,2.91-0.06,4.38
		c-0.12,0.17,0.08,0.59,0.19,0.87c0.62,1.67-0.2,4.05-1.56,5.24c-0.5,0.43-0.83,1.38-0.75,2.04c0.06,0.52,0.87,0.95,1.46,1.54
		c0.13-0.33,0.25-0.62,0.36-0.93c0.71-2,1.3-4.05,2.17-5.98c0.85-1.88,2.13-1.89,3.27,0.01c0.19-0.63,0.22-1.2,0.51-1.57
		c0.35-0.44,0.92-0.72,1.39-1.06c0.22,0.37,0.62,0.73,0.63,1.11c0.03,1.03,0.02,2.1-0.2,3.1c-0.68,3.07-1.48,6.12-2.19,9.18
		c-0.18,0.77-0.11,1.6-1.03,2.02c-0.19,0.09-0.3,0.65-0.23,0.93c0.24,0.96-0.1,1.04-0.97,0.95c-1.35-0.14-1.51-0.97-1.28-1.98
		c0.5-2.23,1.08-4.44,1.6-6.67c0.07-0.28-0.03-0.6-0.06-0.91c-0.46,0.31-0.71,0.65-0.79,1.01c-0.36,1.68-0.48,3.45-1.06,5.05
		c-0.79,2.17-0.8,3.93,0.45,6.09c0.86,1.49,0.51,3.72,0.6,5.62c0.08,1.8,0.02,3.62,0.02,4.91c0.97,0.61,1.95,0.88,2.22,1.47
		c0.36,0.8,0.16,1.84,0.2,2.78c0.01,0.41,0,0.82,0,1.23c0.16,0.02,0.31,0.04,0.47,0.06c0.13-0.47,0.35-0.93,0.36-1.4
		c0.02-2.11-0.07-4.22-0.01-6.33c0.02-0.92-0.17-1.41-1.19-1.49c-1.32-0.1-1.63-0.66-1.51-1.96c0.15-1.57,1.29-1.67,2.61-1.65
		c-0.08-0.77-0.2-1.38-0.19-1.98c0.02-1.58,0.01-3.18,0.2-4.75c0.04-0.37,0.82-0.86,1.29-0.91c0.72-0.08,1.04,0.47,1.01,1.25
		c-0.04,0.8,0.01,1.6,0.1,2.4c0.2,1.8,0.53,3.59,0.67,5.39c0.16,2.13,0.19,4.26,0.25,6.4c0.02,0.83,0.01,1.67-0.07,2.5
		c-0.1,1.13-0.42,2.26-0.41,3.38c0.02,2.42,0.16,4.83,0.29,7.24c0.04,0.7,0.32,1.38,0.33,2.08c0.08,3.31,0.11,6.62,0.16,9.94
		c0.02,1.32,0.02,2.63,0.11,3.95c0.14,1.99,0.35,3.98,0.55,5.96c0.22,2.19,0.55,4.37,0.68,6.57c0.09,1.54-0.27,3.13-0.1,4.65
		c0.34,2.92,0.01,3.45-2.86,3.44c0.04,0.4-0.01,0.82,0.12,1.17c0.5,1.32,1.25,2.57,1.56,3.93c0.79,3.49,1.4,7.03,2.08,10.54
		c0.15,0.78,0.28,1.58,0.53,2.34c0.21,0.62,0.79,1.16,0.86,1.78c0.17,1.45,0.21,2.93,0.15,4.39c-0.04,0.96-0.2,1.99-1.6,2.01
		c-0.22,0-0.62,0.44-0.61,0.68c0.03,1.33,0.16,2.66,0.25,3.99c1.83-0.32,2.15-0.03,2.12,2c-0.02,1.33-0.12,2.66-0.08,3.99
		c0.09,2.56,0.35,5.11,0.33,7.66c-0.01,0.93,0,2.26-1.58,2.3c0,0.77,0,1.45,0,2.15c1.29-0.18,1.93,0.34,1.93,1.54
		c0,1.41-0.14,2.84-0.03,4.24c0.06,0.74,0.53,1.44,0.87,2.29c0.46-0.85,0.68-1.43,1.05-1.91c0.59-0.74,1.56-1.33,0.47-2.42
		c-0.14-0.14,0.09-0.65,0.17-0.99c0.35-1.41,0.44-2.82,0-4.36c-0.49,0.43-0.8,0.7-1.46,1.29c-0.33-1.52-0.87-2.75-0.8-3.94
		c0.12-1.97,0.78-3.9,0.95-5.87c0.23-2.64,0.25-5.3,0.25-7.96c0-0.63-0.48-1.26-0.71-1.9c-0.22-0.63-0.71-1.39-0.53-1.91
		c1.51-4.45,1.6-9.09,2.02-13.69c0.08-0.84-0.16-1.85-0.61-2.56c-0.69-1.1-0.61-2.14-0.5-3.32c0.12-1.38,0.05-2.8-0.13-4.18
		c-0.19-1.43-0.67-2.82-0.91-4.25c-0.16-0.95-0.09-1.94-0.17-2.9c-0.16-1.94-0.52-3.89-0.48-5.83c0.05-1.98,0.52-3.94,0.76-5.92
		c0.37-3.03,1.89-5.84,1.6-8.99c-0.07-0.78-0.14-1.7,0.19-2.35c1.14-2.23,0.52-4.65,0.96-6.94c0.44-2.26,0.19-4.74,2.06-6.57
		c0.15-0.15,0.13-0.5,0.16-0.75c0.32-2.24,0.52-4.5,0.97-6.71c0.47-2.27-0.05-4.75,1.37-6.83c0.04-0.06,0.01-0.18,0.02-0.26
		c0.13-1.72,0.1-3.47,0.42-5.15c0.84-4.47,1.96-8.9,2.69-13.39c0.27-1.62-0.24-3.37-0.4-5.06c0-0.04-0.04-0.08-0.07-0.11
		c-1.89-1.79-1.07-3.93-0.37-5.75c0.72-1.87,2.08-3.49,3.17-5.21c0.97-1.53,1.95-3.07,2.94-4.59c0.28-0.44,0.56-0.91,0.94-1.24
		c1.81-1.55,2.97-3.31,2.15-5.82c-0.07-0.2-0.03-0.44-0.04-0.66c-0.08-2.91-0.11-5.83-0.26-8.73c-0.13-2.6-0.44-5.2-0.59-7.8
		c-0.15-2.56-0.21-5.12-0.27-7.69c-0.06-2.3-0.11-4.6-0.09-6.89c0.02-2.27-1.45-4.7,0.7-6.76c0.12-0.11,0.04-0.42,0.05-0.64
		c0.06-1.27-0.99-1.69-1.82-1.77c-0.92-0.09-2.38,0.08-2.76,0.68c-0.86,1.35-1.6,3.01-1.65,4.57c-0.06,1.75-0.38,3.29-1.21,4.77
		c-0.64,1.14-0.98,2.29-0.96,3.64c0.02,1.29-0.55,2.59-0.54,3.88c0,3.4,0.18,6.8,0.28,10.19c0,0.17-0.06,0.34-0.09,0.51
		c-0.28,1.52-1.03,3.08,0.41,4.47c0.2,0.2,0.12,0.68,0.18,1.03c0.47,2.46-0.06,5.2,2.1,7.21c0.17,0.16-0.1,1.25-0.4,1.39
		c-0.56,0.26-1.37,0.54-1.71-0.56c-0.21-0.69-0.7-1.29-1.06-1.93c-0.17,0.05-0.35,0.09-0.52,0.14c-0.07,0.99-0.12,1.98-0.22,2.97
		c-0.05,0.51-0.05,1.07-0.27,1.5c-0.89,1.72-1.93,3.35-2.77,5.09c-0.9,1.87-1.55,3.87-2.47,5.74c-0.69,1.41-1.6,2.71-2.47,4.03
		c-0.51,0.78-1.26,0.59-1.88,0.18c-0.72-0.49-0.47-1.1-0.11-1.76c1.39-2.52,2.75-5.06,4.07-7.63c0.66-1.3,1-2.76,2.31-3.68
		c0.48-0.33,0.97-0.85,1.11-1.38c0.11-0.4-0.2-1.26-0.52-1.38c-0.96-0.37-1.65,0.17-2.2,1.02c-0.59,0.9-1.72,1.06-2.02,0.32
		c-0.37-0.91-0.52-1.92-0.71-2.9c-0.07-0.38,0.07-0.81-0.01-1.2c-0.05-0.24-0.33-0.43-0.51-0.65c-0.19,0.21-0.46,0.4-0.56,0.64
		c-0.11,0.28-0.1,0.62-0.07,0.93c0.12,1.31,0.31,2.61,0.36,3.92c0.02,0.41-0.21,0.95-0.51,1.22c-1.09,0.97-1.69,0.88-2.67-0.24
		c-1.1-1.27-1.44-1.22-2.01,0.38c-0.36,1-0.69,2.02-0.96,3.05c-0.74,2.92-1.6,5.83-2.1,8.8C85.64,175.36,85.21,176.42,83.94,177.58z
		 M82.26,340.85c-1.77,1.39-1.77,1.4-0.13,2.88c0.16,0.15,0.37,0.25,0.54,0.4c0.65,0.57,0.95,1.16,0.2,1.92
		c-0.25,0.26-0.48,0.7-0.46,1.04c0.12,1.78,1.59,3.41,2.99,3.66c0.42,0.8,0.75,1.46,1.09,2.11c0.51-0.44,1.02-0.87,1.83-1.56
		c1.07-0.12,2.12,0.87,3.16,1.73c0.31,0.25,0.3,0.94,0.35,1.43c0.07,0.73,0.01,1.48,0.1,2.21c0.08,0.7,0.36,1.39,0.42,2.09
		c0.17,1.85,0.27,3.71,0.4,5.57c0.19,0,0.38,0,0.57-0.01c0-0.5,0.02-1.01,0-1.51c-0.05-0.96-0.26-1.94-0.15-2.89
		c0.13-1.18,0.34-2.42,0.84-3.48c0.57-1.21,1.41-2.31,2.27-3.35c0.59-0.71,1.38-1.33,2.45-0.67c0.09,0.06,0.48-0.21,0.61-0.4
		c0.6-0.86,1.04-1.86,1.76-2.58c0.66-0.66,0.93-1.14,0.26-1.89c-0.51-0.58-0.95-1.61-1.51-1.68c-1.52-0.19-1.74-0.95-1.53-2.19
		c0.03-0.2,0.01-0.45-0.07-0.63c-0.4-0.85-0.84-1.69-1.32-2.65c-1.01,0.77-1.67,2.12-2.27,3.42c-0.6,1.28-1.53,1.65-2.58,0.69
		c-1-0.91-1.81-0.88-2.75,0.12c-0.2,0.22-0.29,0.55-0.57,1.1c-1.05-2.01-1.84-3.54-2.66-5.11c-0.2,0.04-0.43,0.05-0.63,0.12
		c-0.86,0.31-1.44-0.03-1.96-0.71c-0.52-0.67,0.01-0.97,0.32-1.46c0.2-0.32,0.09-1.14-0.19-1.37c-0.77-0.64-0.6-1.28-0.18-1.89
		c0.56-0.81,0.98-1.91,2.29-1.73c1.64,0.22,2.17,0.89,2.72,2.81c0.16,0.57,0.79,1.13,1.35,1.42c0.27,0.14,1.07-0.25,1.28-0.61
		c0.65-1.11,1.48-1.32,2.2-0.96c0.95-0.56,1.71-0.91,2.35-1.41c0.25-0.2,0.42-0.77,0.33-1.09c-0.27-0.91-0.67-1.78-1.08-2.64
		c-0.11-0.24-0.38-0.49-0.63-0.59c-1.34-0.53-1.6-1.84-0.78-3.01c0.89-1.25,1.92-2.57,2.24-4.01c0.47-2.14,1.48-2.99,3.39-1.94
		c0.71,0.39,1.24,1.12,1.9,1.74c1.06-0.6,1.56-2.55,1.01-4.49c-0.21-0.73-2.42-2.21-3.41-2.17c0,0.33,0.04,0.68-0.01,1.01
		c-0.16,1.07-1.86,1.8-2.75,1.25c-1.1-0.7-2.17-1.56-3.38-1.95c-2.07-0.67-2.47-2.36-2.9-4.06c-0.46-1.82-0.81-3.66-1.24-5.67
		c-1.09,1.26-1.92,0.7-2.59-0.24c-0.65-0.91-0.02-1.55,0.61-2.14c1.16,0.75,1.51,0.68,1.75-0.58c0.2-1.06,0.14-2.18,0.17-3.27
		c0.02-0.79,0-1.58,0-2.16c-1.11,0-1.88,0-2.63,0c-0.26-2.13,0.26-2.61,2.62-2.44c0-1.38,0.04-2.74-0.03-4.11
		c-0.02-0.33-0.52-0.96-0.64-0.92c-0.98,0.3-1.64-0.26-1.67-0.99c-0.02-0.6,0.67-1.21,1.03-1.83c0.22-0.39,0.56-0.8,0.56-1.21
		c0-0.78-0.21-1.56-0.33-2.35c-0.21,0-0.37-0.05-0.46,0.01c-0.9,0.58-1.75,0.62-2.2-0.48c-0.54-1.31,0-2.3,1.33-2.61
		c0.82-0.19,1.08-0.63,0.98-1.44c-0.2-1.65-0.34-3.31-0.47-4.97c-0.02-0.29,0.22-0.6,0.19-0.88c-0.04-0.44-0.21-0.86-0.33-1.29
		c-0.42,0.17-1.04,0.23-1.22,0.53c-0.61,1.06-1.36,1.58-2.69,0.99c0.1,1.4,0.15,2.63,0.28,3.85c0.52,4.97,1.1,9.93,1.58,14.89
		c0.24,2.42,0.41,4.86,0.44,7.29c0.03,2.74-0.13,5.48-0.21,8.22c-0.01,0.4-0.11,0.79-0.13,1.19c-0.02,0.58-0.01,1.15-0.01,2.03
		c0.98-0.89,1.35-2.26,2.71-1.25c0.87,0.64,0.92,1.41,0.44,2.22c-1,1.65-2.12,0.41-3.5-0.1c0.47,4.62,0.59,9.05-0.89,13.2
		c-0.81,0.14-1.49,0.4-2.12,0.74c-0.94,0.51-2.16,0.8-2.09,2.28c0.01,0.13-0.3,0.34-0.49,0.39c-1.1,0.32-1.14,1.12-0.96,2.02
		c0.13,0.66,0.2,1.34,0.42,1.96c0.17,0.47,0.48,0.95,0.85,1.29c0.66,0.62,1.79,0.85,1.55,2.15c-0.04,0.21,0.26,0.58,0.5,0.72
		C81.81,338.6,82.12,339.68,82.26,340.85z M63.95,163.02c0.52-1.49,0.93-2.97,1.55-4.36c0.91-2.02,1.97-3.95,1.38-6.31
		c-0.17-0.7-0.07-1.48-0.06-2.23c0.02-1.86,0.07-3.71,0.09-5.57c0.01-0.84-0.24-1.73-0.03-2.51c0.93-3.52,0.79-7.12,0.75-10.68
		c-0.03-2.38,0.71-4.78-0.14-7.15c-0.06-0.18,0.09-0.43,0.14-0.64c0.45-2.05-0.96-4.14-3.06-4.53c-2.03-0.38-3.64-2.51-3.44-4.56
		c0.08-0.84-0.36-1.25-1.14-1.34c-0.44-0.05-0.89-0.02-1.33-0.06c-1.16-0.1-1.82,0.62-1.43,1.71c0.39,1.08,0.89,2.13,1.46,3.13
		c0.16,0.29,0.7,0.42,1.1,0.5c0.99,0.21,2.01,0.29,2.99,0.55c1.05,0.28,1.83,1.8,1.75,2.86c-0.18,2.43-0.31,4.87-0.4,7.3
		c-0.04,1.11,0.06,2.22,0.07,3.32c0.02,1.88,0.01,3.76,0.03,5.63c0.03,2.69,0.14,5.38,0.07,8.07c-0.06,2.16-0.58,4.31,0.67,6.35
		c0.22,0.36,0.03,1.01-0.06,1.51c-0.18,1.02-0.42,2.04-0.7,3.37C63.03,158.34,62.71,161.34,63.95,163.02z M65.83,206.96
		c-0.11,0.05-0.22,0.1-0.33,0.15c-0.03,0.13-0.09,0.26-0.09,0.38c0.16,3.26,0.33,6.52,0.5,9.78c0.01,0.22,0.06,0.44,0.09,0.66
		c0.56,3.74,1.22,7.47,1.66,11.22c0.44,3.73,0.64,7.49,0.98,11.23c0.35,3.93,0.74,7.85,1.1,11.78c0.16,1.73,0.2,3.47,0.4,5.19
		c0.45,3.8,0.97,7.59,1.47,11.38c0.15,1.18,0.32,2.35,0.48,3.53c0.17-0.01,0.34-0.02,0.51-0.03c0.04-0.8,0.16-1.61,0.09-2.4
		c-0.12-1.37-0.44-2.73-0.52-4.11c-0.21-3.89-0.31-7.79-0.49-11.69c-0.03-0.74-0.03-1.59-0.37-2.2c-0.72-1.28-0.46-2.55-0.41-3.87
		c0.07-1.76,0.17-3.55,0-5.3c-0.36-3.79-0.9-7.57-1.35-11.35c-0.25-2.11-0.46-4.22-0.71-6.33c-0.12-1-0.41-2-0.42-3
		c-0.06-3.32-0.01-6.64-0.03-9.96c-0.01-1.2,0.05-2.43-1.39-3.02c-0.28-0.12-0.39-0.66-0.58-1.01
		C66.24,207.65,66.04,207.3,65.83,206.96z M80.09,369.7c2.67,0.28,5.21,0.56,7.75,0.79c0.68,0.06,0.93-0.32,0.8-1.03
		c-0.35-2.04-0.21-4.19-1.39-6.05c-0.13-0.21-0.14-0.51-0.16-0.78c-0.18-2.75-1.74-4.87-3.2-7.03c-0.5-0.73-1.11-1.39-1.76-1.98
		c-0.29-0.26-0.8-0.29-1.2-0.42c-0.13,0.4-0.42,0.83-0.36,1.19c0.12,0.7,0.43,1.37,0.67,2.05c0.13,0.37,0.44,0.74,0.42,1.09
		c-0.13,1.89-0.2,3.8-0.56,5.65C80.67,365.33,81.69,367.67,80.09,369.7z M69.82,155.54c2.17-0.81,3.63-3.15,3.35-4.88
		c-0.25-1.59-0.45-3.21-0.41-4.81c0.15-5.04,0.77-10.08,0.11-15.14c-0.17-1.32-0.15-2.66-0.25-3.99c-0.12-1.51-0.25-3.02-0.44-4.52
		c-0.07-0.51-0.27-1.05-0.55-1.49c-0.15-0.24-0.59-0.31-0.89-0.46c-0.12,0.3-0.35,0.61-0.34,0.9c0.04,1.7,0.22,3.4,0.21,5.1
		c-0.02,2.82-0.12,5.64-0.22,8.46c-0.03,0.91-0.18,1.81-0.21,2.72c-0.13,3.52-0.27,7.05-0.34,10.57
		C69.78,150.47,69.82,152.94,69.82,155.54z M95.52,108.78c0-2.05,0.01-4.09,0-6.12c-0.03-3.94-0.02-7.89-0.11-11.83
		c-0.12-4.97-0.33-9.94-0.5-14.92c-0.05-1.6-0.06-3.2-0.12-4.79c-0.1-2.66-0.26-5.31-0.32-7.97c-0.01-0.63,0.49-1.31-0.44-1.68
		c-0.2,0.53-0.57,1.06-0.57,1.6c-0.03,2.87,0.08,5.75,0.04,8.62c-0.06,4.12-0.27,8.24-0.3,12.36c-0.02,3.45,0.08,6.9,0.22,10.35
		c0.07,1.88,0.33,3.74,0.54,5.92c-0.59-0.52-0.93-0.82-1.31-1.15c-0.77,0.91-0.15,2,0.31,2.11c1.57,0.37,1.17,1.38,1.08,2.3
		c-0.25-0.28-0.53-0.59-0.81-0.9c-0.18,0.06-0.36,0.12-0.53,0.18c0.11,1.28,0.21,2.56,0.34,3.84
		C93.28,109.11,93.29,109.11,95.52,108.78z M105.9,111.19c1.15-0.05,1.69-0.51,1.64-1.5c-0.08-1.5-0.21-3.01-0.32-4.51
		c-0.35-4.97-0.7-9.95-1.05-14.92c-0.27-3.82-0.54-7.64-0.8-11.45c-0.29-4.23-0.55-8.45-0.88-12.68c-0.11-1.42-0.4-2.82-0.61-4.23
		c-0.15,0.01-0.3,0.01-0.46,0.02c-0.09,0.27-0.28,0.54-0.27,0.8C104.06,78.87,104.98,95.01,105.9,111.19z M87.91,251.83
		c0-1.99,0.11-4.07-0.02-6.14c-0.25-3.73-0.7-7.45-0.97-11.18c-0.18-2.51-0.2-5.04-0.33-7.56c-0.02-0.3-0.28-0.74-0.53-0.84
		c-1.13-0.43-1.21-1.27-1.13-2.29c0.03-0.34-0.25-0.7-0.46-1.26c0,3.89-0.06,7.44,0.02,10.99c0.05,2.17,0.3,4.33,0.51,6.5
		c0.26,2.78,0.55,5.56,0.84,8.33c0.02,0.17,0.07,0.36,0.16,0.5C86.6,249.85,87.24,250.81,87.91,251.83z M80.05,239.26
		c0,0.66-0.04,1.14,0.01,1.62c0.2,2.12,0.44,4.23,0.64,6.35c0.08,0.83,0.06,1.68,0.15,2.51c0.33,2.82,0.68,5.63,1.04,8.44
		c0.21,1.62,0.25,3.3,0.72,4.85c0.37,1.2,0.11,1.83-0.92,2.18c-0.7,0.24-0.76,0.55-0.6,1.19c0.2,0.79,0.3,1.6,0.4,2.41
		c0.18,1.47,0.32,2.94,0.52,4.72c0.66-0.91,1.09-1.5,1.53-2.09c0.47,0.27,0.82,0.48,1.37,0.79c-0.25-2.58-0.44-4.94-0.71-7.3
		c-0.18-1.57-0.36-3.15-0.72-4.69c-0.66-2.8-1.69-5.55-0.83-8.5c0.11-0.37,0.03-0.8-0.02-1.19c-0.28-2.16-0.59-4.31-0.87-6.47
		c-0.05-0.35-0.06-0.72,0.02-1.06C82.16,241.42,81.8,240.15,80.05,239.26z M90.26,149.73c0.06-2.34,0.14-4.59,0.19-6.85
		c0.04-2.02,0.13-4.04,0.05-6.05c-0.03-0.83-0.45-1.64-0.66-2.47c-0.1-0.4-0.3-0.92-0.14-1.21c0.95-1.72,1.09-3.41,0.75-5.38
		c-0.46-2.63-0.48-5.35-0.59-8.04c-0.03-0.83-0.01-1.97,0.48-2.44c0.88-0.84,1.26-1.7,1.13-2.82c-0.03-0.32-0.34-0.88-0.48-0.87
		c-0.43,0.03-0.97,0.19-1.22,0.5c-0.28,0.35-0.35,0.91-0.39,1.4c-0.23,2.33-0.42,4.66-0.62,6.98c-0.03,0.31-0.05,0.62-0.05,0.93
		c0.02,3.55,0.09,7.09,0.06,10.64c-0.02,1.85-0.3,3.7-0.31,5.55c-0.03,2.65,0.19,5.31,0.08,7.96
		C88.5,148.99,88.78,149.77,90.26,149.73z M79.69,142.28c0.19,0.06,0.38,0.11,0.56,0.17c0.44-0.93,1.2-1.84,1.27-2.8
		c0.15-2.29-0.02-4.6-0.06-6.91c-0.06-3.47-0.11-6.95-0.19-10.42c-0.03-1.41-0.08-2.81-0.16-4.21c-0.07-1.32-0.18-2.64-0.32-3.95
		c-0.03-0.27-0.38-0.73-0.5-0.71c-0.34,0.07-0.76,0.28-0.92,0.56c-0.15,0.26-0.02,0.69,0.01,1.04c0.14,1.24,0.39,2.48,0.41,3.73
		c0.05,3.18,0.02,6.37-0.01,9.55c-0.02,3.41-0.07,6.82-0.1,10.23C79.68,139.79,79.69,141.03,79.69,142.28z M79.99,237.98
		c0.19,0.01,0.38,0.03,0.57,0.04c0.28-0.7,0.69-1.38,0.79-2.11c0.12-0.84,0.07-1.74-0.09-2.58c-0.28-1.51,0.3-3.15-0.78-4.58
		c-0.35-0.46-0.57-1.46-0.31-1.87c1.43-2.23,0.37-4.64,0.54-6.93c0.19-2.56-0.58-5.19-0.83-7.79c-0.09-0.94-0.73-1.09-1.36-1.1
		c-0.19-0.01-0.6,0.74-0.57,1.12c0.1,1.54,0.48,3.08,0.46,4.62c-0.01,1.4-0.01,2.67,0.89,3.88c0.4,0.54,0.61,1.48,0.43,2.11
		c-0.38,1.34-1.23,2.57-0.16,3.96c0.1,0.13-0.01,0.43-0.02,0.65c-0.11,2.44-0.3,4.87-0.28,7.31
		C79.27,235.81,79.73,236.89,79.99,237.98z M75.91,151.14c0.18,0.01,0.36,0.02,0.54,0.03c0.08-0.41,0.21-0.82,0.23-1.24
		c0.04-1.38,0.01-2.76,0.07-4.14c0.06-1.24,0.3-2.48,0.28-3.72c-0.06-3.75-0.22-7.5-0.31-11.25c-0.05-2.25-0.03-4.5-0.09-6.75
		c-0.03-1.28-0.2-2.56-0.23-3.85c-0.05-2.07,0-4.15-0.08-6.21c-0.01-0.33-0.6-0.93-0.8-0.89c-0.42,0.1-0.77,0.52-1.11,0.86
		c-0.09,0.09,0.01,0.34,0,0.52c-0.11,2.55,1.5,4.96,0.58,7.57c-0.01,0.04,0.03,0.09,0.03,0.13c0.31,3.68,0.79,7.36,0.9,11.04
		c0.11,4.08-0.14,8.17-0.18,12.25C75.73,147.37,75.85,149.26,75.91,151.14z M94.23,133.29c1.84-1.51,1.86-2.59,0.69-3.89
		c-0.36-0.39-0.32-1.26-0.24-1.88c0.06-0.49,0.65-0.94,0.67-1.42c0.07-2,0.08-4-0.02-6c-0.04-0.94-0.42-1.85,1.15-1.68
		c0.27,0.03,0.83-0.49,0.88-0.81c0.13-0.91,0.06-1.86,0.06-2.79c0-0.02-0.08-0.05-0.12-0.05c-0.91-0.04-1.94-0.34-2.69-0.02
		c-0.45,0.19-0.53,1.36-0.67,2.12c-0.33,1.81,0.43,3.73-0.6,5.49c-0.15,0.27,0.01,0.75,0.09,1.12c0.2,0.94,0.63,1.88,0.62,2.82
		c-0.01,1.52-0.38,3.04-0.43,4.57C93.6,131.6,93.98,132.34,94.23,133.29z M100.73,268.75c-0.88,8.37-0.82,16.74-0.93,25.35
		c0.64-0.78,1.12-1.37,1.59-1.94c-1.18-2.01-1.16-2,0.39-3.68c0.15-0.16,0.14-0.69-0.01-0.89c-1.24-1.72-1.24-1.9,0.2-3.47
		c0.62-0.68,0.68-2.31,0.09-2.81c-1.04-0.9-1.65-3.34-1.26-4.68c0.23-0.79,0.33-1.63,0.42-2.45c0.09-0.78,0.16-1.47,1.16-1.69
		c0.36-0.08,0.82-0.62,0.87-0.99c0.04-0.35-0.34-0.83-0.64-1.14C102.1,269.83,101.51,269.4,100.73,268.75z M84.66,117.82
		c-0.11,0.07-0.21,0.14-0.32,0.2c0,8.36,0,16.71,0,25.07c0.14,0.02,0.29,0.05,0.43,0.07c0.15-0.34,0.39-0.66,0.42-1.01
		c0.21-2.06,0.41-4.12,0.53-6.19c0.22-3.74,0.64-7.47,0.07-11.23c-0.26-1.7-0.21-3.44-0.41-5.16
		C85.31,118.98,84.91,118.41,84.66,117.82z M70.47,351.97c0.22,0.04,0.44,0.08,0.67,0.13c0.13-3.85,1.21-7.12,5.32-8.91
		c-1.13-1.37-2.16-2.63-3.28-3.99c-0.37,0.93-0.45,1.86-0.94,2.23c-2.27,1.72-2.34,4.2-2.41,6.63
		C69.8,349.35,70.24,350.66,70.47,351.97z M100.8,140.36c-0.29-0.46-0.53-0.97-0.89-1.35c-0.85-0.91-0.67-1.86,0.21-2.39
		c1.07-0.65,0.86-1.29,0.26-1.91c-0.81-0.82-0.62-1.56-0.16-2.41c0.22-0.42,0.52-0.89,0.5-1.33c-0.11-1.99-0.28-3.98-0.5-5.96
		c-0.08-0.69-0.39-1.36-0.6-2.04c-0.23,0.01-0.45,0.02-0.68,0.04c-0.09,0.71-0.26,1.43-0.25,2.14c0.01,1.24,0.2,2.48,0.2,3.72
		c0,0.97-0.21,1.93-0.23,2.9c-0.05,2.19,0,4.38-0.09,6.57C98.5,139.97,98.67,140.26,100.8,140.36z M79.3,188.2
		c-0.22-0.08-0.45-0.17-0.67-0.25c-0.2,0.51-0.49,1-0.6,1.53c-0.26,1.25-0.34,2.53-1.54,3.38c-0.24,0.17-0.19,0.88-0.14,1.32
		c0.07,0.59,0.59,1.37,0.37,1.7c-0.78,1.15-0.15,2.08,0.09,3.14c0.38,1.7,1.43,0.72,2.18,0.63c1.15-0.15,0.58-0.98,0.42-1.55
		c-0.1-0.37-0.31-0.78-0.6-1c-1.2-0.9-1.03-1.94-0.66-3.22C78.66,192.03,78.92,190.1,79.3,188.2z M91.49,75.71
		c0.21-0.02,0.41-0.04,0.62-0.05c0-0.72-0.03-1.44,0-2.16c0.15-3.55,0.33-7.1,0.44-10.65c0.02-0.78-0.13-1.59-0.33-2.36
		c-0.09-0.34-0.49-0.61-0.75-0.91c-0.21,0.35-0.59,0.7-0.61,1.06c-0.06,1.2,0,2.4,0.03,3.6c0.06,2.26,0.1,4.52,0.21,6.78
		C91.18,72.58,91.35,74.14,91.49,75.71z M77.63,165.81c0.86-1.87,1.67-3.67,2.51-5.45c0.45-0.95,0.12-1.72-0.8-1.79
		c-1.26-0.11-2.94,1.2-3.14,2.5c-0.12,0.75-0.19,1.5-0.2,2.26C75.98,164.75,76.73,165.71,77.63,165.81z M81.02,155.32
		c0.19-0.49,0.47-0.87,0.47-1.25c-0.03-2.9-0.06-5.81-0.23-8.7c-0.03-0.54-0.66-1.05-1.12-1.73
		C79.03,145.89,79.68,153.62,81.02,155.32z M108.8,107.87c0.13-0.01,0.25-0.02,0.38-0.03c0.98-2.37-0.27-17.34-1.65-18.58
		C107.96,95.53,108.38,101.7,108.8,107.87z M72.04,164.54c0.47-0.83,1.07-1.43,1.14-2.09c0.2-2.1,0.79-4.03,1.81-5.85
		c0.13-0.24,0.16-0.54,0.24-0.84c-1.42-0.43-2.17,0.32-2.6,1.33C71.65,159.39,70.11,161.67,72.04,164.54z M99.8,295.4
		c-0.24,3.29-0.48,6.46-0.67,9.64c-0.03,0.52,0.16,1.06,0.25,1.59c0.16-0.02,0.33-0.04,0.49-0.06c0.04-0.46,0-0.95,0.15-1.37
		c0.14-0.41,0.39-0.89,0.74-1.1c1.25-0.73,1.36-1.27,0.33-2.31c-0.86-0.87-1-2.25-0.32-3.15C102.09,296.88,101.95,296.35,99.8,295.4
		z M93.46,133.77c0,1.2-0.01,2.42,0.01,3.63c0,0.14,0.16,0.34,0.3,0.42c1.19,0.74,0.9,1.98,0.45,2.72c-0.89,1.46-0.4,2.64,0.16,4.23
		c0.45-0.76,0.96-1.26,1.02-1.82c0.19-1.63,0.24-3.28,0.27-4.92c0.03-1.64-1.76-2.59-1.72-4.26
		C93.91,133.77,93.87,133.77,93.46,133.77z M75.09,322.46c0.56-0.79,1.32-1.48,1.55-2.32c0.19-0.69-0.18-1.57-0.4-2.35
		c-0.29-1.06-0.67-2.09-1.01-3.13c-0.17,0.03-0.34,0.06-0.52,0.09c-0.29,1.56-0.51,3.14-0.89,4.68
		C73.54,320.61,73.72,321.52,75.09,322.46z M91.65,109.93c0.2-0.01,0.41-0.02,0.61-0.04c-0.04-0.6-0.03-1.21-0.14-1.8
		c-0.09-0.47-0.47-0.9-0.5-1.37c-0.15-2.25-0.23-4.51-0.33-6.76c-0.05-1.07-0.05-2.14-0.13-3.2c-0.08-1.02-0.2-2.04-0.34-3.05
		c-0.14-0.99-0.35-1.96-0.53-2.94c-0.11,0.02-0.23,0.03-0.34,0.05C90.1,97.22,90.77,103.59,91.65,109.93z M101.62,260.39
		c-0.51,1.15-0.89,6.83-0.5,7.46c0.52-0.24,1.03-0.48,1.56-0.72c1.03-0.47,0.93-0.66,0.15-1.52c-0.55-0.6-0.86-1.54-0.96-2.36
		c-0.03-0.25,0.99-0.61,1.5-0.96c0.27-0.18,0.71-0.49,0.67-0.63c-0.09-0.31-0.38-0.67-0.68-0.8
		C102.85,260.63,102.27,260.56,101.62,260.39z M74.6,207.41c0.39,4.87,0.78,9.74,1.17,14.61C76.78,220.6,75.83,209.46,74.6,207.41z
		 M84.69,212.9c-0.1-0.1-0.2-0.19-0.31-0.29c-0.37,0.23-1.04,0.44-1.06,0.69c-0.17,2.18-0.23,4.38,1.79,5.87
		c0.24,0.18,0.76-0.01,1.16-0.03c-0.27-1.04-0.27-2.3-0.89-3.07C84.55,215.06,83.89,214.24,84.69,212.9z M104.55,253.38
		c1.25-3.04,0.44-3.98-1.84-4.12C102.09,252.98,102.09,252.98,104.55,253.38z M73.03,293.32c0.15,0,0.3,0,0.45,0
		c0.62-1.3,0.18-11.42-0.45-12.12C73.03,285.19,73.03,289.25,73.03,293.32z M104.49,204.88c0.79-0.2,1.82-0.21,1.92-0.53
		c0.55-1.67,0.89-3.42,1.26-5.15c0.03-0.15-0.15-0.34-0.38-0.8c-0.36,1.15-0.69,2.01-0.89,2.9c-0.21,0.96-0.57,1.65-1.65,1.82
		c-0.28,0.04-0.66,0.36-0.72,0.61c-0.2,0.86-0.28,1.75-0.4,2.63c0.1,0.02,0.19,0.05,0.29,0.07
		C104.13,205.87,104.33,205.31,104.49,204.88z M77.49,208.44c0.88-0.59,1.85-0.89,2.09-1.49c0.32-0.8,0.14-1.82,0.06-2.74
		c-0.07-0.83-0.5-0.88-1.2-0.45C76.7,204.84,77.1,206.37,77.49,208.44z M74.72,311.59c0.18-0.02,0.36-0.04,0.54-0.07
		c-0.07-3.58,0.16-7.2-1.76-10.55C73.9,304.51,74.31,308.05,74.72,311.59z M90.87,156.63c-0.2-0.98-0.17-1.69-0.48-2.17
		c-0.29-0.43-0.95-0.62-1.44-0.92c-0.22,0.43-0.51,0.84-0.65,1.29c-0.13,0.41-0.27,0.96-0.09,1.27c0.32,0.59,0.79,1.28,1.35,1.49
		C89.85,157.71,90.5,156.92,90.87,156.63z M107.22,223.8c-0.21-0.06-0.41-0.12-0.62-0.18c-0.17,0.53-0.38,1.05-0.51,1.59
		c-0.24,1.02-0.27,2.11-0.68,3.05c-0.41,0.94-0.34,1.59,0.72,2.51c0.3-0.6,0.71-1.08,0.76-1.6
		C107.06,227.39,107.12,225.59,107.22,223.8z M67.16,180.7c0-1.52,0-2.96,0-4.48c-1.78,0.52-2.34,2.74-1.51,5.08
		C66.13,181.11,66.61,180.92,67.16,180.7z M99.76,309.91c0.06,1.84,0.39,3.49,2.61,3.86C103.04,311.31,102.22,310.09,99.76,309.91z
		 M66.73,116.23c0.12-0.06,0.25-0.12,0.37-0.19c-0.06-0.93,0.17-2.03-0.26-2.72c-0.32-0.52-1.58-0.81-2.28-0.64
		c-0.8,0.2-0.77,1.16-0.17,1.74C65.1,115.09,65.94,115.63,66.73,116.23z M84.72,116.25c0.53-0.19,1.02-0.39,1.53-0.55
		c1.13-0.35,0.53-1.26,0.53-1.89c0-0.26-0.73-0.76-1.09-0.73C84.24,113.21,83.79,114.88,84.72,116.25z M105.58,239.04
		c0.18-0.08,0.36-0.16,0.54-0.23c0.04-0.82,0.04-1.64,0.13-2.45c0.08-0.67,0.32-1.43-0.65-1.55c-1.03-0.13-1.6,0.71-1.43,1.48
		C104.39,237.25,105.09,238.12,105.58,239.04z M100.7,144.32c-0.19-0.05-0.39-0.1-0.58-0.15c-0.57,0.7-1.37,1.32-1.64,2.12
		c-0.46,1.37,1.23,1.29,1.98,2.08C100.53,147.02,100.62,145.67,100.7,144.32z M70.3,179.14c1.06-0.86,1.5-4.36,0.88-5.07
		c-0.15-0.17-0.5-0.32-0.69-0.26c-0.19,0.05-0.42,0.39-0.41,0.6C70.11,175.89,70.21,177.37,70.3,179.14z M73.27,325.41
		c-1.85,0.31-3.25,6.74-1.81,8.29C70.01,330.52,72.64,328.24,73.27,325.41z M101.65,217.6c-1.19,0.72-2.34,6.99-1.53,7.76
		C100.63,222.79,101.11,220.31,101.65,217.6z M74.15,201.87c0.22-0.01,0.43-0.03,0.65-0.04c0-1.46,0.02-2.92-0.03-4.38
		c-0.01-0.2-0.39-0.39-0.6-0.59c-0.15,0.23-0.44,0.47-0.43,0.7C73.84,199,74,200.44,74.15,201.87z M106.07,328.49
		c-0.82-0.66-1.31-1.12-1.89-1.43c-0.09-0.05-0.84,0.67-0.78,0.86c0.23,0.68,0.69,1.28,1.06,1.91
		C104.89,329.48,105.32,329.13,106.07,328.49z M84.57,150.25c1.35-1.24,1.13-4.06-0.3-4.77C84.37,147.07,84.46,148.5,84.57,150.25z
		 M101.86,334.55c-1.02,1.23,0.16,2.09,0.35,3.28C104.17,335.64,104.11,335.3,101.86,334.55z M98.5,155.71
		c0.34-0.64,0.59-0.95,0.67-1.31c0.16-0.68,0.17-1.41,0.37-2.07c0.16-0.55,0.51-1.04,0.9-1.79
		C98.12,151.68,97.61,152.98,98.5,155.71z M95.25,148.52c0.01-1.55-0.55-2.77-1.47-3.25c-0.03,0.49,0,0.98-0.09,1.44
		C93.32,148.47,93.31,148.46,95.25,148.52z M105.89,244.75c-0.6-0.4-0.94-0.81-1.32-0.85c-0.63-0.08-1.4,0.18-1.21,0.97
		c0.12,0.5,0.81,0.86,1.24,1.28C104.94,245.77,105.29,245.4,105.89,244.75z M104.75,220.02c0.12,0.02,0.25,0.04,0.37,0.06
		c0.21-0.98,0.49-1.94,0.59-2.93c0.03-0.29-0.43-0.63-0.67-0.95c-0.2,0.31-0.56,0.63-0.56,0.94
		C104.49,218.1,104.65,219.06,104.75,220.02z M70.03,115.16c0.19,0.03,0.37,0.05,0.56,0.08c0.17-0.79,1.57-1.01,0.84-2.14
		c-0.19-0.29-0.95-0.21-1.45-0.3C69.99,113.59,70.01,114.37,70.03,115.16z M72.17,367.32c0.14,0,0.27,0,0.41,0c0-1.48,0-2.97,0-4.45
		c-0.16,0-0.33,0-0.49,0C71.55,364.36,72.21,365.84,72.17,367.32z M61.96,177.15c0.19-0.01,0.37-0.02,0.56-0.03
		c-0.07-1.49-0.15-2.97-0.22-4.46c-0.11,0.01-0.22,0.01-0.34,0.02C61.96,174.18,61.96,175.66,61.96,177.15z M106.31,357.44
		c-0.1,1.68-0.18,3.02-0.27,4.37c0.15,0,0.3,0.01,0.44,0.01C106.81,360.47,107.38,359.12,106.31,357.44z M107.24,337.53
		c0.35-1.19,0.7-2.39,1.04-3.58C106.47,336.53,106.47,336.53,107.24,337.53z M104.32,257c-0.81-0.13-1.34-0.36-1.78-0.25
		c-0.62,0.16-0.84,1.28-0.55,1.78C102.63,258.12,103.26,257.7,104.32,257z M97.74,328.28c-0.83,1.02-0.71,1.59,0.11,1.86
		c0.27,0.09,0.65-0.16,0.99-0.25C98.5,329.39,98.16,328.89,97.74,328.28z M103.63,115.35c-0.05,0.95-0.09,1.71-0.13,2.48
		C104.72,116.56,104.75,116.16,103.63,115.35z M67.31,164.36c1.04-1.37,1.03-1.88,0-2.92C67.31,162.44,67.31,163.28,67.31,164.36z
		 M100.17,245.48c-0.16-0.04-0.33-0.08-0.49-0.12c-0.15,0.81-0.3,1.62-0.45,2.43c0.2,0.03,0.39,0.07,0.59,0.1
		C99.94,247.09,100.06,246.29,100.17,245.48z M99.63,363.25c0.19,0.03,0.37,0.07,0.56,0.1c0.17-1.19,0.33-2.38,0.5-3.57
		c-0.09-0.01-0.17-0.02-0.26-0.03C100.17,360.92,99.9,362.08,99.63,363.25z M108.21,324.72c0.14-0.04,0.28-0.08,0.41-0.12
		c-0.23-0.93-0.46-1.86-0.69-2.79c-0.14,0.04-0.28,0.07-0.42,0.11C107.75,322.85,107.98,323.78,108.21,324.72z M106.16,211.9
		c-0.18-0.03-0.37-0.05-0.55-0.08c-0.19,0.85-0.39,1.71-0.58,2.56c0.13,0.03,0.27,0.06,0.4,0.1
		C105.67,213.61,105.91,212.75,106.16,211.9z"/>
	<path d="M71.68,36.12c0.15,1.12,0.32,2.22,0.44,3.32c0.25,2.45,0.43,4.91,0.73,7.36c0.06,0.5,0.54,0.95,0.83,1.43
		c0.15-0.01,0.31-0.03,0.46-0.04c0.19-1.05,0.48-2.1,0.54-3.16c0.1-1.75,0.11-3.52,0.03-5.27c-0.05-0.99,0.58-0.96,1.18-1.07
		c0.72-0.13,1.07,0.17,1.09,0.94c0.09,2.81,0.22,5.62,0.33,8.42c0.04,1.06,0.05,2.13,0.1,3.19c0.06,1.27,0.04,2.47-0.82,3.56
		c-0.29,0.37-0.24,1.02-0.56,1.53c-0.02-0.23,0.04-0.53-0.08-0.69c-0.32-0.42-0.73-0.77-1.1-1.15c-0.26,0.35-0.7,0.68-0.76,1.07
		c-0.26,1.72-0.42,3.46-0.61,5.2c-0.12,0.01-0.25,0.02-0.37,0.03c-0.15-2.17-0.3-4.35-0.43-6.52c-0.06-0.89-0.08-1.79-0.1-2.68
		c-0.01-0.87-0.4-1.27-1.3-1.33c-0.59-0.04-1.17-0.33-1.94-0.57c0.02-0.03-0.14,0.19-0.44,0.6c-0.03-0.43-0.16-0.76-0.05-0.88
		c1.1-1.21,0.59-2.56,0.46-3.92c-0.18-1.87-0.2-3.76-0.23-5.65C69.03,38.2,69.27,36.68,71.68,36.12z"/>
	<path d="M60.54,80.15c-0.44-1.07-0.88-1.81-1.06-2.61c-0.42-1.91-0.8-3.84-1.04-5.78c-0.14-1.15,0.09-2.34,0-3.51
		c-0.03-0.43-0.5-1.15-0.8-1.17c-1.03-0.06-0.99-0.7-1.01-1.38c-0.13-3.73-0.21-7.45-1.19-11.1c-0.26-0.95-0.14-2.01-0.2-3.02
		c-0.11-1.71-0.26-3.41-0.33-5.12c-0.06-1.5,0.01-3-0.05-4.49c-0.11-2.69,1.02-5.29,0.45-8.06c-0.17-0.83,0.79-1.89,1.28-2.98
		c1.08,0.94,1.39,1.79,1.25,2.99c-0.2,1.78-0.14,3.59-0.19,5.39c-0.06,2.41,0.41,5.01-0.35,7.18c-0.65,1.84-0.23,3.54-0.48,5.27
		c-0.23,1.59,0.53,3.34,0.93,5c0.35,1.45,0.92,2.85,1.22,4.32c0.41,2.08,0.71,4.18,0.96,6.28c0.16,1.39,0.14,2.81,0.2,4.22
		c0.01,0.13-0.01,0.28,0.04,0.39c1.08,2.23,0.52,4.69,0.99,7.01c0.02,0.12,0,0.27-0.05,0.39C61.07,79.49,60.97,79.59,60.54,80.15z"
		/>
	<path d="M78.97,71.78c2.06,3.14,1.91,6.62,2.01,10.01c0.1,3.29,0.02,6.58-0.07,9.9c-0.05-0.58-0.09-1.17-0.16-1.75
		c-0.32-2.64-0.87-5.27-0.9-7.91c-0.02-1.91-0.05-3.74-0.65-5.56C78.43,74.15,78.45,74.14,78.97,71.78z"/>
	<path d="M74.59,107.56c-0.22-0.5-0.52-0.89-0.55-1.29c-0.26-3.35-0.51-6.71-0.7-10.07c-0.08-1.36-0.02-2.72-0.02-4.08
		c0-2.88,0-5.76,0.19-8.66C73.87,91.43,74.23,99.41,74.59,107.56z"/>
	<path d="M74.07,62.1c0.83,7.26,1.66,14.51,2.5,21.77c-1.87-7.12-1.8-14.49-2.87-21.71C73.82,62.14,73.95,62.12,74.07,62.1z"/>
	<path d="M69.46,51.87c0.25,2.93,0.51,5.87,0.76,8.8c-0.13,0.01-0.26,0.03-0.39,0.04c-0.36-2.93-0.71-5.86-1.07-8.79
		C68.99,51.9,69.23,51.88,69.46,51.87z"/>
	<path d="M77.91,102.16c0,1.59,0,3.18,0,4.77c-0.08,0.01-0.16,0.02-0.24,0.02c0-1.58,0-3.16,0-4.75
		C77.75,102.19,77.83,102.18,77.91,102.16z"/>
	<path d="M78.22,70.67c-0.12-1.05-0.23-2.09-0.35-3.14c0.16-0.02,0.32-0.04,0.48-0.06c0.15,1.05,0.3,2.09,0.45,3.14
		C78.6,70.63,78.41,70.65,78.22,70.67z"/>
	<path d="M73.12,80.1c-0.16-1.6-0.32-3.21-0.48-4.81c0.04,0,0.08-0.01,0.12-0.01c0.26,1.58,0.52,3.15,0.78,4.73
		C73.4,80.03,73.26,80.06,73.12,80.1z"/>
	<path d="M78.15,98.55c-0.04,0.85-0.08,1.7-0.13,2.56c-0.14,0-0.27,0-0.41,0c-0.04-0.86-0.08-1.72-0.12-2.58
		C77.71,98.52,77.93,98.53,78.15,98.55z"/>
	<path class="st0" d="M81.45,373.34c2.57,0.27,4.71,0.62,6.86,0.69c2.37,0.08,4.74-0.1,7.11-0.16c0.17,0,0.37-0.02,0.52,0.04
		c1.2,0.46,2.42,0.9,3.58,1.46c0.29,0.14,0.49,0.64,0.58,1.02c0.62,2.46,1.24,4.92,1.8,7.39c0.53,2.36,0.99,4.74,1.47,7.11
		c0.03,0.13,0.07,0.27,0.05,0.4c-0.45,3.77,0.83,7.28,1.53,10.89c0.28,1.44,0.25,2.94,0.53,4.38c1.03,5.37,2.11,10.74,3.22,16.1
		c0.59,2.88,1.38,5.71,1.9,8.6c0.48,2.7,0.79,5.43,1.06,8.16c0.37,3.71,0.57,7.43,0.94,11.14c0.22,2.14,0.67,4.25,0.94,6.38
		c0.27,2.19,0.41,4.39,0.65,6.58c0.3,2.74,0.69,5.48,0.96,8.22c0.29,2.97,0.49,5.94,0.74,8.91c0.2,2.35,0.46,4.69,0.66,7.04
		c0.11,1.32,0.13,2.65,0.24,3.97c0.22,2.52,0.4,5.05,0.72,7.55c0.64,5.07,1.45,10.12,2.03,15.2c0.49,4.36,0.74,8.75,1.13,13.13
		c0.18,2.01,0.55,4,0.69,6.01c0.1,1.51-0.05,3.03-0.05,4.55c0,2.25,0.06,4.49,0.03,6.74c-0.04,2.68-0.13,5.37-0.23,8.05
		c-0.08,2.07-0.16,4.15-0.35,6.21c-0.19,2.03-0.56,4.04-0.75,6.07c-0.39,4.11-0.71,8.22-1.09,12.33c-0.13,1.4-0.38,2.8-0.52,4.2
		c-0.19,1.94-0.37,3.87-0.49,5.81c-0.22,3.57,0.05,7.18-0.88,10.71c-0.25,0.96-0.33,2.04-0.16,3.01c0.34,1.96-0.02,3.77-0.48,5.66
		c-0.4,1.62-0.44,3.34-0.58,5.02c-0.29,3.35-0.57,6.71-0.81,10.06c-0.2,2.74-0.4,5.48-0.51,8.22c-0.1,2.43,0.02,4.88-0.13,7.31
		c-0.1,1.72-0.5,3.42-0.76,5.13c-0.58,3.83-1.24,7.64-1.68,11.48c-0.22,1.88,0.09,3.82-0.04,5.72c-0.25,3.77-0.65,7.52-0.96,11.29
		c-0.08,1.02-0.02,2.04-0.08,3.06c-0.29,4.56-0.65,9.12-0.88,13.68c-0.1,1.94,0.15,3.89,0.06,5.83c-0.12,2.65-0.45,5.3-0.64,7.95
		c-0.2,2.74-0.35,5.49-0.53,8.23c-0.26,4.04-0.56,8.07-0.77,12.11c-0.16,3.02-0.17,6.05-0.34,9.07c-0.24,4.4-0.53,8.79-0.87,13.18
		c-0.3,3.84-0.71,7.67-1.04,11.51c-0.21,2.44-0.46,4.88-0.5,7.32c-0.04,2.44,0.4,4.89,0.23,7.31c-0.36,4.93-1.03,9.83-1.49,14.75
		c-0.29,3.01-0.61,6.03-0.59,9.04c0.02,3.23,0.6,6.45,0.64,9.68c0.05,3.9-0.17,7.81-0.37,11.71c-0.13,2.52-0.34,5.04-0.65,7.55
		c-0.24,1.99-0.75,3.94-0.99,5.92c-0.44,3.6-0.76,7.22-1.15,10.83c-0.3,2.75-0.62,5.5-0.97,8.25c-0.6,4.68-1.19,9.36-1.86,14.03
		c-0.37,2.6-0.98,5.16-1.34,7.76c-0.67,4.86-1.23,9.73-1.86,14.59c-0.78,6.09-1.68,12.18-2.36,18.28
		c-0.58,5.25-0.93,10.53-1.38,15.8c-0.2,2.36-0.46,4.71-0.56,7.07c-0.1,2.22,0.11,4.45-0.07,6.66c-0.3,3.8-0.76,7.58-1.19,11.37
		c-0.35,3.05-0.6,6.08,0.2,9.13c0.25,0.94,0.02,2.05-0.19,3.05c-1.24,5.92-2.47,11.84-3.85,17.73c-0.64,2.75-1.57,5.44-2.48,8.12
		c-0.23,0.67-0.87,1.2-1.37,1.77c-1.07,1.22-2.11,2.48-3.28,3.59c-0.49,0.46-1.29,0.75-1.98,0.83c-1.7,0.18-3.33-0.26-4.91-0.88
		c-0.23-0.09-0.5-0.3-0.57-0.52c-0.52-1.67-0.82-3.44-1.51-5.03c-1-2.28-0.77-4.67-1.07-7.01c-0.16-1.28-0.6-2.52-0.81-3.8
		c-0.2-1.22-0.04-2.54-0.43-3.68c-0.82-2.38-0.62-4.92-1.45-7.32c-0.57-1.64-0.49-3.51-0.75-5.26c-0.07-0.46-0.48-0.89-0.51-1.34
		c-0.15-2.69-0.2-5.39-0.35-8.08c-0.11-1.89-0.26-3.79-0.5-5.67c-0.86-6.83-1.06-13.66-0.59-20.53c0.22-3.14-0.09-6.32-0.1-9.48
		c-0.01-2.21,0.14-4.42,0.09-6.63c-0.08-3.76-0.25-7.53-0.4-11.29c-0.14-3.57-0.29-7.14-0.45-10.7c-0.15-3.21-0.43-6.43-0.43-9.64
		c0-2.21,0.53-4.41,0.54-6.62c0.01-2.95,0.59-5.92-0.38-8.85c-0.24-0.73-0.13-1.57-0.2-2.36c-0.23-2.42-0.52-4.84-0.69-7.26
		c-0.13-1.86,0.22-3.81-0.22-5.58c-0.59-2.37,0.01-4.68-0.22-7c-0.29-3.04-0.46-6.1-0.66-9.15c-0.1-1.59-0.18-3.19-0.23-4.78
		c-0.1-2.96-0.22-5.92-0.26-8.88c-0.01-1.06,0.2-2.13,0.27-3.19c0.07-1.15,0.19-2.31,0.11-3.45c-0.31-4.33-0.72-8.66,0.12-12.98
		c0.07-0.34,0.2-0.83,0.04-1.03c-0.98-1.25-0.37-2.67-0.5-4c-0.14-1.52,0.26-3.12,0-4.61c-0.99-5.62-0.03-11.23-0.13-16.83
		c-0.05-2.84,0.13-5.69,0.06-8.53c-0.04-1.8-0.47-3.59-0.5-5.39c-0.09-4.29,0.02-8.58-0.07-12.87c-0.07-3.78-0.41-7.56-0.42-11.34
		c-0.01-4.14,0.25-8.29,0.37-12.43c0.07-2.38,0.03-4.77,0.15-7.15c0.1-1.92,0.41-3.83,0.56-5.75c0.1-1.28,0.12-2.58,0.1-3.87
		c-0.02-1.77-0.21-3.54-0.14-5.31c0.09-2.46,0.45-4.91,0.52-7.36c0.09-3.22,0.03-6.44-0.04-9.67c-0.03-1.7-0.6-3.5-0.22-5.08
		c0.55-2.24,0.08-4.41,0.24-6.6c0.1-1.27-0.09-2.57-0.02-3.85c0.14-2.69,0.32-5.37,0.55-8.05c0.22-2.52,0.6-5.03,0.76-7.56
		c0.22-3.5,0.45-7.02,0.39-10.52c-0.06-3.48,0.26-6.89,1.03-10.27c0.04-0.17,0.09-0.37,0.05-0.53c-0.79-2.76-0.02-5.5,0.12-8.23
		c0.15-2.91,0.6-5.81,0.73-8.73c0.06-1.32-0.47-2.67-0.49-4c-0.05-4.26,0.08-8.53,0.02-12.79c-0.04-2.76-0.3-5.52-0.42-8.28
		c-0.07-1.65-0.04-3.3-0.11-4.95c-0.15-3.59-0.45-7.17-0.46-10.76c-0.01-3.19,0.31-6.38,0.42-9.57c0.03-0.79-0.21-1.58-0.27-2.37
		c-0.12-1.76-0.14-3.52-0.32-5.27c-0.15-1.44-0.5-2.87-0.69-4.31c-0.13-0.94-0.15-1.91-0.2-2.86c-0.11-1.99-0.19-3.98-0.3-5.97
		c-0.13-2.39-0.37-4.78-0.4-7.17c-0.04-3.42,0.06-6.84,0.1-10.26c0.02-1.72-0.09-3.45,0.04-5.17c0.17-2.25,0.55-4.49,0.79-6.74
		c0.27-2.51,0.46-5.03,0.73-7.54c0.51-4.85,1.04-9.71,1.59-14.56c0.36-3.18,0.73-6.36,1.18-9.52c0.64-4.58,1.37-9.15,2.03-13.72
		c0.91-6.25,1.86-12.5,2.67-18.77c0.5-3.87,0.75-7.78,1.2-11.66c0.29-2.52,0.9-5.01,1.06-7.53c0.29-4.39,0.34-8.8,0.52-13.19
		c0.09-2.22,0.27-4.44,0.4-6.66c0.08-1.42,0.11-2.85,0.18-4.27c0.13-2.9,0.36-5.79,0.36-8.69c0.01-3.71-0.27-7.42-0.17-11.12
		c0.02-0.84,0.92-2.12,1.7-2.41C76.94,374.34,79.4,373.87,81.45,373.34z"/>
	<path class="st0" d="M83.94,177.58c1.27-1.16,1.7-2.22,1.93-3.6c0.5-2.97,1.35-5.88,2.1-8.8c0.26-1.03,0.6-2.05,0.96-3.05
		c0.57-1.59,0.91-1.65,2.01-0.38c0.97,1.12,1.57,1.21,2.67,0.24c0.3-0.27,0.53-0.81,0.51-1.22c-0.05-1.31-0.24-2.61-0.36-3.92
		c-0.03-0.31-0.04-0.65,0.07-0.93c0.1-0.25,0.37-0.43,0.56-0.64c0.18,0.21,0.46,0.41,0.51,0.65c0.08,0.38-0.07,0.81,0.01,1.2
		c0.19,0.98,0.34,1.99,0.71,2.9c0.3,0.74,1.43,0.58,2.02-0.32c0.55-0.84,1.25-1.39,2.2-1.02c0.33,0.13,0.63,0.98,0.52,1.38
		c-0.14,0.53-0.64,1.05-1.11,1.38c-1.31,0.92-1.64,2.38-2.31,3.68c-1.32,2.56-2.68,5.1-4.07,7.63c-0.36,0.66-0.62,1.27,0.11,1.76
		c0.62,0.42,1.36,0.61,1.88-0.18c0.86-1.32,1.78-2.62,2.47-4.03c0.92-1.87,1.56-3.86,2.47-5.74c0.84-1.74,1.88-3.37,2.77-5.09
		c0.22-0.43,0.23-0.99,0.27-1.5c0.09-0.99,0.15-1.98,0.22-2.97c0.17-0.05,0.35-0.09,0.52-0.14c0.36,0.64,0.85,1.24,1.06,1.93
		c0.34,1.1,1.15,0.82,1.71,0.56c0.3-0.14,0.58-1.23,0.4-1.39c-2.16-2-1.63-4.75-2.1-7.21c-0.07-0.35,0.02-0.84-0.18-1.03
		c-1.44-1.39-0.69-2.95-0.41-4.47c0.03-0.17,0.1-0.34,0.09-0.51c-0.1-3.4-0.27-6.8-0.28-10.19c0-1.29,0.56-2.59,0.54-3.88
		c-0.02-1.35,0.32-2.5,0.96-3.64c0.82-1.47,1.15-3.01,1.21-4.77c0.05-1.56,0.79-3.22,1.65-4.57c0.38-0.6,1.83-0.77,2.76-0.68
		c0.83,0.08,1.88,0.5,1.82,1.77c-0.01,0.22,0.06,0.53-0.05,0.64c-2.16,2.06-0.69,4.49-0.7,6.76c-0.02,2.3,0.04,4.6,0.09,6.89
		c0.07,2.56,0.12,5.13,0.27,7.69c0.15,2.6,0.46,5.2,0.59,7.8c0.15,2.91,0.18,5.82,0.26,8.73c0.01,0.22-0.03,0.46,0.04,0.66
		c0.82,2.51-0.34,4.27-2.15,5.82c-0.39,0.33-0.66,0.8-0.94,1.24c-0.99,1.52-1.97,3.05-2.94,4.59c-1.09,1.72-2.45,3.35-3.17,5.21
		c-0.7,1.82-1.52,3.96,0.37,5.75c0.03,0.03,0.07,0.07,0.07,0.11c0.16,1.69,0.66,3.44,0.4,5.06c-0.74,4.49-1.85,8.91-2.69,13.39
		c-0.32,1.68-0.29,3.43-0.42,5.15c-0.01,0.09,0.03,0.2-0.02,0.26c-1.43,2.08-0.91,4.55-1.37,6.83c-0.45,2.21-0.66,4.47-0.97,6.71
		c-0.04,0.26-0.01,0.6-0.16,0.75c-1.86,1.83-1.62,4.31-2.06,6.57c-0.44,2.29,0.18,4.71-0.96,6.94c-0.33,0.65-0.26,1.57-0.19,2.35
		c0.3,3.15-1.23,5.97-1.6,8.99c-0.24,1.98-0.71,3.94-0.76,5.92c-0.05,1.94,0.32,3.88,0.48,5.83c0.08,0.97,0.01,1.95,0.17,2.9
		c0.24,1.43,0.72,2.82,0.91,4.25c0.18,1.38,0.25,2.8,0.13,4.18c-0.1,1.18-0.18,2.22,0.5,3.32c0.44,0.71,0.68,1.72,0.61,2.56
		c-0.42,4.59-0.51,9.24-2.02,13.69c-0.18,0.52,0.31,1.28,0.53,1.91c0.22,0.64,0.71,1.27,0.71,1.9c0,2.65-0.02,5.31-0.25,7.96
		c-0.17,1.97-0.83,3.9-0.95,5.87c-0.07,1.19,0.47,2.42,0.8,3.94c0.66-0.58,0.97-0.85,1.46-1.29c0.44,1.55,0.35,2.95,0,4.36
		c-0.08,0.33-0.31,0.85-0.17,0.99c1.09,1.09,0.12,1.68-0.47,2.42c-0.37,0.47-0.6,1.06-1.05,1.91c-0.34-0.85-0.81-1.56-0.87-2.29
		c-0.11-1.4,0.03-2.83,0.03-4.24c0-1.2-0.64-1.73-1.93-1.54c0-0.7,0-1.38,0-2.15c1.58-0.05,1.58-1.37,1.58-2.3
		c0.02-2.55-0.25-5.11-0.33-7.66c-0.05-1.33,0.06-2.66,0.08-3.99c0.03-2.03-0.3-2.32-2.12-2c-0.09-1.33-0.22-2.66-0.25-3.99
		c-0.01-0.23,0.4-0.67,0.61-0.68c1.4-0.02,1.56-1.05,1.6-2.01c0.06-1.46,0.02-2.94-0.15-4.39c-0.07-0.62-0.65-1.16-0.86-1.78
		c-0.25-0.75-0.38-1.55-0.53-2.34c-0.69-3.52-1.29-7.05-2.08-10.54c-0.31-1.36-1.06-2.61-1.56-3.93c-0.13-0.35-0.09-0.77-0.12-1.17
		c2.87,0.01,3.19-0.52,2.86-3.44c-0.18-1.53,0.19-3.11,0.1-4.65c-0.13-2.19-0.46-4.38-0.68-6.57c-0.2-1.99-0.4-3.97-0.55-5.96
		c-0.09-1.31-0.09-2.63-0.11-3.95c-0.05-3.31-0.08-6.62-0.16-9.94c-0.02-0.69-0.29-1.38-0.33-2.08c-0.14-2.41-0.28-4.83-0.29-7.24
		c-0.01-1.13,0.3-2.25,0.41-3.38c0.08-0.83,0.09-1.67,0.07-2.5c-0.06-2.13-0.09-4.27-0.25-6.4c-0.14-1.8-0.46-3.59-0.67-5.39
		c-0.09-0.79-0.14-1.6-0.1-2.4c0.04-0.78-0.28-1.32-1.01-1.25c-0.48,0.05-1.25,0.54-1.29,0.91c-0.19,1.57-0.18,3.16-0.2,4.75
		c-0.01,0.6,0.11,1.21,0.19,1.98c-1.33-0.02-2.46,0.09-2.61,1.65c-0.13,1.3,0.19,1.86,1.51,1.96c1.02,0.08,1.21,0.56,1.19,1.49
		c-0.05,2.11,0.04,4.22,0.01,6.33c0,0.47-0.23,0.93-0.36,1.4c-0.16-0.02-0.31-0.04-0.47-0.06c0-0.41,0.01-0.82,0-1.23
		c-0.03-0.94,0.16-1.98-0.2-2.78c-0.27-0.59-1.25-0.87-2.22-1.47c0-1.29,0.06-3.1-0.02-4.91c-0.08-1.9,0.27-4.13-0.6-5.62
		c-1.25-2.16-1.24-3.92-0.45-6.09c0.58-1.6,0.7-3.36,1.06-5.05c0.08-0.37,0.32-0.7,0.79-1.01c0.02,0.3,0.12,0.62,0.06,0.91
		c-0.52,2.23-1.1,4.44-1.6,6.67c-0.23,1.02-0.07,1.84,1.28,1.98c0.86,0.09,1.21,0.01,0.97-0.95c-0.07-0.29,0.04-0.84,0.23-0.93
		c0.92-0.42,0.85-1.25,1.03-2.02c0.72-3.06,1.51-6.11,2.19-9.18c0.22-1,0.23-2.07,0.2-3.1c-0.01-0.37-0.41-0.74-0.63-1.11
		c-0.47,0.35-1.04,0.62-1.39,1.06c-0.29,0.37-0.32,0.94-0.51,1.57c-1.14-1.9-2.42-1.89-3.27-0.01c-0.87,1.93-1.46,3.98-2.17,5.98
		c-0.11,0.3-0.23,0.6-0.36,0.93c-0.59-0.58-1.39-1.01-1.46-1.54c-0.08-0.66,0.25-1.61,0.75-2.04c1.36-1.19,2.18-3.58,1.56-5.24
		c-0.11-0.28-0.3-0.71-0.19-0.87c1.04-1.47,0-2.93,0.06-4.38c0.06-1.67,0.23-3.36,0.58-5c0.42-1.95,1-3.87,1.65-5.75
		c0.43-1.26,1.1-2.44,1.7-3.75c0.98,0.88,1.76,1.53,2.46,2.27c0.14,0.15-0.04,0.66-0.16,0.97c-1.27,3.31-2.76,6.54-3.31,10.08
		c-0.25,1.6-0.65,3.2-0.72,4.81C82.72,176.3,83.47,176.9,83.94,177.58z M93.11,177.62c-0.1-0.47-0.11-0.95-0.32-1.32
		c-0.2-0.35-0.61-0.85-0.9-0.83c-0.41,0.03-1,0.39-1.14,0.76c-0.75,1.93-1.42,3.9-2.06,5.88c-0.43,1.32-0.86,2.66-1.1,4.02
		c-0.22,1.25-0.35,2.55-0.23,3.81c0.11,1.21,1.31,1,2.14,1.07c0.24,0.02,0.71-0.54,0.75-0.87c0.32-3,0.65-5.97,1.83-8.79
		C92.58,180.17,92.78,178.87,93.11,177.62z M93.69,164.51c-0.11-0.26-0.33-0.75-0.55-1.25c-0.43,0.34-0.97,0.59-1.25,1.03
		c-0.68,1.03-1.29,2.12-1.83,3.23c-0.98,1.99-1.85,4.03-1.82,6.31c0,0.31,0.33,0.7,0.62,0.87c0.14,0.08,0.64-0.19,0.79-0.42
		c0.69-1.05,1.4-2.11,1.96-3.23c0.84-1.69,0.58-3.79,1.93-5.32C93.7,165.52,93.62,165.11,93.69,164.51z"/>
	<path class="st0" d="M82.26,340.85c-0.14-1.17-0.45-2.25-1.56-2.93c-0.24-0.15-0.54-0.51-0.5-0.72c0.24-1.3-0.88-1.53-1.55-2.15
		c-0.37-0.34-0.68-0.82-0.85-1.29c-0.23-0.62-0.3-1.3-0.42-1.96c-0.17-0.91-0.14-1.71,0.96-2.02c0.19-0.06,0.5-0.27,0.49-0.39
		c-0.08-1.48,1.14-1.77,2.09-2.28c0.63-0.34,1.31-0.6,2.12-0.74c1.48-4.15,1.36-8.59,0.89-13.2c1.38,0.52,2.51,1.75,3.5,0.1
		c0.49-0.81,0.44-1.58-0.44-2.22c-1.37-1.01-1.73,0.36-2.71,1.25c0-0.87-0.02-1.45,0.01-2.03c0.02-0.4,0.12-0.79,0.13-1.19
		c0.09-2.74,0.25-5.48,0.21-8.22c-0.03-2.43-0.2-4.87-0.44-7.29c-0.48-4.97-1.06-9.93-1.58-14.89c-0.13-1.22-0.18-2.45-0.28-3.85
		c1.33,0.59,2.08,0.07,2.69-0.99c0.18-0.31,0.8-0.36,1.22-0.53c0.12,0.43,0.29,0.86,0.33,1.29c0.03,0.29-0.22,0.6-0.19,0.88
		c0.13,1.66,0.27,3.32,0.47,4.97c0.1,0.82-0.16,1.25-0.98,1.44c-1.33,0.31-1.87,1.3-1.33,2.61c0.46,1.1,1.3,1.06,2.2,0.48
		c0.09-0.06,0.25-0.01,0.46-0.01c0.12,0.78,0.33,1.57,0.33,2.35c0,0.4-0.34,0.82-0.56,1.21c-0.35,0.62-1.04,1.23-1.03,1.83
		c0.02,0.73,0.68,1.29,1.67,0.99c0.12-0.04,0.62,0.59,0.64,0.92c0.08,1.36,0.03,2.73,0.03,4.11c-2.36-0.17-2.88,0.31-2.62,2.44
		c0.75,0,1.52,0,2.63,0c0,0.58,0.02,1.37,0,2.16c-0.03,1.09,0.03,2.21-0.17,3.27c-0.24,1.26-0.59,1.33-1.75,0.58
		c-0.63,0.6-1.26,1.23-0.61,2.14c0.67,0.94,1.5,1.49,2.59,0.24c0.44,2.01,0.78,3.86,1.24,5.67c0.43,1.7,0.83,3.39,2.9,4.06
		c1.21,0.39,2.28,1.25,3.38,1.95c0.88,0.56,2.58-0.17,2.75-1.25c0.05-0.33,0.01-0.68,0.01-1.01c0.99-0.04,3.2,1.44,3.41,2.17
		c0.55,1.94,0.04,3.9-1.01,4.49c-0.66-0.62-1.18-1.35-1.9-1.74c-1.91-1.05-2.92-0.2-3.39,1.94c-0.31,1.43-1.35,2.76-2.24,4.01
		c-0.83,1.17-0.56,2.48,0.78,3.01c0.25,0.1,0.51,0.34,0.63,0.59c0.4,0.86,0.8,1.73,1.08,2.64c0.09,0.31-0.08,0.89-0.33,1.09
		c-0.64,0.5-1.4,0.86-2.35,1.41c-0.72-0.37-1.55-0.15-2.2,0.96c-0.21,0.36-1.01,0.75-1.28,0.61c-0.56-0.29-1.19-0.85-1.35-1.42
		c-0.55-1.91-1.08-2.59-2.72-2.81c-1.31-0.18-1.73,0.92-2.29,1.73c-0.42,0.6-0.59,1.25,0.18,1.89c0.28,0.23,0.38,1.05,0.19,1.37
		c-0.31,0.5-0.83,0.79-0.32,1.46c0.52,0.67,1.1,1.02,1.96,0.71c0.2-0.07,0.43-0.08,0.63-0.12c0.82,1.57,1.61,3.1,2.66,5.11
		c0.28-0.55,0.36-0.88,0.57-1.1c0.94-1.01,1.75-1.03,2.75-0.12c1.05,0.96,1.99,0.59,2.58-0.69c0.6-1.3,1.26-2.66,2.27-3.42
		c0.49,0.97,0.92,1.8,1.32,2.65c0.09,0.18,0.11,0.43,0.07,0.63c-0.21,1.24,0,2,1.53,2.19c0.56,0.07,1,1.11,1.51,1.68
		c0.67,0.75,0.4,1.23-0.26,1.89c-0.72,0.73-1.16,1.73-1.76,2.58c-0.13,0.19-0.52,0.46-0.61,0.4c-1.07-0.66-1.86-0.05-2.45,0.67
		c-0.86,1.04-1.71,2.14-2.27,3.35c-0.5,1.06-0.71,2.3-0.84,3.48c-0.11,0.95,0.1,1.92,0.15,2.89c0.03,0.5,0,1.01,0,1.51
		c-0.19,0-0.38,0-0.57,0.01c-0.13-1.86-0.23-3.72-0.4-5.57c-0.07-0.7-0.34-1.39-0.42-2.09c-0.09-0.73-0.03-1.48-0.1-2.21
		c-0.05-0.5-0.05-1.18-0.35-1.43c-1.04-0.86-2.08-1.85-3.16-1.73c-0.81,0.69-1.32,1.12-1.83,1.56c-0.34-0.65-0.68-1.31-1.09-2.11
		c-1.4-0.26-2.87-1.88-2.99-3.66c-0.02-0.34,0.21-0.78,0.46-1.04c0.75-0.76,0.45-1.34-0.2-1.92c-0.17-0.15-0.37-0.25-0.54-0.4
		C80.49,342.25,80.49,342.25,82.26,340.85z M87.96,318.98c0.28-0.4,0.95-0.94,1.02-1.55c0.1-0.88-0.34-1.85-1.4-1.95
		c-1.17-0.11-1.42,1-1.55,1.8C85.87,318.27,86.57,318.8,87.96,318.98z M86.53,319.56c-0.23,0.7-0.46,1.41-0.69,2.12
		c0.7,0.21,1.39,0.51,2.1,0.59c0.18,0.02,0.62-0.64,0.64-0.99C88.63,320.16,87.91,319.67,86.53,319.56z"/>
	<path class="st0" d="M63.95,163.02c-1.24-1.68-0.92-4.68,0.25-5.63c0.28-1.33,0.52-2.34,0.7-3.37c0.09-0.5,0.28-1.15,0.06-1.51
		c-1.25-2.04-0.73-4.19-0.67-6.35c0.07-2.69-0.05-5.38-0.07-8.07c-0.02-1.88-0.01-3.76-0.03-5.63c-0.01-1.11-0.12-2.22-0.07-3.32
		c0.09-2.44,0.22-4.87,0.4-7.3c0.08-1.07-0.7-2.58-1.75-2.86c-0.98-0.26-2-0.34-2.99-0.55c-0.39-0.08-0.94-0.22-1.1-0.5
		c-0.57-1-1.07-2.05-1.46-3.13c-0.39-1.09,0.28-1.81,1.43-1.71c0.44,0.04,0.89,0.01,1.33,0.06c0.78,0.09,1.22,0.5,1.14,1.34
		c-0.2,2.05,1.41,4.18,3.44,4.56c2.1,0.39,3.51,2.48,3.06,4.53c-0.05,0.22-0.2,0.47-0.14,0.64c0.85,2.37,0.11,4.77,0.14,7.15
		c0.05,3.57,0.19,7.16-0.75,10.68c-0.21,0.78,0.04,1.67,0.03,2.51c-0.02,1.86-0.07,3.71-0.09,5.57c-0.01,0.74-0.12,1.52,0.06,2.23
		c0.58,2.36-0.48,4.29-1.38,6.31C64.88,160.05,64.47,161.53,63.95,163.02z"/>
	<path class="st0" d="M65.83,206.96c0.2,0.34,0.41,0.69,0.6,1.03c0.19,0.34,0.3,0.89,0.58,1.01c1.44,0.59,1.39,1.83,1.39,3.02
		c0.02,3.32-0.03,6.64,0.03,9.96c0.02,1,0.31,2,0.42,3c0.25,2.11,0.46,4.22,0.71,6.33c0.45,3.78,0.98,7.56,1.35,11.35
		c0.17,1.75,0.07,3.53,0,5.3c-0.05,1.32-0.31,2.59,0.41,3.87c0.34,0.61,0.34,1.45,0.37,2.2c0.18,3.9,0.29,7.79,0.49,11.69
		c0.07,1.37,0.4,2.73,0.52,4.11c0.07,0.79-0.06,1.6-0.09,2.4c-0.17,0.01-0.34,0.02-0.51,0.03c-0.16-1.18-0.33-2.35-0.48-3.53
		c-0.5-3.79-1.02-7.58-1.47-11.38c-0.21-1.72-0.25-3.46-0.4-5.19c-0.35-3.93-0.75-7.85-1.1-11.78c-0.33-3.74-0.54-7.5-0.98-11.23
		c-0.44-3.75-1.1-7.48-1.66-11.22c-0.03-0.22-0.08-0.44-0.09-0.66c-0.17-3.26-0.34-6.52-0.5-9.78c-0.01-0.13,0.06-0.26,0.09-0.38
		C65.62,207.06,65.73,207.01,65.83,206.96z"/>
	<path class="st0" d="M80.09,369.7c1.6-2.03,0.58-4.36,1.01-6.51c0.36-1.85,0.43-3.76,0.56-5.65c0.02-0.35-0.28-0.72-0.42-1.09
		c-0.24-0.68-0.55-1.35-0.67-2.05c-0.06-0.37,0.23-0.79,0.36-1.19c0.41,0.13,0.91,0.16,1.2,0.42c0.65,0.59,1.27,1.26,1.76,1.98
		c1.47,2.15,3.02,4.28,3.2,7.03c0.02,0.26,0.03,0.57,0.16,0.78c1.17,1.86,1.04,4.01,1.39,6.05c0.12,0.71-0.12,1.09-0.8,1.03
		C85.29,370.26,82.76,369.97,80.09,369.7z"/>
	<path class="st0" d="M69.82,155.54c0-2.59-0.04-5.06,0.01-7.53c0.08-3.53,0.21-7.05,0.34-10.57c0.03-0.91,0.18-1.81,0.21-2.72
		c0.1-2.82,0.2-5.64,0.22-8.46c0.01-1.7-0.16-3.4-0.21-5.1c-0.01-0.3,0.22-0.6,0.34-0.9c0.31,0.15,0.74,0.22,0.89,0.46
		c0.28,0.44,0.49,0.97,0.55,1.49c0.19,1.5,0.32,3.01,0.44,4.52c0.11,1.33,0.08,2.67,0.25,3.99c0.66,5.05,0.03,10.09-0.11,15.14
		c-0.05,1.6,0.16,3.23,0.41,4.81C73.44,152.39,71.99,154.73,69.82,155.54z"/>
	<path class="st0" d="M95.52,108.78c-2.23,0.33-2.24,0.33-2.48-2.07c-0.13-1.28-0.23-2.56-0.34-3.84c0.18-0.06,0.36-0.12,0.53-0.18
		c0.28,0.31,0.56,0.62,0.81,0.9c0.09-0.92,0.49-1.92-1.08-2.3c-0.46-0.11-1.08-1.2-0.31-2.11c0.37,0.33,0.72,0.63,1.31,1.15
		c-0.2-2.17-0.46-4.04-0.54-5.92c-0.14-3.45-0.24-6.9-0.22-10.35c0.03-4.12,0.24-8.24,0.3-12.36c0.04-2.87-0.08-5.75-0.04-8.62
		c0.01-0.53,0.37-1.07,0.57-1.6c0.92,0.37,0.42,1.05,0.44,1.68c0.06,2.66,0.22,5.31,0.32,7.97c0.06,1.6,0.07,3.2,0.12,4.79
		c0.16,4.97,0.38,9.94,0.5,14.92c0.09,3.94,0.09,7.88,0.11,11.83C95.53,104.7,95.52,106.73,95.52,108.78z"/>
	<path class="st0" d="M105.9,111.19c-0.92-16.19-1.84-32.33-2.74-48.47c-0.01-0.26,0.17-0.53,0.27-0.8c0.15-0.01,0.3-0.01,0.46-0.02
		c0.21,1.41,0.49,2.81,0.61,4.23c0.33,4.22,0.59,8.45,0.88,12.68c0.26,3.82,0.53,7.64,0.8,11.45c0.35,4.97,0.7,9.95,1.05,14.92
		c0.11,1.5,0.24,3,0.32,4.51C107.6,110.68,107.06,111.15,105.9,111.19z"/>
	<path class="st0" d="M87.91,251.83c-0.67-1.02-1.31-1.97-1.92-2.93c-0.09-0.14-0.14-0.33-0.16-0.5c-0.29-2.78-0.58-5.55-0.84-8.33
		c-0.2-2.16-0.45-4.33-0.51-6.5c-0.08-3.55-0.02-7.1-0.02-10.99c0.22,0.56,0.49,0.92,0.46,1.26c-0.08,1.02,0.01,1.86,1.13,2.29
		c0.25,0.1,0.51,0.54,0.53,0.84c0.14,2.52,0.15,5.04,0.33,7.56c0.27,3.73,0.72,7.45,0.97,11.18
		C88.02,247.76,87.91,249.84,87.91,251.83z"/>
	<path class="st0" d="M80.05,239.26c1.74,0.89,2.1,2.16,1.73,3.76c-0.08,0.34-0.07,0.71-0.02,1.06c0.28,2.16,0.59,4.31,0.87,6.47
		c0.05,0.39,0.13,0.83,0.02,1.19c-0.86,2.95,0.16,5.7,0.83,8.5c0.36,1.53,0.54,3.12,0.72,4.69c0.27,2.35,0.46,4.71,0.71,7.3
		c-0.55-0.32-0.9-0.52-1.37-0.79c-0.43,0.59-0.86,1.18-1.53,2.09c-0.19-1.78-0.34-3.25-0.52-4.72c-0.1-0.81-0.19-1.63-0.4-2.41
		c-0.16-0.64-0.11-0.95,0.6-1.19c1.03-0.35,1.29-0.98,0.92-2.18c-0.47-1.54-0.52-3.22-0.72-4.85c-0.36-2.81-0.71-5.62-1.04-8.44
		c-0.1-0.83-0.07-1.67-0.15-2.51c-0.2-2.12-0.44-4.23-0.64-6.35C80.02,240.41,80.05,239.92,80.05,239.26z"/>
	<path class="st0" d="M90.26,149.73c-1.48,0.04-1.77-0.74-1.71-2.16c0.1-2.65-0.11-5.3-0.08-7.96c0.02-1.85,0.3-3.7,0.31-5.55
		c0.03-3.55-0.04-7.09-0.06-10.64c0-0.31,0.02-0.62,0.05-0.93c0.2-2.33,0.39-4.66,0.62-6.98c0.05-0.48,0.11-1.04,0.39-1.4
		c0.24-0.31,0.79-0.47,1.22-0.5c0.15-0.01,0.45,0.55,0.48,0.87c0.12,1.12-0.25,1.98-1.13,2.82c-0.5,0.47-0.52,1.61-0.48,2.44
		c0.11,2.68,0.14,5.4,0.59,8.04c0.34,1.97,0.19,3.67-0.75,5.38c-0.16,0.29,0.04,0.81,0.14,1.21c0.21,0.83,0.63,1.64,0.66,2.47
		c0.08,2.01-0.01,4.03-0.05,6.05C90.4,145.14,90.33,147.39,90.26,149.73z"/>
	<path class="st0" d="M79.69,142.28c0-1.24-0.01-2.49,0-3.73c0.03-3.41,0.08-6.82,0.1-10.23c0.02-3.18,0.06-6.37,0.01-9.55
		c-0.02-1.24-0.28-2.48-0.41-3.73c-0.04-0.35-0.16-0.78-0.01-1.04c0.16-0.28,0.58-0.49,0.92-0.56c0.12-0.02,0.47,0.44,0.5,0.71
		c0.15,1.31,0.25,2.63,0.32,3.95c0.08,1.4,0.13,2.81,0.16,4.21c0.07,3.47,0.13,6.95,0.19,10.42c0.04,2.3,0.21,4.62,0.06,6.91
		c-0.06,0.96-0.82,1.87-1.27,2.8C80.06,142.39,79.88,142.33,79.69,142.28z"/>
	<path class="st0" d="M79.99,237.98c-0.26-1.09-0.71-2.17-0.72-3.26c-0.03-2.44,0.17-4.87,0.28-7.31c0.01-0.22,0.13-0.52,0.02-0.65
		c-1.08-1.39-0.22-2.62,0.16-3.96c0.18-0.63-0.03-1.57-0.43-2.11c-0.9-1.21-0.9-2.48-0.89-3.88c0.01-1.54-0.37-3.07-0.46-4.62
		c-0.02-0.38,0.38-1.13,0.57-1.12c0.63,0.02,1.27,0.16,1.36,1.1c0.26,2.61,1.02,5.23,0.83,7.79c-0.17,2.29,0.89,4.7-0.54,6.93
		c-0.26,0.41-0.04,1.41,0.31,1.87c1.08,1.43,0.5,3.06,0.78,4.58c0.16,0.84,0.21,1.74,0.09,2.58c-0.1,0.73-0.52,1.41-0.79,2.11
		C80.37,238.01,80.18,237.99,79.99,237.98z"/>
	<path class="st0" d="M75.91,151.14c-0.06-1.88-0.18-3.77-0.17-5.65c0.04-4.08,0.29-8.17,0.18-12.25c-0.1-3.69-0.58-7.36-0.9-11.04
		c0-0.04-0.04-0.09-0.03-0.13c0.91-2.61-0.7-5.02-0.58-7.57c0.01-0.18-0.09-0.43,0-0.52c0.33-0.34,0.69-0.76,1.11-0.86
		c0.2-0.05,0.78,0.56,0.8,0.89c0.09,2.07,0.03,4.14,0.08,6.21c0.03,1.28,0.19,2.56,0.23,3.85c0.06,2.25,0.03,4.5,0.09,6.75
		c0.09,3.75,0.25,7.5,0.31,11.25c0.02,1.24-0.22,2.48-0.28,3.72c-0.06,1.38-0.03,2.76-0.07,4.14c-0.01,0.41-0.15,0.83-0.23,1.24
		C76.27,151.16,76.09,151.15,75.91,151.14z"/>
	<path class="st0" d="M94.23,133.29c-0.25-0.95-0.63-1.69-0.61-2.42c0.05-1.53,0.42-3.05,0.43-4.57c0.01-0.94-0.42-1.88-0.62-2.82
		c-0.08-0.37-0.25-0.85-0.09-1.12c1.02-1.76,0.27-3.68,0.6-5.49c0.14-0.75,0.22-1.92,0.67-2.12c0.75-0.33,1.78-0.02,2.69,0.02
		c0.04,0,0.12,0.03,0.12,0.05c0,0.93,0.07,1.87-0.06,2.79c-0.04,0.32-0.6,0.84-0.88,0.81c-1.56-0.17-1.19,0.74-1.15,1.68
		c0.09,2,0.09,4,0.02,6c-0.02,0.48-0.61,0.92-0.67,1.42c-0.08,0.62-0.11,1.49,0.24,1.88C96.09,130.7,96.07,131.78,94.23,133.29z"/>
	<path class="st0" d="M100.73,268.75c0.78,0.65,1.38,1.08,1.89,1.6c0.31,0.31,0.69,0.79,0.64,1.14c-0.05,0.38-0.51,0.91-0.87,0.99
		c-1,0.22-1.07,0.91-1.16,1.69c-0.1,0.82-0.2,1.66-0.42,2.45c-0.39,1.34,0.22,3.77,1.26,4.68c0.58,0.51,0.53,2.14-0.09,2.81
		c-1.44,1.58-1.44,1.75-0.2,3.47c0.15,0.2,0.16,0.73,0.01,0.89c-1.55,1.68-1.57,1.67-0.39,3.68c-0.47,0.57-0.95,1.16-1.59,1.94
		C99.91,285.48,99.84,277.12,100.73,268.75z"/>
	<path class="st0" d="M84.66,117.82c0.25,0.59,0.65,1.16,0.72,1.76c0.2,1.71,0.15,3.46,0.41,5.16c0.57,3.75,0.15,7.49-0.07,11.23
		c-0.12,2.07-0.32,4.13-0.53,6.19c-0.03,0.35-0.28,0.67-0.42,1.01c-0.14-0.02-0.29-0.05-0.43-0.07c0-8.36,0-16.71,0-25.07
		C84.45,117.96,84.55,117.89,84.66,117.82z"/>
	<path class="st0" d="M70.47,351.97c-0.23-1.31-0.68-2.62-0.64-3.92c0.07-2.42,0.14-4.91,2.41-6.63c0.49-0.37,0.57-1.3,0.94-2.23
		c1.12,1.36,2.15,2.62,3.28,3.99c-4.11,1.79-5.19,5.06-5.32,8.91C70.92,352.05,70.69,352.01,70.47,351.97z"/>
	<path class="st0" d="M100.8,140.36c-2.13-0.1-2.3-0.39-2.24-2.02c0.09-2.19,0.03-4.38,0.09-6.57c0.02-0.97,0.23-1.94,0.23-2.9
		c0-1.24-0.19-2.48-0.2-3.72c-0.01-0.71,0.16-1.43,0.25-2.14c0.23-0.01,0.45-0.02,0.68-0.04c0.21,0.68,0.52,1.34,0.6,2.04
		c0.23,1.98,0.4,3.97,0.5,5.96c0.02,0.43-0.27,0.91-0.5,1.33c-0.46,0.85-0.65,1.59,0.16,2.41c0.61,0.62,0.81,1.26-0.26,1.91
		c-0.87,0.53-1.06,1.48-0.21,2.39C100.27,139.4,100.51,139.91,100.8,140.36z"/>
	<path class="st0" d="M79.3,188.2c-0.37,1.9-0.64,3.83-1.16,5.69c-0.36,1.28-0.53,2.32,0.66,3.22c0.29,0.22,0.51,0.63,0.6,1
		c0.15,0.57,0.73,1.4-0.42,1.55c-0.75,0.1-1.8,1.07-2.18-0.63c-0.24-1.06-0.87-1.99-0.09-3.14c0.22-0.33-0.3-1.11-0.37-1.7
		c-0.05-0.44-0.11-1.15,0.14-1.32c1.2-0.86,1.28-2.14,1.54-3.38c0.11-0.53,0.39-1.02,0.6-1.53C78.85,188.03,79.07,188.12,79.3,188.2
		z"/>
	<path class="st0" d="M91.49,75.71c-0.13-1.56-0.31-3.13-0.39-4.69c-0.11-2.26-0.15-4.52-0.21-6.78c-0.03-1.2-0.09-2.4-0.03-3.6
		c0.02-0.36,0.4-0.71,0.61-1.06c0.26,0.3,0.66,0.56,0.75,0.91c0.2,0.76,0.35,1.57,0.33,2.36c-0.11,3.55-0.3,7.1-0.44,10.65
		c-0.03,0.72,0,1.44,0,2.16C91.9,75.67,91.69,75.69,91.49,75.71z"/>
	<path class="st0" d="M77.63,165.81c-0.9-0.1-1.65-1.06-1.63-2.49c0.01-0.75,0.08-1.51,0.2-2.26c0.2-1.29,1.88-2.6,3.14-2.5
		c0.93,0.08,1.25,0.85,0.8,1.79C79.3,162.14,78.49,163.94,77.63,165.81z"/>
	<path class="st0" d="M81.02,155.32c-1.34-1.71-1.99-9.43-0.88-11.68c0.46,0.68,1.09,1.19,1.12,1.73c0.17,2.9,0.2,5.8,0.23,8.7
		C81.49,154.46,81.2,154.84,81.02,155.32z"/>
	<path class="st0" d="M108.8,107.87c-0.42-6.17-0.84-12.34-1.27-18.61c1.38,1.24,2.63,16.22,1.65,18.58
		C109.06,107.85,108.93,107.86,108.8,107.87z"/>
	<path class="st0" d="M72.04,164.54c-1.92-2.87-0.38-5.16,0.59-7.45c0.43-1.01,1.18-1.76,2.6-1.33c-0.08,0.3-0.11,0.6-0.24,0.84
		c-1.02,1.82-1.61,3.76-1.81,5.85C73.11,163.11,72.5,163.72,72.04,164.54z"/>
	<path class="st0" d="M99.8,295.4c2.15,0.95,2.29,1.48,0.97,3.24c-0.68,0.91-0.54,2.28,0.32,3.15c1.03,1.04,0.92,1.58-0.33,2.31
		c-0.35,0.2-0.6,0.69-0.74,1.1c-0.15,0.42-0.11,0.91-0.15,1.37c-0.16,0.02-0.33,0.04-0.49,0.06c-0.09-0.53-0.28-1.06-0.25-1.59
		C99.32,301.86,99.56,298.68,99.8,295.4z"/>
	<path class="st0" d="M93.46,133.77c0.41,0,0.45,0,0.49,0c-0.04,1.67,1.75,2.62,1.72,4.26c-0.03,1.64-0.08,3.29-0.27,4.92
		c-0.06,0.55-0.58,1.06-1.02,1.82c-0.56-1.59-1.05-2.77-0.16-4.23c0.45-0.74,0.74-1.98-0.45-2.72c-0.14-0.09-0.29-0.28-0.3-0.42
		C93.45,136.18,93.46,134.96,93.46,133.77z"/>
	<path class="st0" d="M75.09,322.46c-1.37-0.94-1.55-1.85-1.27-3.03c0.37-1.54,0.6-3.12,0.89-4.68c0.17-0.03,0.34-0.06,0.52-0.09
		c0.34,1.04,0.72,2.08,1.01,3.13c0.21,0.77,0.59,1.65,0.4,2.35C76.4,320.98,75.64,321.67,75.09,322.46z"/>
	<path class="st0" d="M91.65,109.93c-0.88-6.35-1.55-12.71-1.7-19.12c0.11-0.02,0.23-0.03,0.34-0.05c0.18,0.98,0.38,1.96,0.53,2.94
		c0.15,1.01,0.27,2.03,0.34,3.05c0.08,1.07,0.08,2.14,0.13,3.2c0.1,2.25,0.18,4.51,0.33,6.76c0.03,0.46,0.41,0.9,0.5,1.37
		c0.11,0.59,0.1,1.2,0.14,1.8C92.05,109.91,91.85,109.92,91.65,109.93z"/>
	<path class="st0" d="M101.62,260.39c0.65,0.16,1.23,0.24,1.74,0.47c0.3,0.13,0.59,0.49,0.68,0.8c0.04,0.14-0.41,0.46-0.67,0.63
		c-0.52,0.34-1.53,0.71-1.5,0.96c0.1,0.82,0.41,1.76,0.96,2.36c0.78,0.85,0.88,1.05-0.15,1.52c-0.52,0.24-1.04,0.48-1.56,0.72
		C100.72,267.22,101.1,261.55,101.62,260.39z"/>
	<path class="st0" d="M74.6,207.41c1.23,2.05,2.18,13.19,1.17,14.61C75.38,217.16,74.99,212.28,74.6,207.41z"/>
	<path class="st0" d="M84.69,212.9c-0.79,1.34-0.13,2.16,0.69,3.18c0.62,0.76,0.61,2.03,0.89,3.07c-0.39,0.02-0.91,0.21-1.16,0.03
		c-2.02-1.5-1.97-3.7-1.79-5.87c0.02-0.26,0.69-0.46,1.06-0.69C84.48,212.7,84.58,212.8,84.69,212.9z"/>
	<path class="st0" d="M104.55,253.38c-2.46-0.4-2.46-0.4-1.84-4.12C105,249.4,105.8,250.34,104.55,253.38z"/>
	<path class="st0" d="M73.03,293.32c0-4.06,0-8.13,0-12.11c0.63,0.69,1.07,10.82,0.45,12.12C73.33,293.32,73.18,293.32,73.03,293.32
		z"/>
	<path class="st0" d="M104.49,204.88c-0.16,0.43-0.36,0.99-0.57,1.55c-0.1-0.02-0.19-0.05-0.29-0.07c0.12-0.88,0.2-1.77,0.4-2.63
		c0.06-0.25,0.45-0.57,0.72-0.61c1.08-0.16,1.44-0.86,1.65-1.82c0.2-0.89,0.53-1.75,0.89-2.9c0.22,0.46,0.41,0.65,0.38,0.8
		c-0.38,1.73-0.71,3.48-1.26,5.15C106.31,204.67,105.29,204.68,104.49,204.88z"/>
	<path class="st0" d="M77.49,208.44c-0.39-2.07-0.79-3.6,0.95-4.68c0.69-0.43,1.12-0.38,1.2,0.45c0.08,0.92,0.26,1.95-0.06,2.74
		C79.34,207.55,78.37,207.85,77.49,208.44z"/>
	<path class="st0" d="M74.72,311.59c-0.41-3.54-0.81-7.08-1.22-10.61c1.92,3.35,1.68,6.97,1.76,10.55
		C75.08,311.54,74.9,311.56,74.72,311.59z"/>
	<path class="st0" d="M90.87,156.63c-0.37,0.29-1.01,1.08-1.31,0.97c-0.57-0.21-1.03-0.9-1.35-1.49c-0.17-0.32-0.03-0.87,0.09-1.27
		c0.14-0.45,0.43-0.86,0.65-1.29c0.5,0.3,1.15,0.48,1.44,0.92C90.7,154.94,90.67,155.65,90.87,156.63z"/>
	<path class="st0" d="M107.22,223.8c-0.1,1.79-0.16,3.59-0.34,5.37c-0.05,0.51-0.46,0.99-0.76,1.6c-1.06-0.92-1.13-1.56-0.72-2.51
		c0.41-0.94,0.45-2.03,0.68-3.05c0.13-0.54,0.34-1.06,0.51-1.59C106.81,223.68,107.02,223.74,107.22,223.8z"/>
	<path class="st0" d="M67.16,180.7c-0.56,0.22-1.03,0.41-1.51,0.6c-0.83-2.34-0.27-4.55,1.51-5.08
		C67.16,177.74,67.16,179.18,67.16,180.7z"/>
	<path class="st0" d="M99.76,309.91c2.46,0.18,3.28,1.4,2.61,3.86C100.15,313.4,99.82,311.74,99.76,309.91z"/>
	<path class="st0" d="M66.73,116.23c-0.78-0.6-1.63-1.14-2.34-1.81c-0.6-0.57-0.63-1.54,0.17-1.74c0.7-0.17,1.95,0.12,2.28,0.64
		c0.43,0.69,0.2,1.8,0.26,2.72C66.98,116.1,66.85,116.17,66.73,116.23z"/>
	<path class="st0" d="M84.72,116.25c-0.93-1.37-0.48-3.04,0.98-3.17c0.36-0.03,1.08,0.47,1.09,0.73c0.01,0.63,0.6,1.54-0.53,1.89
		C85.75,115.86,85.25,116.06,84.72,116.25z"/>
	<path class="st0" d="M105.58,239.04c-0.49-0.92-1.19-1.79-1.4-2.76c-0.17-0.77,0.4-1.61,1.43-1.48c0.97,0.12,0.72,0.88,0.65,1.55
		c-0.09,0.81-0.09,1.64-0.13,2.45C105.94,238.88,105.76,238.96,105.58,239.04z"/>
	<path class="st0" d="M100.7,144.32c-0.08,1.35-0.17,2.7-0.25,4.05c-0.75-0.78-2.44-0.7-1.98-2.08c0.27-0.8,1.08-1.42,1.64-2.12
		C100.31,144.22,100.51,144.27,100.7,144.32z"/>
	<path class="st0" d="M70.3,179.14c-0.09-1.77-0.19-3.25-0.23-4.73c-0.01-0.21,0.23-0.54,0.41-0.6c0.19-0.06,0.54,0.09,0.69,0.26
		C71.8,174.78,71.36,178.28,70.3,179.14z"/>
	<path class="st0" d="M73.27,325.41c-0.63,2.82-3.26,5.11-1.81,8.29C70.03,332.15,71.42,325.72,73.27,325.41z"/>
	<path class="st0" d="M101.65,217.6c-0.53,2.71-1.02,5.19-1.53,7.76C99.31,224.59,100.46,218.32,101.65,217.6z"/>
	<path class="st0" d="M74.15,201.87c-0.14-1.44-0.31-2.87-0.4-4.31c-0.01-0.22,0.28-0.46,0.43-0.7c0.21,0.2,0.59,0.39,0.6,0.59
		c0.05,1.46,0.03,2.92,0.03,4.38C74.58,201.85,74.36,201.86,74.15,201.87z"/>
	<path class="st0" d="M106.07,328.49c-0.76,0.63-1.18,0.99-1.6,1.34c-0.37-0.63-0.83-1.23-1.06-1.91c-0.07-0.19,0.69-0.91,0.78-0.86
		C104.76,327.38,105.25,327.84,106.07,328.49z"/>
	<path class="st0" d="M84.57,150.25c-0.11-1.75-0.2-3.19-0.3-4.77C85.7,146.19,85.92,149.01,84.57,150.25z"/>
	<path class="st0" d="M101.86,334.55c2.26,0.76,2.31,1.09,0.35,3.28C102.01,336.63,100.84,335.78,101.86,334.55z"/>
	<path class="st0" d="M98.5,155.71c-0.89-2.73-0.38-4.03,1.94-5.18c-0.39,0.76-0.74,1.25-0.9,1.79c-0.2,0.67-0.2,1.39-0.37,2.07
		C99.09,154.76,98.84,155.07,98.5,155.71z"/>
	<path class="st0" d="M95.25,148.52c-1.94-0.06-1.92-0.05-1.57-1.8c0.09-0.46,0.06-0.95,0.09-1.44
		C94.7,145.75,95.26,146.98,95.25,148.52z"/>
	<path class="st0" d="M105.89,244.75c-0.6,0.64-0.94,1.02-1.29,1.39c-0.43-0.42-1.11-0.78-1.24-1.28c-0.2-0.79,0.57-1.04,1.21-0.97
		C104.95,243.95,105.29,244.35,105.89,244.75z"/>
	<path class="st0" d="M104.75,220.02c-0.1-0.96-0.25-1.92-0.26-2.88c0-0.31,0.36-0.63,0.56-0.94c0.24,0.32,0.7,0.66,0.67,0.95
		c-0.1,0.99-0.38,1.96-0.59,2.93C104.99,220.06,104.87,220.04,104.75,220.02z"/>
	<path class="st0" d="M70.03,115.16c-0.02-0.79-0.03-1.57-0.05-2.36c0.5,0.09,1.26,0.01,1.45,0.3c0.73,1.12-0.67,1.35-0.84,2.14
		C70.4,115.21,70.21,115.18,70.03,115.16z"/>
	<path class="st0" d="M72.17,367.32c0.04-1.48-0.62-2.96-0.09-4.45c0.16,0,0.33,0,0.49,0c0,1.48,0,2.97,0,4.45
		C72.45,367.32,72.31,367.32,72.17,367.32z"/>
	<path class="st0" d="M61.96,177.15c0-1.49,0-2.97,0-4.46c0.11-0.01,0.22-0.01,0.34-0.02c0.07,1.49,0.15,2.97,0.22,4.46
		C62.34,177.13,62.15,177.14,61.96,177.15z"/>
	<path class="st0" d="M106.31,357.44c1.08,1.69,0.51,3.03,0.18,4.38c-0.15,0-0.3-0.01-0.44-0.01
		C106.12,360.46,106.21,359.12,106.31,357.44z"/>
	<path class="st0" d="M107.24,337.53c-0.77-1-0.77-1,1.04-3.58C107.94,335.14,107.59,336.34,107.24,337.53z"/>
	<path class="st0" d="M104.32,257c-1.06,0.7-1.69,1.12-2.32,1.53c-0.29-0.5-0.07-1.62,0.55-1.78
		C102.98,256.64,103.51,256.87,104.32,257z"/>
	<path class="st0" d="M97.74,328.28c0.42,0.61,0.76,1.11,1.1,1.61c-0.33,0.09-0.72,0.34-0.99,0.25
		C97.03,329.86,96.92,329.3,97.74,328.28z"/>
	<path class="st0" d="M103.63,115.35c1.12,0.8,1.09,1.21-0.13,2.48C103.54,117.07,103.58,116.3,103.63,115.35z"/>
	<path class="st0" d="M67.31,164.36c0-1.09,0-1.92,0-2.92C68.35,162.49,68.35,163,67.31,164.36z"/>
	<path class="st0" d="M100.17,245.48c-0.12,0.8-0.23,1.61-0.35,2.41c-0.2-0.03-0.39-0.07-0.59-0.1c0.15-0.81,0.3-1.62,0.45-2.43
		C99.85,245.4,100.01,245.44,100.17,245.48z"/>
	<path class="st0" d="M99.63,363.25c0.27-1.17,0.53-2.33,0.8-3.5c0.09,0.01,0.17,0.02,0.26,0.03c-0.17,1.19-0.33,2.38-0.5,3.57
		C100.01,363.32,99.82,363.28,99.63,363.25z"/>
	<path class="st0" d="M108.21,324.72c-0.23-0.93-0.47-1.87-0.7-2.8c0.14-0.04,0.28-0.07,0.42-0.11c0.23,0.93,0.46,1.86,0.69,2.79
		C108.49,324.63,108.35,324.67,108.21,324.72z"/>
	<path class="st0" d="M106.16,211.9c-0.24,0.86-0.49,1.72-0.73,2.57c-0.13-0.03-0.27-0.06-0.4-0.1c0.19-0.85,0.39-1.71,0.58-2.56
		C105.79,211.84,105.97,211.87,106.16,211.9z"/>
	<path d="M93.11,177.62c-0.33,1.24-0.53,2.55-1.02,3.72c-1.18,2.83-1.52,5.8-1.83,8.79c-0.03,0.33-0.51,0.89-0.75,0.87
		c-0.83-0.06-2.03,0.14-2.14-1.07c-0.11-1.25,0.01-2.56,0.23-3.81c0.24-1.36,0.67-2.7,1.1-4.02c0.64-1.98,1.3-3.95,2.06-5.88
		c0.14-0.36,0.73-0.73,1.14-0.76c0.29-0.02,0.7,0.47,0.9,0.83C92.99,176.68,93,177.16,93.11,177.62z"/>
	<path d="M93.69,164.51c-0.07,0.61,0.01,1.02-0.16,1.21c-1.35,1.53-1.09,3.63-1.93,5.32c-0.56,1.13-1.26,2.18-1.96,3.23
		c-0.15,0.23-0.65,0.5-0.79,0.42c-0.29-0.17-0.62-0.56-0.62-0.87c-0.02-2.27,0.85-4.32,1.82-6.31c0.55-1.11,1.15-2.2,1.83-3.23
		c0.28-0.43,0.83-0.69,1.25-1.03C93.36,163.75,93.58,164.25,93.69,164.51z"/>
	<path d="M87.96,318.98c-1.39-0.18-2.09-0.71-1.93-1.69c0.13-0.81,0.38-1.91,1.55-1.8c1.06,0.1,1.5,1.07,1.4,1.95
		C88.92,318.04,88.24,318.58,87.96,318.98z"/>
	<path d="M86.53,319.56c1.38,0.11,2.09,0.6,2.04,1.72c-0.01,0.36-0.45,1.01-0.64,0.99c-0.71-0.08-1.4-0.37-2.1-0.59
		C86.07,320.97,86.31,320.26,86.53,319.56z"/>
</g>
</svg>
