<?xml version="1.0" encoding="UTF-8"?>
<svg id="Layer_2" data-name="Layer 2" xmlns="http://www.w3.org/2000/svg" viewBox="0 0 1093 707">
  <defs>
    <style>
      .cls-1 {
        fill: #adadad;
        stroke-width: 0px;
      }
    </style>
  </defs>
  <path class="cls-1" d="M302.51,191.43c0-7.03-.09-14.07.05-21.1.05-2.47-.68-4.14-3.07-4.85-6.19-1.83-12.28-4.31-18.6-5.28-18.14-2.78-30.67,4.19-37.2,21.06-6.32,16.33-6.35,33.32-1.43,49.93,4.78,16.13,18.66,22.7,33.61,16.87,6.99-2.73,12.11-7.89,16.43-13.93,6.75-9.45,11.71-19.41,10.29-31.57-.43-3.67-.07-7.42-.07-11.14Z"/>
  <path class="cls-1" d="M555.07,464.35c-9.82-4.65-20.13-6.72-30.9-5.38-10.07,1.25-18.05,6.33-22.62,15.48-9.68,19.38-10.15,39.57-2.92,59.66,4.8,13.33,16.64,18.56,30.23,14.84,13.01-3.56,29.55-25.18,29.58-38.68.01-6.45,0-12.9,0-19.35,0-6.99-.13-13.98.06-20.96.08-2.83-.93-4.44-3.43-5.62Z"/>
  <path class="cls-1" d="M928.51,488.89c3.6-5.82,6-11.96,5.69-18.92-.26-5.85-3.26-9.43-9-10.7-8.88-1.98-15.93,1.6-21.36,8.11-10.23,12.27-12.67,26.88-11.3,42.34.35,3.93,1.23,7.81,1.99,12.47,13.27-10.02,25.55-19.66,33.97-33.29Z"/>
  <path class="cls-1" d="M-1.5.5v707h1093V.5H-1.5ZM198.83,222.5c-11.24,16.6-24.4,31.49-43.24,39.4-29.96,12.57-58.7,9.12-85.28-9.53-18.42-12.92-29.3-31.38-36.6-52.25-5.99-17.12-7.95-34.85-8.11-49.22.07-31.12,4.87-57.59,19.16-81.47,13.75-22.98,33.46-38.35,60.07-44.16,18.6-4.06,36.99-3.53,54.9,3.02,13.5,4.94,24.86,13.02,32.95,25.2,2.35,3.54,2.17,5.94-.88,8.81-1.34,1.26-2.9,2.31-4.43,3.35-3.08,2.08-5.66,1.21-8.12-1.3-8.33-8.49-18.21-14.51-29.55-18.12-19.56-6.23-38.48-4.73-56.71,4.71-19.3,9.99-30.52,26.72-37.6,46.48-7.6,21.21-8.95,43.19-7.04,65.55,1.32,15.51,4.67,30.42,11.44,44.41,8.45,17.47,21.18,30.85,39.6,37.79,21.5,8.1,41.99,5.21,60.28-8.53,8.73-6.56,16.17-14.84,24.17-22.36,1.89-1.78,3.39-4.44,6.62-3.36,4.01,1.34,7.58,3.47,9.27,7.54.44,1.06-.15,2.95-.89,4.04ZM442.14,566.98c-4.88,2.02-10.16,2.49-14.67-.59-1.64-1.12-2.59-4.31-2.61-6.57-.19-22.59-.11-45.18-.11-67.77,0-13.04,0-26.09,0-39.13v-4.7h-127.29v5.23c0,34.96,0,69.92,0,104.88,0,3.49.38,7.2-3.9,8.78-5.17,1.9-10.27,1.96-15.04-1.08-.78-.5-1.33-1.71-1.53-2.68-.38-1.82-.58-3.71-.58-5.57-.03-75.84-.02-151.67-.02-227.51,0-3.64-.39-7.8,3.75-9.39,5.01-1.93,10.5-2.2,15.07.93,1.57,1.08,2.16,4.47,2.17,6.82.14,31.46.09,62.93.09,94.39v5.51h127.29c0-1.83,0-3.54,0-5.25,0-31.33,0-62.66,0-93.99,0-7.77,1.52-9.32,9.42-9.52,1.74-.04,3.54-.1,5.23.24,3.61.72,6.18,2.59,6.15,6.73,0,1.21.02,2.42.02,3.63,0,75.7,0,151.4-.02,227.1,0,3.52.91,7.71-3.4,9.49ZM456.16,165.98c-4.65-.71-9.18-2.4-13.66-3.94-11.29-3.85-17.25-2.71-24.58,6.51-10.64,13.38-16.92,28.66-17.17,45.97-.22,15-.02,30-.06,45-.02,6.4-1.79,8.23-8.19,8.59-1.85.1-3.72.09-5.56-.08-4.46-.41-6.39-2.44-6.44-6.98-.09-7.79-.02-15.58-.02-24.3-3.89,5.23-7.11,9.73-10.5,14.1-11.38,14.71-32.24,21.55-49.97,16.17-8.02-2.43-12.46-8.61-14.99-16.25-.98-2.97-1.55-6.07-2.5-9.88-2.37,3.57-4.3,6.71-6.47,9.68-12.4,17.02-31.28,22.65-50.62,14.68-11.34-4.67-18.32-13.82-22.32-25.04-6.76-18.94-6.33-38.24-1.47-57.52,2.83-11.21,7.53-21.5,16.41-29.32,13.67-12.04,29.67-14.55,46.89-10.56,5.86,1.36,11.44,3.94,17.17,5.97,2.51-6.14,11.91-9.32,17.81-5.25,1.56,1.07,2.53,3.99,2.57,6.09.24,12.08.08,24.16.13,36.24.06,16.32.19,32.65.31,48.97,0,1.32.16,2.65.3,3.96,1.04,9.35,5.58,12.91,14.95,12.23,12.09-.88,21.13-7.04,27.28-16.86,5.37-8.56,9.56-17.89,14-27,.93-1.91.96-4.38.97-6.6.08-15.67.04-31.33.04-47,0-10.19,4.34-13.5,14.46-11.11,3.86.91,5.94,2.95,5.82,7.22-.19,6.71-.05,13.44-.05,21.18,3.33-5.75,5.75-10.85,9.03-15.31,2.78-3.77,6.22-7.24,9.97-10.06,8.03-6.04,16.73-5.41,25.5-1.36,3.71,1.72,7.42,3.53,11.29,4.8,9.49,3.11,20.56-5.05,20.56-15,.02-33.99.01-67.97,0-101.96,0-3.66-.29-7.51,4.38-8.6,4.96-1.16,10-1.7,14.4,1.75.71.56,1.06,1.8,1.21,2.78.21,1.43.11,2.91.11,4.37,0,65.18,0,130.37.03,195.55,0,3.97.24,7.96.69,11.9.9,7.93,5.1,11.36,13.07,11.25,11.05-.15,19.44-5.37,26.28-13.55,7.65-9.16,12.38-19.95,16.72-30.91.56-1.41.49-3.13.5-4.7.03-16.99,0-33.99.03-50.98,0-6.18,2.05-8.31,8.27-8.63,1.32-.07,2.65-.04,3.97.03,6.02.32,8.04,2.36,8.05,8.37.03,24.16-.01,48.32.04,72.49,0,3.44.02,6.94.61,10.31,2.32,13.08,12.86,19.71,26.66,16.86,11.19-2.31,18.58-9.66,24.24-19,2.25-3.71,4.07-7.72,5.8-11.71,2.72-6.26,3.88-12.76,3.75-19.7-.31-16.32-.11-32.66-.09-48.99,0-6.24,1.95-8.3,8.24-8.64,1.98-.11,4.01-.17,5.95.16,3.62.61,6.09,2.53,6.09,6.6,0,1.06.02,2.12.02,3.19,0,60.01.14,120.01-.16,180.02-.04,8.49-1.22,17.28-3.65,25.39-5.63,18.76-19.44,28.37-38.5,30.66-15.07,1.81-29.41-.59-42.06-9.42-4.39-3.07-8.3-6.98-11.92-10.97-3.34-3.68-2.8-8.45.52-11.39,5.1-4.51,9.25-4.98,13.33-1.36,6.76,6,13.46,12.34,22.7,13.99,5.53.99,11.4,1.36,16.95.66,12.17-1.53,19.45-10.17,21.55-24.5.57-3.92.87-7.92.88-11.88.07-29.74.04-59.48.03-89.21,0-.78-.07-1.57-.17-3.44-1.26,1.86-2.07,2.92-2.73,4.07-12.32,21.13-33.84,29.14-56.85,20.9-11.6-4.16-17.33-13.32-19.99-24.81-.38-1.62-.67-3.26-1.11-5.43-2.51,3.84-4.6,7.31-6.96,10.59-10.38,14.42-23.99,23.09-42.26,22.76-16.38-.29-26.08-9.29-27.87-25.58-.46-4.21-.7-8.46-.71-12.69-.07-21.9-.03-43.81-.03-65.72v-5.51c-6.5,5.76-13.41,7.82-20.89,6.68ZM740.17,635.62c-.03,12.75-2.32,25.1-9.77,35.93-8.14,11.83-20.01,17.07-33.76,18.58-14.72,1.62-28.82-.61-41.17-9.15-4.99-3.45-9.35-8-13.34-12.61-3.14-3.63-2.33-7.05,1.13-10.26,6.08-5.64,9.7-5.55,15.86.45,9.72,9.47,21.02,14.49,34.92,13.26,11.18-1,19.33-6.53,22.6-17.47,1.82-6.09,2.83-12.63,2.89-18.98.29-30.25.13-60.51.12-90.76,0-1.01-.17-2.02-.26-3.03-5.55,9.15-12.12,16.65-21.22,21.99-14.09,8.28-37.15,7.33-49.2-3.77-6.05-5.58-9.02-12.83-10.51-20.77-.19-1.01-.39-2.02-.59-3.03-4.32,5.68-8.18,11.46-12.74,16.61-11.68,13.16-26.52,18.2-43.9,15.9-11.55-1.53-19.57-10.07-21.81-23.12-.25-1.45-.52-2.89-.75-4.15-4.16,5.32-7.84,11.06-12.53,15.82-19.47,19.78-52.25,14.49-65.16-10.13-8.15-15.54-8.92-32.15-7.5-49.05,1.13-13.36,4.6-26.12,12.3-37.33,10.12-14.73,24.61-20.87,42.13-20.74,10.58.08,20.34,3.2,29.57,8.14,3.63-6.63,9.51-8.91,16.57-6.63,3.26,1.05,4.81,3.08,4.77,6.54-.08,7.26-.02,14.52-.02,21.78,0,20.3-.08,40.61.07,60.91.03,4.12.53,8.32,1.51,12.31,1.35,5.51,4.52,7.93,10.02,8.22,8.96.46,16.99-2.13,23.75-8.11,11.42-10.1,17.4-23.57,22.64-37.41.68-1.8.48-3.98.48-5.99.03-16.54,0-33.08.03-49.62,0-6.85,1.94-8.85,8.78-9.11,1.74-.07,3.51-.04,5.24.19,4.75.63,6.54,2.82,6.55,7.95.01,25.01-.19,50.02.16,75.03.08,5.74,1.08,11.89,3.4,17.08,3.61,8.08,13.18,11.22,23.7,9.28,12.64-2.33,20.28-10.86,26.18-21.34,5.81-10.33,9.1-21.18,8.54-33.39-.7-15.16-.17-30.38-.16-45.58,0-3.4-.16-7.16,3.96-8.31,5.08-1.42,10.43-2.25,14.87,1.61,1.17,1.02,1.67,3.36,1.67,5.1.08,62.39.14,124.78,0,187.17ZM1083.14,455.58c-2.34,4.85-5.36,6.56-9.73,5.84-5.5-.91-11.15-2.69-16.55-2.16-10.45,1.01-17.37,8.25-22.39,16.73-4.13,6.98-7.08,14.68-10.33,22.16-.71,1.64-.66,3.68-.67,5.54-.04,18.69-.02,37.38-.03,56.07,0,6.37-1.91,8.33-8.35,8.63-1.47.07-2.96.07-4.43-.01-5.56-.32-7.74-2.53-7.77-8.06-.06-9.68-.02-19.36-.02-29.05,0-1.28,0-2.55,0-3.55-6.58,7.12-12.68,14.6-19.67,21.13-23.39,21.84-54.96,26.16-82.04,12.76-6.22-3.08-11.38-8.3-17.54-12.92-4.92,2.96-10.73,6.73-16.79,10.05-12.37,6.77-25.06,12.25-39.82,9.73-16.03-2.74-27.22-11.5-32.19-26.83-2.57-7.92-3.84-16.5-4.17-24.84-.64-16.11-.19-32.27-.19-48.4v-4.98c-5.58,0-10.9.01-16.23,0-7.29-.02-8.98-1.73-9.04-9.04,0-1.08-.02-2.15.04-3.23.27-4.88,1.94-6.66,7.02-6.89,4.43-.2,8.88-.05,13.32-.05,1.45,0,2.91,0,4.89,0,0-1.75,0-3.18,0-4.6,0-13.98,0-27.97,0-41.95,0-6.41,1.17-7.84,7.38-8.7,1.83-.25,3.76-.29,5.59-.05,5.93.79,7.57,2.69,7.59,8.74.04,13.72.01,27.43.01,41.15v5.43c3.57,0,6.89,0,10.2,0,6.46,0,12.92-.11,19.38.04,5.69.13,7.62,2.19,7.86,7.91.06,1.47.08,2.97-.1,4.43-.61,4.9-2.69,6.77-7.71,6.81-8.21.07-16.42.02-24.63.02-1.46,0-2.92,0-4.62,0-.15,1.32-.36,2.34-.36,3.36.07,17.61-.02,35.22.35,52.83.17,8.44,2.44,16.54,8.2,23.02,7.22,8.12,16.59,10.03,26.78,7.56,10.49-2.54,19.3-8.58,28.12-14.51,1.78-1.2,1.8-2.25,1.19-4.31-7.43-24.79-6.75-48.75,8.14-70.99,11.99-17.91,36.27-25.6,54.97-17.42,10,4.38,15.37,12.43,16.27,23.09,1.37,16.07-6.03,28.7-16.62,39.97-10.25,10.91-21.98,20.01-34.12,28.65-.64.45-1.23.98-2.11,1.69,5.8,8.36,13.85,12.75,23.43,14.28,20.53,3.28,37.72-4.16,52.73-17.46,9.63-8.53,17.42-18.63,22.97-30.3.88-1.86,1.44-4.07,1.45-6.12.12-15.73.05-31.47.07-47.2,0-6.23,2.1-8.38,8.43-8.69,1.61-.08,3.23-.05,4.83.07,5.08.38,7.21,2.56,7.29,7.69.09,6.11.02,12.22.99,18.6.69-1.04,1.39-2.08,2.08-3.14,7.11-10.96,15.67-20.26,29-23.36,9.12-2.12,17.93-.94,25.71,4.64,3.89,2.79,4.21,5.48,1.93,10.21Z"/>
</svg>