<?xml version="1.0" encoding="UTF-8"?>
<svg id="Layer_4" data-name="Layer 4" xmlns="http://www.w3.org/2000/svg" version="1.1" viewBox="0 0 1182.5 815">
  <defs>
    <style>
      .cls-1 {
        fill: #000;
        stroke: #000;
        stroke-miterlimit: 10;
        stroke-width: 9px;
      }
    </style>
  </defs>
  <g>
    <path class="cls-1" d="M772.24,589.26c-4.76,8.08-10.4,14.71-18.2,19.44-12.09,7.32-31.87,6.48-42.21-3.33-5.19-4.93-7.74-11.34-9.02-18.36-.16-.89-.34-1.79-.5-2.68-3.71,5.02-7.01,10.13-10.93,14.68-10.02,11.63-22.75,16.08-37.66,14.05-9.91-1.35-16.78-8.9-18.71-20.43-.21-1.28-.45-2.55-.65-3.67-3.57,4.7-6.73,9.78-10.74,13.98-16.7,17.48-44.82,12.81-55.9-8.95-6.99-13.73-7.65-28.42-6.43-43.35.97-11.81,3.95-23.09,10.55-33,8.68-13.02,21.11-18.45,36.14-18.33,9.08.07,17.45,2.83,25.37,7.2,3.11-5.86,8.16-7.87,14.21-5.86,2.79.93,4.12,2.72,4.09,5.78-.07,6.42-.02,12.83-.02,19.25,0,17.94-.07,35.89.06,53.83.03,3.64.45,7.35,1.29,10.88,1.15,4.87,3.88,7.01,8.6,7.26,7.69.41,14.58-1.89,20.37-7.17,9.8-8.93,14.93-20.83,19.42-33.07.58-1.59.41-3.52.41-5.29.03-14.62,0-29.23.02-43.85,0-6.05,1.66-7.82,7.54-8.05,1.49-.06,3.01-.03,4.49.17,4.08.55,5.61,2.49,5.62,7.03.01,22.1-.17,44.21.14,66.31.07,5.07.93,10.51,2.91,15.09,3.09,7.14,11.3,9.92,20.33,8.2,10.84-2.06,17.4-9.59,22.46-18.86,4.98-9.13,7.8-18.72,7.32-29.51-.6-13.4-.15-26.85-.14-40.28,0-3-.14-6.33,3.4-7.35,4.36-1.26,8.95-1.99,12.75,1.43,1.01.9,1.43,2.97,1.44,4.51.07,55.14.12,110.28,0,165.43-.02,11.27-1.99,22.18-8.39,31.76-6.98,10.46-17.16,15.08-28.96,16.42-12.62,1.43-24.72-.54-35.32-8.09-4.28-3.05-8.02-7.07-11.44-11.15-2.69-3.21-2-6.23.97-9.07,5.21-4.98,8.32-4.9,13.61.4,8.34,8.37,18.03,12.81,29.95,11.72,9.59-.88,16.59-5.77,19.39-15.44,1.56-5.38,2.43-11.16,2.48-16.77.25-26.74.11-53.48.1-80.22,0-.89-.14-1.79-.22-2.68ZM634.17,544.5c0-6.18-.11-12.35.05-18.52.07-2.5-.8-3.92-2.94-4.97-8.42-4.11-17.27-5.94-26.51-4.75-8.64,1.11-15.49,5.6-19.41,13.68-8.31,17.13-8.71,34.97-2.5,52.73,4.12,11.78,14.27,16.4,25.93,13.12,11.16-3.14,25.35-22.26,25.37-34.19.01-5.7,0-11.4,0-17.1Z"/>
    <path class="cls-1" d="M1015.42,577.02c-5.64,6.29-10.88,12.9-16.88,18.67-20.06,19.31-47.15,23.12-70.37,11.28-5.33-2.72-9.76-7.33-15.05-11.42-4.22,2.62-9.2,5.95-14.4,8.88-10.61,5.98-21.49,10.83-34.16,8.6-13.75-2.42-23.35-10.17-27.61-23.71-2.2-7-3.3-14.58-3.58-21.96-.54-14.24-.16-28.52-.16-42.78v-4.4c-4.78,0-9.35.01-13.92,0-6.25-.02-7.71-1.53-7.76-7.99,0-.95-.02-1.9.03-2.85.23-4.32,1.66-5.89,6.02-6.09,3.8-.18,7.62-.04,11.43-.05,1.25,0,2.5,0,4.2,0,0-1.55,0-2.81,0-4.07,0-12.36,0-24.72,0-37.08,0-5.66,1-6.93,6.33-7.69,1.57-.22,3.23-.26,4.8-.04,5.09.7,6.5,2.38,6.51,7.72.04,12.12.01,24.24.01,36.37,0,1.42,0,2.84,0,4.8,3.07,0,5.91,0,8.75,0,5.54,0,11.09-.09,16.63.03,4.88.11,6.54,1.93,6.74,6.99.05,1.3.07,2.62-.09,3.91-.53,4.33-2.31,5.99-6.61,6.02-7.04.06-14.09.02-21.13.02-1.25,0-2.5,0-3.96,0-.13,1.17-.31,2.07-.31,2.97.06,15.56-.01,31.13.3,46.69.15,7.46,2.09,14.62,7.03,20.35,6.19,7.17,14.23,8.86,22.98,6.68,9-2.24,16.55-7.59,24.12-12.83,1.53-1.06,1.55-1.99,1.02-3.81-6.37-21.91-5.79-43.09,6.98-62.74,10.28-15.83,31.12-22.63,47.15-15.4,8.58,3.87,13.18,10.98,13.96,20.4,1.17,14.2-5.17,25.36-14.26,35.33-8.79,9.65-18.86,17.68-29.27,25.32-.55.4-1.05.87-1.81,1.5,4.97,7.39,11.88,11.26,20.1,12.62,17.61,2.9,32.36-3.67,45.23-15.43,8.26-7.54,14.94-16.46,19.7-26.78.76-1.64,1.23-3.59,1.25-5.41.1-13.9.04-27.81.06-41.71,0-5.51,1.8-7.41,7.23-7.68,1.38-.07,2.77-.05,4.15.06,4.36.34,6.19,2.27,6.25,6.79.08,5.4.02,10.8.85,16.44.59-.92,1.2-1.84,1.78-2.77,6.1-9.69,13.44-17.91,24.88-20.65,7.82-1.87,15.38-.83,22.06,4.1,3.34,2.46,3.61,4.84,1.65,9.03-2.01,4.29-4.6,5.8-8.34,5.16-4.72-.8-9.56-2.37-14.19-1.91-8.97.9-14.9,7.29-19.2,14.79-3.54,6.17-6.07,12.97-8.86,19.58-.61,1.45-.57,3.25-.57,4.89-.04,16.52-.02,33.04-.03,49.56,0,5.63-1.64,7.36-7.16,7.63-1.26.06-2.54.07-3.8,0-4.77-.29-6.64-2.23-6.67-7.12-.05-8.56-.01-17.11-.01-25.67,0-1.13,0-2.26,0-3.14ZM922.49,572.13c11.39-8.86,21.91-17.38,29.14-29.43,3.09-5.15,5.15-10.57,4.88-16.72-.22-5.17-2.8-8.33-7.72-9.46-7.62-1.75-13.67,1.41-18.32,7.17-8.77,10.85-10.87,23.76-9.7,37.42.3,3.47,1.06,6.9,1.71,11.02Z"/>
    <path class="cls-1" d="M519.5,506.77h-109.19c0,1.62,0,3.12,0,4.62,0,30.9,0,61.8,0,92.69,0,3.09.33,6.37-3.35,7.76-4.43,1.68-8.81,1.73-12.9-.95-.67-.44-1.14-1.51-1.31-2.37-.32-1.61-.49-3.28-.49-4.92-.02-67.02-.02-134.05-.02-201.07,0-3.22-.34-6.89,3.21-8.3,4.29-1.7,9.01-1.95,12.92.82,1.35.95,1.85,3.95,1.86,6.02.12,27.81.08,55.62.08,83.42,0,1.53,0,3.05,0,4.87h109.19c0-1.62,0-3.13,0-4.64,0-27.69,0-55.38,0-83.07,0-6.87,1.31-8.24,8.08-8.42,1.5-.04,3.03-.09,4.49.21,3.1.64,5.3,2.29,5.27,5.95,0,1.07.01,2.14.01,3.21,0,66.91,0,133.81-.02,200.72,0,3.11.78,6.81-2.92,8.39-4.19,1.79-8.72,2.2-12.58-.52-1.41-.99-2.22-3.81-2.24-5.8-.16-19.96-.1-39.93-.1-59.89,0-11.53,0-23.05,0-34.58,0-1.28,0-2.55,0-4.15Z"/>
  </g>
  <g>
    <path class="cls-1" d="M413.36,173.41c-5.58,5.09-11.5,6.91-17.92,5.9-3.99-.62-7.87-2.12-11.72-3.48-9.68-3.41-14.8-2.39-21.08,5.76-9.12,11.83-14.52,25.33-14.73,40.63-.18,13.26-.02,26.52-.05,39.78-.01,5.66-1.54,7.28-7.02,7.6-1.59.09-3.19.08-4.77-.07-3.82-.36-5.48-2.15-5.52-6.17-.08-6.89-.02-13.77-.02-21.48-3.33,4.62-6.1,8.6-9.01,12.46-9.77,13-27.66,19.05-42.87,14.29-6.88-2.15-10.69-7.61-12.86-14.37-.84-2.62-1.33-5.36-2.15-8.73-2.04,3.15-3.69,5.93-5.55,8.55-10.64,15.04-26.84,20.02-43.42,12.98-9.73-4.13-15.71-12.22-19.15-22.13-5.8-16.74-5.43-33.79-1.26-50.84,2.43-9.91,6.46-19,14.08-25.92,11.72-10.64,25.45-12.86,40.22-9.33,5.03,1.2,9.82,3.48,14.73,5.27,2.15-5.42,10.21-8.24,15.27-4.64,1.33.95,2.17,3.53,2.21,5.38.21,10.67.07,21.35.11,32.03.06,14.43.16,28.85.26,43.28,0,1.17.13,2.34.26,3.5.89,8.26,4.79,11.41,12.82,10.81,10.37-.78,18.12-6.22,23.4-14.9,4.61-7.57,8.2-15.81,12.01-23.87.8-1.69.82-3.87.83-5.83.07-13.85.03-27.69.04-41.54,0-9.01,3.72-11.93,12.4-9.82,3.31.81,5.1,2.61,4.99,6.38-.16,5.93-.04,11.88-.04,18.72,2.86-5.08,4.93-9.59,7.75-13.53,2.38-3.33,5.34-6.4,8.55-8.89,6.89-5.34,14.35-4.78,21.87-1.2,3.19,1.52,6.36,3.12,9.69,4.24,8.14,2.75,17.63-4.46,17.64-13.26.01-30.04.01-60.07,0-90.11,0-3.23-.25-6.64,3.76-7.6,4.26-1.02,8.58-1.5,12.35,1.55.61.49.91,1.59,1.04,2.46.18,1.26.09,2.57.09,3.86,0,57.61,0,115.22.03,172.83,0,3.51.21,7.03.59,10.52.78,7.01,4.38,10.04,11.21,9.94,9.48-.13,16.68-4.75,22.54-11.98,6.56-8.1,10.62-17.63,14.34-27.32.48-1.25.42-2.77.43-4.16.03-15.02,0-30.04.02-45.06,0-5.47,1.76-7.34,7.09-7.63,1.13-.06,2.28-.04,3.41.02,5.17.28,6.9,2.09,6.9,7.4.02,21.35,0,42.71.03,64.06,0,3.04.02,6.14.53,9.11,1.99,11.56,11.03,17.42,22.87,14.9,9.6-2.04,15.94-8.54,20.79-16.79,1.93-3.28,3.49-6.82,4.98-10.35,2.33-5.53,3.33-11.28,3.21-17.41-.27-14.43-.1-28.86-.08-43.29,0-5.52,1.68-7.34,7.07-7.64,1.7-.09,3.44-.15,5.11.14,3.1.54,5.22,2.24,5.22,5.83,0,.94.02,1.88.02,2.82,0,53.03.12,106.07-.14,159.1-.04,7.5-1.04,15.27-3.13,22.44-4.83,16.58-16.68,25.07-33.02,27.1-12.93,1.6-25.23-.52-36.08-8.33-3.77-2.71-7.12-6.17-10.23-9.69-2.86-3.25-2.4-7.46.45-10.06,4.37-3.99,7.94-4.4,11.44-1.2,5.8,5.3,11.55,10.9,19.47,12.37,4.74.88,9.78,1.2,14.54.58,10.44-1.36,16.69-8.99,18.48-21.65.49-3.47.75-7,.76-10.5.06-26.28.03-52.57.03-78.85,0-.69-.06-1.38-.14-3.04-1.08,1.64-1.77,2.58-2.35,3.6-10.57,18.68-29.03,25.75-48.77,18.47-9.95-3.67-14.86-11.77-17.15-21.93-.32-1.43-.57-2.88-.95-4.8-2.16,3.4-3.95,6.46-5.97,9.36-8.91,12.74-20.58,20.4-36.25,20.12-14.05-.26-22.38-8.21-23.9-22.61-.39-3.72-.6-7.48-.61-11.22-.06-19.36-.03-38.72-.03-58.08v-4.87ZM263.64,201.8c0-6.22-.08-12.43.04-18.65.04-2.18-.58-3.66-2.63-4.29-5.31-1.62-10.53-3.81-15.96-4.66-15.56-2.46-26.31,3.7-31.91,18.61-5.42,14.43-5.45,29.45-1.23,44.13,4.1,14.26,16.01,20.07,28.83,14.91,6-2.41,10.39-6.97,14.09-12.31,5.79-8.35,10.04-17.15,8.82-27.9-.37-3.24-.06-6.56-.06-9.84Z"/>
    <path class="cls-1" d="M26.1,165.98c.06-27.5,4.18-50.9,16.44-72.01,11.79-20.31,28.7-33.9,51.53-39.03,15.96-3.59,31.73-3.12,47.09,2.67,11.58,4.37,21.32,11.51,28.26,22.27,2.02,3.13,1.87,5.25-.75,7.79-1.15,1.12-2.49,2.04-3.8,2.96-2.64,1.84-4.86,1.07-6.97-1.14-7.15-7.51-15.62-12.82-25.35-16.02-16.77-5.51-33.01-4.18-48.65,4.16-16.56,8.83-26.18,23.62-32.25,41.08-6.52,18.75-7.67,38.18-6.04,57.94,1.13,13.71,4.01,26.88,9.82,39.25,7.25,15.44,18.17,27.27,33.97,33.4,18.44,7.16,36.02,4.6,51.71-7.54,7.49-5.8,13.87-13.12,20.73-19.76,1.62-1.57,2.91-3.92,5.68-2.97,3.44,1.18,6.51,3.07,7.95,6.66.38.94-.13,2.61-.76,3.57-9.65,14.67-20.93,27.83-37.1,34.82-25.7,11.11-50.35,8.06-73.15-8.42-15.8-11.42-25.13-27.74-31.39-46.18-5.14-15.13-6.82-30.8-6.96-43.5Z"/>
  </g>
</svg>