<?xml version="1.0" encoding="UTF-8"?>
<svg xmlns="http://www.w3.org/2000/svg" viewBox="0 0 564 809">
  <defs>
    <style>
      .cls-1 {
        stroke: #000;
        stroke-miterlimit: 10;
      }
    </style>
  </defs>
  <g id="Layer_1">
    <g>
      <rect x="62.5" y="52.5" width="455" height="709"/>
      <path d="M517,53v708H63V53h454M518,52H62v710h456V52h0Z"/>
    </g>
  </g>
  <g id="Layer_2">
    <g>
      <path d="M247.5,83.5c-18.2,0-33-14.8-33-33s14.8-33,33-33,33,14.8,33,33-14.8,33-33,33Z"/>
      <path d="M247.5,18c17.92,0,32.5,14.58,32.5,32.5s-14.58,32.5-32.5,32.5-32.5-14.58-32.5-32.5,14.58-32.5,32.5-32.5M247.5,17c-18.5,0-33.5,15-33.5,33.5s15,33.5,33.5,33.5,33.5-15,33.5-33.5-15-33.5-33.5-33.5h0Z"/>
    </g>
    <g>
      <path d="M314.5,82.5c-18.2,0-33-14.8-33-33s14.8-33,33-33,33,14.8,33,33-14.8,33-33,33Z"/>
      <path d="M314.5,17c17.92,0,32.5,14.58,32.5,32.5s-14.58,32.5-32.5,32.5-32.5-14.58-32.5-32.5,14.58-32.5,32.5-32.5M314.5,16c-18.5,0-33.5,15-33.5,33.5s15,33.5,33.5,33.5,33.5-15,33.5-33.5-15-33.5-33.5-33.5h0Z"/>
    </g>
    <g>
      <path d="M447.5,83.5c-18.2,0-33-14.8-33-33s14.8-33,33-33,33,14.8,33,33-14.8,33-33,33Z"/>
      <path d="M447.5,18c17.92,0,32.5,14.58,32.5,32.5s-14.58,32.5-32.5,32.5-32.5-14.58-32.5-32.5,14.58-32.5,32.5-32.5M447.5,17c-18.5,0-33.5,15-33.5,33.5s15,33.5,33.5,33.5,33.5-15,33.5-33.5-15-33.5-33.5-33.5h0Z"/>
    </g>
    <circle class="cls-1" cx="381" cy="50" r="33.5"/>
    <circle class="cls-1" cx="514" cy="52" r="33.5"/>
    <circle class="cls-1" cx="58" cy="51" r="33.5"/>
    <g>
      <path d="M180.5,82.5c-18.2,0-33-14.8-33-33s14.8-33,33-33,33,14.8,33,33-14.8,33-33,33Z"/>
      <path d="M180.5,17c17.92,0,32.5,14.58,32.5,32.5s-14.58,32.5-32.5,32.5-32.5-14.58-32.5-32.5,14.58-32.5,32.5-32.5M180.5,16c-18.5,0-33.5,15-33.5,33.5s15,33.5,33.5,33.5,33.5-15,33.5-33.5-15-33.5-33.5-33.5h0Z"/>
    </g>
    <g>
      <path d="M118.5,82.5c-18.2,0-33-14.8-33-33s14.8-33,33-33,33,14.8,33,33-14.8,33-33,33Z"/>
      <path d="M118.5,17c17.92,0,32.5,14.58,32.5,32.5s-14.58,32.5-32.5,32.5-32.5-14.58-32.5-32.5,14.58-32.5,32.5-32.5M118.5,16c-18.5,0-33.5,15-33.5,33.5s15,33.5,33.5,33.5,33.5-15,33.5-33.5-15-33.5-33.5-33.5h0Z"/>
    </g>
    <g>
      <path d="M246.5,794.5c-18.2,0-33-14.8-33-33s14.8-33,33-33,33,14.8,33,33-14.8,33-33,33Z"/>
      <path d="M246.5,729c17.92,0,32.5,14.58,32.5,32.5s-14.58,32.5-32.5,32.5-32.5-14.58-32.5-32.5,14.58-32.5,32.5-32.5M246.5,728c-18.5,0-33.5,15-33.5,33.5s15,33.5,33.5,33.5,33.5-15,33.5-33.5-15-33.5-33.5-33.5h0Z"/>
    </g>
    <g>
      <path d="M313.5,793.5c-18.2,0-33-14.8-33-33s14.8-33,33-33,33,14.8,33,33-14.8,33-33,33Z"/>
      <path d="M313.5,728c17.92,0,32.5,14.58,32.5,32.5s-14.58,32.5-32.5,32.5-32.5-14.58-32.5-32.5,14.58-32.5,32.5-32.5M313.5,727c-18.5,0-33.5,15-33.5,33.5s15,33.5,33.5,33.5,33.5-15,33.5-33.5-15-33.5-33.5-33.5h0Z"/>
    </g>
    <g>
      <path d="M446.5,794.5c-18.2,0-33-14.8-33-33s14.8-33,33-33,33,14.8,33,33-14.8,33-33,33Z"/>
      <path d="M446.5,729c17.92,0,32.5,14.58,32.5,32.5s-14.58,32.5-32.5,32.5-32.5-14.58-32.5-32.5,14.58-32.5,32.5-32.5M446.5,728c-18.5,0-33.5,15-33.5,33.5s15,33.5,33.5,33.5,33.5-15,33.5-33.5-15-33.5-33.5-33.5h0Z"/>
    </g>
    <circle class="cls-1" cx="380" cy="761" r="33.5"/>
    <circle class="cls-1" cx="513" cy="763" r="33.5"/>
    <circle class="cls-1" cx="57" cy="762" r="33.5"/>
    <g>
      <path d="M179.5,793.5c-18.2,0-33-14.8-33-33s14.8-33,33-33,33,14.8,33,33-14.8,33-33,33Z"/>
      <path d="M179.5,728c17.92,0,32.5,14.58,32.5,32.5s-14.58,32.5-32.5,32.5-32.5-14.58-32.5-32.5,14.58-32.5,32.5-32.5M179.5,727c-18.5,0-33.5,15-33.5,33.5s15,33.5,33.5,33.5,33.5-15,33.5-33.5-15-33.5-33.5-33.5h0Z"/>
    </g>
    <g>
      <path d="M117.5,793.5c-18.2,0-33-14.8-33-33s14.8-33,33-33,33,14.8,33,33-14.8,33-33,33Z"/>
      <path d="M117.5,728c17.92,0,32.5,14.58,32.5,32.5s-14.58,32.5-32.5,32.5-32.5-14.58-32.5-32.5,14.58-32.5,32.5-32.5M117.5,727c-18.5,0-33.5,15-33.5,33.5s15,33.5,33.5,33.5,33.5-15,33.5-33.5-15-33.5-33.5-33.5h0Z"/>
    </g>
    <g>
      <path d="M513.5,418.5c-18.2,0-33-14.8-33-33s14.8-33,33-33,33,14.8,33,33-14.8,33-33,33Z"/>
      <path d="M513.5,353c17.92,0,32.5,14.58,32.5,32.5s-14.58,32.5-32.5,32.5-32.5-14.58-32.5-32.5,14.58-32.5,32.5-32.5h0M513.5,352c-18.5,0-33.5,15-33.5,33.5s15,33.5,33.5,33.5,33.5-15,33.5-33.5-15-33.5-33.5-33.5h0Z"/>
    </g>
    <g>
      <path d="M512.5,351.5c-18.2,0-33-14.8-33-33s14.8-33,33-33,33,14.8,33,33-14.8,33-33,33Z"/>
      <path d="M512.5,285v1c17.92,0,32.5,14.58,32.5,32.5,0,17.92-14.58,32.5-32.5,32.5-17.92,0-32.5-14.58-32.5-32.5,0-8.68,3.38-16.84,9.52-22.98,6.14-6.14,14.3-9.52,22.98-9.52v-1M512.5,285c-18.5,0-33.5,15-33.5,33.5,0,18.5,15,33.5,33.5,33.5,18.5,0,33.5-15,33.5-33.5,0-18.5-15-33.5-33.5-33.5h0Z"/>
    </g>
    <g>
      <path d="M513.5,218.5c-18.2,0-33-14.8-33-33s14.8-33,33-33,33,14.8,33,33-14.8,33-33,33Z"/>
      <path d="M513.5,153c17.92,0,32.5,14.58,32.5,32.5s-14.58,32.5-32.5,32.5c-17.92,0-32.5-14.58-32.5-32.5s14.58-32.5,32.5-32.5h0M513.5,152c-18.5,0-33.5,15-33.5,33.5s15,33.5,33.5,33.5c18.5,0,33.5-15,33.5-33.5s-15-33.5-33.5-33.5h0Z"/>
    </g>
    <circle class="cls-1" cx="513" cy="252" r="33.5"/>
    <circle class="cls-1" cx="515" cy="119" r="33.5"/>
    <circle class="cls-1" cx="514" cy="575" r="33.5"/>
    <g>
      <path d="M512.5,485.5c-18.2,0-33-14.8-33-33s14.8-33,33-33,33,14.8,33,33-14.8,33-33,33Z"/>
      <path d="M512.5,420c17.92,0,32.5,14.58,32.5,32.5,0,17.92-14.58,32.5-32.5,32.5s-32.5-14.58-32.5-32.5c0-8.68,3.38-16.84,9.52-22.98s14.3-9.52,22.98-9.52M512.5,419c-18.5,0-33.5,15-33.5,33.5,0,18.5,15,33.5,33.5,33.5s33.5-15,33.5-33.5c0-18.5-15-33.5-33.5-33.5h0Z"/>
    </g>
    <g>
      <path d="M512.5,547.5c-18.2,0-33-14.8-33-33s14.8-33,33-33,33,14.8,33,33-14.8,33-33,33Z"/>
      <path d="M512.5,482c17.92,0,32.5,14.58,32.5,32.5s-14.58,32.5-32.5,32.5-32.5-14.58-32.5-32.5,14.58-32.5,32.5-32.5M512.5,481c-18.5,0-33.5,15-33.5,33.5s15,33.5,33.5,33.5,33.5-15,33.5-33.5-15-33.5-33.5-33.5h0Z"/>
    </g>
    <g>
      <path d="M57.5,418.5c-18.2,0-33-14.8-33-33s14.8-33,33-33,33,14.8,33,33-14.8,33-33,33Z"/>
      <path d="M57.5,353c17.92,0,32.5,14.58,32.5,32.5s-14.58,32.5-32.5,32.5-32.5-14.58-32.5-32.5,14.58-32.5,32.5-32.5h0M57.5,352c-18.5,0-33.5,15-33.5,33.5s15,33.5,33.5,33.5,33.5-15,33.5-33.5-15-33.5-33.5-33.5h0Z"/>
    </g>
    <g>
      <path d="M56.5,351.5c-18.2,0-33-14.8-33-33s14.8-33,33-33,33,14.8,33,33-14.8,33-33,33Z"/>
      <path d="M56.5,285v1c17.92,0,32.5,14.58,32.5,32.5,0,17.92-14.58,32.5-32.5,32.5-17.92,0-32.5-14.58-32.5-32.5,0-8.68,3.38-16.84,9.52-22.98,6.14-6.14,14.3-9.52,22.98-9.52v-1M56.5,285c-18.5,0-33.5,15-33.5,33.5,0,18.5,15,33.5,33.5,33.5,18.5,0,33.5-15,33.5-33.5,0-18.5-15-33.5-33.5-33.5h0Z"/>
    </g>
    <g>
      <path d="M57.5,218.5c-18.2,0-33-14.8-33-33s14.8-33,33-33,33,14.8,33,33-14.8,33-33,33Z"/>
      <path d="M57.5,153c17.92,0,32.5,14.58,32.5,32.5s-14.58,32.5-32.5,32.5c-17.92,0-32.5-14.58-32.5-32.5s14.58-32.5,32.5-32.5h0M57.5,152c-18.5,0-33.5,15-33.5,33.5s15,33.5,33.5,33.5c18.5,0,33.5-15,33.5-33.5s-15-33.5-33.5-33.5h0Z"/>
    </g>
    <circle class="cls-1" cx="57" cy="252" r="33.5"/>
    <circle class="cls-1" cx="59" cy="119" r="33.5"/>
    <circle class="cls-1" cx="58" cy="575" r="33.5"/>
    <g>
      <path d="M56.5,485.5c-18.2,0-33-14.8-33-33s14.8-33,33-33,33,14.8,33,33-14.8,33-33,33Z"/>
      <path d="M56.5,420c17.92,0,32.5,14.58,32.5,32.5,0,17.92-14.58,32.5-32.5,32.5s-32.5-14.58-32.5-32.5c0-8.68,3.38-16.84,9.52-22.98s14.3-9.52,22.98-9.52M56.5,419c-18.5,0-33.5,15-33.5,33.5,0,18.5,15,33.5,33.5,33.5s33.5-15,33.5-33.5c0-18.5-15-33.5-33.5-33.5h0Z"/>
    </g>
    <g>
      <path d="M56.5,547.5c-18.2,0-33-14.8-33-33s14.8-33,33-33,33,14.8,33,33-14.8,33-33,33Z"/>
      <path d="M56.5,482c17.92,0,32.5,14.58,32.5,32.5s-14.58,32.5-32.5,32.5-32.5-14.58-32.5-32.5,14.58-32.5,32.5-32.5M56.5,481c-18.5,0-33.5,15-33.5,33.5s15,33.5,33.5,33.5,33.5-15,33.5-33.5-15-33.5-33.5-33.5h0Z"/>
    </g>
    <circle class="cls-1" cx="515" cy="639" r="33.5"/>
    <circle class="cls-1" cx="513" cy="702" r="33.5"/>
    <circle class="cls-1" cx="57" cy="639" r="33.5"/>
    <circle class="cls-1" cx="57" cy="702" r="33.5"/>
  </g>
</svg>