<?xml version="1.0" encoding="utf-8"?>
<!-- Generator: Adobe Illustrator 25.2.3, SVG Export Plug-In . SVG Version: 6.00 Build 0)  -->
<svg version="1.1" id="Layer_1" xmlns="http://www.w3.org/2000/svg" xmlns:xlink="http://www.w3.org/1999/xlink" x="0px" y="0px"
	 viewBox="0 0 2586.2 2955.5" style="enable-background:new 0 0 2586.2 2955.5;" xml:space="preserve">
<style type="text/css">
	.st0{display:none;}
	.st1{display:inline;fill:#E2073B;}
	.st2{fill:#FFE6E6;}
	.st3{fill:#FFEEEE;}
	.st4{fill:#BEE5F2;}
	.st5{fill:#FFFFFF;}
	.st6{fill:#684646;}
	.st7{fill:#BCA6A6;}
	.st8{fill:#92B6C2;}
	.st9{fill:#3F3B3B;}
	.st10{fill:#FFFFFF;}
</style>
<g id="Layer_3" class="st0">
	<rect x="-327.1" y="-260.5" class="st1" width="3181.3" height="3298.7"/>
</g>
<g id="Layer_2_1_">
	<polygon class="st2" points="266,658.6 177.2,715.9 153,754.2 178.9,809.2 242.2,830.4 318.2,813.3 366.4,784.1 382,783.8 
		402.7,776 450.5,775.5 489.6,768 509.4,764.9 531.3,755 548.6,746.2 577.4,749.6 592.4,755.9 620.6,660.3 614.1,609.8 524.9,602.8 
		437.9,576.2 308.9,638.8 	"/>
	<polygon class="st3" points="773,852.8 753.1,845.2 682.2,817 631.6,799.5 586.1,803.1 522.9,840.6 450.3,832.1 420.5,837.5 
		391,864.4 374.9,899.1 340.4,943.9 315.2,975.8 305.7,988.9 320.3,1017.1 361.6,1046.1 394.1,1046.1 444.7,1026.4 474.8,1020.4 
		485.7,1002.4 495.5,1017.2 575.3,1003 591.3,1016 600.2,1026.2 641.8,1042.2 686.4,1047 703.2,1042.3 720,1031.7 722.9,1046.7 
		753.1,1097.2 757.7,1122.2 782.6,1148.2 799.2,1159.3 805.2,1214.2 827.1,1275.8 890,1367.6 926.5,1396.7 947.5,1426.7 953.5,1450 
		970.8,1485.9 998,1531 1020.7,1565.4 1052.5,1588 1093.8,1620 1112.2,1633.2 1123.5,1641.3 1166.7,1671.5 1202.2,1693.3 
		1248.1,1726.6 1248.9,1749.5 1348.4,1883 1406.2,1982.8 1456.7,2082.9 1526.6,2216 1564,2289.9 1607.5,2387.1 1637.6,2443.5 
		1661.4,2498.6 1718.3,2638.3 1775.2,2749.6 1800.9,2828.2 1820.5,2870.3 1835.3,2925.5 1841,2922.8 1949.4,2845.2 2110,2709.7 
		2191.4,2632.4 2339.9,2486.4 2545,2270.7 2516.7,2235.6 2497.1,2195.3 2383.8,2057.5 2217.5,1858.2 2103.6,1733.8 2028.6,1655.7 
		1973.4,1588.2 1899.9,1504.4 1863.1,1459.9 1817.6,1405.5 1761.6,1352.2 1696.9,1270.2 1650.2,1191.4 1590,1069.9 1551,945.5 
		1535.1,855.5 1536.1,808.2 1518.2,745.1 1502.5,707.8 1490.3,670.7 1480.5,638.8 1473.6,613.5 1464.5,564.2 1452.4,533.1 
		1400.9,518.9 1332.9,508.5 1278.8,499.8 1201.4,493.2 1149.9,523.4 1076.9,563.1 1054.1,581 1006.4,552.8 938.5,499.6 896.4,453.8 
		806.7,371.6 788.7,343.3 746,306.7 702.9,284.1 665.4,265.3 603.9,232.3 579.7,212.9 537.8,197.2 498.6,200.1 551.3,234.2 
		574.2,244.8 561.4,262.8 527.7,276.6 491.6,337 479,381.1 469.6,400.7 431.6,374.4 383.5,335 357.4,293.8 349.8,302.5 380.3,351.2 
		391.2,370.5 401.9,406.5 461.9,459.3 543.3,523.4 573.1,554.8 636.2,610 660.3,652 714.1,733.6 766.2,839.5 	"/>
</g>
<g id="Layer_1_1_">
	<g>
		<path d="M434.9,836.7c-12.7,1.6-21.6,10-29.6,18.6c-8.8,9.4-15.9,20.3-23.4,30.1c0.5,1.4,0.6,2.3,1,2.6c9.4,5.6,9.9,8.8,3.5,17.8
			c-3.9,5.6-8.2,10.3-14.2,13.6c-9.2,5-15.7,12.8-21.9,21c-10.3,13.8-21.1,27.2-31.6,40.9c-2.8,3.7-5.1,7.7-8.1,12.3
			c1.3,2.8,2.1,6.2,4.2,8.4c9.4,9.9,18.7,19.9,28.9,28.9c7.3,6.5,16.6,10.5,26.5,10.2c12.5-0.4,25.5-0.7,37.4-4.2
			c14.8-4.3,28.7-11.7,43-17.7c0.9-0.4,2-0.8,2.5-1.5c11.5-18.7,25.9-35.8,32-57.6c3.7-13,9.2-25.6,12.3-38.8
			c3.2-13.8,4.1-28.1,6.5-42.1c0.7-4.3,3.1-8.4,4.6-12.1c6.6-0.1,7.3,4.1,7.3,7.5c0.1,10.9,0.1,21.9-0.8,32.8
			c-1.2,13.6-2.7,27.1-5.1,40.5c-2.1,11.6-3.9,23.4-9.2,34.3c-4.1,8.3-7.3,16.9-10.9,25.5c9.1,5.3,18,2.3,26.6,1.1
			c14.5-1.9,28.8-4.6,43.2-7.1c19-3.3,30.9-15.7,38.8-32.2c5-10.4,6.4-22.1,9.2-33.3c3.7-14.7,4.5-29.4,5.8-44.2
			c0.8-9.2-0.3-18.5-0.6-27.8c-0.1-2.3,0-4.5,0-6.7c3.6-1.1,5.7,0.2,6.4,3.3c2,8.6,6.2,16.6,5.3,26.1c-0.7,6.5,1.3,13.2,1.7,19.8
			c1.2,20.5-2.3,40.2-11.4,58.8c-3.1,6.2-5.9,12.8-7.5,19.5c-1.5,6.3-4.7,10.7-9.5,14.6c-4,3.3-7.8,7-11.8,10.7
			c11,11,22.6,17.7,36.2,22.2c16.8,5.5,33.8,9.7,51.3,11.8c10,1.2,19.1-0.1,28.4-5.8c10.4-6.5,19.4-13.7,25.4-24.6
			c5.2,7.2,5.1,8.1-3.3,17.6c2.3,11.2,3.7,22.7,10.3,32.6c4.2,6.3,7.8,12.8,12,19.1c5.2,7.8,8.6,16,10.6,25.4
			c2.9,13.1,10.7,24,21.7,32.2c8.7,6.5,17.4,13.1,25.9,19.5c-1.4,2.9-3.2,4.9-2.9,6.5c2.5,16,5.3,32,8.1,48
			c2.4,13.8,7.7,26.7,12.7,39.7c4.9,12.8,12.3,23.3,22.7,32.1c6.2,5.3,6.1,6.3,1.5,13.2c12,16.4,23.6,33.4,36.3,49.4
			c9.7,12.2,20.8,23.3,31.4,34.8c6.1,6.6,13.8,12.1,18.4,19.5c9.4,15.4,21.5,28.9,28,46.4c5.6,15.1,13.8,29.4,21.7,43.5
			c9.4,16.8,19.8,33,29.6,49.6c7.9,13.5,19.6,23.4,31.2,33.3c16.9,14.3,35.5,26.4,52.1,41.3c12,10.8,26.6,18.6,39.9,27.9
			c15.4,10.9,30.6,22,46,33c2.4,1.7,5.2,3,7.8,4.5c19,10.8,37.7,22.2,53.8,37.2c4.7,4.4,9.6,9.1,8.7,16.8c-0.2,1.6,1.6,3.4,2.6,5.1
			c6.9,11.7,13.5,23.4,20.7,34.9c8.7,14,17.1,28.1,27.3,41.3c16.2,21,33.7,41,46.9,64.3c4.2,7.5,9.6,14.4,15,21.1
			c6.8,8.3,11.2,17.7,15.6,27.4c5.7,12.6,13.1,24.4,19.5,36.7c10.2,19.3,20.3,38.5,30.2,58c8.1,15.9,15.6,32.2,23.6,48.1
			c12.2,24.2,23.9,48.6,38.4,71.6c9.3,14.8,16.1,31.2,24,46.8c11.7,23,23.4,46,35.1,69.1c4.7,9.3,9.5,18.7,14.1,28.1
			c1.6,3.4,2.7,7.1,4,10.6c-0.7,0.4-1.4,0.9-2.1,1.3c-1.3-1.3-3-2.5-3.8-4c-7.6-14.7-15.3-29.2-21.1-44.8
			c-3.7-10-10.2-18.8-15.3-28.3c-13.3-25.1-26.6-50.2-39.7-75.4c-2.9-5.5-5-11.4-7.7-17c-0.6-1.4-2.2-2.3-3.1-3.6
			c-2.5-3.8-5.1-7.5-7.4-11.5c-3.2-5.6-6.2-11.4-9.3-17.1c-0.8-1.5-1.7-2.9-2.1-4.5c-1.8-7.9-5.6-14.7-9.7-21.7
			c-5.6-9.6-9.9-19.9-14.7-30c-7.4-15.7-16.1-30.9-23.6-46.5c-6.2-12.8-14.9-23.8-21-36.5c-3.7-7.7-6.3-15.9-10.4-23.4
			c-4.7-8.7-10.2-17-15.7-25.3c-10.6-16-21.2-32-32.2-47.7c-6.3-8.9-13.6-17.1-20-25.9c-12.7-17.3-25.4-34.7-37.6-52.4
			c-5.6-8.1-9.7-17.3-15-25.7c-4.2-6.7-9.1-13-13.9-19.3c-3.2-4.2-5.3-8.4-1.1-13.7c-9.8-9.6-20.2-17.8-32.1-24.4
			c-6.9-3.8-12.7-9.6-19.6-13.5c-12.7-7.1-24.4-15.3-35.8-24.4c-10.5-8.4-22.6-14.7-34-22.1c-3.9-2.5-7.5-5.5-11.3-8.2
			c-4-2.8-8.2-5.3-12.3-8.1c-2.5-1.7-5.2-3.2-7.1-5.4c-11.5-13.3-26.5-22-40.3-32.3c-7.2-5.4-14.4-10.8-21.1-16.7
			c-9.8-8.6-17.1-19.1-23.4-30.7c-7.7-14.3-18.1-27.1-26-41.3c-9.2-16.5-17.2-33.6-25.1-50.7c-7-15.2-16.4-28.7-27.5-41.2
			c-15.9-17.9-31.6-35.9-47-54.2c-7-8.4-13-17.6-19.5-26.5c-2.4-3.2-5.1-6.1-7.4-9.4c-7.3-10.7-14.9-21.1-21.6-32.2
			c-16.6-27.3-26.7-59.6-30.1-92.5c-0.8-7.5-3.2-14.9-4.9-22.4c-0.1-0.6-0.8-1.3-0.7-1.8c1.2-11-6.5-16.1-14.4-20.3
			c-12.7-6.8-19.6-18.5-27.2-29.7c-1.6-2.4-2.9-5.5-2.9-8.3c0.1-10.2-5-18.2-10.1-26.5c-6.9-11.3-15.6-21.7-18.3-35.2
			c-0.8-4.2-1.4-8.4-2.2-13.3c-4.3,1.9-8.8,2.8-11.9,5.4c-10.9,9.2-23.5,8-36.2,6.9c-8.1-0.7-16.2-1.8-24.3-3
			c-2.1-0.3-4.3-0.3-6.3-0.9c-14.1-4.4-29.2-7-42.1-13.9c-9.7-5.2-21.8-10.7-23.6-25.2c-8.6,1.5-16.7,2.9-24.8,4.2
			c-15.7,2.4-31.5,4.7-47.2,6.9c-2.6,0.4-5.6,1-7.9,0.2c-7.7-2.8-14,0.7-20.7,3.2c-5.9,2.2-12.1,3.5-18.2,5.1
			c-2.2,0.6-4.5,1-6.7,1.8c-11.7,4.5-23.3,9.1-34.9,13.7c-1.5,0.6-3,1.6-4.6,1.8c-11.6,1.8-22.7,5.6-34.8,5.2
			c-16.7-0.5-30.1-7-41.8-18.3c-6.7-6.5-13.6-12.7-20.1-19.3c-2.7-2.8-4.7-6.3-7.5-10.2c-5.7,2.5-11,1.7-14.1-5.8
			c3.7-7.2,8.8-13.8,14-20.6c8.6-11.1,15.5-23.6,25.1-34.2c1.9-2.1,4-3.3,4.7-7.2c2.5,0,2.7-3,4.2-3c4.8-6.8,9.6-12.3,12.9-18.6
			c4.4-8.4,12.3-12.9,18.2-19.5c7.4-8.3,13.4-17.9,19.9-27.1c12.1-16.9,27.2-29.6,48.5-33.1c0.1,0,0.2,0,0.2,0
			c15.5,1.2,31.1,2.3,46.6,3.9c6.6,0.7,13,2.8,19.6,0.5c1.8-0.6,4-0.7,5.9-0.4c14.9,2.1,25.8-5.2,36-14.8c4.3-4,9.5-7,14.5-10.1
			c9.9-6.2,19.7-12.4,29.9-18c6-3.3,12.8-5.2,19.2-7.8c2.7-1.1,5.2-2.3,8.1-3.6c-11.5-10.3-23.6-18.5-37.2-23.7
			c-6.9-2.6-15.1-4.3-22.2-3.2c-10.9,1.6-22.1,2.6-32.3,8.3c-10,5.5-21.2,8.9-32.8,13.6c-0.7-3.3-1.1-5.1-1.7-7.5
			c20.9-1.9,37.3-13.9,55.2-22.1c14.6-6.7,24.5-18.7,30.5-32.9c9.1-21.4,14.7-44,18.7-66.9c0.3-1.6,0.2-3.3,0-5
			c-0.9-7.1,0.2-13.8,3.4-20.2c1-1.9,0.8-4.4,1.5-8.5c-4.8,1.5-8.3,2.5-11.8,3.8c-6.1,2.3-12.3,4.6-18.2,7.5c-2.4,1.2-4,3.8-5.7,5.5
			c-3.3-1-6.8-2.6-10.5-3.2c-14.4-2.3-28.9-4.2-43.3-6.5c-5.2-0.9-10.2-2.5-15.2-4.2c-10.4-3.4-21.2-6-30.9-10.9
			c-14.7-7.4-30-7.3-45.7-7.1c-1,0-2.2-0.3-2.9,0.2c-8.9,6.2-18.7,11.6-26.3,19.1c-8,7.9-16.8,14.1-26.5,19.1
			c-9.1,4.7-18.5,8.9-28.1,12.5c-5.2,1.9-11.1,1.7-16.6,2.7c-9.4,1.7-18.8,3.7-28.1,5.5c-2.3,0.4-4.6,0.7-6.9,1.1
			c-8.8,1.4-17.3,2.6-24.4,9.4c-5.1,4.8-12.6,7.1-18.7,11c-15,9.5-29.9,19.3-44.8,29.1c-3.9,2.5-7.6,5.3-11.4,8
			c-12.3,8.8-23.8,18.2-26.5,34.3c-2.6,15.4,0.2,29.4,10.2,41.9c8.7,10.8,18.7,20.7,31.1,26c12.5,5.3,26.7,7.6,40.3,9.2
			c5,0.6,16,0.2,17.5-2.1c2-0.5,18.2-1.7,27.4-3.5c4.5-0.9,8.8-2.9,13.3-3.9c16.5-3.6,31.6-11.1,45.2-20.4
			c9-6.2,14.3-16.7,17.7-27.8c4-12.9,9.2-25.4,13.9-38.1c0.2-0.6,1-1.1,1-1.7c-0.3-16.6,9.6-30.2,13.1-45.6
			c2.8-12.3,2.1-24.3-0.9-36.3c-0.6-2.6-2.8-5.3,0.4-6.9c1.5-0.8,4.2,0.4,6.2,1.1c9.5,3.3,12.7,10.9,13.3,20.2
			c1.4,21.9-3.2,42.9-8.3,64c-4.9,20-14.2,37.8-24.4,55.2c-3,5.1-8.7,9.3-14,12.4c-13.5,7.8-27.3,15-41.3,21.9
			c-5.9,2.9-12.5,4.5-18.7,6.6c-5.6,1.9-11.2,4.7-17,5.6c-14.3,2.2-28.3,7.3-43,6.5c-5.6-0.3-11.1-1.6-16.6-2.5
			c-2-0.3-3.9-1.5-5.8-1.4c-17.5,0.3-29.6-10.8-41.9-20.6c-13.6-10.8-22.9-25.5-25.4-42.7c-2.1-14.2,0.3-28.8,11.2-39.8
			c7.3-7.3,15.9-13.3,24-19.6c5.6-4.4,11.3-8.6,17.2-12.6c11.3-7.5,22.9-14.5,34.4-21.7c5.8-3.6,11.5-7.4,18.6-12
			c-10.9-3.7-20.6-7-30.9-10.6c0,0-9.8-9.3-10.5-10.7c-3.1-0.9,3-3.7,2.7-4c7.4,1,14.5,3.4,19.3,9.1c3.5,4.2,7.6,5.8,12.5,7.1
			c3.5,0.9,6.9,2.1,11,3.4c12.7-8.7,25.8-17.6,38.9-26.4c2.7-1.8,5.6-4.5,8.6-4.7c10.2-0.5,17.5-7.4,26.3-10.8
			c2.8-1.1,5.5-2.7,8.4-3.1c17-2.3,27.5-13.3,36-26.9c7-11.1,12.4-23.4,20.9-33.1c6.8-7.7,6.3-14.5,4.3-22.6
			c-2.2-9.2-4.9-18.4-7.1-27.6c-0.7-2.8-0.3-6-1.3-8.7c-3.5-9.9-8.4-19.4-10.9-29.5c-3.9-15.8-12.3-29.3-19.5-43.4
			c-1.3-2.6-3.8-5.5-3.5-7.9c0.6-4.1-1.9-5.6-4.2-7.4c-2.9-2.3-5.9-4.6-9.1-6.6c-9.4-6.1-9.7-6.9-17-0.5c-3.4,2.9-8.6,8-11.6,11.2
			c-7.5,8-15,16-22.1,24.3c-9.4,11-18.5,22.4-27.5,33.8c-2.1,2.7-2.1,7.1-4.3,9.5c-16.4,17.3-32.7,34.7-49.7,51.4
			c-10.2,10-17.7,21.7-22.7,34.6c-3.7,9.5-3.9,20,3.9,28.7c-3.3,7.2-4.3,11.2-2.3,16.8c3.2,8.7,6.3,17.5,15.3,22.4
			c3,1.6,5.2,4.7,7.8,7.1c-3.6,1.7-6.2,1.1-9.8-1.5c-14.3-10.2-19.9-24.3-20.9-41c-0.5-7.3-1.8-14.5-1.9-21.7
			c-0.1-10.2,3.2-19.1,9.5-27.7c10.9-14.8,23.5-28,36.1-41.1c12.6-13,24.3-26.6,34.6-41.6c9-13,20.2-24.5,30.5-36.6
			c5.4-6.3,10.9-12.4,16.4-18.6c6.2-6.9,12.4-13.8,18.5-20.7c4.2-4.7,8-9.8,12.3-14.3c4.8-5,10-9.5,15.9-15.1
			c-3.8-1.7-7.2-3.5-10.7-4.7c-18.2-6.2-36.4-12.4-54.7-18.3c-12.6-4.1-25.5-7.4-38.1-11.6c-18.6-6.1-37-12.7-55.6-18.7
			c-8.8-2.9-17.8-5-26.8-7.3c-10.2-2.6-20.5-5.1-30.8-7.4c-4-0.9-7.6-2.1-12.2,0.4c-5.6,3.1-9.4,0.4-11.8-6.2c-1.4-4-2.6-8.1-3.8-12
			c-11-1.6-21.8-3.1-32.6-4.8c-9.6-1.5-17.3-6.1-23.7-14.5c1.7-1.3,3-3.1,4.6-3.4c9.3-1.7,19.1-2,28-4.8c5.8-1.8,10.3-0.3,15.2,1.1
			c8.7,2.5,11.4,0.9,13.2-8.7c6-1.6,11.9-0.7,18.2,0.2c12.1,1.7,24.5,1.7,36.8,2.5c9.9,0.6,19.8,1.9,29.7,1.7
			c10.9-0.2,21.8-1.4,32.7-2.5c6.6-0.7,13-2.2,19.6-3.1c17-2.5,33.9-4.9,51.4-7.4c-5.3-8.5-10.5-16.7-15.4-24.6
			c-3.4-5.5-3.3-12.4-0.1-18c0.5-0.9,0.9-1.7,1.1-2.7c4-15.8,14.9-26.2,26.6-36.1c1.8-1.6,5.3-1.2,9.2-2c7.1-11,17.3-15.7,29.6-23.7
			c9-1.7,22.5-1.3,32.4-3c16.2-2.9,32.2-7.9,47.9-12.9c18.6-5.9,36.8-13,55.3-19.3c7.2-2.5,15.2-3.2,21.7-6.8
			c9.3-5.3,19.6-3.9,29.2-6.7c9.5-2.8,19.6-3.3,29.4-4.9c19.6-3.3,38.8-1.1,58.2,2.5c12,2.2,24.1,5.2,36.6,2.9
			c1.2-0.2,3.2-0.3,3.6,0.4c3.9,5.8,9.6,4,14.5,3c4.5-0.9,7.8-0.7,10.2,4.6c27.9-8.5,55.3-17.6,83.1-25c20.1-5.4,40.9-8.4,61.3-12.6
			c3.9-0.8,7.5-2.8,11.3-3.6c13.3-2.7,26.6-5.2,40-7.6c1.5-0.3,4.2-0.1,4.5,0.6c2.7,6.1,8.6,4.8,13.3,6.5c8.7,3.1,17.3,6.4,25.9,9.9
			c10.4,4.3,21.1,8.1,31,13.5c25.1,13.5,49.8,27.8,74.7,41.8c12.1,6.8,24.3,13.6,36.5,20.3c17.7,9.8,35.4,19.5,53.1,29.3
			c1.9,1.1,4.5,3.2,4.5,4.9c0.1,7,5.3,8.4,10,10.8c15.4,7.7,30.7,15.7,46,23.6c0.9,0.5,1.8,0.8,2.6,1.5
			c18.4,15.1,39.4,25.7,60.1,37.1c9.3,5.1,17.7,11.8,26.6,17.5c19.5,12.6,38.9,25.4,58.6,37.6c12.6,7.8,25.9,14.7,38.7,22.3
			c21.9,13,37.9,31,46.5,55.6c17.7,2.7,35.4,5.1,53,8.2c15.3,2.7,30.5,6.3,45.8,9.3c8.4,1.6,16.8,2.2,25,5.9
			c5.8,2.6,13,2.6,19.6,3.3c14.8,1.6,29.7,2.8,44.5,4.3c18.5,1.9,37,3.6,55.4,5.9c11.5,1.4,22.8,4,34.2,5.8
			c16.7,2.6,33.4,5.2,50.2,7.5c19.6,2.7,39.1,6.2,58,11.9c4,1.2,10.6,2.9,14.7,3.7c14.4,2.9,28.8,5.4,42.3,11.4
			c3.2,1.4,7,1.6,11.9,2.7c-1.2,8-2.5,15.9-3.9,24.9c12.5-2.8,18.9,7.7,27.9,12.8c1.4,0.8,2.3,3.1,2.8,4.9c0.9,3.5,1.4,7.1,2.2,11.1
			c18.1,4.6,36.3,9.3,54.6,13.8c13.5,3.4,27,7.2,40.6,9.7c7.8,1.5,15.8,3.5,24.1,0.1c4.4-1.8,8.6,1.6,10.8,5.4
			c5.9,10.2,12.4,20.5,8.4,33.2c-4.5,14.1-10.1,27.6-24.2,35.1c-2.2,1.2-5,1.1-7.6,1.8c-2.7,0.7-5.4,1.5-8.8,2.5
			c-3.7-5.6-10.8-5.8-17.1-6.6c-23.7-2.8-47.3-6-70.6-11.3c-7-1.6-14.4-1.8-21.6-2.5c-4.6-0.4-7.4,2.6-9.7,5.9
			c-6,8.4-13,15.5-21.7,21.4c-9.4,6.4-18.8,6.2-25.7-6.2c-0.5-0.9-1.1-1.7-2.3-3.6c-22.1-3.1-45.1-6.2-68-9.6
			c-17.1-2.6-34.1-5.5-51.1-8.4c-18.3-3.1-36.6-6.4-54.9-9.6c-15.4-2.6-30.7-5.2-46.1-7.8c-15.1-2.5-29.6-7.5-44.9-9
			c-15.5-1.5-31-3.4-46.4-6.1c-13-2.3-25.7-6.1-38.7-8.8c-12.9-2.7-25.9-4.7-39.3-7.1c0,2.1-0.4,3.4,0.1,3.9
			c7.9,8.9,9,20.4,12.1,31.1c4.2,14.6,8.3,29.3,12.4,44c0.6,2.2,1.4,4.6,1.3,6.8c-1.1,14.7,3.3,28.2,7.8,41.8
			c5.6,17,10.4,34.3,16.6,51c6,16.1,13.8,31.6,19.9,47.7c6.5,17,12.3,34.2,13.6,52.6c1.2,17.8,4.1,35.5,5.4,53.4
			c0.8,9.8,0.5,19.7,2.2,29.6c3.6,19.9,4.8,40.3,9.6,59.9c5.3,21.9,12.7,43.3,20.6,64.5c7.5,20.2,16.6,39.8,25.5,59.4
			c5,11.2,11.2,21.9,16.5,33c4,8.4,7.1,17.1,11,25.5c4.4,9.7,9.2,19.1,13.7,28.7c6,12.9,11.2,26.2,17.7,38.8
			c8.5,16.5,17.2,33,27.2,48.6c8,12.5,18,23.8,27.1,35.6c11.7,15.2,23,30.8,35.2,45.6c12.2,14.8,25.2,29.1,38.2,43.2
			c10.1,11,19.8,22.7,31.6,31.6c13.7,10.3,25.7,22,37.2,34.5c2.3,2.4,4.4,5,6.5,7.6c21.9,26.2,44,52.3,65.6,78.8
			c8.4,10.3,15.4,21.6,23.5,32.2c9.6,12.7,19.2,25.4,29.6,37.4c10.7,12.3,22.2,23.8,33.5,35.5c7.1,7.4,14.6,14.3,21.8,21.6
			c20.8,21,41.8,41.8,62.1,63.3c11.4,12.1,21.6,25.3,32.2,38c15.7,18.8,31.3,37.7,47.2,56.4c13.4,15.9,27,31.8,40.8,47.4
			c20,22.7,40.4,44.9,60.3,67.7c10.9,12.5,20.8,25.8,31.5,38.5c8.1,9.6,16.9,18.6,25.2,28c13.8,15.7,27.7,31.3,41.2,47.2
			c12.8,15.1,25.3,30.6,37.8,45.9c7.8,9.5,15.5,19,23.2,28.5c6,7.5,12,15,17.8,22.7c4,5.2,7.6,10.8,11.5,16.1
			c10.4,14.1,21.6,27.8,31,42.5c9.9,15.5,18.1,32.1,27.1,48.2l0.2-0.2c-7.6-4-9.6-12.2-14-18.6c-9.4-14.1-18.4-28.4-27.9-42.4
			c-9.2-13.4-18.7-26.6-28.4-39.7c-5.7-7.7-12-14.9-18-22.4c-6.4-7.9-13.2-15.6-18.9-23.9c-4.9-7.1-12.2-11-18.5-16
			c-3.7-3-6.8-4.9-7.3-10.6c-0.4-4.3-4.5-8.5-7.4-12.3c-3.8-4.8-8.2-9.2-12.2-13.8c-5.1-6-9.9-12.3-15.1-18.1
			c-13.3-14.7-27.1-29-40.2-43.9c-9.3-10.7-17.5-22.4-26.8-33.1c-9.9-11.5-20.5-22.3-30.6-33.7c-12.1-13.6-23.9-27.5-35.9-41.2
			c-17.3-19.7-34.8-39.1-51.8-59c-17.1-19.9-33.9-40-50.4-60.4c-21.6-26.6-44.6-51.8-69.8-75c-10.2-9.4-19.2-20.2-29-30.2
			c-13.5-13.8-27.6-27-40.5-41.2c-11.1-12.2-21.8-25-31.2-38.5c-13-18.8-26.1-37.5-41.4-54.6c-11.1-12.4-21.4-25.4-32-38.1
			c-11.3-13.5-22.2-27.3-33.9-40.3c-7-7.8-15.2-14.8-23.2-21.6c-16-13.6-31.6-27.4-44.8-43.8c-3.3-4.1-7.9-7-11.5-10.9
			c-6.7-7.2-13.4-14.5-19.7-22.1c-9.9-12-19.5-24.4-29.2-36.6c-0.6-0.8-1.5-1.4-1.9-2.3c-5.3-12.4-14.6-21.7-23.7-31.1
			c-10.7-11.2-19.2-24-25.1-38.1c-2.8-6.6-5.4-13-8.8-19.3c-3-5.6-6.7-11.7-4.7-18.9c0.2-0.6,0.2-1.5-0.1-1.9
			c-5.5-6.4-7.4-14.6-11.5-21.5c-6.9-11.7-13.2-23.5-18.6-35.9c-3.3-7.6-6.8-15.1-10.4-22.6c-9-18.5-18.6-36.7-27.2-55.4
			c-6.8-14.7-13.2-29.8-18.4-45.1c-6.4-18.7-12.6-37.7-16.5-57c-2-10-5.7-20.2-4-31.2c0.9-5.8-2.1-12.2-3.4-18.3
			c-4.3-20.9-4.1-42.2-6.4-63.3c-2-18.4-6-36.5-8.8-54.8c-3.4-21.8-16.1-39.9-23.2-60.2c-6.9-19.7-13.3-39.6-19.6-59.5
			c-3.4-10.7-7.8-21.5-8.7-32.6c-1.8-22-9.6-42.6-14.4-63.8c-2.5-11.1-5.9-22.5-12.9-32.1c-1.5-2-1.1-5.4-1.6-8
			c-5.9-1.4-11.9-2.9-18-4.4c5.6,0.1,11.4-0.4,16.9,0.5c19.2,3.4,38.3,7.6,57.5,10.9c30.4,5.2,60.9,9.8,91.4,14.6
			c20.6,3.2,41.3,6.1,61.9,9.6c23.2,3.9,46.4,8.3,69.6,12.3c18,3.1,36,5.9,54,8.6c14.1,2.1,28.3,3.7,42.4,5.7
			c7.1,1,14.1,2.4,22.3,3.8c1.2-12.3,2.3-23.4,3.3-34.6c1.5-17.5,0.9-35.2,6.1-52.3c1.6-5.2,3.5-10.3,5.5-16.3
			c-3.6-0.2-6.2-0.2-8.7-0.4c-7.5-0.6-15.2,0.3-21.7-5c-1.4-1.1-3.7-1.4-5.6-1.7c-5.6-0.7-11.2-0.9-16.7-1.9
			c-16-2.6-31.9-5.8-47.9-8.2c-31.5-4.8-62.9-9.9-94.5-13.7c-27.6-3.4-55.3-6.3-83.2-3.9c-2.8,0.3-5.8-0.8-8.7-1.3
			c-3.4-0.6-6.8-1.3-10.2-1.7c-1.6-0.2-3.3,0.4-4.8,0.1c-7.1-1.1-14.2-2.4-21.3-3.5c-11-1.7-22.3-0.7-33.3-3.5
			c-12.1-3.1-24.5-5.9-36.8-6.7c-16-1.1-31.3-5.1-46.9-8.2c-9.8-1.9-19.4-4.3-29.2-5.9c-25.8-4.2-51.8-7.3-77.4-12.3
			c-13.2-2.6-26.3-5.3-39.7-6.6c-4.9-0.5-10-0.7-14.8-1.8c-17.1-3.9-34.2-8.1-51.3-12c-2.6-0.6-5.3-0.7-7.9-0.6
			c-15.6,0.8-30.9,0.2-46.1-4.3c-9.2-2.7-18.7-4.3-28.1-6.5c-16.1-3.7-32.2-7.8-48.4-11c-11.3-2.2-22.2-6.8-34.2-5.1
			c-4.8,0.7-10.8,3-13-5c-0.3-1.3-4-1.7-6.2-2.3c-8-2.4-17-0.4-24.3-5.6c-0.7-0.5-2-0.1-2.9-0.3c-9.8-1.8-19.6-3.6-29.4-5.5
			c-27-5.3-54.1-10.5-81.1-16.1c-16.2-3.3-32.6-6.1-48.4-10.9c-14.4-4.3-28.5-9-43.8-8.2c-1.3,0.1-2.6-0.4-3.9-0.6
			c-12.6-2.2-25.2-4.5-38.8-6.9c9.9,8,18.7,15.9,28.3,22.6c12.1,8.4,21,19.2,27.5,32.3c5.1,10.4,11,20.1,19.9,27.8
			c4.9,4.2,9.9,8.5,14.6,13c11.4,11.1,22.3,22.7,33.5,34c1.4,1.4,2.8,3.2,4.6,3.7c6.8,1.9,13.7,3.5,20.6,4.9
			c24.1,4.8,48.2,9.5,72.3,14.2c23.8,4.6,47.6,9.1,71.3,13.8c15,3,29.8,6.6,44.9,9.2c18,3.1,36.1,5.4,54.1,8.2
			c20.7,3.2,41.3,6.7,61.9,10c5.9,0.9,11.9,2.3,17.8,2.2c20-0.4,39.8,2.4,59.6,4.3c9.6,0.9,19.2,2,28.6,3.8
			c35.5,6.8,70.9,13.9,107.1,16.5c4.1,0.3,9.4-0.7,12.4,4c-12.2-1.2-24.4-1.9-36.5-3.7c-25.9-4-51.5-9.2-77.5-12.7
			c-28.3-3.8-56.5-8.2-85.2-8.1c-10.1,0-19.4,2.4-28.9,5.9c-13.1,4.9-25.5,10.9-37.2,18.3c-9.7,6.2-19.4,12.5-29.2,18.5
			c-5.9,3.6-11.8,7.5-18.2,10c-14.4,5.6-24.3,17.3-36.2,26.1c-1.5,1.1-2.3,3-4.1,5.5c19.5,10,39,18.2,58.2,26.8s37.8,18.2,56.2,28.3
			c-2.9,5.9-5.8,4.7-9.1,3c-8.2-4.4-16.4-8.8-24.7-12.9c-13.8-6.8-26.4-16.2-41.4-20.6c-2.9-0.9-4.9-4.7-7.8-5.9
			c-12.1-5.2-24.8-9.1-36.6-15.1c-9.9-5-20.3-8.5-30.2-13.3c-5.3-2.6-11.2-4-16.7-6.4c-3.8-1.7-7.2-4.2-10.9-6.3
			c-11.5-6.3-23-12.5-34.5-18.9c-1.9-1-3.6-2.3-5.1-3.8c-12.5-12-24.8-24.1-37.2-36.1c-1-0.9-2.2-1.8-2.7-2.9
			c-7.3-16.6-23.5-24.9-35.1-37.5c-15.5-16.9-32.2-32.7-48.4-48.9c-8-7.9-16.3-15.5-24.2-23.5c-5.8-5.9-11.3-12.2-16.8-18.3
			c-1.7-1.9-3.4-3.8-5.5-6.2c-1.1,1.9-2.2,3-2.3,4.2c-2.5,15.2-11.2,26.5-22,36.7c-5.8,5.5-11.5,11.1-17.6,16.1
			c-5.1,4.2-10.7,7.7-16,11.6c-4.5,3.3-8.9,6.7-13.5,9.9c-1.2,0.8-2.8,1-5.7,2.1c1-3.1,1-5.3,2.1-6.3c12.8-12.2,22.5-26.9,32.5-41.2
			c9-12.9,17.6-26.5,19.2-43c0.1-1.3,1.8-2.4,4.5-3.3c-0.2,3,0.3,6.3-0.7,9c-4.3,12.9-9.2,25.6-17.2,36.7c-4.7,6.4-9.7,12.6-14.3,19
			c-1.5,2-2.3,4.5-2.4,7.8c2.5-1.8,5.2-3.5,7.4-5.5c6.9-6.2,13.3-12.8,20.4-18.7c9.6-8,14.7-18.3,17.1-30.3c0.5-2.6,1.1-5.1,1.7-7.7
			c2.4-10,2.4-10-5.5-19.4c-1.7,1.9-3.4,3.7-5.1,5.6c-0.5-0.5-1.3-0.9-1.2-1.2c2.7-10-1.1-16.7-10.1-21.6c-7.2-4-13.9-8.8-20.7-13.5
			c-1.8-1.3-3.2-3.2-5.7-5.8c-12.3,28.5-27.8,54.5-47.9,77.4c-19.8,22.5-40.2,44.5-62.8,64.2c-0.7-0.4-1.3-0.8-2-1.3
			c1.2-2.7,2.2-5.6,3.8-8.1c5.1-7.7,10.7-15.2,15.8-22.9c2.4-3.6,5.1-7.3,6-11.4c1.4-6.2,5.1-10.7,8.8-15.3
			c9.1-11.4,19-22.3,27-34.4c10-15.2,18.8-31.3,22.4-49.5c1.1-5.4,1-11.1,1.4-15.6c-5.9-2.2-10.7-4.3-15.7-5.8
			c-6.9-2-14.1-3.2-20.9-5.4c-18.5-6.1-34.4-17-50.7-27.2c-7.6-13-23.1-14.6-33.6-23.4c-1.2-1-2.9-1.6-4.4-2.3
			c-10.3-4.7-20.8-8.9-30.8-14c-14.2-7.2-29.8-8.3-45-11.7c8.2,8.2,19.3,10.7,29.3,15c9.9,4.3,20.6,6.7,31.5,10.2
			c-3.1,6-6.6,3.9-9.9,2.8c-10.3-3.3-20.6-6.6-31.3-9.3c12.3,8.6,24.5,17.2,37.2,26c-2,4-3.5,8-5.9,11.4c-1.8,2.6-4.2,5.2-7,6.6
			c-6.2,3.3-12.9,5.7-19.2,8.8c-2,0.9-3.7,2.3-5.1,4c-8.5,10.1-16.7,20.3-22,32.7c-3.7,8.7-9.8,16.5-14,25.1
			c-7.7,15.8-14.8,31.8-22.2,47.7c-1.4,3-2.8,5.9-4.2,9c1.7,2,3.4,4,4.8,5.8c-1.2,3.6-6.1,5.9-10,4.7c-11.3-3.7-22.7-7.2-33.8-11.7
			c-5.3-2.1-9.7-6.3-10.3-13.7c5.1,3.5,10.3,7,15.4,10.5c0.9-0.8,0.8-0.7,1.7-1.5c-2.3-4.5-6.9-7-11-9.9
			c-16.9-12.1-35.7-21.6-48.1-39.3c-1.7-2.4-17.3-20-17.6-20c-1.2,0.1-0.6,8.6-0.6,8.9c-0.1,0.6,6.5,11,8.6,15.2
			c5.3,10.7,11.6,20.8,17.3,31.3c1.8,3.3,4.9,6.5,1.5,10.9c-0.6,0.8,0.8,3.7,2,5.1c7,8.8,13.9,17.7,21.4,26.1
			c6.1,6.9,12.9,13.2,19.7,19.5c1.9,1.8,4.8,2.6,5.9,3.2c3.2,4.8,5.2,9.4,8.6,12.7c17.4,17.2,35.3,33.9,55.3,48.2
			c17.3,12.4,34.3,25.1,51.8,37.1c6.7,4.6,14.4,7.9,22.7,12.4c0.1,10.6,8.8,16.9,17.2,24.1c8.8,7.5,16.4,16.4,24.2,25
			c2.3,2.5,3.9,5.6,7,3.9c2.6,4,4.8,7.9,7.6,11.3c10.2,12.3,20.7,24.3,30.9,36.5c1.2,1.5,2.8,3.7,2.5,5.2
			c-1.8,7.5,3.4,11.3,7.5,15.8c2.7,2.9,5.5,5.8,7.3,9.2c11.2,21.1,22.9,42,32.8,63.7c12.1,26.3,27.6,50.5,42.4,75.2
			c12,20.1,29.3,34.6,52.8,39.1c13,2.5,25.9,5.2,38.5,9.3c9.1,2.9,18.2,6.3,27.6,8.3c12,2.5,24.2,3.9,36.3,5.7
			c2.5,0.4,4.9,0.7,8.3,1.1c-4.1,4.4-8,5.1-12.4,4.7c-17.2-1.8-34.1-4.6-50.7-10c-14.7-4.8-29.3-9.9-45-11.6
			c-9.3-1-18.8-3.5-26.7-9.7c-1.7-1.4-4.1-1.9-7.9-3.7c0.8,5.4,0.7,9.6,2.1,13.3c6.5,17.4,10.7,35.6,20.9,51.5
			c2.1,3.2,2.7,7.4,3.7,11.2c2.2,8.2,6.6,15,12.4,21.2c16.3,17.6,36.9,27.9,59.3,35c7.1,2.2,13.8,5.4,20.8,7.9
			c2.6,0.9,6.9,2,9.6,2.4c6.1,0.9,12.2,1.6,18.3,2.3c3,0.3,6.4,1.1,8.9,0c10.6-4.5,21-1.1,31.5,0.2c12.5,1.6,24.9,3.7,37.3,5.5
			c6,0.8,10.4,2.9,13.8,7.8c-15-2.1-29-4-42.9-6.1c-8.8-1.3-17.6-3.2-26.5-4.4c-2.4-0.3-5.1,1.1-7.7,1.2c-5.9,0.4-11.7,0.8-17.6,0.8
			c-15.9,0.1-30.2-6.3-44.9-11.1c-15.1-5-30.3-9.9-43.6-18.8c-5.4-3.6-10.1-8.3-16.7-13.9c1.4,9.5,1.5,17.6,3.8,24.8
			c3.9,12.2,8.8,24.2,14.2,35.9c7.2,15.6,18.6,27.9,32.4,38c9.1,6.7,17.9,14.3,27.9,19.1c16.3,7.7,32.3,16.6,50.8,19.2
			c10.8,1.5,21.2,5.3,31.8,7.6c8.7,1.9,17.6,3.3,26.4,4.4c11.8,1.4,23.6,2.2,35.4,3.5c2.9,0.3,6.1,1,8.6,2.5
			c11.5,7.2,24.1,5.6,36.8,5.5c10.2-0.1,20.5,1.3,30.7,2c3.7,0.3,7.4,0.5,11.1,1.9c-8.9,3.6-18,2.6-27.1,2.2c-9-0.4-18-1-26.9-2.1
			c-5.9-0.7-12.3-0.8-17.9-2.6c-12.7-4.1-25.3-6.8-38.8-7.4c-20.8-1-41.3-5.3-61.5-10.7c-5.8-1.5-11.8-1.9-17.6-3.4
			c-6.3-1.7-12.7-3.5-18.7-6.2c-10.5-4.7-21.1-9.4-30.9-15.4c-12.4-7.6-24-16.4-36.6-25.1c0.9,7.7,5,13.7,9.3,19.1
			c7,8.8,15.1,16.6,26.2,20.4c4.7,1.6,4.8,2.3,4.8,9.9c-8.6-3-15.3-8.8-23.6-14.1c8.3,25.2,26.4,41.8,43.8,59.6
			c-7.1,4.5-8.8-1.6-11.8-3.5c-3.2-2.1-5.5-5.5-8.2-8.4c-1.1,0.6-0.9,0.5-2,1.2c1.4,4.5,2.3,9.2,4.2,13.5c4,9.1,8.4,18,12.7,26.9
			c0.7,1.5,1.3,3.3,2.5,4.3c7,5.3,6.7,12.1,4.3,19.4v-0.1c-7.4-14.2-14.9-28.5-22.3-42.7c-0.1-0.2-0.5-0.3-1.6-1
			c-3.9,6.6-3.6,14.2-5.4,21.2c-1.4,5.3-2.1,10.8-3.2,16.3c-0.4-0.8-0.9-1.6-2-3.8c-1.2,3.6-2.1,6.2-3,8.8c0.8,0.4,0.5,0.3,1.3,0.6
			c1.3-2,2.6-4,3.9-5.9c-1,12-6.5,22.8-10.2,34c-1.5,4.6-3.7,9.1-5.5,13.4c-0.8-2-1.2-4.7-2.7-6.5c-2.7-3.1-1.4-6-0.8-9.3
			c2.5-15.7,5.6-31.4,6.5-47.2c1.2-20.8,0.1-41.7,3.4-62.3c0.4-2.8-0.4-6-1.5-8.7c-3.9-9.8-8.2-19.5-12.4-29.2
			c-0.5-1.1-1.6-1.9-3.4-3.8c-15.6,24.9-27.4,51.2-45.3,74.3c-5-7-1.1-13.5-0.2-19.6c2.2-15.2,9.3-28.8,15-42.9
			c6.2-15,11.9-30.3,13.2-46.7c0.3-3.6-0.7-8.1-2.7-11.1c-12.1-18.7-20.4-39.2-21.7-61.2c-0.8-13.6-7.3-23.4-13.1-34.3
			c-2.4-4.5-3.3-9.9-5.4-14.7c-4.2-9.4-8.7-18.6-13.6-29c-3.8,12.8-7.3,24.7-11.1,36.6c-3.6,11.7-8.9,22.5-15.3,33.2
			c-6.3,10.6-10.9,22.2-18.4,33.5c-5.3-7.5-2.6-13.7,0-18.1c4.9-8.3,7.5-17.3,10.2-26.2c4.1-13.5,7.4-27.2,9.7-41.1
			c1.9-11.7,2.2-23.8,2.7-35.7c0.2-4.9,0.7-11-1.9-14.3c-1.8-2.4-8.5-0.7-12.9-1.4c-7.5-1.3-14.5,0.8-21.6,2.5
			c-7.3,1.8-14.5,1.8-21.4-1.7c-13-6.6-27.1-11.7-38.7-20.2c-9.4-6.8-17.4-10-29.3-9.8c-12.8,0.2-25.9-4.8-38.5-8.7
			c-7.9-2.5-14.7-2.9-22.9,0c-10.7,3.7-18.5,11-27.4,17.1c-8.2,5.5-17.2,9.9-26.2,14.1c-2.2,1-6.4,0.5-8.3-1
			c-3.8-3.1-7.3-1.9-12.2-1.3 M344.4,935.3c9.6-8.6,17.2-19.3,30.5-24.8c-10.1-4.6-13-3.9-17.9,3.7c-2,3-3.1,7.4-5.9,8.9
			c-5.1,2.9-6.3,7.1-6.9,12c-2.9,1.9-5.5,3.9-3.8,8.5C341.8,940.9,343.1,938.1,344.4,935.3z M1223,341.3c15.3-0.4,30.4,0.2,45.7,1.3
			c23.1,1.6,46.4,1.1,69.6,2.3c7.1,0.4,14.7,2.2,21,5.4c19.2,9.8,39.8,8.5,61.1,11c-0.9-3.5-1.1-5.8-2.1-7.8
			c-7.5-15.2-17.5-28.4-32.2-37.2c-17.7-10.5-36-20-53.5-30.7c-17-10.3-33.4-21.7-49.9-32.6c-9.4-6.2-18.3-13.4-28.2-18.8
			c-16-8.7-33-15.7-46.7-28.2c-1.5-1.3-3.2-2.3-5-3.3c-19.6-10.4-39.3-20.7-58.8-31.3c-7.4-4-15.7-7.2-18.8-16.5
			c-0.6-1.9-3.2-3.3-5.1-4.5c-12.3-7.2-25.5-12.9-36.4-22.4c-1.2-1-3-1.4-4.5-2.1c-10.4-5.2-20.9-10.2-31-15.8
			c-17.1-9.5-33.9-19.6-51.1-29.1c-18.8-10.4-37.9-20.3-57-30.4c-2.6-1.4-5.6-2.1-8.3-3.4c-15.9-7.6-33.6-3.2-49.9-8
			c-0.9-0.3-2,0-3,0.2c-7.7,1.8-15.5,3.6-23.2,5.4c-2.5,0.6-5.1,1.4-7.6,1.8c-11.5,1.7-23.3,2-34.4,5.1c-32,8.8-63.5,19-95.4,28.1
			c-16.5,4.7-33,10.4-48.3,6.9c-4-4-6.2-8.4-9.2-9c-12.2-2.6-24.4-6-36.6-7.6c-18.7-2.4-37.9-3.3-56.6,1.3c-9,2.2-17.8,5.5-26.9,7.3
			c-20.5,4.1-40.3,10.5-59.6,18.3c-4.9,2-9.7,4.3-14.7,5.8c-13,3.8-26.1,7.2-39.1,10.8c-10.2,2.9-20.1,6.6-30.5,8.7
			c-11.6,2.3-23.3,3.9-34.8,6.9c-11.1,2.9-19.3,8-24.9,17.8c-1.8,3.1-3.8,6.7-8.3,5.8c-6-1.1-9.5,3-12.7,6.5
			c-8.5,9.1-13.9,20.1-16.6,32.2c-0.4,1.7,0.3,3.9,1.1,5.5c3,5.5,6.1,11,9.4,16.3c8.2,13.2,21.2,17.9,36,13.3
			c4-1.3,8.2-1.9,13.7-3.1c7-11.1,13.4-23.9,26.2-30.9c11.4-6.2,20.7-16.5,34.7-17.8c3.9-0.4,7.7-1.8,11.6-2.7
			c9.7-2.1,19.3-4.5,29.5-1.9c5.5,1.4,11.5,0.5,12.8,8.2c0.2,1,1.8,1.8,2.9,2.4c12.4,6.8,25.8,10.2,39.6,12.2
			c16.1,2.3,32.1,4.6,46.8,12.1c7.4,3.8,15,7.2,22.6,10.4c7.3,3.1,11,2.2,13.7-4.7c6.5-16.5,14.9-32.7,10.9-51.7
			c-1.3-6.4-0.3-13.3-0.5-19.9c-0.1-3.3-0.6-6.6-1.2-9.8c-0.7-3.2-2.8-7,1.6-8.5c4.4-1.5,6.5,2.1,8.1,5.6c0.5,1.2,0.9,2.5,1.4,3.7
			c5.2,12.2,5.5,25.3,5.6,38.2c0.1,21.9-0.7,43.8-1.2,66.3c18.7,22.2,44,34.2,73.8,39.5c4.2-10.2,9.1-19.7,12-29.7
			c3.8-13,5.5-26.5,9.1-39.5c4.8-16.9,10.8-33.3,15.8-50.1c3.7-12.5,9.7-23.7,16.8-34.4c7.9,3.5,9.4,5.3,7.8,11.8
			c-2.7,11.6-4.9,23.5-9.1,34.6c-6.1,16-9.4,32.5-11.5,49.3c-1.5,11.8-3.7,23.8,0.5,35.5c3.1,8.7,5.8,17.3,2.7,26.3
			c13.5-0.9,26.2-1.8,40.1-2.8c-0.1-1.6-0.3-4.3-0.4-6.9c-0.2-2.8-1.1-5.8-0.3-8.3c1.3-3.7,4-6.8,5.7-10.4
			c2.3-5.1,4.9-10.2,6.2-15.5c3.6-14.4,6-29.1,10-43.3c3.3-11.9,2.5-23.7,2-35.6c-0.3-6.1-2.5-12.2-4-18.3c-0.2-1-1.3-1.8-2.8-4
			c-1.7,5.4-3.5,9.3-4.2,13.5c-1.3,7.2-2,14.5-2.8,21.8c-0.6,5.1-1.5,9.9-7.1,12.3c-6.1-0.9-9.1-4.4-9.4-10.7
			c-0.2-5.9-0.9-11.8-0.8-17.6c0-2.5,1.2-5.2,2.4-7.4c4.1-7.3,8-14.6,12.8-21.4c5.1-7.3,11-14,16.4-21c1.7-2.3,3.1-4.9,4.4-7.4
			c1-2,1.7-4.1,2.9-6.9c1.8,1.4,4,2.4,4,3.2c-0.3,3.5-0.7,7.2-2.1,10.3c-2.4,5.4-5.5,10.5-8.2,15.8c-2.9,5.6-3.2,10.9-0.3,16.9
			c2.6,5.2,3.7,11.2,5.1,17c1.8,7.4,3.4,14.9,4.7,22.4c0.7,4.2,1.5,8.6,1,12.7c-2.2,18.3-3.9,36.7-8.9,54.7
			c-3.3,11.9-6,23.7-14.9,33.1c-4.8,5-3.9,10.2,1.4,14.6c2,1.7,4.5,2.9,7,3.8c7.9,2.8,16,5.3,24.4,8.1c-1,1.2-2,2.5-3.4,4.2
			c52.5,15.4,106.1,22.8,158.4,33.8c1.9-4.4,2.6-8.9,5.2-11.4c7.4-7.1,15.4-13.7,23.5-19.9c6.6-5,13.8-9.1,20.7-13.8
			c5.5-3.7,10.6-8,16.2-11.5c14-8.8,28-17.5,42.3-25.8c3.5-2,8.3-3.8,12-3.1c5.1,1,9-0.5,13.3-2c6.8-2.4,13.5-5.9,20.5-7.2
			c5.7-1,11.3-4.5,18.3-2.6c-5.6,6.7-13.1,6.5-19.4,9c-11.3,4.5-22.5,9.9-34.2,13.1c-12.5,3.4-21.9,9.9-28.6,20.6
			c-0.2,0.3-0.4,0.5-0.7,0.7c-14.4,12.1-27.6,25.5-39.7,39.9c-5.4,6.3-9,13.5-9.1,22.4c9,2.1,17.3,4.3,25.7,6.1
			c24.3,5.4,48.5,10.5,72.8,15.9c15.2,3.4,30.4,7,45.6,10.4c2.2,0.5,4.5,0.5,6.8,0.7c12.8,1.2,25.6,2.4,38.3,3.7
			c2.6,0.3,5.1,1,8,1.6c0.9-4.4,2.3-8.2-1-11.8c-0.8-0.9-2-2.5-1.7-3.3c-1.3-0.3-4.2-13.8-11.2-17.5c-2.6-1.4-5.3-2.8-7.9-4.2
			c-3.6-1.9-3.3-4.5-1.2-7.8c3.4,0,6.9,0,10.7,0 M453.7,386.9c12.2,3.7,15,2,19.7-9.2c5-11.9,9.7-23.9,15.4-35.5
			c5.3-10.9,12.1-21.2,17.6-32c8.9-17.2,19-33.5,33.3-46.8c1.8-1.6,4.4-3.3,6.6-3.3c10.5-0.1,16.1-5.8,19.5-15.1
			c-1.7-1.6-3-3.1-4.6-4.3c-13-9.2-26.5-17.8-39-27.7c-11.9-9.5-26.7-13.3-39.2-21.4c-3-1.9-6.5-2.9-9.8-4.4
			c-6-2.8-12.4-4.9-17.7-8.7c-3.8-2.7-6.9-3-11-2.4c-18.4,2.7-34.5,11.4-50.6,19.6c-6.6,3.3-12.7,8.9-17.2,14.8
			c-10.9,14.3-19.5,30.1-21.8,48.4c-2.5,19.8-0.8,38.5,15,53.3c2.9,2.7,5.2,6.1,7.9,9c9.6,10.1,18.6,21,29.2,29.9
			c11.9,10,25.4,18.1,38,27.3C448.2,380.8,450.8,384.1,453.7,386.9z M753.4,817.9c-0.8-1.5-1.4-2.9-2.2-4.3
			c-12.5-22.2-25.2-44.4-37.5-66.7c-8.3-15.1-16.9-30.1-24.2-45.7c-6.4-13.6-13.5-26.6-22.8-38.4c-2.6-3.3-4.8-7.2-6.2-11.2
			c-2.4-6.8-6.6-12.1-11.8-16.9c-2.9-2.7-7.1-5.5-7.8-8.8c-1.7-8.6-8.8-12.6-12.7-19.3c-7.6,1.5-14.5,3-20.7,4.2
			c1.1,4.1,2.6,7.2,2.6,10.3c0,22.6,0.7,45.3-0.8,67.8c-0.9,14.1-4.6,28.3-13.7,40c-5.5,7.1-11.9,13.4-18.2,20.4
			c17,4.8,30.2,16.8,45.3,25.7c3.1,1.8,6.4,3.5,9.8,4.5c9.2,2.7,18.7,4.6,27.8,7.5c13.9,4.4,27.7,9.2,41.5,13.9
			C718.9,806.5,735.8,812.1,753.4,817.9z M353.5,232c-7.1,0.5-13.9,1.2-20.8,1.4c-3.2,0.1-6.5-1.4-9.7-1.2c-20.8,1-41.5,3-62.1,6.6
			c-3.8,0.7-7.9,0.1-11.8,0.7c-9.8,1.6-19.5,3.6-29.3,5.4c-5.3,1-11.6-0.8-15,5.6c-0.4,0.7-2.5,0.9-3.7,0.7
			c-15.1-1.7-30.3,1.1-45.4-2.1c-9.6-2-15.9,3.3-17.3,13.1c-0.4,2.9-0.4,6-0.2,9c0.5,6.7,2.1,8.4,8.8,10.1
			c12.5,3.2,25.2,5.8,37.5,9.6c15.5,4.8,30.7,10.8,46.1,15.7c39.9,12.7,79.8,25.2,119.7,37.7c6.5,2,12.9,4.1,21.7,6.9
			c-2.2-5.1-2.9-8.8-5.1-11.2c-17.8-20.3-19.4-45.5-20-70.3C346.8,257.4,351.1,245,353.5,232z M1083.1,477.2
			c-33.3-5.6-66.6-9.8-99.3-17c-32.5-7.2-65.9-9.7-98.2-18.5c5.3,6.4,10.9,11.9,16.6,17.3c11.4,10.6,22.6,21.5,34.6,31.4
			c4.1,3.3,2.3,6,1.6,8.8c23.9,22.7,47.4,45.2,78.2,58c1-2,1.4-4.4,2.8-5.2c14.5-9.1,28.3-19.5,44.1-26.4
			c9.6-4.1,17.9-9.8,22.7-19.7c1.6-3.2,4.3-5.9,6.9-8.3c5.2-4.8,10.8-9.3,17.2-14.7c-6.2-1.1-11.6-2.1-16.7-3
			c-2.8,2.7-5.2,5.1-8.6,8.5C1084.3,483.9,1083.9,481.4,1083.1,477.2z M620.4,602.1c-2-2.8-3.5-5.3-5.3-7.5
			c-9-10.7-19.3-20.1-30.8-28.2c-4.4-3.1-9.6-7.2-11.2-11.9c-1.9-5.7-5.5-5.9-9.6-6.5c-3.5-0.6-7.1-0.6-10.6-1.1
			c-2.6-0.3-5.3-1.4-7.8-1.2c-11.5,1.2-23.1,2.3-34.5,4.2c-22.2,3.7-44.4,7.6-66.6,11.8c-6.8,1.3-14,2.6-19.9,5.8
			c-7.8,4.2-15.3,9.4-21.5,15.6c-13.9,13.9-30.7,22.7-48.5,30.1c-4.6,1.9-9.6,2.6-14.1,4.7c-15.3,7.2-30.5,14.6-45.5,22.3
			c-4.7,2.4-8.8,6.2-14.3,10.2c2.8,0.6,4,1.2,4.7,0.9c8.7-4.6,18.7-3.9,27.7-6.7c11.8-3.8,23.7-7.4,34.4-14.6
			c10-6.8,21.6-11.3,32.5-16.9c6.2-3.2,13.3-5.5,18-10.1c6.5-6.3,13.6-11.3,21.1-15.8c6-3.7,10.6-9.8,19.2-11.3
			c-0.1,9.5-12.3,7.5-13,15.7c2.7,0,5.3,0.2,8,0c13.3-1,25.6,2.5,37.6,7.7c5.2,2.3,10,5.6,15.4,7c13.4,3.4,26.5,8.4,40.6,8.8
			c4.5,0.1,9,2.2,13.5,2.9c6.5,1.1,13.3,3.3,19.6,2.4c8.9-1.3,17.6-4.8,26.2-7.7c5.9-2,11.6-4.9,17.6-6.8
			C608.6,604.3,614.1,603.5,620.4,602.1z M1267.4,349.2c0,0.6,0.1,1.1,0.1,1.7c11.9,2.7,23.8,5.1,35.6,8.3
			c16.3,4.4,33.7,3.5,49.5,10.1c0.3,0.1,0.7,0.1,1,0.2c34.7,5.8,69.3,11.8,103.6,19.4c16.8,3.7,33.9,6,51.2,5.9
			c16.3,0,32.5,0.7,47.5,8.8c4,2.1,8.9,2.4,13.4,3.6c5.7,1.6,11.4,3.2,17.1,4.9c3.8,1.1,7.5,3,11.3,3.5c22.4,2.9,44.8,5.3,67.1,8.1
			c6.9,0.9,13.7,2.2,20.6,3.5c2.6,0.5,5.1,1.4,7.7,1.8c12.8,1.9,25.6,3.5,38.4,5.7c18,3,35.9,6.2,53.8,9.7c10,2,19.9,4.7,29.9,7.2
			c1.9,0.5,4.3,1.1,5.3,2.5c5.2,7.3,13.4,10.5,20.2,15.4c4.5,3.2,9.6,5.5,15.8,8.9c-0.3-13.4,11.5-19.7,14-30.9
			c-8.1-4.6-15.6-8.7-24.8-10.2c-15-2.5-30.1-5.4-44.6-10.1c-17.9-5.8-36.4-7-54.6-10.2c-13-2.2-26.2-3.7-39.2-5.8
			c-11.1-1.8-22.1-4.9-33.3-6c-23.7-2.5-47.6-4.1-71.4-6.2c-10.2-0.9-20.5-1.4-30.6-3.2c-15.3-2.8-30.4-6.9-45.6-9.8
			c-29.3-5.7-58.6-11.3-88-16.1c-15.3-2.5-31-3.3-46.5-4.9c-10.2-1-20.4-1.7-30-6.4c-12-5.8-24.5-10.2-38.3-9.7
			c-7.6,0.3-15.1,0.3-22.7,0.3C1289.9,349.2,1278.6,349.2,1267.4,349.2z M1222.6,352.3c4,14.2,13.3,24.1,21.9,34.4
			c1.4,1.6,4,2.1,6.1,3.2c10.5,5.5,22.1,6.4,33.5,8.5c22.8,4.1,45.5,9.5,68.4,12.5c27,3.5,53.7,8.5,80.3,14.1
			c5.8,1.2,12.8,5.9,18.3-1.5c0.3-0.3,1.3-0.3,1.9-0.2c6.2,1.4,10.4-2.6,14.1-6c5.7-5.3,10.5-11.5,16.7-18.4
			c-6.4-0.8-11.6-1.2-16.7-2.2c-20.8-4-41.5-8.6-62.4-12.3c-15.1-2.6-29.6-9-45.3-7.7c-0.3,0-0.6-0.2-1-0.2
			c-14.3-2.8-28.6-5.4-42.7-8.6c-20.3-4.5-40.6-9.3-60.9-14.2C1244.4,351,1234,349.6,1222.6,352.3z M413.6,528.9
			c1.3-1.2,2.3-1.6,2.6-2.4c2.2-5.5,4.3-11,6.5-16.5c2.5-6.1,5.2-12,7.7-18.1c4.8-12.1,5.4-25,7.4-37.7c1-6.8,0-12.7-5.8-17.9
			c-10.5-9.5-20.8-19.4-30-30.2c-6.5-7.6-13.6-15.3-16-25.9c-1-4.7-3.1-9.2-5.3-13.5c-4.4-8.6-10.2-9.9-17.3-3.5
			c-7.2,6.5-13.8,13.6-20.8,20.6c12.7,9.4,24,18.1,30.6,32.1c7.1,15,15.2,29.4,19.7,45.5c3.4,12.1,7.1,24.2,10.8,36.2
			C406.8,507.7,410.1,517.8,413.6,528.9z M455.8,465c-2.1,33.7-13,62.9-38.7,85.9c8.2,4.4,15.3,7.2,23.8,4.9
			c7.6-2.1,15.4-3.5,23.3-4.6c20.3-3,40.6-5.7,60.9-8.3c9.1-1.2,18.2-1.8,29.5-2.9C520.8,514.4,488.7,490.1,455.8,465z
			 M1196.7,497.5c-4.6-1-8-2.4-11.4-2.3c-16.2,0.3-31.4-4.7-47.1-7.5c-6.4-1.2-12.9-2.1-18.4-3c-16.9,32.8-40.4,58.6-64,84.3
			c-1.7-0.9-2.8-1.2-3.4-1.9c-0.8-0.9-1.2-2.1-1.8-3.1c26.4-26.1,53.5-59.3,56.3-69.9c-2.3,1.7-4.1,3.9-6,6
			c-5.8,6.4-11.7,12.6-17.4,19.1c-9.8,11.1-24.4,14.2-36.4,21.5c-6.6,4-12.7,8.1-18,14.6c2.2,1.4,4,2.6,5.9,3.8
			c3.9,2.5,8.6,4.3,11.4,7.8c3.9,4.8,8,7.5,13.8,6.3c1.5,2.7,2.6,4.9,4.2,7.9c9.5-8,18.3-15.4,27.2-22.8c2.8-2.3,5.5-4.9,8.6-6.7
			c18.9-11,37.9-21.8,56.9-32.5C1169.9,511.9,1182.7,505.1,1196.7,497.5z M753.1,844.9c-6.6-8.4-11.5-15.3-20.8-17.1
			c-1.9-0.4-3.8-1.4-5.3-2.6c-13.1-10.8-30.9-13-44.1-23.6c-0.5-0.4-1.3-0.3-1.9-0.6c-6.2-2.3-12.3-5-18.7-6.8
			c-11.3-3.1-22.7-5.8-34.1-8.3c-2.1-0.5-4.5,0.6-6.7,1.2c-11.5,2.8-19.7,12.7-31.7,14.2c-1.3,0.2-2.5,1-3.7,1.5
			c2.7,1.9,4,2.2,5.2,2.7c21.2,7.9,42.5,14.8,65.7,10.7c0.9-0.2,2,0.1,2.8,0.5c5,3,10,6.1,15.7,9.5c-2.1,5.1,0.9,7.7,5.8,9.6
			c5.5,2.2,11,4.6,16.2,7.5c8.6,4.9,17.8,4.8,27.2,3.8c3.9-0.4,7.8-1.8,11.7-2.1C741.3,844.6,746.2,844.9,753.1,844.9z
			 M1818.9,475.8c-14.7-12.5-35.3-21.5-51.9-24.1c-1.6-0.3-3.3-0.6-4.9-0.5c-14.7,1.3-6.4-1.2-21.1-2.7c-2.9-0.3-12.4-4-15.3-3.9
			c-4.5,0.1-11.2-1.6-15.7-2.1c-14.1-1.5-19.5-1.7-33.7-3.4c-8.2-1-11.5-2.8-19.7-4.3c-5.1-0.9-16.5-2.9-21.7-3.7
			c-8-1.2-14.3-2.7-22.3-3.3c-8.2-0.7-15.1-1.9-23.3-2.3c-5-0.3-15.3-2.7-23.3-3.7c-2.6-0.8-36.8-10.1-40.8-10.1
			c-3.6-0.3-13.9-0.9-15.6-0.6c-2.5,0.3-21.3,10-23.5,23c14.4,2.4,28.7,5.4,43.1,7.1c20.7,2.5,41.6,4.1,62.4,5.9
			c6.3,0.5,12.7-0.1,19,0.5c29.4,2.9,58.8,5.5,88.1,9.4c30.2,4,60.2,9.5,90.4,14.2C1799,472.8,1808.9,474.3,1818.9,475.8z
			 M1901.8,532c6,1,10.1,1.6,14.3,2.4c30.3,5.6,60.3,11.9,89.9,20.5c2.4,0.7,5.1,0.1,7.1,0.1c3.4-8.8,6.6-17.2,10.2-26.4
			c-5.5-0.6-10.7-0.7-15.8-1.8c-16.4-3.6-32.9-7.4-49.2-11.4c-7.4-1.8-14.4-4.8-21.8-6.6c-8.5-2.2-17.2-3.8-26.4-5.8
			C1907.3,512.9,1904.8,521.6,1901.8,532z M1896.7,528.5c2.2-9,4.3-17.3,6.1-25.6c0.8-3.9,1.2-7.8,1.6-11.8c0.1-1.6,0-3.9-1-4.7
			c-5-4.2-10-8.7-15.7-11.8c-5.6-3.1-11.6,0.4-14.3,6.1c-2.5,5.3-5.1,11.1-9.3,14.9c-10.6,9.3-9.3,21.3-11,33
			C1868.9,528.5,1883.1,528.5,1896.7,528.5z M755.2,129.8c-2.8,1.6-4.3,2-4.7,2.9c-3.4,6.7-7.7,13.2-9.7,20.3
			c-3.3,12.1-4.9,24.6-7.7,36.8c-1.4,6.4-4,12.5-5.8,18.8c-1.4,4.7-2.7,9.5-3.4,14.4c-1.2,7.8-1.1,15.7-6.1,22.7
			c-3.2,4.5-5.1,9.9-7.2,15.1c-2.3,5.6-4.2,11.4-6.4,17.5c9.8,2.6,18.3,5.1,27.2,0.8c6.6-3.2,8.8-7.8,5.8-14.5
			c-1.4-3.1-4.1-5.7-6.7-9.2c0.5-8.7,0.8-18.2,1.5-27.7c1.6-20.9,5.6-41.2,13.2-60.9C749.5,155.5,751.6,143.4,755.2,129.8z
			 M2005.5,587c0.5-4.2,0.9-7.6,1.4-11.9c-36.5-5.2-72.3-13.6-108.2-23.9c-0.3,3.2-0.7,5.2-0.8,7.1c-0.7,12.2,1.2,14.3,13.2,15.1
			c1,0.1,2-0.1,3,0.1c14.1,1.7,28.3,3,42.4,5.1C1972.8,581,1989,584.1,2005.5,587z M725.6,289.1c0.4,18.4-6.2,33.5-13.7,48.2
			c-10.5,20.4-25.2,38-39,56.3c-6.4,8.5-10.8,18.5-16.1,27.8c2.3,0,3.5-0.7,4.3-1.7c10.6-12.6,21.2-25.2,31.7-37.9
			c2.5-3,4.9-5.9,7.1-9.1c3.7-5.5,6.3-12,10.8-16.7c12.2-12.7,18.3-29,26.7-43.8c6.3-11,4.2-15.4-7.3-21.2
			C728.9,290.3,727.7,289.9,725.6,289.1z M1069.2,278.5c-0.7-0.7-1.4-1.5-2.2-2.2c-12.2,8.4-24.5,16.7-36.7,25
			c-4.6,3.2-9.5,6-14,9.4c-7.9,6-15.8,12-23.3,18.5c-4.4,3.9-3.5,9.1,1.8,11.1c6.4,2.4,13.1,3.8,19.3,5.6c3.3-11.7,8.2-21,15.8-28.6
			c10.3-10.3,21-20.2,31.4-30.3C1064.1,284.3,1066.6,281.3,1069.2,278.5z M364.8,782.5c0.6,0.4,1.1,0.9,1.7,1.3
			c2.1-3.9,3.9-8,6.4-11.7c12.7-18.1,20.6-38.3,25.8-59.7c3.3-13.6,5.1-27.2,5.1-41.1c0-3.3-1.2-6.7-2-11.4
			C394.1,703.6,377.2,742.4,364.8,782.5z M509.4,899.2c-0.8-0.1-1.6-0.3-2.4-0.4c-5.8,42-18.8,81.3-45.1,116.9
			c8-2.1,14-2.6,18.9-9.5c11.6-16.3,18.1-34.2,21.3-53.6c2-12,3.8-24.1,5.6-36.2C508.5,910.7,508.9,904.9,509.4,899.2z
			 M2012.9,565.8c-14.1-8.3-28.8-10.5-42.8-13.5c-22.7-4.9-45.3-12.2-69.3-10.7c1.1,1.9,2.3,3.5,3.9,3.9
			c33.8,10.4,68.3,17.7,103.3,22.8C2009,568.5,2010.2,567.3,2012.9,565.8z M563.3,744.5c8.3,1.6,13.8-2.5,18.5-6.9
			c10.7-10,17.1-22.7,19.9-36.9c2.2-10.6,3-21.6,4.1-32.4c0.3-3.5-0.7-7.2-1.1-10.8c-5.5,13.1-9.3,26.1-12.7,39.1
			C587.3,715,577.8,730.5,563.3,744.5z M1848.8,582.8c0.8,4.7,1.3,8.3,1.9,11.9c0.1,0.3,0,0.7,0.1,1c1.5,6.5,4,8.1,10.7,6
			c15.5-4.9,22.8-17.4,28.2-31.7C1875.5,572.4,1862.6,577.6,1848.8,582.8z M446.1,453.5c-0.8,0-1.6,0.1-2.5,0.1
			c0.5,31.3-16,57.4-25,86c3.1-1.6,5.1-3.9,7.1-6.2c7.5-8.6,11.3-19.4,15.6-29.6c4.5-10.8,8.7-22.2,7.1-34.7
			c-0.5-3.5,1.5-7.4,2.5-11.7C449.6,456.3,447.8,454.9,446.1,453.5z M1890,552.8c-12.9,2.8-26.2-3.6-39.2,2.4c0,6.8,0,13.1,0,19.7
			c11.5-3.4,22.1-6.5,32.8-9.7c1.6-0.5,2.9-1.6,4.4-2.3C1892.2,561,1893,558.2,1890,552.8z M738.7,287.6
			c23,11.6,46.1,11.3,68.6,14.6c-7.7-5-16.1-8.8-23.3-14.3c-5.9-4.5-12-5.6-18.5-4.9C757.4,283.8,749.4,285.7,738.7,287.6z
			 M602.4,222.2c3.6,4.2,8.2,8,15.6,8.9c4.3-24.5,2-48.6,1.1-72.7c-2.2,10.6-2.7,21.5-5.3,31.8C611.2,200.8,606.5,211,602.4,222.2z
			 M1852.1,545.9c9.7,0.5,18.9,1.2,28.1,1.5c9.6,0.4,11.5-2.4,9.4-12.5c-12.1,0-24.1,0-36.7,0
			C1852.5,539.6,1852.3,542.8,1852.1,545.9z M407,554.3c-7,12.6-19.3,21.3-22.7,37.2c12.6-10.9,24.3-21.1,36.3-31.5
			C416.2,558.2,412,556.4,407,554.3z M810.5,194.7c-0.6-0.2-1.3-0.3-1.9-0.5c-0.9,4.1-1.6,8.2-2.8,12.1c-5.5,17.7-4,37.8-17.4,52.9
			c-0.6,0.7-1.3,1.9-1.1,2.7c0.4,1.8,1.4,3.4,2.8,6.5C805.3,244.6,808.9,219.9,810.5,194.7z M795.8,126.7
			c-12.5,10.4-17.9,32.7-11.6,48.7c4.2-3.4,3.9-8,4.5-12.5c1.4-11.3,1.7-22.8,7.3-33.2C796.3,128.9,795.9,127.8,795.8,126.7z
			 M2043.3,545.5c-3.7-6.2-3.4-13.1-9.5-17.2c-7.9,6.8-8.2,15.6-8.4,25.3c3.6-1.7,6.2-2.9,8.8-4.1
			C2036.8,548.3,2039.5,547.2,2043.3,545.5z M2040.8,564c-20.1,12.8-23.9,16.1-25.5,22C2028.2,587.5,2038.3,578.8,2040.8,564z
			 M618.8,909.7c-3.3,17.3-6.7,34.6-10,51.9C618.3,945.5,620.7,927.8,618.8,909.7z M335.8,946.9c-0.8-0.6-1.7-1.2-2.5-1.8
			c-2.5,3.3-5.1,6.5-7.6,9.8c-6.5,8.6-13.1,17.2-19.5,25.9c-1.8,2.5-1.7,2.6-0.5,7.8C315.9,974.5,325.9,960.7,335.8,946.9z
			 M382.9,619.4c-0.5-0.6-0.9-1.2-1.4-1.8c-11.7,6.3-23.4,12.7-35.2,19c0.4,0.7,0.7,1.3,1.1,2C360.2,634,372.9,629.2,382.9,619.4z
			 M2018.6,569.2c0.6,0.7,1.1,1.3,1.7,2c6.4-5,12.9-9.9,19.3-14.9c-0.4-0.6-0.9-1.2-1.3-1.8C2031.4,558.9,2021.1,558.5,2018.6,569.2
			z M600.2,983.9c-6.7,6.1-13.1,12-20.5,18.8C589.4,1001.2,598.3,992.7,600.2,983.9z M358.5,313.6c1.4,2.2,2.9,4.4,4.8,7.4
			C366.7,314.8,363.4,313.5,358.5,313.6z"/>
		<path d="M1839,2937.9c-0.9-2.1-2.4-4.2-2.7-6.4c-1.9-13.4-6.1-26.2-9.7-39.3c-3.2-11.8-5.9-23.8-11.3-34.9
			c-7.5-15.3-15.3-30.5-22.6-45.9c-4.1-8.6-7.7-17.6-11.1-26.5c-5.2-13.6-9.7-27.5-15.2-40.9c-5.5-13.5-12.2-26.5-18-39.8
			c-6.1-13.9-11.6-28-17.8-41.8c-3.7-8.2-8.4-16-12.3-24.1c-2.4-5.1-3.6-10.7-6-15.8c-8.8-18.9-16.4-38.6-27.4-56.2
			c-11.1-17.7-16.4-37.6-26.1-55.6c-2.5-4.6-3.1-10.2-5.2-14.9c-2.6-5.6-5.9-10.8-9-16.2c-0.2-0.3-0.4-0.6-0.5-0.9
			c-6.7-15.4-13-31-20.2-46.2c-4.4-9.3-5-20.5-14.2-27.7c-4.7-3.7-5-12.4-2.3-17.7c-6.8-14-13.6-27.9-20.3-41.9
			c-6.5-13.6-15.9-26-18.2-41.5c5.2,3.9,8.1,9.2,10.9,14.7c4.4,8.5,9,16.9,13.2,25.5c3.6,7.4,6.7,15.1,10.3,22.5
			c15.6,31.9,29.1,64.7,42.6,97.5c7.5,18.3,16.2,36.1,24.2,54.2c3.6,8.2,6.4,16.7,10,24.9c5.8,13.2,11.7,26.4,17.9,39.4
			c13.2,27.4,27.1,54.5,39.9,82c9.4,20.1,17.2,40.9,26.2,61.2c9.9,22.3,20.4,44.3,30.7,66.4c2.2,4.8,4.7,9.5,7,14.3
			c0.4,0.9,1.1,1.9,1,2.8c-1.8,15.7,9.1,26.9,14.3,40.1c3.8,9.5,9.6,18.4,12.5,28.1c4.8,15.8,7.4,29.3,11.1,45.5
			c1.7,1.2,349.2-289.3,350.4-290.4c1.8-1.6,4.2,4.2,5.6,4.2C2195.9,2636.9,1840.2,2937.6,1839,2937.9z"/>
		<path d="M991,1314c-7.2-5.3-14.9-10-21.5-15.9c-7.8-7-14.8-15-22.7-23.2c-2,19.3,0.4,38.3,1,57.2c0.5,18.9,4.2,37.3,8.7,55.6
			c-0.7,0.3-1.4,0.7-2,1c-1.4-1.3-3.6-2.4-4.2-4c-1.6-4.7-3-9.5-3.5-14.4c-1.6-15.8-2.8-31.7-4.1-47.6c-0.9-10.6-1.8-21.2-2.4-31.7
			c-0.5-8.6-0.4-17.1-0.9-25.7c-0.1-2.1-1.8-4.1-3-6c-8.5-12.8-15.4-26.4-19.6-41.3c-1.4-5.2-3.8-10.6-0.3-17.3
			c2.6,7.3,5,13.5,7,19.8c8.7,26.5,24.4,48.6,43.7,68.2c13.9,14,30.6,24.8,48,33.4c13.1,6.5,28.5,5.3,42.6,0.1
			c9.6-3.6,18.4-8.9,27.9-12.8c8.5-3.5,17.4-6.2,26.1-9.3c7.4,4.9,15.4,0.1,23.1,1.4c4.2,0.7,8.7,0.1,13,0.6c1.8,0.2,3.4,1.7,5,2.6
			c-0.1,0.9-0.3,1.7-0.4,2.6c-3,0.4-6,1-9,1.1c-7.2,0.3-14.5,0.4-21.7,0.7c-2.7,0.1-5.4,0.9-7.9,0.4c-12-2.5-22,1.7-31.6,8.3
			c-1.3,0.9-2.8,1.5-5.2,2.7c16.1,4.2,32.4,1.2,46.7,7.2c0.4,4.3-0.8,6.3-4.4,5.7c-6.5-1.1-13-2.4-19.6-3.3
			c-6.9-0.9-14.2-0.1-20.6-2.3c-10.7-3.8-20.1,0.9-30.2,1.7c-7.1,0.6-13.9,2.5-21.5,1.7c-10.2-1.1-18.1-5-26-10.6
			c-3.5-2.5-7.2-4.6-10.9-6.8L991,1314z"/>
		<path d="M915.4,1196.8c2.1-1.7,3.7-3.2,6.8-1.1c18.9,12.9,38.2,24.7,60.2,32.3c31.7,11,63.7,16.8,97.3,16.3
			c19.2-0.3,37.2-5.3,55.7-8c16.4-2.3,32.8-4.8,49.2-7.5c3.6-0.6,6.3-0.8,8.3,3.7c-4,0.8-7.5,1.7-10.9,2.2
			c-23.6,3.5-47.3,6.3-70.7,10.8c-14.8,2.9-29.5,3.8-44.4,3.7c-17.3-0.1-34.1-3-50.9-6.6c-2.9-0.6-5.9-1-8.8-1.5
			c-8.2-1.2-16.1-2.8-23.6-6.9c-8.3-4.5-17.6-7.4-26.5-10.9C941.4,1217.2,929.1,1205.7,915.4,1196.8
			C915.4,1196.7,915.4,1196.8,915.4,1196.8z"/>
		<path d="M990.6,1313.7c-1.6,12.4,3.4,23.5,7.7,34.5c8.1,20.5,22.6,36.5,38.3,51.5c5.7,5.5,12.2,10.1,18.2,15.3
			c1.5,1.3,2.5,3.3,2.7,6.5c-1.9-0.7-4.1-1-5.7-2.1c-19.9-14.6-36.9-32.2-50.5-52.8c-9-13.6-15.2-28.4-17.2-44.8
			c-0.6-4.9,0.4-8.8,6.8-7.8C991,1314,990.6,1313.7,990.6,1313.7z"/>
		<path d="M489.6,768c-1.9,1.3-3.7,3.5-5.8,3.8c-11.1,1.5-22.2,2.7-33.3,3.6c-10.1,0.8-20.2,1-30.3,1.8c-5.6,0.4-11.3,0.9-16.7,2.1
			c-5.1,1.2-10,3.2-14.8,5.3c-2.4,1-4.4,2.8-7,4.4c-1.2-1.5-2.2-2.6-3.1-3.7c0.4-0.9,0.5-1.6,0.9-2c8.8-6.5,18.5-9.4,29.6-9.8
			c18.5-0.7,36.9-2.4,55.4-4c4.9-0.4,9.7-2.1,14.5-3c3.1-0.6,6.3-1,9.5-1.4C488.8,766.1,489.2,767.1,489.6,768z"/>
		<path d="M1071.3,1007.5c-3.4,2.6-5.2,5.2-6.7,5c-7.7-1-15.3-3-22.3-8.4c5.1-3.8,9-0.1,13.1,0.6
			C1059.9,1005.4,1064.3,1006.2,1071.3,1007.5z"/>
		<path d="M2522.3,2240.2c3.1,3.7,9.7,9.7,12.4,13.7c3.7,5.4,7.1,11.1,10.3,16.8c0.6,1.1-348,364.5-348,366c-1.1,0-5.5-4.1-5.6-4.2
			c-3.3-4.4,351.4-358.3,348.7-363.1c-3.5-5.9-17.2-21.8-19.3-28.5C2520.7,2240.9,2522.3,2240.2,2522.3,2240.2z"/>
		<path d="M2558-64.6c-3.6-0.3-7.2-0.6-10.8-0.9c0.1-0.9,0.1-1.8,0.2-2.7c3.5,0.3,7.1,0.6,10.6,0.8C2558-66.4,2558-65.5,2558-64.6z"
			/>
		<path d="M22.5-430.5c-7.6-0.5-6-3.3-4.4-8.1C19.9-435.2,20.9-433.5,22.5-430.5z"/>
		<path class="st2" d="M1218.1,341.5c-6.2-0.2-8.7,0.2-11.2,0.1c-3.8,0-7.3,0-10.7,0c-2,3.3-2.4,5.9,1.2,7.8
			c2.7,1.4,5.3,2.8,7.9,4.2c7,3.7,11.2,17.5,11.2,17.5c-0.3,0.9,0.9,2.4,1.7,3.3c3.3,3.6,1.9,7.3,1,11.8c-2.9-0.6-5.4-1.3-8-1.6
			c-12.8-1.3-25.5-2.5-38.3-3.7c-2.3-0.2-4.6-0.2-6.8-0.7c-15.2-3.4-30.4-7-45.6-10.4c-24.2-5.4-48.5-10.6-72.8-15.9
			c-8.4-1.9-16.8-4-25.7-6.1c0.1-9,3.7-16.1,9.1-22.4c12.2-14.3,25.3-27.8,39.7-39.9c0.3-0.2,0.5-0.4,0.7-0.7
			c6.8-10.7,16.1-17.2,28.6-20.6c11.7-3.2,22.8-8.5,34.2-13.1c6.3-2.5,13.8-2.3,19.4-9c-7-1.9-12.6,1.6-18.3,2.6
			c-7,1.3-13.7,4.8-20.5,7.2c-4.3,1.5-8.2,3-13.3,2c-3.7-0.7-8.5,1-12,3.1c-14.3,8.3-28.4,17-42.3,25.8c-5.6,3.5-10.8,7.8-16.2,11.5
			c-6.8,4.7-14.1,8.8-20.7,13.8c-8.2,6.2-16.1,12.8-23.5,19.9c-2.6,2.5-3.3,7-5.2,11.4c-52.3-11-105.9-18.5-158.4-33.8
			c1.4-1.8,2.4-3,3.4-4.2c-8.4-2.8-16.5-5.3-24.4-8.1c-2.5-0.9-5-2.1-7-3.8c-5.3-4.4-6.2-9.6-1.4-14.6c8.9-9.4,11.6-21.2,14.9-33.1
			c5-17.9,6.7-36.3,8.9-54.7c0.5-4.2-0.3-8.6-1-12.7c-1.3-7.5-2.9-15-4.7-22.4c-1.4-5.7-2.5-11.8-5.1-17c-3-6-2.6-11.3,0.3-16.9
			c2.7-5.3,5.9-10.4,8.2-15.8c1.4-3.2,1.8-6.8,2.1-10.3c0.1-0.8-2.2-1.8-4-3.2c-1.2,2.8-1.9,4.9-2.9,6.9c-1.3,2.6-2.6,5.2-4.4,7.4
			c-5.4,7.1-11.4,13.7-16.4,21c-4.7,6.8-8.7,14.2-12.8,21.4c-1.3,2.2-2.4,4.9-2.4,7.4c-0.1,5.9,0.6,11.7,0.8,17.6
			c0.2,6.2,3.3,9.8,9.4,10.7c5.6-2.4,6.6-7.2,7.1-12.3c0.8-7.3,1.5-14.6,2.8-21.8c0.7-4.1,2.5-8.1,4.2-13.5c1.6,2.2,2.6,3,2.8,4
			c1.5,6.1,3.7,12.1,4,18.3c0.5,11.9,1.4,23.7-2,35.6c-4,14.2-6.4,28.9-10,43.3c-1.3,5.4-3.9,10.5-6.2,15.5
			c-1.7,3.6-4.4,6.7-5.7,10.4c-0.8,2.4,0.1,5.5,0.3,8.3c0.2,2.7,0.3,5.3,0.4,6.9c-13.9,1-26.6,1.8-40.1,2.8
			c3.1-8.9,0.4-17.6-2.7-26.3c-4.1-11.7-1.9-23.7-0.5-35.5c2.1-16.8,5.4-33.3,11.5-49.3c4.2-11.1,6.4-23,9.1-34.6
			c1.5-6.5,0.1-8.3-7.8-11.8c-7.1,10.7-13.1,21.9-16.8,34.4c-5,16.8-11.1,33.3-15.8,50.1c-3.7,13-5.3,26.6-9.1,39.5
			c-2.9,10-7.8,19.5-12,29.7c-29.8-5.3-55.1-17.3-73.8-39.5c0.4-22.5,1.3-44.4,1.2-66.3c-0.1-12.9-0.3-26-5.6-38.2
			c-0.5-1.2-0.9-2.5-1.4-3.7c-1.6-3.5-3.7-7.1-8.1-5.6c-4.4,1.6-2.3,5.3-1.6,8.5c0.7,3.2,1.1,6.5,1.2,9.8c0.3,6.6-0.8,13.5,0.5,19.9
			c4,19-4.4,35.1-10.9,51.7c-2.7,6.9-6.5,7.8-13.7,4.7c-7.6-3.2-15.2-6.6-22.6-10.4c-14.7-7.5-30.7-9.8-46.8-12.1
			c-13.8-2-27.3-5.4-39.6-12.2c-1.1-0.6-2.1-1.9-2.9-2.4c-7.9-5.8-11.9-6.2-17.4-7.6c-11.4-2.8-15.2-0.8-24.9,1.3
			c-3.9,0.8-7.7,2.3-11.6,2.7c-14,1.3-23.3,11.6-34.7,17.8c-12.8,7-19.2,19.8-26.2,30.9c-5.6,1.2-9.7,1.9-13.7,3.1
			c-14.8,4.6-27.8-0.1-36-13.3c-3.3-5.3-6.5-10.8-9.4-16.3c-0.9-1.6-1.5-3.8-1.1-5.5c2.7-12.2,8.1-23.2,16.6-32.2
			c3.2-3.4,6.7-7.6,12.7-6.5c4.5,0.8,6.5-2.7,8.3-5.8c5.6-9.8,13.8-15,24.9-17.8c11.5-3,23.2-4.6,34.8-6.9c10.3-2,20.3-5.8,30.5-8.7
			c13-3.7,26.2-7,39.1-10.8c5-1.5,9.8-3.8,14.7-5.8c19.3-7.9,39.1-14.2,59.6-18.3c9.1-1.8,17.9-5.1,26.9-7.3
			c18.7-4.6,37.9-3.7,56.6-1.3c12.2,1.6,24.4,5,36.6,7.6c3,0.6,5.2,4.9,9.2,9c15.4,3.6,31.9-2.1,48.3-6.9
			c31.9-9.1,63.5-19.3,95.4-28.1c11.1-3.1,22.9-3.4,34.4-5.1c2.6-0.4,5.1-1.2,7.6-1.8c7.7-1.8,15.4-3.6,23.2-5.4
			c1-0.2,2.1-0.5,3-0.2c16.3,4.7,34.1,0.4,49.9,8c2.7,1.3,5.6,2,8.3,3.4c19,10,38.1,20,57,30.4c17.2,9.4,34,19.6,51.1,29.1
			c10.1,5.6,20.7,10.6,31,15.8c1.5,0.7,3.3,1.1,4.5,2.1c10.9,9.5,24.1,15.2,36.4,22.4c1.9,1.1,4.5,2.6,5.1,4.5
			c3.1,9.2,11.5,12.4,18.8,16.5c19.5,10.7,39.2,20.9,58.8,31.3c1.8,0.9,3.5,2,5,3.3c13.7,12.5,30.7,19.5,46.7,28.2
			c9.9,5.4,18.8,12.5,28.2,18.8c16.6,11,33,22.3,49.9,32.6c17.5,10.7,35.8,20.2,53.5,30.7c14.7,8.8,24.8,22,32.2,37.2
			c1,2,1.2,4.3,2.1,7.8c-21.2-2.6-41.9-1.3-61.1-11c-6.3-3.2-13.9-5.1-21-5.4c-23.2-1.2-46.5-0.6-69.6-2.3
			c-15.3-1.1-30.4-1.7-45.7-1.3"/>
		<path class="st4" d="M1426.9,524.1c-3-4.7-8.3-3.7-12.4-4c-36.2-2.6-71.6-9.7-107.1-16.5c-9.4-1.8-19-2.9-28.6-3.8
			c-19.8-2-39.6-4.8-59.6-4.3c-5.9,0.1-11.9-1.3-17.8-2.2c-20.6-3.3-41.3-6.7-61.9-10c-18-2.8-36.1-5.1-54.1-8.2
			c-15-2.6-29.9-6.2-44.9-9.2c-23.8-4.7-47.6-9.2-71.3-13.8c-24.1-4.7-48.2-9.4-72.3-14.2c-6.9-1.4-13.8-3-20.6-4.9
			c-1.7-0.5-3.2-2.3-4.6-3.7c-9.5-9.7-18.9-19.6-28.6-29.2c-6.1-6.1-12.5-11.9-19.1-17.5c-9.1-7.7-15.1-17.5-20.2-28
			c-6.4-13-15.4-23.8-27.5-32.3c-9.6-6.7-18.4-14.6-28.3-22.6c13.6,2.4,26.2,4.7,38.8,6.9c1.3,0.2,2.6,0.7,3.9,0.6
			c15.3-0.8,29.4,3.9,43.8,8.2c15.8,4.8,32.2,7.6,48.4,10.9c27,5.5,54,10.7,81.1,16.1c9.8,1.9,19.6,3.7,29.4,5.5
			c1,0.2,2.3-0.2,2.9,0.3c7.3,5.3,16.3,3.3,24.3,5.6c2.2,0.7,5.9,1.1,6.2,2.3c2.2,7.9,8.1,5.7,13,5c12-1.7,22.9,3,34.2,5.1
			c16.2,3.1,32.3,7.3,48.4,11c9.4,2.1,18.9,3.7,28.1,6.5c15.1,4.5,30.5,5.1,46.1,4.3c2.6-0.1,5.4,0,7.9,0.6
			c17.1,3.9,34.2,8.2,51.3,12c4.8,1.1,9.8,1.4,14.8,1.8c13.4,1.3,26.5,4.1,39.7,6.6c25.6,5,51.6,8.1,77.4,12.3
			c9.8,1.6,19.5,4,29.2,5.9c15.6,3,30.9,7.1,46.9,8.2c12.4,0.8,24.8,3.7,36.8,6.7c11,2.8,22.3,1.8,33.3,3.5
			c7.1,1.1,14.2,2.4,21.3,3.5c1.6,0.2,3.3-0.3,4.8-0.1c3.4,0.4,6.8,1.1,10.2,1.7c2.9,0.5,5.9,1.5,8.7,1.3
			c27.9-2.5,55.6,0.5,83.2,3.9c31.6,3.9,63,8.9,94.5,13.7c16,2.4,31.9,5.6,47.9,8.2c5.5,0.9,11.2,1.1,16.7,1.9
			c1.9,0.2,4.2,0.5,5.6,1.7c6.5,5.3,14.2,4.4,21.7,5c2.6,0.2,5.1,0.2,8.7,0.4c-2,6-3.9,11.1-5.5,16.3c-5.1,17.1-4.6,34.8-6.1,52.3
			c-1,11.2-2.1,22.3-3.3,34.6c-8.2-1.4-15.3-2.8-22.3-3.8c-14.1-2-28.3-3.6-42.4-5.7c-18-2.7-36-5.5-54-8.6
			c-23.2-4-46.4-8.4-69.6-12.3c-20.6-3.4-41.3-6.3-61.9-9.6c-30.5-4.8-61-9.5-91.4-14.6c-19.2-3.3-38.3-7.5-57.5-10.9
			c-5.5-1-11.2-0.4-16.9-0.5C1426.5,523.8,1426.9,524.1,1426.9,524.1z"/>
		<path class="st2" d="M220.6,636c-2.6-2.4-4.8-5.5-7.8-7.1c-9-4.9-12.1-13.7-15.3-22.4c-2.1-5.6-1.1-9.6,2.3-16.8
			c-7.8-8.7-7.6-19.2-3.9-28.7c5-12.9,12.5-24.6,22.7-34.6c17-16.7,33.4-34,49.7-51.4c2.3-2.4,2.2-6.8,4.3-9.5
			c8.9-11.5,18-22.8,27.5-33.8c7.7-9,15.9-17.7,24.1-26.4c3.2-3.4,6.6-6.5,10.1-9.5c5.8-5,7-5.2,12.8-1.6c4.5,2.8,8.8,5.9,13,9.2
			c2.2,1.7,4.6,3.2,4,7.3c-0.4,2.4,2.2,5.3,3.5,7.9c7.2,14.2,15.6,27.7,19.5,43.4c2.5,10.1,7.4,19.6,10.9,29.5
			c1,2.7,0.6,5.9,1.3,8.7c2.3,9.2,4.9,18.4,7.1,27.6c2,8.1,2.5,14.9-4.3,22.6c-8.5,9.6-14,22-20.9,33.1c-8.5,13.6-18.9,24.6-36,26.9
			c-2.9,0.4-5.6,2.1-8.4,3.1c-8.8,3.3-16.1,10.3-26.3,10.8c-2.9,0.1-5.9,2.9-8.6,4.7c-13.1,8.8-26.1,17.7-38.9,26.4
			c-4.1-1.3-7.5-2.5-11-3.4c-4.8-1.3-8.9-2.9-12.5-7.1c-4.8-5.6-11.9-8.1-19.3-9.1C220.2,635.6,220.6,636,220.6,636z"/>
		<path class="st5" d="M453.6,387.3c-2.9-2.9-5.4-6.2-8.7-8.6c-12.6-9.2-26.1-17.3-38-27.3c-10.6-8.9-19.6-19.8-29.2-29.9
			c-2.7-2.9-5-6.3-7.9-9c-15.8-14.8-17.5-33.5-15-53.3c2.3-18.3,10.9-34.1,21.8-48.4c4.5-5.9,10.6-11.4,17.2-14.8
			c16.1-8.2,32.3-16.9,50.6-19.6c4.1-0.6,7.3-0.3,11,2.4c5.3,3.8,11.7,5.9,17.7,8.7c3.3,1.5,6.8,2.5,9.8,4.4
			c12.5,8.1,27.3,12,39.2,21.4c12.5,9.9,26,18.5,39,27.7c1.6,1.1,2.9,2.7,4.6,4.3c-3.3,9.4-9,15-19.5,15.1c-2.2,0-4.8,1.7-6.6,3.3
			c-14.3,13.3-24.4,29.6-33.3,46.8c-5.6,10.8-12.3,21.1-17.6,32c-5.7,11.6-10.5,23.6-15.4,35.5C468.7,389.3,465.8,390.9,453.6,387.3
			z"/>
		<path class="st6" d="M753.3,818.2c-17.6-5.9-34.5-11.5-51.4-17.1c-13.8-4.6-27.6-9.5-41.5-13.9c-9.2-2.9-18.6-4.8-27.8-7.5
			c-3.4-1-6.7-2.7-9.8-4.5c-15.1-8.8-28.4-20.9-45.3-25.7c6.3-6.9,12.7-13.3,18.2-20.4c9-11.7,12.7-25.9,13.7-40
			c1.5-22.5,0.8-45.2,0.8-67.8c0-3.1-1.5-6.2-2.6-10.3c6.2-1.3,13.1-2.7,20.7-4.2c3.8,6.7,11,10.7,12.7,19.3
			c0.6,3.3,4.9,6.1,7.8,8.8c5.2,4.8,9.4,10.1,11.8,16.9c1.4,4,3.6,7.9,6.2,11.2c9.4,11.8,16.4,24.8,22.8,38.4
			c7.3,15.6,15.9,30.6,24.2,45.7c12.4,22.3,25,44.5,37.5,66.7C751.9,815.3,752.6,816.8,753.3,818.2z"/>
		<path class="st4" d="M353.4,232.3c-2.3,13-6.6,25.4-6.3,37.8c0.6,24.8,2.1,50,20,70.3c2.1,2.4,2.8,6.1,5.1,11.2
			c-8.8-2.8-15.2-4.9-21.7-6.9c-39.9-12.6-79.9-25-119.7-37.7c-15.5-4.9-30.6-11-46.1-15.7c-12.3-3.8-25-6.4-37.5-9.6
			c-6.7-1.7-8.3-3.4-8.8-10.1c-0.2-3-0.3-6,0.2-9c1.4-9.9,7.7-15.1,17.3-13.1c15.1,3.1,30.3,0.4,45.4,2.1c1.2,0.1,3.3,0,3.7-0.7
			c3.4-6.4,9.7-4.6,15-5.6c9.7-1.8,19.5-3.8,29.3-5.4c3.9-0.6,7.9,0,11.8-0.7c20.5-3.6,41.3-5.7,62.1-6.6c3.2-0.1,6.5,1.3,9.7,1.2
			C339.5,233.5,346.4,232.8,353.4,232.3z"/>
		<path class="st6" d="M1083.1,477.6c0.8,4.1,1.2,6.6,2,11.1c3.4-3.4,5.8-5.8,8.6-8.5c5.1,0.9,10.5,1.9,16.7,3
			c-6.4,5.4-11.9,9.9-17.2,14.7c-2.6,2.4-5.4,5.2-6.9,8.3c-4.9,9.8-13.2,15.5-22.7,19.7c-15.9,6.9-29.6,17.3-44.1,26.4
			c-1.4,0.9-1.8,3.3-2.8,5.2c-30.8-12.7-54.2-35.3-78.2-58c0.7-2.9,2.4-5.5-1.6-8.8c-12-9.9-23.2-20.8-34.6-31.4
			c-5.8-5.3-11.3-10.9-16.6-17.3c32.4,8.8,65.7,11.3,98.2,18.5C1016.5,467.8,1049.8,472,1083.1,477.6z"/>
		<path class="st6" d="M620.4,602.5c-6.3,1.4-11.8,2.1-17,3.8c-6,1.9-11.6,4.8-17.6,6.8c-8.7,2.9-17.3,6.4-26.2,7.7
			c-6.3,0.9-13.1-1.3-19.6-2.4c-4.6-0.8-9-2.8-13.5-2.9c-14.1-0.4-27.2-5.4-40.6-8.8c-5.4-1.4-10.2-4.7-15.4-7
			c-12-5.3-24.3-8.7-37.6-7.7c-2.6,0.2-5.3,0-8,0c0.7-8.2,12.9-6.1,13-15.7c-8.6,1.5-13.2,7.7-19.2,11.3
			c-7.5,4.6-14.7,9.5-21.1,15.8c-4.8,4.7-11.9,7-18,10.1c-10.9,5.6-22.5,10.1-32.5,16.9c-10.7,7.3-22.5,10.9-34.4,14.6
			c-9,2.9-19,2.1-27.7,6.7c-0.7,0.4-1.9-0.3-4.7-0.9c5.5-4,9.6-7.8,14.3-10.2c15-7.7,30.2-15.1,45.5-22.3c4.4-2.1,9.5-2.8,14.1-4.7
			c17.8-7.4,34.6-16.2,48.5-30.1c6.2-6.2,13.7-11.5,21.5-15.6c6-3.2,13.1-4.5,19.9-5.8c22.1-4.2,44.3-8.2,66.6-11.8
			c11.4-1.9,23-3,34.5-4.2c2.5-0.3,5.2,0.9,7.8,1.2c3.5,0.4,7.1,0.5,10.6,1.1c4.1,0.7,7.6,0.9,9.6,6.5c1.6,4.7,6.7,8.8,11.2,11.9
			c11.5,8.1,21.7,17.5,30.8,28.2C616.9,597.1,618.4,599.6,620.4,602.5z"/>
		<path class="st4" d="M1267.4,349.5c11.2,0,22.5,0,33.7,0c7.6,0,15.1-0.1,22.7-0.3c13.7-0.5,26.3,3.9,38.3,9.7
			c9.6,4.6,19.7,5.3,30,6.4c15.5,1.6,31.1,2.3,46.5,4.9c29.4,4.8,58.7,10.5,88,16.1c15.3,2.9,30.3,7.1,45.6,9.8
			c10,1.8,20.4,2.3,30.6,3.2c23.8,2.1,47.6,3.7,71.4,6.2c11.2,1.2,22.2,4.2,33.3,6c13,2.1,26.2,3.6,39.2,5.8
			c18.2,3.1,36.7,4.4,54.6,10.2c14.4,4.7,29.5,7.6,44.6,10.1c9.2,1.5,16.8,5.6,24.8,10.2c-2.5,11.2-14.4,17.5-14,30.9
			c-6.2-3.4-11.4-5.7-15.8-8.9c-6.8-5-15.1-8.1-20.2-15.4c-1-1.4-3.4-2.1-5.3-2.5c-9.9-2.5-19.8-5.2-29.9-7.2
			c-17.9-3.5-35.8-6.7-53.8-9.7c-12.8-2.1-25.6-3.7-38.4-5.7c-2.6-0.4-5.1-1.3-7.7-1.8c-6.8-1.2-13.7-2.6-20.6-3.5
			c-22.4-2.8-44.8-5.3-67.1-8.1c-3.9-0.5-7.5-2.4-11.3-3.5c-5.7-1.7-11.4-3.3-17.1-4.9c-4.5-1.2-9.4-1.4-13.4-3.6
			c-15-8.1-31.2-8.8-47.5-8.8c-17.3,0-34.4-2.2-51.2-5.9c-34.3-7.6-69-13.5-103.6-19.4c-0.3-0.1-0.7,0-1-0.2
			c-15.8-6.6-33.2-5.7-49.5-10.1c-11.8-3.2-23.7-5.6-35.6-8.3C1267.4,350.6,1267.4,350.1,1267.4,349.5z"/>
		<path class="st4" d="M1222.6,352.6c11.3-2.6,21.7-1.2,32.2,1.3c20.2,4.9,40.5,9.7,60.9,14.2c14.2,3.1,28.5,5.7,42.7,8.6
			c0.3,0.1,0.7,0.2,1,0.2c15.8-1.3,30.2,5.1,45.3,7.7c20.9,3.7,41.6,8.2,62.4,12.3c5.1,1,10.3,1.4,16.7,2.2
			c-6.2,7-11,13.2-16.7,18.4c-3.7,3.5-7.9,7.4-14.1,6c-0.6-0.1-1.6-0.2-1.9,0.2c-5.5,7.4-12.5,2.7-18.3,1.5
			c-26.6-5.6-53.3-10.6-80.3-14.1c-23-3-45.6-8.4-68.4-12.5c-11.4-2-23-3-33.5-8.5c-2-1.1-4.7-1.6-6.1-3.2
			C1236,376.7,1226.6,366.8,1222.6,352.6z"/>
		<path class="st7" d="M413.6,529.2c-3.5-11.1-6.8-21.2-9.9-31.3c-3.7-12-7.4-24.1-10.8-36.2c-4.5-16.1-12.6-30.5-19.7-45.5
			c-7.5-15.3-18-22.9-30.6-32.1c7-7,13.6-14.2,20.8-20.6c7.1-6.4,13-5,17.3,3.5c2.2,4.3,4.3,8.8,5.3,13.5c2.3,10.6,9.4,18.2,16,25.9
			c9.2,10.8,19.5,20.7,30,30.2c5.8,5.2,6.8,11.1,5.8,17.9c-1.9,12.6-2.6,25.6-7.4,37.7c-2.4,6.1-5.2,12.1-7.7,18.1
			c-2.2,5.5-4.3,11-6.5,16.5C415.9,527.6,414.9,528,413.6,529.2z"/>
		<path class="st6" d="M455.7,465.3c33,25,65.1,49.4,98.7,74.9c-11.3,1.1-20.4,1.8-29.5,2.9c-20.3,2.6-40.6,5.4-60.9,8.3
			c-7.8,1.1-15.7,2.6-23.3,4.6c-8.5,2.3-15.5-0.5-23.8-4.9C442.8,528.2,453.6,499,455.7,465.3z"/>
		<path class="st6" d="M1196.7,497.8c-14,7.6-26.9,14.4-39.5,21.5c-19,10.7-38,21.6-56.9,32.5c-3.1,1.8-5.8,4.4-8.6,6.7
			c-8.9,7.4-17.7,14.8-27.2,22.8c-1.6-3-2.8-5.2-4.2-7.9c-5.8,1.2-9.9-1.5-13.8-6.3c-2.8-3.4-7.5-5.2-11.4-7.8
			c-1.9-1.2-3.7-2.4-5.9-3.8c5.3-6.5,11.4-10.6,18-14.6c12.1-7.3,26.6-10.4,36.4-21.5c5.7-6.5,11.6-12.7,17.4-19.1
			c1.9-2.1,3.8-4.3,6-6c-2.9,10.6-30,43.8-56.3,69.9c0.5,1,1,2.2,1.8,3.1c0.6,0.7,1.7,1,3.4,1.9c23.6-25.7,47.1-51.5,64-84.3
			c5.5,0.9,11.9,1.8,18.4,3c15.6,2.8,30.9,7.8,47.1,7.5C1188.8,495.4,1192.2,496.8,1196.7,497.8z"/>
		<path class="st6" d="M753.1,845.2c-6.9,0-11.8-0.3-16.6,0.1c-3.9,0.3-7.8,1.7-11.7,2.1c-9.3,1-18.5,1-27.2-3.8
			c-5.2-2.9-10.7-5.4-16.2-7.5c-4.9-1.9-7.9-4.5-5.8-9.6c-5.7-3.5-10.7-6.6-15.7-9.5c-0.8-0.5-1.9-0.7-2.8-0.5
			c-23.2,4.1-44.5-2.8-65.7-10.7c-1.2-0.5-2.5-0.7-5.2-2.7c1.2-0.5,2.4-1.3,3.7-1.5c12.1-1.5,20.3-11.4,31.7-14.2
			c2.2-0.5,4.7-1.6,6.7-1.2c11.4,2.5,22.9,5.2,34.1,8.3c6.4,1.8,12.5,4.5,18.7,6.8c0.6,0.2,1.4,0.2,1.9,0.6
			c13.2,10.7,31,12.8,44.1,23.6c1.5,1.2,3.4,2.3,5.3,2.6C741.6,829.9,746.5,836.8,753.1,845.2z"/>
		<path class="st4" d="M1901.8,532.3c3-10.3,5.5-19.1,8.3-29c9.3,2,17.9,3.6,26.4,5.8c7.3,1.9,14.4,4.8,21.8,6.6
			c16.3,4.1,32.7,7.9,49.2,11.4c5,1.1,10.3,1.2,15.8,1.8c-3.6,9.3-6.8,17.6-10.2,26.4c-2,0-4.8,0.6-7.1-0.1
			c-29.6-8.6-59.6-15-89.9-20.5C1911.9,533.9,1907.8,533.3,1901.8,532.3z"/>
		<path class="st4" d="M1896.7,528.9c-13.6,0-27.8,0-43.5,0c1.7-11.7,0.4-23.7,11-33c4.2-3.7,6.8-9.6,9.3-14.9
			c2.7-5.7,8.6-9.3,14.3-6.1c5.7,3.1,10.7,7.6,15.7,11.8c1,0.8,1.1,3.2,1,4.7c-0.3,3.9-0.7,7.9-1.6,11.8
			C1901,511.6,1898.9,519.8,1896.7,528.9z"/>
		<path class="st7" d="M755.1,130.2c-3.6,13.5-5.7,25.7-10,36.9c-7.6,19.7-11.6,40-13.2,60.9c-0.7,9.5-1,19-1.5,27.7
			c2.6,3.5,5.2,6,6.7,9.2c3.1,6.7,0.9,11.2-5.8,14.5c-8.9,4.3-17.4,1.7-27.2-0.8c2.2-6,4.1-11.8,6.4-17.5c2.1-5.2,4-10.6,7.2-15.1
			c5-7,4.8-14.9,6.1-22.7c0.8-4.8,2.1-9.6,3.4-14.4c1.8-6.3,4.3-12.4,5.8-18.8c2.8-12.2,4.4-24.7,7.7-36.8c2-7.1,6.3-13.6,9.7-20.3
			C750.9,132.1,752.4,131.8,755.1,130.2z"/>
		<path class="st4" d="M2005.5,587.3c-16.5-2.9-32.7-6-49-8.4c-14.1-2.1-28.3-3.5-42.4-5.1c-1-0.1-2,0-3-0.1
			c-12-0.8-13.9-2.9-13.2-15.1c0.1-2,0.4-3.9,0.8-7.1c36,10.3,71.8,18.8,108.2,23.9C2006.4,579.6,2006,583.1,2005.5,587.3z"/>
		<path class="st7" d="M725.6,289.4c2.1,0.8,3.3,1.3,4.4,1.8c11.5,5.8,13.6,10.2,7.3,21.2c-8.5,14.8-14.6,31.1-26.7,43.8
			c-4.5,4.7-7.1,11.2-10.8,16.7c-2.1,3.2-4.6,6.2-7.1,9.1c-10.5,12.7-21.1,25.3-31.7,37.9c-0.8,1-2,1.7-4.3,1.7
			c5.3-9.3,9.7-19.3,16.1-27.8c13.8-18.3,28.4-35.8,39-56.3C719.4,322.9,726,307.8,725.6,289.4z"/>
		<path class="st6" d="M1069.2,278.8c-2.6,2.8-5.1,5.8-7.8,8.4c-10.4,10.1-21.1,20-31.4,30.3c-7.6,7.6-12.5,16.9-15.8,28.6
			c-6.2-1.7-13-3.1-19.3-5.6c-5.3-2-6.2-7.2-1.8-11.1c7.4-6.5,15.4-12.5,23.3-18.5c4.5-3.4,9.4-6.2,14-9.4
			c12.3-8.3,24.5-16.7,36.7-25C1067.7,277.4,1068.4,278.1,1069.2,278.8z"/>
		<path class="st7" d="M364.8,782.8c12.4-40.1,29.3-78.9,36.8-122.5c0.9,4.7,2,8,2,11.4c0,13.9-1.8,27.6-5.1,41.1
			c-5.2,21.4-13.1,41.5-25.8,59.7c-2.5,3.6-4.3,7.8-6.4,11.7C365.9,783.7,365.3,783.3,364.8,782.8z"/>
		<path class="st7" d="M509.4,899.5c-0.6,5.7-0.9,11.5-1.7,17.2c-1.7,12.1-3.5,24.2-5.6,36.2c-3.3,19.4-9.8,37.3-21.3,53.6
			c-4.9,6.9-10.9,7.4-18.9,9.5c26.3-35.7,39.2-74.9,45.1-116.9C507.8,899.2,508.6,899.4,509.4,899.5z"/>
		<path class="st8" d="M2012.9,566.1c-2.7,1.5-3.9,2.7-4.8,2.6c-35-5.1-69.5-12.4-103.3-22.8c-1.6-0.5-2.8-2-3.9-3.9
			c24-1.5,46.5,5.9,69.3,10.7C1984,555.6,1998.8,557.9,2012.9,566.1z"/>
		<path class="st9" d="M563.2,744.8c14.5-14,24-29.5,28.7-47.8c3.4-13.1,7.2-26,12.7-39.1c0.4,3.6,1.4,7.2,1.1,10.8
			c-1,10.8-1.9,21.8-4.1,32.4c-2.9,14.1-9.2,26.9-19.9,36.9C577.1,742.2,571.5,746.4,563.2,744.8z"/>
		<path class="st4" d="M1848.8,583.1c13.8-5.2,26.7-10.4,41-12.9c-5.5,14.3-12.7,26.8-28.2,31.7c-6.8,2.2-9.2,0.5-10.7-6
			c-0.1-0.3,0-0.7-0.1-1C1850.1,591.4,1849.5,587.8,1848.8,583.1z"/>
		<path class="st9" d="M446.1,453.8c1.7,1.4,3.4,2.9,4.7,4c-1,4.3-2.9,8.1-2.5,11.7c1.6,12.5-2.5,23.9-7.1,34.7
			c-4.3,10.2-8.1,21-15.6,29.6c-2,2.3-4,4.6-7.1,6.2c9.1-28.7,25.6-54.8,25-86C444.5,453.9,445.3,453.8,446.1,453.8z"/>
		<path class="st4" d="M1890,553.1c3.1,5.4,2.2,8.3-2,10.1c-1.5,0.7-2.8,1.8-4.4,2.3c-10.6,3.2-21.3,6.3-32.8,9.7
			c0-6.6,0-12.9,0-19.7C1863.8,549.5,1877.1,555.9,1890,553.1z"/>
		<path class="st7" d="M602.4,222.5c4.1-11.1,8.8-21.3,11.4-32c2.6-10.4,3.1-21.2,5.3-31.8c0.9,24.1,3.2,48.2-1.1,72.7
			C610.6,230.5,606,226.7,602.4,222.5z"/>
		<path class="st8" d="M1852,546.2c0.2-3.1,0.5-6.3,0.8-10.9c12.6,0,24.6,0,36.7,0c2.1,10.1,0.2,12.8-9.4,12.5
			C1871,547.4,1861.8,546.8,1852,546.2z"/>
		<path class="st9" d="M810.5,195c-1.6,25.2-5.2,49.9-20.5,73.6c-1.4-3-2.3-4.7-2.8-6.5c-0.2-0.8,0.5-2,1.1-2.7
			c13.5-15.1,11.9-35.1,17.4-52.9c1.2-4,1.9-8.1,2.8-12.1C809.3,194.6,809.9,194.8,810.5,195z"/>
		<path class="st7" d="M795.8,127c0.1,1.1,0.5,2.2,0.2,3c-5.6,10.4-5.9,21.9-7.3,33.2c-0.6,4.4-0.3,9.1-4.5,12.5
			C777.9,159.7,783.3,137.4,795.8,127z"/>
		<path class="st4" d="M2043.2,545.8c-3.8,1.7-6.5,2.8-9.1,4s-5.3,2.4-8.8,4.1c0.2-9.7,0.5-18.5,8.4-25.3
			C2039.8,532.7,2039.5,539.6,2043.2,545.8z"/>
		<path class="st4" d="M2040.8,564.4c-2.5,14.7-12.7,23.5-25.5,22C2016.9,580.5,2020.7,577.2,2040.8,564.4z"/>
		<path class="st5" d="M335.8,946.9c-2.6,0-3.2-1.4-2.5-1.8c2.8-1.5,21.7-27.6,23.7-30.6c4.9-7.6,9.8-9.8,19.9-5.2
			c-13.3,5.5-22.7,21.4-32.3,30L335.8,946.9z"/>
		<path class="st9" d="M618.8,910c2,18.1-0.5,35.7-10,51.9C612.1,944.7,615.4,927.3,618.8,910z"/>
		<path class="st5" d="M335.8,947.2c-10,13.8-19.9,27.6-30.2,41.7c-1.1-5.2-1.3-5.3,0.5-7.8c6.4-8.7,13-17.3,19.5-25.9
			c2.5-3.3,5-6.5,7.6-9.8C334.1,946,335,946.6,335.8,947.2z"/>
		<path d="M385.6,619.5c-11.2,12.1-26.3,16.8-40.9,22.2c-0.5-1.2-1.6-2.9-2.1-4.1c13.3-7.6,26.5-15.2,39.8-22.8
			C383.1,615.9,384.8,618.5,385.6,619.5z"/>
		<path class="st8" d="M2018.6,569.5c2.5-10.7,12.8-10.2,19.7-14.7c0.4,0.6,0.9,1.2,1.3,1.8c-6.4,5-12.9,9.9-19.3,14.9
			C2019.7,570.8,2019.1,570.2,2018.6,569.5z"/>
		<path class="st9" d="M600.2,984.2c-2,8.8-10.9,17.3-20.5,18.8C587.1,996.2,593.6,990.4,600.2,984.2z"/>
		<path class="st10" d="M883,1190.2c-1.3,2-2.5,3.9-3.8,5.9c-0.4-0.2-0.9-0.4-1.3-0.5c0.9-2.6,1.7-5.2,3-8.8c1.1,2.2,1.5,3,2,3.8
			C882.8,1190.5,883,1190.2,883,1190.2z"/>
	</g>
	<polyline class="st9" points="1016.7,557.6 1038.4,574.2 1058,557 1117.5,489.7 1107.1,494.5 1086.3,506.2 1083.6,519.6 
		1016.7,557.6 	"/>
</g>
</svg>
