<?xml version="1.0" encoding="UTF-8"?>
<svg xmlns="http://www.w3.org/2000/svg" version="1.1" viewBox="0 0 1182.5 815">
  <defs>
    <style>
      .cls-1 {
        fill: none;
      }

      .cls-1, .cls-2 {
        stroke-width: 0px;
      }

      .cls-2 {
        fill: #666fdd;
      }
    </style>
  </defs>
  <g id="Layer_7" data-name="Layer 7">
    <polygon class="cls-2" points="652.5 258.65 688 56.24 883.99 53.02 1000.5 44 944.53 299.45 713.02 284.01 652.5 258.65"/>
  </g>
  <g id="Layer_8" data-name="Layer 8">
    <path class="cls-1" d="M1231.5,707c-39-691-376-277-376-277,3.64-33.94,5.41-63.7,5.75-89.8,1.57-122.37-135.12-197.2-236.59-128.77-162.72,109.73-165.16,324.57-165.16,324.57,0,0,41-300-45-327-53.81-16.89-80,87-80,87,0,0-6.13,69.75,27,69s21-68,21-68c0,0-46-90-78-138s-75.5-41.5-75.5-41.5"/>
  </g>
</svg>