<?xml version="1.0" encoding="UTF-8"?>
<svg id="Layer_3" data-name="Layer 3" xmlns="http://www.w3.org/2000/svg" version="1.1" viewBox="0 0 1190 815">
  <defs>
    <style>
      .cls-1 {
        fill: #666fdd;
        stroke-width: 0px;
      }
    </style>
  </defs>
  <path class="cls-1" d="M1150.16,44.81c-2.51-.15-5.02-.44-7.52-.33-5.4.24-10.78.68-16.18,1.05-5.46.38-10.92.81-16.38,1.15-4.93.31-9.86.55-14.79.76-3.09.13-6.2.05-9.28.25-5.47.33-10.92.8-16.38,1.21-1.11.08-2.22.1-3.32.21-4.98.53-9.96,1.12-14.94,1.6-2.73.26-5.47.37-8.2.51-7.46.39-14.91.78-22.37,1.13-4.93.23-9.87.4-14.82.62-2.29.1-4.58.31-6.87.41-3.31.15-6.62.23-9.93.36-5.46.22-10.92.45-16.38.66-3.09.12-6.18-.35-9.28.08-1.17.17-2.35.27-3.53.29-3.76.08-7.54-.04-11.29.19-5.23.32-10.44.89-15.66,1.32-4.2.35-8.42.63-12.63.98-7.07.59-14.13,1.34-21.21,1.79-9.46.6-18.92,1.06-28.39,1.43-7.76.29-15.53.36-23.3.51-2.58.05-3,.42-3.68,2.99-1.01,3.79-2.15,7.53-3.23,11.29-.13.44-.32.89-.34,1.33-.14,3.76-1.21,7.3-2.3,10.83-.45,1.47-.91,2.94-1.26,4.44-1.59,6.9-3.06,13.84-4.75,20.72-.97,3.95-2.37,7.79-3.39,11.74-1.57,6.11-2.98,12.27-4.44,18.4-.44,1.87-.87,3.73-1.21,5.62-.5,2.81-.85,5.65-1.39,8.45-.99,5.07-2.23,10.1-3.07,15.19-.96,5.87-1.61,11.79-2.37,17.69-.21,1.6-.27,3.24-.51,4.83-.66,4.43-1.36,8.86-2.08,13.28-.55,3.43-1.04,6.87-1.74,10.26-.95,4.59-2.12,9.13-3.11,13.71-.7,3.23-1.15,6.51-1.9,9.73-.88,3.83-1.97,7.6-2.89,11.42-.19.75-.02,1.6-.02,2.52,1.7.18,3.17.35,4.64.48,5.53.49,11.08.8,16.59,1.51,4.46.57,8.82,1.93,13.32,2.3.29.02.55.23.84.3,1.72.38,3.45.75,5.17,1.1,1.21.25,2.44.42,3.65.67.86.17,1.69.47,2.55.61,3.94.6,7.9,1.12,11.84,1.76,3.65.59,7.27,1.34,10.92,1.95,2.48.42,4.97.69,7.45,1.08,3.72.59,7.43,1.26,11.15,1.84,9,1.4,18,2.79,27.01,4.14,2.93.44,5.89.7,8.82,1.14,4.53.68,9.06,1.47,13.59,2.18,4.25.67,8.5,1.28,12.74,1.96,3.37.54,6.7,1.32,10.08,1.7,4.99.57,10.02.91,15.03,1.3,6.34.49,12.69.93,19.03,1.41,4.65.34,9.3.75,13.95,1.02,7.75.45,15.5.83,23.25,1.21,1.17.05,2.36-.17,3.53-.11,6.72.35,13.45.75,20.17,1.13,3.1.17,6.21.3,9.31.48,1.03.06,2.05.26,3.07.35,4.49.36,8.98.73,13.47,1.05,2.13.16,4.26.2,6.39.33,2.14.13,4.29.14,6.4.49,3.34.56,3.88.35,4.35-3.22.56-4.23,1.47-8.35,2.76-12.39,1.87-5.84,3.19-11.86,5.57-17.55,1.64-3.95,2.76-8.14,4.1-12.23.1-.29.09-.61.16-.92,1.05-4.74,2.06-9.5,3.18-14.22.72-3.07,1.69-6.08,2.41-9.16,1.04-4.41,1.91-8.88,2.95-13.29,1.54-6.54,2.91-13.1,3.86-19.76.21-1.44.7-2.84.98-4.28.66-3.39,1.24-6.8,1.92-10.19,1.36-6.88,2.82-13.74,4.13-20.64.94-4.99,1.67-10.02,2.54-15.02.83-4.71,1.78-9.42,1.93-14.22.16-5.05.95-9.99,1.99-14.91.62-2.93,1.18-5.87,1.71-8.82.29-1.59.35-3.23.69-4.8.65-3.01,1.42-5.99,2.15-8.98.51-2.09,1.03-4.17,1.53-6.27.59-2.54,1.12-5.09,1.72-7.63,1.03-4.4,2.12-8.78,3.12-13.19.47-2.1.74-4.25,1.15-6.36.08-.44.3-.92.6-1.21,1.31-1.24,1.14-2.88,1.31-4.37-1.69-.16-3.07-.33-4.46-.41Z"/>
</svg>