<?xml version="1.0" encoding="utf-8"?>
<!-- Svg Vector Icons : http://www.onlinewebfonts.com/icon -->
<!DOCTYPE svg PUBLIC "-//W3C//DTD SVG 1.1//EN" "http://www.w3.org/Graphics/SVG/1.1/DTD/svg11.dtd">
<svg version="1.1" xmlns="http://www.w3.org/2000/svg" xmlns:xlink="http://www.w3.org/1999/xlink" x="0px" y="0px" viewBox="0 0 1000 1000" enable-background="new 0 0 1000 1000" xml:space="preserve">
<metadata> Svg Vector Icons : http://www.onlinewebfonts.com/icon </metadata>
<g><g><path d="M983.7,556.2c-8.1-8-24-8-32,0c-60,59.8-106.9,90.2-139.5,90.2c-13.5,0-25.1-5.3-36.2-16.2c-17.5-17.5-21.5-36.6-12.8-61.7c9.2-27.3,32.7-59.4,71.4-98.2c54.1-54,88-101.7,104.3-145.7c21.7-58.8,10.3-112.7-32.7-155.8c-25.9-25.9-55-40.7-86.2-43.9c-27.1-2.7-55.3,3-84.8,17.1c-48.8,23.3-94,66-132.2,104.3c-8.4,8.3-8.4,23.6,0,32c8,8,23.9,8,32,0c35.7-35.6,77.2-75.3,119.6-95.5c47.4-22.5,84.5-17.1,119.6,18c30.4,30.4,37.7,65.8,22.2,108.2c-14,37.8-44.6,80.1-93.9,129.3c-43.7,43.6-70.6,81.5-82.2,115.6c-14.2,41.8-6.2,78.3,23.7,108.3c19.7,19.6,42.6,29.5,68.1,29.5c46.3,0,100.9-32.8,171.5-103.5C992.1,579.8,992.1,564.5,983.7,556.2z"/><path d="M84.3,443c-99,99-99,259.4,0,358.4c99,99.1,259.5,99.1,358.3,0l57.7-57.6L141.8,385.4L84.3,443z"/><path d="M378.2,461.9c-12.2-24.7-8.4-55.2,12.2-75.8l42.7-42.8c20.5-20.5,51.1-24.4,75.8-12.1l45.1-45.1c-99.5-76.7-242.2-70.5-333.4,20.6l-41.5,41.4l156.3,156.4L378.2,461.9z"/><path d="M552.6,378c9.1,23.4,4.2,51.1-14.7,70.2L495.1,491c-19,19-46.7,23.9-70.3,14.8l-43.9,44l156.8,156.8l41.4-41.4c91.2-91.1,97.4-234.4,20.2-333.7L552.6,378z"/><path d="M479.6,362.8c-7.2,0-14.1,2.8-19.3,8l-42.7,42.8c-10.6,10.6-10.6,27.8,0,38.3l11.7,11.8c5.2,5.2,11.9,8,19.2,8s14.1-2.9,19.2-8l42.6-42.7c5.2-5.1,8.1-12,8.1-19.2s-2.8-14.1-8-19.2l-11.7-11.7C493.7,365.6,486.9,362.8,479.6,362.8z"/></g></g>
</svg>