<?xml version="1.0" encoding="utf-8"?>
<!-- Generator: Adobe Illustrator 25.2.3, SVG Export Plug-In . SVG Version: 6.00 Build 0)  -->
<svg version="1.1" xmlns="http://www.w3.org/2000/svg" xmlns:xlink="http://www.w3.org/1999/xlink" x="0px" y="0px"
	 viewBox="0 0 534.7 139.6" style="enable-background:new 0 0 534.7 139.6;" xml:space="preserve">
<style type="text/css">
	.st0{display:none;}
	.st1{fill:#fdc0bc;}
	.st2{fill:#EDFF00;}
	.st3{fill:#ffd9d6;}
	.st4{fill:#E4EAEA;}
	.st5{fill:#427377;}
	.st6{fill:none;stroke:#427377;stroke-width:2;stroke-miterlimit:10;}
	.st7{fill:#fde9e2;}
	.st8{fill:#fdc0bc;}
	.st9{fill:#d9fcff;}
	.st10{fill:none;stroke:#427377;stroke-width:2;}
</style>
<g id="Layer_1" class="st0">
	
		<image style="display:inline;overflow:visible;" width="1567" height="1205" xlink:href="screenShot.png"  transform="matrix(1 0 0 1 -684 -146.7238)">
	</image>
</g>
<g id="CARLY">
	<g id="med_1_">
		
			<rect x="108.5" y="17.8" transform="matrix(0.9994 -3.414042e-02 3.414042e-02 0.9994 -0.6724 3.8549)" class="st1" width="8.1" height="7.6"/>
		
			<rect x="237.9" y="13.4" transform="matrix(0.9994 -3.414042e-02 3.414042e-02 0.9994 -0.4461 8.2698)" class="st1" width="8.1" height="7.6"/>
		<polygon class="st1" points="43.7,28 51.9,27.5 52.2,35.1 44,35.6 		"/>
		
			<rect x="51.9" y="27.6" transform="matrix(0.9994 -3.414042e-02 3.414042e-02 0.9994 -1.0392 1.9295)" class="st1" width="8.1" height="7.6"/>
		
			<rect x="60" y="27.3" transform="matrix(0.9994 -3.414042e-02 3.414042e-02 0.9994 -1.0251 2.2054)" class="st1" width="8.1" height="7.6"/>
		
			<rect x="116.8" y="25.1" transform="matrix(0.9994 -3.414042e-02 3.414042e-02 0.9994 -0.9181 4.1441)" class="st1" width="8.1" height="7.6"/>
		
			<rect x="124.9" y="24.9" transform="matrix(0.9994 -3.414042e-02 3.414042e-02 0.9994 -0.9039 4.4201)" class="st1" width="8.1" height="7.6"/>
		
			<rect x="205.8" y="22.1" transform="matrix(0.9994 -3.414042e-02 3.414042e-02 0.9994 -0.7625 7.1794)" class="st1" width="8.1" height="7.6"/>
		
			<rect x="222" y="21.6" transform="matrix(0.9994 -3.414042e-02 3.414042e-02 0.9994 -0.7342 7.7312)" class="st1" width="8.1" height="7.6"/>
		
			<rect x="246.2" y="20.7" transform="matrix(0.9994 -3.414042e-02 3.414042e-02 0.9994 -0.6918 8.559)" class="st1" width="8.1" height="7.6"/>
		
			<rect x="254.3" y="20.4" transform="matrix(0.9994 -3.414042e-02 3.414042e-02 0.9994 -0.6776 8.8349)" class="st1" width="8.1" height="7.6"/>
		
			<rect x="375.5" y="16.3" transform="matrix(0.9994 -3.414042e-02 3.414042e-02 0.9994 -0.4656 12.9701)" class="st1" width="8.1" height="7.6"/>
		
			<rect x="76.7" y="34.4" transform="matrix(0.9994 -3.414042e-02 3.414042e-02 0.9994 -1.2562 2.7782)" class="st1" width="8.1" height="7.6"/>
		
			<rect x="84.8" y="34.1" transform="matrix(0.9994 -3.414042e-02 3.414042e-02 0.9994 -1.2421 3.0541)" class="st1" width="8.1" height="7.6"/>
		
			<rect x="100.9" y="33.3" transform="matrix(0.9994 -3.414042e-02 3.414042e-02 0.9994 -1.2062 3.6056)" class="st1" width="8.1" height="7.6"/>
		
			<rect x="222.2" y="29.2" transform="matrix(0.9994 -3.414042e-02 3.414042e-02 0.9994 -0.994 7.7445)" class="st1" width="8.1" height="7.6"/>
		
			<rect x="375.8" y="23.9" transform="matrix(0.9994 -3.414042e-02 3.414042e-02 0.9994 -0.7254 12.9834)" class="st1" width="8.1" height="7.6"/>
		
			<rect x="12.2" y="44.2" transform="matrix(0.9994 -3.414042e-02 3.414042e-02 0.9994 -1.6292 0.5841)" class="st1" width="8.1" height="7.6"/>
		
			<rect x="44.4" y="43.1" transform="matrix(0.9994 -3.414042e-02 3.414042e-02 0.9994 -1.573 1.6802)" class="st1" width="8.1" height="7.6"/>
		
			<rect x="85" y="41.7" transform="matrix(0.9994 -3.414042e-02 3.414042e-02 0.9994 -1.5019 3.0674)" class="st1" width="8.1" height="7.6"/>
		
			<rect x="93.1" y="41.4" transform="matrix(0.9994 -3.414042e-02 3.414042e-02 0.9994 -1.4877 3.3434)" class="st1" width="8.1" height="7.6"/>
		
			<rect x="149.7" y="39.3" transform="matrix(0.9994 -3.414042e-02 3.414042e-02 0.9994 -1.3811 5.2745)" class="st1" width="8.1" height="7.6"/>
		
			<rect x="392.2" y="31" transform="matrix(0.9994 -3.414042e-02 3.414042e-02 0.9994 -0.957 13.5486)" class="st1" width="8.1" height="7.6"/>
		
			<rect x="28.7" y="51.3" transform="matrix(0.9994 -3.414042e-02 3.414042e-02 0.9994 -1.8607 1.1492)" class="st1" width="8.1" height="7.6"/>
		
			<rect x="52.9" y="50.4" transform="matrix(0.9994 -3.414042e-02 3.414042e-02 0.9994 -1.8183 1.977)" class="st1" width="8.1" height="7.6"/>
		
			<rect x="117.6" y="48" transform="matrix(0.9994 -3.414042e-02 3.414042e-02 0.9994 -1.6975 4.1841)" class="st1" width="8.1" height="7.6"/>
		
			<rect x="182.3" y="45.8" transform="matrix(0.9994 -3.414042e-02 3.414042e-02 0.9994 -1.5844 6.3915)" class="st1" width="8.1" height="7.6"/>
		
			<rect x="230.8" y="44.1" transform="matrix(0.9994 -3.414042e-02 3.414042e-02 0.9994 -1.4995 8.0471)" class="st2" width="8.1" height="7.6"/>
		
			<rect x="238.9" y="43.8" transform="matrix(0.9994 -3.414042e-02 3.414042e-02 0.9994 -1.4853 8.323)" class="st2" width="8.1" height="7.6"/>
		
			<rect x="303.6" y="41.6" transform="matrix(0.9994 -3.414042e-02 3.414042e-02 0.9994 -1.3722 10.5305)" class="st1" width="8.1" height="7.6"/>
		
			<rect x="376.3" y="39.2" transform="matrix(0.9994 -3.414042e-02 3.414042e-02 0.9994 -1.2451 13.0101)" class="st1" width="8.1" height="7.6"/>
		
			<rect x="384.4" y="38.9" transform="matrix(0.9994 -3.414042e-02 3.414042e-02 0.9994 -1.2309 13.286)" class="st1" width="8.1" height="7.6"/>
		
			<rect x="400.6" y="38.3" transform="matrix(0.9994 -3.414042e-02 3.414042e-02 0.9994 -1.2026 13.8378)" class="st1" width="8.1" height="7.6"/>
		
			<rect x="12.8" y="59.4" transform="matrix(0.9994 -3.414042e-02 3.414042e-02 0.9994 -2.1488 0.6107)" class="st1" width="8.1" height="7.6"/>
		<polygon class="st1" points="28.8,59 36.8,58.5 37,66.1 29.1,66.6 		"/>
		<polygon class="st1" points="36.9,58.7 45,58.5 45.1,65.8 37,66.1 		"/>
		
			<rect x="150.2" y="54.5" transform="matrix(0.9994 -3.414042e-02 3.414042e-02 0.9994 -1.9008 5.3011)" class="st1" width="8.1" height="7.6"/>
		
			<rect x="247.3" y="51.2" transform="matrix(0.9994 -3.414042e-02 3.414042e-02 0.9994 -1.731 8.6123)" class="st1" width="8.1" height="7.6"/>
		
			<rect x="295.8" y="49.5" transform="matrix(0.9994 -3.414042e-02 3.414042e-02 0.9994 -1.6461 10.2679)" class="st1" width="8.1" height="7.6"/>
		
			<rect x="320.1" y="48.7" transform="matrix(0.9994 -3.414042e-02 3.414042e-02 0.9994 -1.6037 11.0957)" class="st1" width="8.1" height="7.6"/>
		<polygon class="st2" points="336.1,48.3 344.2,48 344.3,55.6 336.3,55.9 		"/>
		
			<rect x="360.5" y="47.3" transform="matrix(0.9994 -3.414042e-02 3.414042e-02 0.9994 -1.533 12.4753)" class="st2" width="8.1" height="7.6"/>
		
			<rect x="368.6" y="47" transform="matrix(0.9994 -3.414042e-02 3.414042e-02 0.9994 -1.5188 12.7512)" class="st1" width="8.1" height="7.6"/>
		
			<rect x="376.6" y="46.8" transform="matrix(0.9994 -3.414042e-02 3.414042e-02 0.9994 -1.5049 13.0234)" class="st1" width="8.1" height="7.6"/>
		
			<rect x="4.9" y="67.3" transform="matrix(0.9994 -3.414042e-02 3.414042e-02 0.9994 -2.4228 0.3481)" class="st1" width="8.1" height="7.6"/>
		
			<rect x="21.1" y="66.8" transform="matrix(0.9994 -3.414042e-02 3.414042e-02 0.9994 -2.3945 0.9)" class="st1" width="8.1" height="7.6"/>
		
			<rect x="29.2" y="66.5" transform="matrix(0.9994 -3.414042e-02 3.414042e-02 0.9994 -2.3803 1.1759)" class="st1" width="8.1" height="7.6"/>
		
			<rect x="45.4" y="65.9" transform="matrix(0.9994 -3.414042e-02 3.414042e-02 0.9994 -2.352 1.7277)" class="st1" width="8.1" height="7.6"/>
		
			<rect x="142.4" y="62.4" transform="matrix(0.9994 -3.414042e-02 3.414042e-02 0.9994 -2.1747 5.0385)" class="st1" width="8.1" height="7.6"/>
		
			<rect x="150.5" y="62.1" transform="matrix(0.9994 -3.414042e-02 3.414042e-02 0.9994 -2.1606 5.3144)" class="st2" width="8.1" height="7.6"/>
		
			<rect x="312.2" y="56.6" transform="matrix(0.9994 -3.414042e-02 3.414042e-02 0.9994 -1.8777 10.833)" class="st1" width="8.1" height="7.6"/>
		
			<rect x="336.5" y="55.8" transform="matrix(0.9994 -3.414042e-02 3.414042e-02 0.9994 -1.8352 11.6608)" class="st1" width="8.1" height="7.6"/>
		
			<rect x="376.9" y="54.4" transform="matrix(0.9994 -3.414042e-02 3.414042e-02 0.9994 -1.7645 13.0405)" class="st1" width="8.1" height="7.6"/>
	</g>
	<g id="dk">
		
			<rect x="53.3" y="65.6" transform="matrix(0.9994 -3.414042e-02 3.414042e-02 0.9994 -2.3345 1.9997)" class="st3" width="8.1" height="7.6"/>
		
			<rect x="61.4" y="65.5" transform="matrix(0.9994 -3.414042e-02 3.414042e-02 0.9994 -2.3279 2.276)" class="st3" width="8.1" height="7.6"/>
		
			<rect x="69.5" y="65" transform="matrix(0.9994 -3.414042e-02 3.414042e-02 0.9994 -2.3062 2.5516)" class="st2" width="8.1" height="7.6"/>
		
			<rect x="182.7" y="61.1" transform="matrix(0.9994 -3.414042e-02 3.414042e-02 0.9994 -2.1082 6.4146)" class="st2" width="8.1" height="7.6"/>
		
			<rect x="207" y="60.3" transform="matrix(0.9994 -3.414042e-02 3.414042e-02 0.9994 -2.0657 7.2424)" class="st3" width="8.1" height="7.6"/>
		
			<rect x="247.4" y="58.9" transform="matrix(0.9994 -3.414042e-02 3.414042e-02 0.9994 -1.995 8.622)" class="st3" width="8.1" height="7.6"/>
		
			<rect x="255.5" y="58.6" transform="matrix(0.9994 -3.414042e-02 3.414042e-02 0.9994 -1.9809 8.8979)" class="st2" width="8.1" height="7.6"/>
		
			<rect x="320.2" y="56.3" transform="matrix(0.9994 -3.414042e-02 3.414042e-02 0.9994 -1.8638 11.1052)" class="st2" width="8.1" height="7.6"/>
		
			<rect x="328.3" y="56" transform="matrix(0.9994 -3.414042e-02 3.414042e-02 0.9994 -1.8498 11.3811)" class="st3" width="8.1" height="7.6"/>
		
			<rect x="360.6" y="54.9" transform="matrix(0.9994 -3.414042e-02 3.414042e-02 0.9994 -1.793 12.4848)" class="st2" width="8.1" height="7.6"/>
		
			<rect x="368.7" y="54.7" transform="matrix(0.9994 -3.414042e-02 3.414042e-02 0.9994 -1.7788 12.7608)" class="st3" width="8.1" height="7.6"/>
		
			<rect x="409.2" y="53.3" transform="matrix(0.9994 -3.414042e-02 3.414042e-02 0.9994 -1.7081 14.1404)" class="st3" width="8.1" height="7.6"/>
		
			<rect x="84.4" y="26.4" transform="matrix(0.9994 -3.414042e-02 3.414042e-02 0.9994 -0.9789 3.0368)" class="st3" width="8.1" height="7.6"/>
		
			<rect x="92.5" y="26.1" transform="matrix(0.9994 -3.414042e-02 3.414042e-02 0.9994 -0.9647 3.3128)" class="st3" width="8.1" height="7.6"/>
		
			<rect x="149.1" y="24.2" transform="matrix(0.9994 -3.414042e-02 3.414042e-02 0.9994 -0.8657 5.2443)" class="st3" width="8.1" height="7.6"/>
		
			<rect x="343.2" y="17.4" transform="matrix(0.9994 -3.414042e-02 3.414042e-02 0.9994 -0.5222 11.8664)" class="st3" width="8.1" height="7.6"/>
		
			<rect x="52.3" y="35.3" transform="matrix(0.9994 -3.414042e-02 3.414042e-02 0.9994 -1.3028 1.9468)" class="st3" width="8.1" height="7.6"/>
		
			<rect x="92.7" y="33.7" transform="matrix(0.9994 -3.414042e-02 3.414042e-02 0.9994 -1.2245 3.3261)" class="st3" width="8.1" height="7.6"/>
		
			<rect x="141.3" y="32.1" transform="matrix(0.9994 -3.414042e-02 3.414042e-02 0.9994 -1.1396 4.9817)" class="st3" width="8.1" height="7.6"/>
		
			<rect x="206" y="29.8" transform="matrix(0.9994 -3.414042e-02 3.414042e-02 0.9994 -1.0265 7.1891)" class="st3" width="8.1" height="7.6"/>
		
			<rect x="246.4" y="28.5" transform="matrix(0.9994 -3.414042e-02 3.414042e-02 0.9994 -0.9558 8.5687)" class="st3" width="8.1" height="7.6"/>
		
			<rect x="343.4" y="25" transform="matrix(0.9994 -3.414042e-02 3.414042e-02 0.9994 -0.782 11.8797)" class="st3" width="8.1" height="7.6"/>
		
			<rect x="351.5" y="24.8" transform="matrix(0.9994 -3.414042e-02 3.414042e-02 0.9994 -0.7679 12.1556)" class="st3" width="8.1" height="7.6"/>
		
			<rect x="36.4" y="43.5" transform="matrix(0.9994 -3.414042e-02 3.414042e-02 0.9994 -1.5909 1.4083)" class="st3" width="8.1" height="7.6"/>
		
			<rect x="52.6" y="42.9" transform="matrix(0.9994 -3.414042e-02 3.414042e-02 0.9994 -1.5626 1.9601)" class="st2" width="8.1" height="7.6"/>
		
			<rect x="76.8" y="41.9" transform="matrix(0.9994 -3.414042e-02 3.414042e-02 0.9994 -1.5106 2.7874)" class="st3" width="8.1" height="7.5"/>
		<polygon class="st3" points="141.4,39.8 149.5,39.4 149.7,47 141.7,47.4 		"/>
		
			<rect x="157.7" y="39.1" transform="matrix(0.9994 -3.414042e-02 3.414042e-02 0.9994 -1.3712 5.5468)" class="st3" width="8.1" height="7.6"/>
		
			<rect x="182" y="38.3" transform="matrix(0.9994 -3.414042e-02 3.414042e-02 0.9994 -1.3287 6.3746)" class="st3" width="8.1" height="7.6"/>
		
			<rect x="206.2" y="37.5" transform="matrix(0.9994 -3.414042e-02 3.414042e-02 0.9994 -1.2863 7.2024)" class="st3" width="8.1" height="7.6"/>
		
			<rect x="214.3" y="37.2" transform="matrix(0.9994 -3.414042e-02 3.414042e-02 0.9994 -1.2722 7.4783)" class="st3" width="8.1" height="7.6"/>
		
			<rect x="246.6" y="36.1" transform="matrix(0.9994 -3.414042e-02 3.414042e-02 0.9994 -1.2136 8.582)" class="st3" width="8.1" height="7.5"/>
		
			<rect x="254.7" y="35.8" transform="matrix(0.9994 -3.414042e-02 3.414042e-02 0.9994 -1.2014 8.858)" class="st3" width="8.1" height="7.6"/>
		
			<rect x="279" y="35" transform="matrix(0.9994 -3.414042e-02 3.414042e-02 0.9994 -1.159 9.6858)" class="st3" width="8.1" height="7.6"/>
		
			<rect x="303.3" y="34.1" transform="matrix(0.9994 -3.414042e-02 3.414042e-02 0.9994 -1.1166 10.5136)" class="st3" width="8.1" height="7.6"/>
		
			<rect x="367.9" y="31.8" transform="matrix(0.9994 -3.414042e-02 3.414042e-02 0.9994 -0.9994 12.7208)" class="st3" width="8.1" height="7.6"/>
		
			<rect x="376" y="31.5" transform="matrix(0.9994 -3.414042e-02 3.414042e-02 0.9994 -0.9852 12.9967)" class="st3" width="8.1" height="7.6"/>
		
			<rect x="77.1" y="49.5" transform="matrix(0.9994 -3.414042e-02 3.414042e-02 0.9994 -1.7724 2.8009)" class="st3" width="8.1" height="7.6"/>
		
			<rect x="85.2" y="49.2" transform="matrix(0.9994 -3.414042e-02 3.414042e-02 0.9994 -1.7583 3.0768)" class="st3" width="8.1" height="7.6"/>
		
			<rect x="279.3" y="42.6" transform="matrix(0.9994 -3.414042e-02 3.414042e-02 0.9994 -1.4188 9.6991)" class="st3" width="8.1" height="7.6"/>
		
			<rect x="287.3" y="42.3" transform="matrix(0.9994 -3.414042e-02 3.414042e-02 0.9994 -1.4047 9.975)" class="st3" width="8.1" height="7.6"/>
		
			<rect x="327.8" y="40.8" transform="matrix(0.9994 -3.414042e-02 3.414042e-02 0.9994 -1.3301 11.3545)" class="st3" width="8.1" height="7.6"/>
		
			<rect x="368.2" y="39.4" transform="matrix(0.9994 -3.414042e-02 3.414042e-02 0.9994 -1.2592 12.7341)" class="st2" width="8.1" height="7.6"/>
		<polygon class="st3" points="44.9,58.6 53,58 53.2,65.6 45.1,66.2 		"/>
		
			<rect x="53.1" y="58.2" transform="matrix(0.9994 -3.414042e-02 3.414042e-02 0.9994 -2.0765 1.9865)" class="st3" width="8.1" height="7.3"/>
		
			<rect x="61.2" y="57.9" transform="matrix(0.9994 -3.414042e-02 3.414042e-02 0.9994 -2.0681 2.2627)" class="st2" width="8.1" height="7.6"/>
		
			<rect x="93.5" y="56.6" transform="matrix(0.9994 -3.414042e-02 3.414042e-02 0.9994 -2.002 3.3659)" class="st3" width="8.1" height="7.5"/>
		
			<rect x="117.8" y="55.7" transform="matrix(0.9994 -3.414042e-02 3.414042e-02 0.9994 -1.9615 4.1938)" class="st3" width="8.1" height="7.6"/>
		
			<rect x="142" y="54.9" transform="matrix(0.9994 -3.414042e-02 3.414042e-02 0.9994 -1.9191 5.0216)" class="st3" width="8.1" height="7.6"/>
		
			<rect x="182.5" y="53.5" transform="matrix(0.9994 -3.414042e-02 3.414042e-02 0.9994 -1.8484 6.4013)" class="st3" width="8.1" height="7.6"/>
		<polygon class="st3" points="206.6,52.8 214.7,52.4 214.9,60 206.9,60.4 		"/>
		
			<rect x="239.1" y="51.6" transform="matrix(0.9994 -3.414042e-02 3.414042e-02 0.9994 -1.7493 8.3328)" class="st3" width="8.1" height="7.6"/>
		
			<rect x="279.5" y="50.2" transform="matrix(0.9994 -3.414042e-02 3.414042e-02 0.9994 -1.6786 9.7124)" class="st3" width="8.1" height="7.6"/>
		<polygon class="st2" points="287.5,50.1 295.6,49.7 295.8,57.3 287.7,57.6 		"/>
		
			<rect x="303.8" y="49.4" transform="matrix(0.9994 -3.414042e-02 3.414042e-02 0.9994 -1.6342 10.5401)" class="st3" width="8.1" height="7.5"/>
		
			<rect x="328" y="48.4" transform="matrix(0.9994 -3.489188e-02 3.489188e-02 0.9994 -1.6205 11.6187)" class="st3" width="8.1" height="7.6"/>
		
			<rect x="384.6" y="46.5" transform="matrix(0.9994 -3.414042e-02 3.414042e-02 0.9994 -1.4907 13.2993)" class="st2" width="8.1" height="7.6"/>
		
			<rect x="118" y="63.3" transform="matrix(0.9994 -3.414042e-02 3.414042e-02 0.9994 -2.2213 4.2071)" class="st3" width="8.1" height="7.6"/>
	</g>
	<g id="lt">
		
			<rect x="19.5" y="20.9" transform="matrix(0.9994 -3.414042e-02 3.414042e-02 0.9994 -0.8314 0.8194)" class="st4" width="8.1" height="7.6"/>
		
			<rect x="132.6" y="16.9" transform="matrix(0.9994 -3.414042e-02 3.414042e-02 0.9994 -0.628 4.6765)" class="st4" width="8.1" height="7.6"/>
		
			<rect x="3.6" y="29.1" transform="matrix(0.9994 -3.414042e-02 3.414042e-02 0.9994 -1.1195 0.2809)" class="st4" width="8.1" height="7.6"/>
		
			<rect x="36" y="28" transform="matrix(0.9994 -3.414042e-02 3.414042e-02 0.9994 -1.0629 1.3846)" class="st4" width="8.1" height="7.6"/>
		
			<rect x="181.4" y="22.9" transform="matrix(0.9994 -3.414042e-02 3.414042e-02 0.9994 -0.8029 6.3454)" class="st4" width="8.1" height="7.6"/>
		<polygon class="st4" points="286.4,19.4 294.5,19.2 294.8,26.8 286.6,27 		"/>
		
			<rect x="310.8" y="18.5" transform="matrix(0.9994 -3.414042e-02 3.414042e-02 0.9994 -0.5766 10.7602)" class="st4" width="8.1" height="7.6"/>
		<polygon class="st4" points="383.4,16.1 391.5,15.8 391.8,23.5 383.7,23.8 		"/>
		
			<rect x="399.8" y="15.5" transform="matrix(0.9994 -3.414042e-02 3.414042e-02 0.9994 -0.4232 13.7979)" class="st4" width="8.1" height="7.6"/>
		
			<rect x="28.1" y="35.9" transform="matrix(0.9994 -3.414042e-02 3.414042e-02 0.9994 -1.3369 1.122)" class="st4" width="8.1" height="7.6"/>
		
			<rect x="44.3" y="35.3" transform="matrix(0.9994 -3.414042e-02 3.414042e-02 0.9994 -1.3086 1.6738)" class="st4" width="8.1" height="7.6"/>
		
			<rect x="149.3" y="31.6" transform="matrix(0.9994 -3.414042e-02 3.414042e-02 0.9994 -1.1193 5.255)" class="st4" width="8.1" height="7.6"/>
		
			<rect x="214" y="29.4" transform="matrix(0.9994 -3.414042e-02 3.414042e-02 0.9994 -1.0062 7.4624)" class="st4" width="8.1" height="7.6"/>
		
			<rect x="254.4" y="28" transform="matrix(0.9994 -3.414042e-02 3.414042e-02 0.9994 -0.9354 8.8421)" class="st4" width="8.1" height="7.6"/>
		<polygon class="st4" points="278.5,27.3 286.7,27.1 287,34.7 278.9,35 		"/>
		
			<rect x="302.9" y="26.3" transform="matrix(0.9994 -3.414042e-02 3.414042e-02 0.9994 -0.8506 10.4976)" class="st4" width="8.1" height="7.6"/>
		<polygon class="st4" points="391.8,23.4 399.8,23.2 400.2,30.9 392.1,31.1 		"/>
		
			<rect x="408.1" y="22.8" transform="matrix(0.9994 -3.414042e-02 3.414042e-02 0.9994 -0.6688 14.0871)" class="st4" width="8.1" height="7.6"/>
		
			<rect x="20.3" y="43.8" transform="matrix(0.9994 -3.414042e-02 3.414042e-02 0.9994 -1.6109 0.8594)" class="st4" width="8.1" height="7.6"/>
		
			<rect x="101.2" y="41" transform="matrix(0.9994 -3.414042e-02 3.414042e-02 0.9994 -1.4694 3.6187)" class="st4" width="8.1" height="7.6"/>
		
			<rect x="319.4" y="33.4" transform="matrix(0.9994 -3.414042e-02 3.414042e-02 0.9994 -1.0821 11.0628)" class="st4" width="8.1" height="7.6"/>
		
			<rect x="327.4" y="33.1" transform="matrix(0.9994 -3.414042e-02 3.414042e-02 0.9994 -1.0679 11.3387)" class="st4" width="8.1" height="7.6"/>
		
			<rect x="408.4" y="30.4" transform="matrix(0.9994 -3.414042e-02 3.414042e-02 0.9994 -0.9287 14.1005)" class="st4" width="8.1" height="7.6"/>
		
			<rect x="424.6" y="29.9" transform="matrix(0.9994 -3.414042e-02 3.414042e-02 0.9994 -0.9004 14.6523)" class="st4" width="8.1" height="7.6"/>
		
			<rect x="36.7" y="50.9" transform="matrix(0.9994 -3.414042e-02 3.414042e-02 0.9994 -1.8424 1.4246)" class="st2" width="8.1" height="7.6"/>
		
			<rect x="44.8" y="50.6" transform="matrix(0.9994 -3.414042e-02 3.414042e-02 0.9994 -1.8282 1.7005)" class="st4" width="8.1" height="7.6"/>
		<polygon class="st4" points="101.3,48.8 109.3,48.4 109.6,56 101.6,56.4 		"/>
		
			<rect x="246.8" y="43.5" transform="matrix(0.9994 -3.414042e-02 3.414042e-02 0.9994 -1.4692 8.5928)" class="st4" width="8.1" height="7.6"/>
		
			<rect x="335.8" y="40.5" transform="matrix(0.9994 -3.414042e-02 3.414042e-02 0.9994 -1.3136 11.628)" class="st4" width="8.1" height="7.6"/>
		
			<rect x="360.1" y="39.6" transform="matrix(0.9994 -3.414042e-02 3.414042e-02 0.9994 -1.2712 12.4558)" class="st4" width="8.1" height="7.6"/>
		
			<rect x="432.9" y="37.2" transform="matrix(0.9994 -3.414042e-02 3.414042e-02 0.9994 -1.146 14.9416)" class="st4" width="8.1" height="7.6"/>
		
			<rect x="85.5" y="56.8" transform="matrix(0.9994 -3.414042e-02 3.414042e-02 0.9994 -2.0173 3.0935)" class="st4" width="8.1" height="7.6"/>
		
			<rect x="392.7" y="46.2" transform="matrix(0.9994 -3.414042e-02 3.414042e-02 0.9994 -1.4766 13.5752)" class="st4" width="8.1" height="7.6"/>
		
			<rect x="215" y="59.8" transform="matrix(0.9994 -3.414042e-02 3.414042e-02 0.9994 -2.0454 7.5157)" class="st4" width="8.1" height="7.6"/>
	</g>
	<g id="letters">
		
			<rect x="77.6" y="64.6" transform="matrix(0.9994 -3.414042e-02 3.414042e-02 0.9994 -2.2881 2.8273)" class="st5" width="8.1" height="7.6"/>
		
			<rect x="85.7" y="64.3" transform="matrix(0.9994 -3.414042e-02 3.414042e-02 0.9994 -2.2739 3.1032)" class="st5" width="8.1" height="7.6"/>
		
			<rect x="93.8" y="64.1" transform="matrix(0.9994 -3.414042e-02 3.414042e-02 0.9994 -2.2598 3.3791)" class="st5" width="8.1" height="7.6"/>
		
			<rect x="101.9" y="63.8" transform="matrix(0.9994 -3.414042e-02 3.414042e-02 0.9994 -2.2456 3.6551)" class="st5" width="8.1" height="7.6"/>
		
			<rect x="126.1" y="62.9" transform="matrix(0.9994 -3.414042e-02 3.414042e-02 0.9994 -2.2032 4.4829)" class="st5" width="8.1" height="7.6"/>
		
			<rect x="134.2" y="62.7" transform="matrix(0.9994 -3.414042e-02 3.414042e-02 0.9994 -2.1891 4.7588)" class="st5" width="8.1" height="7.6"/>
		
			<rect x="166.6" y="61.6" transform="matrix(0.9994 -3.414042e-02 3.414042e-02 0.9994 -2.1325 5.8625)" class="st5" width="8.1" height="7.6"/>
		
			<rect x="174.6" y="61.3" transform="matrix(0.9994 -3.414042e-02 3.414042e-02 0.9994 -2.1183 6.1384)" class="st5" width="8.1" height="7.6"/>
		
			<rect x="190.8" y="60.7" transform="matrix(0.9994 -3.414042e-02 3.414042e-02 0.9994 -2.09 6.6903)" class="st5" width="8.1" height="7.6"/>
		
			<rect x="198.9" y="60.5" transform="matrix(0.9994 -3.414042e-02 3.414042e-02 0.9994 -2.0759 6.9662)" class="st5" width="8.1" height="7.6"/>
		
			<rect x="223.2" y="59.6" transform="matrix(0.9994 -3.414042e-02 3.414042e-02 0.9994 -2.0335 7.794)" class="st5" width="8.1" height="7.6"/>
		
			<rect x="231.3" y="59.4" transform="matrix(0.9994 -3.414042e-02 3.414042e-02 0.9994 -2.0193 8.07)" class="st5" width="8.1" height="7.6"/>
		
			<rect x="239.3" y="59.1" transform="matrix(0.9994 -3.414042e-02 3.414042e-02 0.9994 -2.0052 8.3459)" class="st5" width="8.1" height="7.6"/>
		
			<rect x="263.6" y="58.3" transform="matrix(0.9994 -3.414042e-02 3.414042e-02 0.9994 -1.9627 9.1737)" class="st5" width="8.1" height="7.6"/>
		
			<rect x="271.7" y="58" transform="matrix(0.9994 -3.414042e-02 3.414042e-02 0.9994 -1.9486 9.4496)" class="st5" width="8.1" height="7.6"/>
		
			<rect x="279.8" y="57.7" transform="matrix(0.9994 -3.414042e-02 3.414042e-02 0.9994 -1.9344 9.7255)" class="st5" width="8.1" height="7.6"/>
		
			<rect x="287.9" y="57.4" transform="matrix(0.9994 -3.414042e-02 3.414042e-02 0.9994 -1.9203 10.0015)" class="st5" width="8.1" height="7.6"/>
		
			<rect x="295.9" y="57.1" transform="matrix(0.9994 -3.414042e-02 3.414042e-02 0.9994 -1.9061 10.2774)" class="st5" width="8.1" height="7.6"/>
		
			<rect x="304" y="56.9" transform="matrix(0.9994 -3.414042e-02 3.414042e-02 0.9994 -1.892 10.5533)" class="st5" width="8.1" height="7.6"/>
		
			<rect x="344.5" y="55.5" transform="matrix(0.9994 -3.414042e-02 3.414042e-02 0.9994 -1.8213 11.933)" class="st5" width="8.1" height="7.6"/>
		
			<rect x="352.6" y="55.2" transform="matrix(0.9994 -3.414042e-02 3.414042e-02 0.9994 -1.8071 12.2089)" class="st5" width="8.1" height="7.6"/>
		
			<rect x="125.6" y="47.7" transform="matrix(0.9994 -3.414042e-02 3.414042e-02 0.9994 -1.6836 4.4562)" class="st5" width="8.1" height="7.6"/>
		
			<rect x="133.7" y="47.4" transform="matrix(0.9994 -3.414042e-02 3.414042e-02 0.9994 -1.6694 4.7322)" class="st5" width="8.1" height="7.6"/>
		
			<rect x="141.8" y="47.2" transform="matrix(0.9994 -3.414042e-02 3.414042e-02 0.9994 -1.6553 5.0081)" class="st5" width="8.1" height="7.6"/>
		
			<rect x="149.9" y="46.9" transform="matrix(0.9994 -3.414042e-02 3.414042e-02 0.9994 -1.6411 5.284)" class="st5" width="8.1" height="7.6"/>
		
			<rect x="157.9" y="46.6" transform="matrix(0.9994 -3.414042e-02 3.414042e-02 0.9994 -1.627 5.5599)" class="st5" width="8.1" height="7.6"/>
		
			<rect x="166" y="46.3" transform="matrix(0.9994 -3.414042e-02 3.414042e-02 0.9994 -1.6128 5.8359)" class="st5" width="8.1" height="7.6"/>
		
			<rect x="174.1" y="46.1" transform="matrix(0.9994 -3.414042e-02 3.414042e-02 0.9994 -1.5987 6.1118)" class="st5" width="8.1" height="7.6"/>
		
			<rect x="190.3" y="45.5" transform="matrix(0.9994 -3.414042e-02 3.414042e-02 0.9994 -1.5704 6.6637)" class="st5" width="8.1" height="7.6"/>
		
			<rect x="198.4" y="45.2" transform="matrix(0.9994 -3.414042e-02 3.414042e-02 0.9994 -1.5563 6.9396)" class="st5" width="8.1" height="7.6"/>
		
			<rect x="206.5" y="45" transform="matrix(0.9994 -3.414042e-02 3.414042e-02 0.9994 -1.5421 7.2155)" class="st5" width="8.1" height="7.6"/>
		
			<rect x="214.6" y="44.7" transform="matrix(0.9994 -3.414042e-02 3.414042e-02 0.9994 -1.528 7.4915)" class="st5" width="8.1" height="7.6"/>
		
			<rect x="222.6" y="44.4" transform="matrix(0.9994 -3.414042e-02 3.414042e-02 0.9994 -1.5138 7.7674)" class="st5" width="8.1" height="7.6"/>
		
			<rect x="263.1" y="43" transform="matrix(0.9994 -3.414042e-02 3.414042e-02 0.9994 -1.4431 9.147)" class="st5" width="8.1" height="7.6"/>
		
			<rect x="271.2" y="42.7" transform="matrix(0.9994 -3.414042e-02 3.414042e-02 0.9994 -1.429 9.423)" class="st5" width="8.1" height="7.6"/>
		
			<rect x="343.9" y="40.3" transform="matrix(0.9994 -3.414042e-02 3.414042e-02 0.9994 -1.3016 11.9063)" class="st5" width="8.1" height="7.6"/>
		
			<rect x="352" y="40" transform="matrix(0.9994 -3.414042e-02 3.414042e-02 0.9994 -1.2875 12.1823)" class="st5" width="8.1" height="7.6"/>
		
			<rect x="69.3" y="57.3" transform="matrix(0.9994 -3.414042e-02 3.414042e-02 0.9994 -2.0424 2.538)" class="st5" width="8.1" height="7.6"/>
		
			<rect x="77.3" y="57" transform="matrix(0.9994 -3.414042e-02 3.414042e-02 0.9994 -2.0283 2.814)" class="st5" width="8.1" height="7.6"/>
		
			<rect x="101.6" y="56.2" transform="matrix(0.9994 -3.414042e-02 3.414042e-02 0.9994 -1.9858 3.6418)" class="st5" width="8.1" height="7.6"/>
		
			<rect x="109.7" y="55.9" transform="matrix(0.9994 -3.414042e-02 3.414042e-02 0.9994 -1.9717 3.9177)" class="st5" width="8.1" height="7.6"/>
		
			<rect x="125.9" y="55.3" transform="matrix(0.9994 -3.414042e-02 3.414042e-02 0.9994 -1.9434 4.4695)" class="st5" width="8.1" height="7.6"/>
		
			<rect x="133.9" y="55.1" transform="matrix(0.9994 -3.414042e-02 3.414042e-02 0.9994 -1.9292 4.7455)" class="st5" width="8.1" height="7.6"/>
		
			<rect x="166.3" y="54" transform="matrix(0.9994 -3.414042e-02 3.414042e-02 0.9994 -1.8727 5.8492)" class="st5" width="8.1" height="7.6"/>
		
			<rect x="174.4" y="53.7" transform="matrix(0.9994 -3.414042e-02 3.414042e-02 0.9994 -1.8585 6.1251)" class="st5" width="8.1" height="7.6"/>
		
			<rect x="190.6" y="53.1" transform="matrix(0.9994 -3.414042e-02 3.414042e-02 0.9994 -1.8302 6.677)" class="st5" width="8.1" height="7.6"/>
		
			<rect x="198.6" y="52.8" transform="matrix(0.9994 -3.414042e-02 3.414042e-02 0.9994 -1.8161 6.9529)" class="st5" width="8.1" height="7.6"/>
		
			<rect x="214.8" y="52.3" transform="matrix(0.9994 -3.414042e-02 3.414042e-02 0.9994 -1.7878 7.5048)" class="st5" width="8.1" height="7.6"/>
		
			<rect x="222.9" y="52" transform="matrix(0.9994 -3.414042e-02 3.414042e-02 0.9994 -1.7736 7.7807)" class="st5" width="8.1" height="7.6"/>
		
			<rect x="231" y="51.7" transform="matrix(0.9994 -3.414042e-02 3.414042e-02 0.9994 -1.7595 8.0566)" class="st5" width="8.1" height="7.6"/>
		
			<rect x="263.3" y="50.6" transform="matrix(0.9994 -3.414042e-02 3.414042e-02 0.9994 -1.7029 9.1604)" class="st5" width="8.1" height="7.6"/>
		
			<rect x="271.4" y="50.4" transform="matrix(0.9994 -3.414042e-02 3.414042e-02 0.9994 -1.6888 9.4363)" class="st5" width="8.1" height="7.6"/>
		
			<rect x="344.2" y="47.9" transform="matrix(0.9994 -3.414042e-02 3.414042e-02 0.9994 -1.5615 11.9197)" class="st5" width="8.1" height="7.6"/>
		
			<rect x="352.3" y="47.6" transform="matrix(0.9994 -3.414042e-02 3.414042e-02 0.9994 -1.5473 12.1956)" class="st5" width="8.1" height="7.6"/>
		
			<rect x="60.6" y="42.3" transform="matrix(0.9994 -3.414042e-02 3.414042e-02 0.9994 -1.5369 2.2355)" class="st5" width="8.1" height="7.6"/>
		
			<rect x="68.7" y="42" transform="matrix(0.9994 -3.414042e-02 3.414042e-02 0.9994 -1.5228 2.5114)" class="st5" width="8.1" height="7.6"/>
		
			<rect x="125.3" y="40.1" transform="matrix(0.9994 -3.414042e-02 3.414042e-02 0.9994 -1.4238 4.4429)" class="st5" width="8.1" height="7.6"/>
		
			<rect x="133.4" y="39.8" transform="matrix(0.9994 -3.414042e-02 3.414042e-02 0.9994 -1.4096 4.7188)" class="st5" width="8.1" height="7.6"/>
		
			<rect x="165.8" y="38.7" transform="matrix(0.9994 -3.414042e-02 3.414042e-02 0.9994 -1.353 5.8226)" class="st5" width="8.1" height="7.6"/>
		
			<rect x="173.9" y="38.4" transform="matrix(0.9994 -3.414042e-02 3.414042e-02 0.9994 -1.3389 6.0985)" class="st5" width="8.1" height="7.6"/>
		
			<rect x="190" y="37.9" transform="matrix(0.9994 -3.414042e-02 3.414042e-02 0.9994 -1.3106 6.6503)" class="st5" width="8.1" height="7.6"/>
		
			<rect x="198.1" y="37.6" transform="matrix(0.9994 -3.414042e-02 3.414042e-02 0.9994 -1.2964 6.9263)" class="st5" width="8.1" height="7.6"/>
		
			<rect x="222.4" y="36.8" transform="matrix(0.9994 -3.414042e-02 3.414042e-02 0.9994 -1.254 7.7541)" class="st5" width="8.1" height="7.6"/>
		
			<rect x="230.5" y="36.5" transform="matrix(0.9994 -3.414042e-02 3.414042e-02 0.9994 -1.2399 8.03)" class="st5" width="8.1" height="7.6"/>
		
			<rect x="238.6" y="36.2" transform="matrix(0.9994 -3.414042e-02 3.414042e-02 0.9994 -1.2257 8.3059)" class="st5" width="8.1" height="7.6"/>
		
			<rect x="262.8" y="35.4" transform="matrix(0.9994 -3.414042e-02 3.414042e-02 0.9994 -1.1833 9.1337)" class="st5" width="8.1" height="7.6"/>
		
			<rect x="270.9" y="35.1" transform="matrix(0.9994 -3.414042e-02 3.414042e-02 0.9994 -1.1691 9.4096)" class="st5" width="8.1" height="7.6"/>
		
			<rect x="335.6" y="32.9" transform="matrix(0.9994 -3.414042e-02 3.414042e-02 0.9994 -1.056 11.6171)" class="st5" width="8.1" height="7.6"/>
		
			<rect x="343.7" y="32.6" transform="matrix(0.9994 -3.414042e-02 3.414042e-02 0.9994 -1.0418 11.893)" class="st5" width="8.1" height="7.6"/>
		
			<rect x="351.8" y="32.4" transform="matrix(0.9994 -3.414042e-02 3.414042e-02 0.9994 -1.0277 12.1689)" class="st5" width="8.1" height="7.6"/>
		
			<rect x="359.9" y="32.1" transform="matrix(0.9994 -3.414042e-02 3.414042e-02 0.9994 -1.0135 12.4449)" class="st5" width="8.1" height="7.6"/>
		
			<rect x="60.9" y="49.9" transform="matrix(0.9994 -3.414042e-02 3.414042e-02 0.9994 -1.7967 2.2488)" class="st5" width="8.1" height="7.6"/>
		
			<rect x="69" y="49.7" transform="matrix(0.9994 -3.414042e-02 3.414042e-02 0.9994 -1.7826 2.5247)" class="st5" width="8.1" height="7.6"/>
		
			<rect x="60.4" y="34.7" transform="matrix(0.9994 -3.414042e-02 3.414042e-02 0.9994 -1.2771 2.2221)" class="st5" width="8.1" height="7.6"/>
		
			<rect x="68.5" y="34.4" transform="matrix(0.9994 -3.414042e-02 3.414042e-02 0.9994 -1.263 2.4981)" class="st5" width="8.1" height="7.6"/>
		
			<rect x="125.1" y="32.5" transform="matrix(0.9994 -3.414042e-02 3.414042e-02 0.9994 -1.1639 4.4296)" class="st5" width="8.1" height="7.6"/>
		
			<rect x="133.2" y="32.2" transform="matrix(0.9994 -3.414042e-02 3.414042e-02 0.9994 -1.1498 4.7055)" class="st5" width="8.1" height="7.6"/>
		
			<rect x="165.5" y="31.1" transform="matrix(0.9994 -3.414042e-02 3.414042e-02 0.9994 -1.0932 5.8092)" class="st5" width="8.1" height="7.6"/>
		
			<rect x="173.6" y="30.8" transform="matrix(0.9994 -3.414042e-02 3.414042e-02 0.9994 -1.0791 6.0852)" class="st5" width="8.1" height="7.6"/>
		
			<rect x="189.8" y="30.3" transform="matrix(0.9994 -3.414042e-02 3.414042e-02 0.9994 -1.0508 6.637)" class="st5" width="8.1" height="7.6"/>
		
			<rect x="197.9" y="30" transform="matrix(0.9994 -3.414042e-02 3.414042e-02 0.9994 -1.0366 6.913)" class="st5" width="8.1" height="7.6"/>
		
			<rect x="230.2" y="28.9" transform="matrix(0.9994 -3.414042e-02 3.414042e-02 0.9994 -0.9801 8.0167)" class="st5" width="8.1" height="7.6"/>
		
			<rect x="238.3" y="28.6" transform="matrix(0.9994 -3.414042e-02 3.414042e-02 0.9994 -0.9659 8.2926)" class="st5" width="8.1" height="7.6"/>
		
			<rect x="262.6" y="27.8" transform="matrix(0.9994 -3.414042e-02 3.414042e-02 0.9994 -0.9235 9.1204)" class="st5" width="8.1" height="7.6"/>
		
			<rect x="270.6" y="27.5" transform="matrix(0.9994 -3.414042e-02 3.414042e-02 0.9994 -0.9093 9.3963)" class="st5" width="8.1" height="7.6"/>
		
			<rect x="327.3" y="25.6" transform="matrix(0.9994 -3.414042e-02 3.414042e-02 0.9994 -0.8103 11.3278)" class="st5" width="8.1" height="7.6"/>
		
			<rect x="335.3" y="25.3" transform="matrix(0.9994 -3.414042e-02 3.414042e-02 0.9994 -0.7962 11.6038)" class="st5" width="8.1" height="7.6"/>
		
			<rect x="359.6" y="24.5" transform="matrix(0.9994 -3.414042e-02 3.414042e-02 0.9994 -0.7537 12.4316)" class="st5" width="8.1" height="7.6"/>
		
			<rect x="367.7" y="24.2" transform="matrix(0.9994 -3.414042e-02 3.414042e-02 0.9994 -0.7396 12.7075)" class="st5" width="8.1" height="7.6"/>
		
			<rect x="68.2" y="26.8" transform="matrix(0.9994 -3.414042e-02 3.414042e-02 0.9994 -1.0031 2.4848)" class="st5" width="8.1" height="7.6"/>
		
			<rect x="76.3" y="26.5" transform="matrix(0.9994 -3.414042e-02 3.414042e-02 0.9994 -0.989 2.7607)" class="st5" width="8.1" height="7.6"/>
		
			<rect x="100.6" y="25.7" transform="matrix(0.9994 -3.414042e-02 3.414042e-02 0.9994 -0.9466 3.5885)" class="st5" width="8.1" height="7.6"/>
		
			<rect x="108.6" y="25.4" transform="matrix(0.9994 -3.414042e-02 3.414042e-02 0.9994 -0.9324 3.8644)" class="st5" width="8.1" height="7.6"/>
		
			<rect x="132.9" y="24.6" transform="matrix(0.9994 -3.414042e-02 3.414042e-02 0.9994 -0.89 4.6922)" class="st5" width="8.1" height="7.6"/>
		
			<rect x="141" y="24.3" transform="matrix(0.9994 -3.414042e-02 3.414042e-02 0.9994 -0.8758 4.9681)" class="st5" width="8.1" height="7.6"/>
		
			<rect x="157.2" y="23.8" transform="matrix(0.9994 -3.414042e-02 3.414042e-02 0.9994 -0.8475 5.52)" class="st5" width="8.1" height="7.6"/>
		
			<rect x="165.3" y="23.5" transform="matrix(0.9994 -3.414042e-02 3.414042e-02 0.9994 -0.8334 5.7959)" class="st5" width="8.1" height="7.6"/>
		
			<rect x="189.5" y="22.7" transform="matrix(0.9994 -3.414042e-02 3.414042e-02 0.9994 -0.791 6.6237)" class="st5" width="8.1" height="7.6"/>
		
			<rect x="197.6" y="22.4" transform="matrix(0.9994 -3.414042e-02 3.414042e-02 0.9994 -0.7768 6.8996)" class="st5" width="8.1" height="7.6"/>
		
			<rect x="230" y="21.3" transform="matrix(0.9994 -3.414042e-02 3.414042e-02 0.9994 -0.7202 8.0034)" class="st5" width="8.1" height="7.6"/>
		
			<rect x="238" y="21" transform="matrix(0.9994 -3.414042e-02 3.414042e-02 0.9994 -0.7061 8.2793)" class="st5" width="8.1" height="7.6"/>
		
			<rect x="262.3" y="20.2" transform="matrix(0.9994 -3.414042e-02 3.414042e-02 0.9994 -0.6637 9.1071)" class="st5" width="8.1" height="7.6"/>
		
			<rect x="270.4" y="19.9" transform="matrix(0.9994 -3.414042e-02 3.414042e-02 0.9994 -0.6495 9.383)" class="st5" width="8.1" height="7.6"/>
		
			<rect x="327" y="18" transform="matrix(0.9994 -3.414042e-02 3.414042e-02 0.9994 -0.5505 11.3145)" class="st5" width="8.1" height="7.6"/>
		
			<rect x="335.1" y="17.7" transform="matrix(0.9994 -3.414042e-02 3.414042e-02 0.9994 -0.5363 11.5904)" class="st5" width="8.1" height="7.6"/>
		
			<rect x="359.3" y="16.9" transform="matrix(0.9994 -3.414042e-02 3.414042e-02 0.9994 -0.4939 12.4182)" class="st5" width="8.1" height="7.6"/>
		
			<rect x="367.4" y="16.6" transform="matrix(0.9994 -3.414042e-02 3.414042e-02 0.9994 -0.4798 12.6942)" class="st5" width="8.1" height="7.6"/>
		
			<rect x="76" y="18.9" transform="matrix(0.9994 -3.414042e-02 3.414042e-02 0.9994 -0.7292 2.7474)" class="st5" width="8.1" height="7.6"/>
		
			<rect x="84.1" y="18.6" transform="matrix(0.9994 -3.414042e-02 3.414042e-02 0.9994 -0.715 3.0233)" class="st5" width="8.1" height="7.6"/>
		
			<rect x="92.2" y="18.4" transform="matrix(0.9994 -3.414042e-02 3.414042e-02 0.9994 -0.7009 3.2992)" class="st5" width="8.1" height="7.6"/>
		
			<rect x="100.3" y="18.1" transform="matrix(0.9994 -3.414042e-02 3.414042e-02 0.9994 -0.6868 3.5752)" class="st5" width="8.1" height="7.6"/>
		
			<rect x="140.7" y="16.7" transform="matrix(0.9994 -3.414042e-02 3.414042e-02 0.9994 -0.616 4.9548)" class="st5" width="8.1" height="7.6"/>
		
			<rect x="148.8" y="16.4" transform="matrix(0.9994 -3.414042e-02 3.414042e-02 0.9994 -0.6019 5.2307)" class="st5" width="8.1" height="7.6"/>
		
			<rect x="156.9" y="16.2" transform="matrix(0.9994 -3.414042e-02 3.414042e-02 0.9994 -0.5877 5.5067)" class="st5" width="8.1" height="7.6"/>
		
			<rect x="189.3" y="15" transform="matrix(0.9994 -3.414042e-02 3.414042e-02 0.9994 -0.5312 6.6104)" class="st5" width="8.1" height="7.6"/>
		
			<rect x="197.3" y="14.8" transform="matrix(0.9994 -3.414042e-02 3.414042e-02 0.9994 -0.517 6.8863)" class="st5" width="8.1" height="7.6"/>
		
			<rect x="205.4" y="14.5" transform="matrix(0.9994 -3.414042e-02 3.414042e-02 0.9994 -0.5029 7.1622)" class="st5" width="8.1" height="7.6"/>
		
			<rect x="213.5" y="14.2" transform="matrix(0.9994 -3.414042e-02 3.414042e-02 0.9994 -0.4887 7.4382)" class="st5" width="8.1" height="7.6"/>
		
			<rect x="221.6" y="13.9" transform="matrix(0.9994 -3.414042e-02 3.414042e-02 0.9994 -0.4746 7.7141)" class="st5" width="8.1" height="7.6"/>
		
			<rect x="229.7" y="13.7" transform="matrix(0.9994 -3.414042e-02 3.414042e-02 0.9994 -0.4604 7.99)" class="st5" width="8.1" height="7.6"/>
		
			<rect x="262" y="12.6" transform="matrix(0.9994 -3.414042e-02 3.414042e-02 0.9994 -0.4038 9.0938)" class="st5" width="8.1" height="7.6"/>
		
			<rect x="270.1" y="12.3" transform="matrix(0.9994 -3.414042e-02 3.414042e-02 0.9994 -0.3897 9.3697)" class="st5" width="8.1" height="7.6"/>
		
			<rect x="326.7" y="10.4" transform="matrix(0.9994 -3.414042e-02 3.414042e-02 0.9994 -0.2907 11.3012)" class="st5" width="8.1" height="7.6"/>
		
			<rect x="334.8" y="10.1" transform="matrix(0.9994 -3.414042e-02 3.414042e-02 0.9994 -0.2765 11.5771)" class="st5" width="8.1" height="7.6"/>
		
			<rect x="359.1" y="9.2" transform="matrix(0.9994 -3.414042e-02 3.414042e-02 0.9994 -0.2341 12.4049)" class="st5" width="8.1" height="7.6"/>
		
			<rect x="367.2" y="9" transform="matrix(0.9994 -3.414042e-02 3.414042e-02 0.9994 -0.2199 12.6808)" class="st5" width="8.1" height="7.6"/>
	</g>
	<g>
		<path class="st6" d="M77.6,72.4l-0.2-7.6l-8.1,0.3L69,57.5l-8.1,0.3L60.2,35l8.1-0.3L68,27.1l8.1-0.3l-0.2-7.6l32.3-1l0.2,7.6
			l8.1-0.3l0.2,7.6l-16.2,0.5l-0.2-7.6l-16.2,0.5l0.2,7.6l-8.1,0.3l0.7,22.8l8.1-0.3l0.2,7.6l16.2-0.5l-0.2-7.6l16.2-0.5l0.2,7.6
			l-8.1,0.3l0.2,7.6L77.6,72.4z"/>
		<path class="st6" d="M126.1,70.8l-1.2-38l8.1-0.3l-0.2-7.6l8.1-0.3l-0.2-7.6l24.3-0.8L165,24l8.1-0.3l0.2,7.6l8.1-0.3l1.2,38
			l-16.2,0.5L166,54.3l-24.3,0.8l0.5,15.2L126.1,70.8z M141.5,47.5l24.3-0.8l-0.5-15.2l-8.1,0.3l-0.2-7.6l-8.1,0.3l0.2,7.6l-8.1,0.3
			L141.5,47.5z"/>
		<path class="st6" d="M190.7,68.8L189,15.6l48.5-1.6l0.2,7.6l8.1-0.3l0.7,22.8l-16.2,0.5l0.2,7.6l8.1-0.3l0.2,7.6l8.1-0.3l0.2,7.6
			l-24.3,0.8l-0.2-7.6l-8.1,0.3l-0.2-7.6l-8.1,0.3l0.5,15.2L190.7,68.8z M206.2,45.4l16.2-0.5l-0.2-7.6l8.1-0.3l-0.5-15.2l-24.3,0.8
			L206.2,45.4z"/>
		<path class="st6" d="M263.5,66.4l-1.7-53.2l16.2-0.5l1.5,45.6l32.3-1l0.2,7.6L263.5,66.4z"/>
		<path class="st6" d="M344.3,63.8L343.6,41l-8.1,0.3l-0.2-7.6l-8.1,0.3l-0.7-22.8l16.2-0.5l0.7,22.8l16.2-0.5l-0.7-22.8l16.2-0.5
			l0.7,22.8l-8.1,0.3l0.2,7.6l-8.1,0.3l0.7,22.8L344.3,63.8z"/>
	</g>
</g>
<g id="hayter_pixels">
	<g id="pink">
		<g id="DK">
			
				<rect x="103.4" y="85" transform="matrix(0.9999 -1.612072e-02 1.612072e-02 0.9999 -1.4134 1.7412)" class="st7" width="7.7" height="7.2"/>
			
				<rect x="111.1" y="84.8" transform="matrix(0.9999 -1.612072e-02 1.612072e-02 0.9999 -1.4104 1.8653)" class="st7" width="7.7" height="7.2"/>
			
				<rect x="134.2" y="84.5" transform="matrix(0.9999 -1.612072e-02 1.612072e-02 0.9999 -1.4014 2.2376)" class="st7" width="7.7" height="7.2"/>
			
				<rect x="149.6" y="84.2" transform="matrix(0.9999 -1.612072e-02 1.612072e-02 0.9999 -1.3954 2.4859)" class="st7" width="7.7" height="7.2"/>
			
				<rect x="172.7" y="83.8" transform="matrix(0.9999 -1.612072e-02 1.612072e-02 0.9999 -1.3864 2.8582)" class="st7" width="7.7" height="7.2"/>
			
				<rect x="180.4" y="83.7" transform="matrix(0.9999 -1.612072e-02 1.612072e-02 0.9999 -1.3834 2.9823)" class="st7" width="7.7" height="7.2"/>
			
				<rect x="203.5" y="83.3" transform="matrix(0.9999 -1.612072e-02 1.612072e-02 0.9999 -1.3744 3.3546)" class="st7" width="7.7" height="7.2"/>
			
				<rect x="226.6" y="83" transform="matrix(0.9999 -1.612072e-02 1.612072e-02 0.9999 -1.3653 3.7269)" class="st7" width="7.7" height="7.2"/>
			
				<rect x="134.1" y="77.3" transform="matrix(0.9999 -1.612072e-02 1.612072e-02 0.9999 -1.2857 2.2349)" class="st7" width="7.7" height="7.2"/>
			
				<rect x="218.8" y="75.9" transform="matrix(0.9999 -1.612072e-02 1.612072e-02 0.9999 -1.2527 3.6)" class="st7" width="7.7" height="7.2"/>
			
				<rect x="234.2" y="75.7" transform="matrix(0.9999 -1.612072e-02 1.612072e-02 0.9999 -1.2467 3.8482)" class="st7" width="7.7" height="7.2"/>
			
				<rect x="111.3" y="92" transform="matrix(0.9999 -1.612072e-02 1.612072e-02 0.9999 -1.526 1.8681)" class="st7" width="7.7" height="7.2"/>
			
				<rect x="134.4" y="91.6" transform="matrix(0.9999 -1.612072e-02 1.612072e-02 0.9999 -1.517 2.2404)" class="st7" width="7.7" height="7.2"/>
			
				<rect x="142.1" y="91.5" transform="matrix(0.9999 -1.612072e-02 1.612072e-02 0.9999 -1.514 2.3645)" class="st7" width="7.7" height="7.2"/>
			
				<rect x="149.8" y="91.4" transform="matrix(0.9999 -1.612072e-02 1.612072e-02 0.9999 -1.511 2.4887)" class="st7" width="7.7" height="7.2"/>
			
				<rect x="211.4" y="90.4" transform="matrix(0.9999 -1.612072e-02 1.612072e-02 0.9999 -1.487 3.4815)" class="st7" width="7.7" height="7.2"/>
			
				<rect x="242.2" y="89.9" transform="matrix(0.9999 -1.612072e-02 1.612072e-02 0.9999 -1.475 3.9779)" class="st7" width="7.7" height="7.2"/>
			
				<rect x="103.8" y="106.5" transform="matrix(0.9999 -1.612072e-02 1.612072e-02 0.9999 -1.7604 1.7496)" class="st7" width="7.7" height="7.2"/>
			
				<rect x="111.5" y="106.4" transform="matrix(0.9999 -1.612072e-02 1.612072e-02 0.9999 -1.7574 1.8737)" class="st7" width="7.7" height="7.2"/>
			
				<rect x="134.6" y="106" transform="matrix(0.9999 -1.612072e-02 1.612072e-02 0.9999 -1.7484 2.246)" class="st7" width="7.7" height="7.2"/>
			
				<rect x="142.3" y="105.9" transform="matrix(0.9999 -1.612072e-02 1.612072e-02 0.9999 -1.7454 2.3701)" class="st7" width="7.7" height="7.2"/>
			
				<rect x="80.7" y="106.9" transform="matrix(0.9999 -1.612072e-02 1.612072e-02 0.9999 -1.7694 1.3773)" class="st7" width="7.7" height="7.2"/>
			
				<rect x="88.3" y="99.6" transform="matrix(0.9999 -1.612072e-02 1.612072e-02 0.9999 -1.6507 1.4986)" class="st7" width="7.7" height="7.2"/>
			
				<rect x="111.4" y="99.2" transform="matrix(0.9999 -1.612072e-02 1.612072e-02 0.9999 -1.6417 1.8709)" class="st7" width="7.7" height="7.2"/>
			
				<rect x="173" y="98.2" transform="matrix(0.9999 -1.612072e-02 1.612072e-02 0.9999 -1.6177 2.8638)" class="st7" width="7.7" height="7.2"/>
			
				<rect x="211.5" y="97.6" transform="matrix(0.9999 -1.612072e-02 1.612072e-02 0.9999 -1.6027 3.4843)" class="st7" width="7.7" height="7.2"/>
			
				<rect x="234.6" y="97.2" transform="matrix(0.9999 -1.612072e-02 1.612072e-02 0.9999 -1.5937 3.8566)" class="st2" width="7.7" height="7.2"/>
			
				<rect x="96.2" y="113.8" transform="matrix(0.9999 -1.612072e-02 1.612072e-02 0.9999 -1.8791 1.6283)" class="st7" width="7.7" height="7.2"/>
			
				<rect x="103.9" y="113.7" transform="matrix(0.9999 -1.612072e-02 1.612072e-02 0.9999 -1.8761 1.7524)" class="st7" width="7.7" height="7.2"/>
			
				<rect x="196.3" y="112.2" transform="matrix(0.9999 -1.612072e-02 1.612072e-02 0.9999 -1.84 3.2417)" class="st7" width="7.7" height="7.2"/>
			
				<rect x="211.7" y="111.9" transform="matrix(0.9999 -1.612072e-02 1.612072e-02 0.9999 -1.834 3.4899)" class="st7" width="7.7" height="7.2"/>
			
				<rect x="173.2" y="112.5" transform="matrix(0.9999 -1.612072e-02 1.612072e-02 0.9999 -1.8491 2.8694)" class="st7" width="7.7" height="7.2"/>
			
				<rect x="134.7" y="113.2" transform="matrix(0.9999 -1.612072e-02 1.612072e-02 0.9999 -1.8641 2.2488)" class="st7" width="7.7" height="7.2"/>
			
				<rect x="234.8" y="111.5" transform="matrix(0.9999 -1.612072e-02 1.612072e-02 0.9999 -1.825 3.8622)" class="st7" width="7.7" height="7.2"/>
			
				<rect x="242.5" y="111.4" transform="matrix(0.9999 -1.612072e-02 1.612072e-02 0.9999 -1.822 3.9863)" class="st7" width="7.7" height="7.2"/>
			
				<rect x="250.2" y="111.3" transform="matrix(0.9999 -1.612072e-02 1.612072e-02 0.9999 -1.819 4.1104)" class="st2" width="7.7" height="7.2"/>
			
				<rect x="88.6" y="121.1" transform="matrix(0.9999 -1.612072e-02 1.612072e-02 0.9999 -1.9977 1.507)" class="st7" width="7.7" height="7.2"/>
			
				<rect x="242.6" y="118.6" transform="matrix(0.9999 -1.612072e-02 1.612072e-02 0.9999 -1.9377 3.9891)" class="st7" width="7.7" height="7.2"/>
			
				<rect x="250.3" y="118.5" transform="matrix(0.9999 -1.612072e-02 1.612072e-02 0.9999 -1.9347 4.1132)" class="st2" width="7.7" height="7.2"/>
			
				<rect x="196.4" y="119.3" transform="matrix(0.9999 -1.612072e-02 1.612072e-02 0.9999 -1.9557 3.2445)" class="st7" width="7.7" height="7.2"/>
			
				<rect x="204.1" y="119.2" transform="matrix(0.9999 -1.612072e-02 1.612072e-02 0.9999 -1.9527 3.3686)" class="st7" width="7.7" height="7.2"/>
			
				<rect x="211.8" y="119.1" transform="matrix(0.9999 -1.612072e-02 1.612072e-02 0.9999 -1.9497 3.4927)" class="st7" width="7.7" height="7.2"/>
			
				<rect x="173.3" y="119.7" transform="matrix(0.9999 -1.612072e-02 1.612072e-02 0.9999 -1.9647 2.8722)" class="st7" width="7.7" height="7.2"/>
			
				<rect x="142.5" y="120.2" transform="matrix(0.9999 -1.612072e-02 1.612072e-02 0.9999 -1.9767 2.3757)" class="st7" width="7.7" height="7.2"/>
			
				<rect x="111.7" y="120.7" transform="matrix(0.9999 -1.612072e-02 1.612072e-02 0.9999 -1.9887 1.8793)" class="st7" width="7.7" height="7.2"/>
		</g>
		<g id="LT">
			
				<rect x="419" y="72.7" transform="matrix(0.9999 -1.612072e-02 1.612072e-02 0.9999 -1.1746 6.8267)" class="st8" width="7.7" height="7.2"/>
			
				<rect x="380.7" y="87.7" transform="matrix(0.9999 -1.612072e-02 1.612072e-02 0.9999 -1.421 6.2118)" class="st8" width="7.7" height="7.2"/>
			
				<rect x="465.7" y="100.6" transform="matrix(0.9999 -1.612072e-02 1.612072e-02 0.9999 -1.6193 7.5826)" class="st8" width="7.7" height="7.2"/>
			
				<rect x="481.1" y="100.4" transform="matrix(0.9999 -1.612072e-02 1.612072e-02 0.9999 -1.6133 7.8308)" class="st2" width="7.7" height="7.2"/>
			
				<rect x="411.9" y="108.7" transform="matrix(0.9999 -1.612072e-02 1.612072e-02 0.9999 -1.756 6.7166)" class="st8" width="7.7" height="7.2"/>
			
				<rect x="419.6" y="108.6" transform="matrix(0.9999 -1.612072e-02 1.612072e-02 0.9999 -1.753 6.8407)" class="st2" width="7.7" height="7.2"/>
			
				<rect x="442.7" y="108.2" transform="matrix(0.9999 -1.612072e-02 1.612072e-02 0.9999 -1.744 7.213)" class="st8" width="7.7" height="7.2"/>
			
				<rect x="488.8" y="100.3" transform="matrix(0.9999 -1.612072e-02 1.612072e-02 0.9999 -1.6103 7.9549)" class="st8" width="7.7" height="7.2"/>
			
				<rect x="496.5" y="100.1" transform="matrix(0.9999 -1.612072e-02 1.612072e-02 0.9999 -1.6073 8.079)" class="st8" width="7.7" height="7.2"/>
			
				<rect x="504.2" y="100" transform="matrix(0.9999 -1.612072e-02 1.612072e-02 0.9999 -1.6043 8.2031)" class="st8" width="7.7" height="7.2"/>
			
				<rect x="73.1" y="114.2" transform="matrix(0.9999 -1.612072e-02 1.612072e-02 0.9999 -1.8881 1.256)" class="st8" width="7.7" height="7.2"/>
			
				<rect x="80.8" y="114" transform="matrix(0.9999 -1.612072e-02 1.612072e-02 0.9999 -1.8851 1.3801)" class="st8" width="7.7" height="7.2"/>
			
				<rect x="381" y="102" transform="matrix(0.9999 -1.612072e-02 1.612072e-02 0.9999 -1.6523 6.2174)" class="st8" width="7.7" height="7.2"/>
			
				<rect x="404.1" y="101.6" transform="matrix(0.9999 -1.612072e-02 1.612072e-02 0.9999 -1.6433 6.5897)" class="st8" width="7.7" height="7.2"/>
			
				<rect x="480.8" y="86" transform="matrix(0.9999 -1.612072e-02 1.612072e-02 0.9999 -1.382 7.8252)" class="st8" width="7.7" height="7.2"/>
			
				<rect x="488.5" y="85.9" transform="matrix(0.9999 -1.612072e-02 1.612072e-02 0.9999 -1.379 7.9493)" class="st8" width="7.7" height="7.2"/>
			
				<rect x="496.2" y="85.8" transform="matrix(0.9999 -1.612072e-02 1.612072e-02 0.9999 -1.376 8.0734)" class="st8" width="7.7" height="7.2"/>
			
				<rect x="96.1" y="106.6" transform="matrix(0.9999 -1.612072e-02 1.612072e-02 0.9999 -1.7634 1.6255)" class="st8" width="7.7" height="7.2"/>
			
				<rect x="396.1" y="87.4" transform="matrix(0.9999 -1.612072e-02 1.612072e-02 0.9999 -1.415 6.46)" class="st8" width="7.7" height="7.2"/>
			
				<rect x="411.7" y="94.3" transform="matrix(0.9999 -1.612072e-02 1.612072e-02 0.9999 -1.5247 6.711)" class="st8" width="7.7" height="7.2"/>
			
				<rect x="419.4" y="94.2" transform="matrix(0.9999 -1.612072e-02 1.612072e-02 0.9999 -1.5217 6.8351)" class="st8" width="7.7" height="7.2"/>
			
				<rect x="103.7" y="99.3" transform="matrix(0.9999 -1.612072e-02 1.612072e-02 0.9999 -1.6447 1.7468)" class="st8" width="7.7" height="7.2"/>
			
				<rect x="442.5" y="93.8" transform="matrix(0.9999 -1.612072e-02 1.612072e-02 0.9999 -1.5126 7.2074)" class="st8" width="7.7" height="7.2"/>
			
				<rect x="481" y="93.2" transform="matrix(0.9999 -1.612072e-02 1.612072e-02 0.9999 -1.4976 7.828)" class="st8" width="7.7" height="7.2"/>
			
				<rect x="488.7" y="93.1" transform="matrix(0.9999 -1.612072e-02 1.612072e-02 0.9999 -1.4946 7.9521)" class="st8" width="7.7" height="7.2"/>
			
				<rect x="496.4" y="93" transform="matrix(0.9999 -1.612072e-02 1.612072e-02 0.9999 -1.4916 8.0762)" class="st8" width="7.7" height="7.2"/>
			
				<rect x="511.8" y="92.7" transform="matrix(0.9999 -1.612072e-02 1.612072e-02 0.9999 -1.4856 8.3244)" class="st8" width="7.7" height="7.2"/>
			
				<rect x="380.6" y="80.5" transform="matrix(0.9999 -1.612072e-02 1.612072e-02 0.9999 -1.3053 6.209)" class="st8" width="7.7" height="7.2"/>
			
				<rect x="388.3" y="80.4" transform="matrix(0.9999 -1.612072e-02 1.612072e-02 0.9999 -1.3023 6.3331)" class="st8" width="7.7" height="7.2"/>
			
				<rect x="396" y="80.2" transform="matrix(0.9999 -1.612072e-02 1.612072e-02 0.9999 -1.2993 6.4572)" class="st8" width="7.7" height="7.2"/>
			
				<rect x="403.7" y="80.1" transform="matrix(0.9999 -1.612072e-02 1.612072e-02 0.9999 -1.2963 6.5813)" class="st8" width="7.7" height="7.2"/>
			
				<rect x="411.4" y="80" transform="matrix(0.9999 -1.612072e-02 1.612072e-02 0.9999 -1.2933 6.7054)" class="st8" width="7.7" height="7.2"/>
			
				<rect x="442.2" y="79.5" transform="matrix(0.9999 -1.612072e-02 1.612072e-02 0.9999 -1.2813 7.2018)" class="st8" width="7.7" height="7.2"/>
			
				<rect x="480.7" y="78.9" transform="matrix(0.9999 -1.612072e-02 1.612072e-02 0.9999 -1.2663 7.8224)" class="st8" width="7.7" height="7.2"/>
			
				<rect x="496.1" y="78.6" transform="matrix(0.9999 -1.612072e-02 1.612072e-02 0.9999 -1.2603 8.0706)" class="st8" width="7.7" height="7.2"/>
			
				<rect x="511.5" y="78.4" transform="matrix(0.9999 -1.612072e-02 1.612072e-02 0.9999 -1.2543 8.3188)" class="st8" width="7.7" height="7.2"/>
			
				<rect x="450" y="86.5" transform="matrix(0.9999 -1.612072e-02 1.612072e-02 0.9999 -1.394 7.3287)" class="st8" width="7.7" height="7.2"/>
			
				<rect x="80.2" y="78.1" transform="matrix(0.9999 -1.612072e-02 1.612072e-02 0.9999 -1.3067 1.3661)" class="st8" width="7.7" height="7.2"/>
			
				<rect x="111" y="77.7" transform="matrix(0.9999 -1.612072e-02 1.612072e-02 0.9999 -1.2947 1.8625)" class="st8" width="7.7" height="7.2"/>
			
				<rect x="472.9" y="71.8" transform="matrix(0.9999 -1.612072e-02 1.612072e-02 0.9999 -1.1536 7.6955)" class="st2" width="7.7" height="7.2"/>
			
				<rect x="480.6" y="71.7" transform="matrix(0.9999 -1.612072e-02 1.612072e-02 0.9999 -1.1506 7.8196)" class="st8" width="7.7" height="7.2"/>
			
				<rect x="88" y="85.2" transform="matrix(0.9999 -1.612072e-02 1.612072e-02 0.9999 -1.4194 1.493)" class="st8" width="7.7" height="7.2"/>
			
				<rect x="473.5" y="107.7" transform="matrix(0.9999 -1.612072e-02 1.612072e-02 0.9999 -1.732 7.7095)" class="st2" width="7.7" height="7.2"/>
			
				<rect x="504.3" y="107.2" transform="matrix(0.9999 -1.612072e-02 1.612072e-02 0.9999 -1.72 8.2059)" class="st8" width="7.7" height="7.2"/>
			
				<rect x="512" y="107.1" transform="matrix(0.9999 -1.612072e-02 1.612072e-02 0.9999 -1.717 8.33)" class="st8" width="7.7" height="7.2"/>
			
				<rect x="65.5" y="121.5" transform="matrix(0.9999 -1.612072e-02 1.612072e-02 0.9999 -2.0067 1.1347)" class="st8" width="7.7" height="7.2"/>
			
				<rect x="73.2" y="121.3" transform="matrix(0.9999 -1.612072e-02 1.612072e-02 0.9999 -2.0037 1.2588)" class="st8" width="7.7" height="7.2"/>
			
				<rect x="80.9" y="121.2" transform="matrix(0.9999 -1.612072e-02 1.612072e-02 0.9999 -2.0007 1.3829)" class="st8" width="7.7" height="7.2"/>
			
				<rect x="481.3" y="114.7" transform="matrix(0.9999 -1.612072e-02 1.612072e-02 0.9999 -1.8447 7.8364)" class="st8" width="7.7" height="7.2"/>
			
				<rect x="489" y="114.6" transform="matrix(0.9999 -1.612072e-02 1.612072e-02 0.9999 -1.8417 7.9605)" class="st8" width="7.7" height="7.2"/>
			
				<rect x="450.5" y="115.2" transform="matrix(0.9999 -1.612072e-02 1.612072e-02 0.9999 -1.8567 7.3399)" class="st8" width="7.7" height="7.2"/>
			
				<rect x="419.7" y="115.7" transform="matrix(0.9999 -1.612072e-02 1.612072e-02 0.9999 -1.8687 6.8435)" class="st8" width="7.7" height="7.2"/>
		</g>
		<g id="med">
			
				<rect x="272.8" y="82.2" transform="matrix(0.9999 -1.612072e-02 1.612072e-02 0.9999 -1.3473 4.4715)" class="st9" width="7.7" height="7.2"/>
			
				<rect x="303.6" y="81.7" transform="matrix(0.9999 -1.612072e-02 1.612072e-02 0.9999 -1.3353 4.968)" class="st9" width="7.7" height="7.2"/>
			
				<rect x="319" y="81.5" transform="matrix(0.9999 -1.612072e-02 1.612072e-02 0.9999 -1.3293 5.2162)" class="st9" width="7.7" height="7.2"/>
			
				<rect x="295.8" y="74.7" transform="matrix(0.9999 -1.612072e-02 1.612072e-02 0.9999 -1.2227 4.8411)" class="st9" width="7.7" height="7.2"/>
			
				<rect x="303.5" y="74.5" transform="matrix(0.9999 -1.612072e-02 1.612072e-02 0.9999 -1.2197 4.9652)" class="st9" width="7.7" height="7.2"/>
			
				<rect x="357.4" y="73.7" transform="matrix(0.9999 -1.612072e-02 1.612072e-02 0.9999 -1.1986 5.8339)" class="st9" width="7.7" height="7.2"/>
			
				<rect x="265.3" y="89.5" transform="matrix(0.9999 -1.612072e-02 1.612072e-02 0.9999 -1.466 4.3502)" class="st9" width="7.7" height="7.2"/>
			
				<rect x="273" y="89.4" transform="matrix(0.9999 -1.612072e-02 1.612072e-02 0.9999 -1.463 4.4743)" class="st9" width="7.7" height="7.2"/>
			
				<rect x="296.1" y="89" transform="matrix(0.9999 -1.612072e-02 1.612072e-02 0.9999 -1.454 4.8466)" class="st9" width="7.7" height="7.2"/>
			
				<rect x="311.4" y="88.8" transform="matrix(0.9999 -1.612072e-02 1.612072e-02 0.9999 -1.448 5.0949)" class="st9" width="7.7" height="7.2"/>
			
				<rect x="342.2" y="88.3" transform="matrix(0.9999 -1.612072e-02 1.612072e-02 0.9999 -1.436 5.5913)" class="st9" width="7.7" height="7.2"/>
			
				<rect x="357.6" y="88" transform="matrix(0.9999 -1.612072e-02 1.612072e-02 0.9999 -1.43 5.8395)" class="st9" width="7.7" height="7.2"/>
			
				<rect x="342.1" y="81.1" transform="matrix(0.9999 -1.612072e-02 1.612072e-02 0.9999 -1.3203 5.5885)" class="st9" width="7.7" height="7.2"/>
			
				<rect x="349.8" y="81" transform="matrix(0.9999 -1.612072e-02 1.612072e-02 0.9999 -1.3173 5.7126)" class="st9" width="7.7" height="7.2"/>
			
				<rect x="250" y="96.9" transform="matrix(0.9999 -1.612072e-02 1.612072e-02 0.9999 -1.5877 4.1048)" class="st9" width="7.7" height="7.2"/>
			
				<rect x="288.5" y="96.3" transform="matrix(0.9999 -1.612072e-02 1.612072e-02 0.9999 -1.5727 4.7253)" class="st9" width="7.7" height="7.2"/>
			
				<rect x="319.3" y="95.8" transform="matrix(0.9999 -1.612072e-02 1.612072e-02 0.9999 -1.5607 5.2218)" class="st9" width="7.7" height="7.2"/>
			
				<rect x="350.1" y="95.3" transform="matrix(0.9999 -1.612072e-02 1.612072e-02 0.9999 -1.5487 5.7182)" class="st9" width="7.7" height="7.2"/>
			
				<rect x="357.8" y="95.2" transform="matrix(0.9999 -1.612072e-02 1.612072e-02 0.9999 -1.5457 5.8423)" class="st9" width="7.7" height="7.2"/>
			
				<rect x="280.9" y="103.6" transform="matrix(0.9999 -1.612072e-02 1.612072e-02 0.9999 -1.6914 4.604)" class="st2" width="7.7" height="7.2"/>
			
				<rect x="311.7" y="103.1" transform="matrix(0.9999 -1.612072e-02 1.612072e-02 0.9999 -1.6793 5.1005)" class="st9" width="7.7" height="7.2"/>
			
				<rect x="319.4" y="103" transform="matrix(0.9999 -1.612072e-02 1.612072e-02 0.9999 -1.6763 5.2246)" class="st9" width="7.7" height="7.2"/>
			
				<rect x="357.9" y="102.4" transform="matrix(0.9999 -1.612072e-02 1.612072e-02 0.9999 -1.6613 5.8451)" class="st9" width="7.7" height="7.2"/>
			
				<rect x="242.4" y="104.2" transform="matrix(0.9999 -1.612072e-02 1.612072e-02 0.9999 -1.7064 3.9835)" class="st9" width="7.7" height="7.2"/>
			
				<rect x="250.1" y="104.1" transform="matrix(0.9999 -1.612072e-02 1.612072e-02 0.9999 -1.7034 4.1076)" class="st9" width="7.7" height="7.2"/>
			
				<rect x="257.8" y="104" transform="matrix(0.9999 -1.612072e-02 1.612072e-02 0.9999 -1.7004 4.2317)" class="st9" width="7.7" height="7.2"/>
			
				<rect x="257.9" y="111.2" transform="matrix(0.9999 -1.612072e-02 1.612072e-02 0.9999 -1.816 4.2345)" class="st9" width="7.7" height="7.2"/>
			
				<rect x="311.8" y="110.3" transform="matrix(0.9999 -1.612072e-02 1.612072e-02 0.9999 -1.795 5.1032)" class="st9" width="7.7" height="7.2"/>
			
				<rect x="319.5" y="110.2" transform="matrix(0.9999 -1.612072e-02 1.612072e-02 0.9999 -1.792 5.2274)" class="st9" width="7.7" height="7.2"/>
			
				<rect x="342.6" y="109.8" transform="matrix(0.9999 -1.612072e-02 1.612072e-02 0.9999 -1.783 5.5997)" class="st9" width="7.7" height="7.2"/>
			
				<rect x="358" y="109.6" transform="matrix(0.9999 -1.612072e-02 1.612072e-02 0.9999 -1.777 5.8479)" class="st2" width="7.7" height="7.2"/>
			
				<rect x="281" y="110.8" transform="matrix(0.9999 -1.612072e-02 1.612072e-02 0.9999 -1.807 4.6068)" class="st9" width="7.7" height="7.2"/>
			
				<rect x="304.1" y="110.4" transform="matrix(0.9999 -1.612072e-02 1.612072e-02 0.9999 -1.798 4.9791)" class="st9" width="7.7" height="7.2"/>
			
				<rect x="381.1" y="109.2" transform="matrix(0.9999 -1.612072e-02 1.612072e-02 0.9999 -1.768 6.2202)" class="st2" width="7.7" height="7.2"/>
			
				<rect x="388.8" y="109.1" transform="matrix(0.9999 -1.612072e-02 1.612072e-02 0.9999 -1.765 6.3443)" class="st9" width="7.7" height="7.2"/>
			
				<rect x="342.7" y="117" transform="matrix(0.9999 -1.612072e-02 1.612072e-02 0.9999 -1.8987 5.6025)" class="st9" width="7.7" height="7.2"/>
			
				<rect x="350.4" y="116.9" transform="matrix(0.9999 -1.612072e-02 1.612072e-02 0.9999 -1.8957 5.7266)" class="st2" width="7.7" height="7.2"/>
			
				<rect x="358.1" y="116.7" transform="matrix(0.9999 -1.612072e-02 1.612072e-02 0.9999 -1.8927 5.8507)" class="st9" width="7.7" height="7.2"/>
			
				<rect x="288.8" y="117.9" transform="matrix(0.9999 -1.612072e-02 1.612072e-02 0.9999 -1.9197 4.7337)" class="st9" width="7.7" height="7.2"/>
			
				<rect x="304.2" y="117.6" transform="matrix(0.9999 -1.612072e-02 1.612072e-02 0.9999 -1.9137 4.9819)" class="st9" width="7.7" height="7.2"/>
			
				<rect x="319.6" y="117.4" transform="matrix(0.9999 -1.612072e-02 1.612072e-02 0.9999 -1.9077 5.2302)" class="st9" width="7.7" height="7.2"/>
			
				<rect x="104" y="120.8" transform="matrix(0.9999 -1.612072e-02 1.612072e-02 0.9999 -1.9917 1.7552)" class="st2" width="7.7" height="7.2"/>
			
				<rect x="150.1" y="112.9" transform="matrix(0.9999 -1.612072e-02 1.612072e-02 0.9999 -1.8581 2.497)" class="st2" width="7.7" height="7.2"/>
			
				<rect x="88.5" y="113.9" transform="matrix(0.9999 -1.612072e-02 1.612072e-02 0.9999 -1.8821 1.5042)" class="st2" width="7.7" height="7.2"/>
		</g>
	</g>
	<g id="red">
		
			<rect x="219.4" y="111.8" transform="matrix(0.9999 -1.612072e-02 1.612072e-02 0.9999 -1.831 3.614)" class="st5" width="7.7" height="7.2"/>
		
			<rect x="227.1" y="111.7" transform="matrix(0.9999 -1.612072e-02 1.612072e-02 0.9999 -1.828 3.7381)" class="st5" width="7.7" height="7.2"/>
		
			<rect x="265.6" y="111" transform="matrix(0.9999 -1.612072e-02 1.612072e-02 0.9999 -1.813 4.3586)" class="st5" width="7.7" height="7.2"/>
		
			<rect x="273.3" y="110.9" transform="matrix(0.9999 -1.612072e-02 1.612072e-02 0.9999 -1.81 4.4827)" class="st5" width="7.7" height="7.2"/>
		
			<rect x="327.2" y="110.1" transform="matrix(0.9999 -1.612072e-02 1.612072e-02 0.9999 -1.789 5.3515)" class="st5" width="7.7" height="7.2"/>
		
			<rect x="334.9" y="109.9" transform="matrix(0.9999 -1.612072e-02 1.612072e-02 0.9999 -1.786 5.4756)" class="st5" width="7.7" height="7.2"/>
		
			<rect x="365.7" y="109.4" transform="matrix(0.9999 -1.612072e-02 1.612072e-02 0.9999 -1.774 5.972)" class="st5" width="7.7" height="7.2"/>
		
			<rect x="373.4" y="109.3" transform="matrix(0.9999 -1.612072e-02 1.612072e-02 0.9999 -1.771 6.0961)" class="st5" width="7.7" height="7.2"/>
		
			<rect x="427.3" y="108.4" transform="matrix(0.9999 -1.612072e-02 1.612072e-02 0.9999 -1.75 6.9648)" class="st5" width="7.7" height="7.2"/>
		
			<rect x="435" y="108.3" transform="matrix(0.9999 -1.612072e-02 1.612072e-02 0.9999 -1.747 7.0889)" class="st5" width="7.7" height="7.2"/>
		
			<rect x="450.4" y="108.1" transform="matrix(0.9999 -1.612072e-02 1.612072e-02 0.9999 -1.741 7.3371)" class="st5" width="7.7" height="7.2"/>
		
			<rect x="458.1" y="107.9" transform="matrix(0.9999 -1.612072e-02 1.612072e-02 0.9999 -1.738 7.4612)" class="st5" width="7.7" height="7.2"/>
		
			<rect x="465.8" y="107.8" transform="matrix(0.9999 -1.612072e-02 1.612072e-02 0.9999 -1.735 7.5853)" class="st5" width="7.7" height="7.2"/>
		
			<rect x="119.4" y="120.6" transform="matrix(0.9999 -1.612072e-02 1.612072e-02 0.9999 -1.9857 2.0034)" class="st5" width="7.7" height="7.2"/>
		
			<rect x="127.1" y="120.5" transform="matrix(0.9999 -1.612072e-02 1.612072e-02 0.9999 -1.9827 2.1275)" class="st5" width="7.7" height="7.2"/>
		
			<rect x="157.9" y="120" transform="matrix(0.9999 -1.612072e-02 1.612072e-02 0.9999 -1.9707 2.6239)" class="st5" width="7.7" height="7.2"/>
		
			<rect x="165.6" y="119.8" transform="matrix(0.9999 -1.612072e-02 1.612072e-02 0.9999 -1.9677 2.7481)" class="st5" width="7.7" height="7.2"/>
		
			<rect x="181" y="119.6" transform="matrix(0.9999 -1.612072e-02 1.612072e-02 0.9999 -1.9617 2.9963)" class="st5" width="7.7" height="7.2"/>
		
			<rect x="188.7" y="119.5" transform="matrix(0.9999 -1.612072e-02 1.612072e-02 0.9999 -1.9587 3.1204)" class="st5" width="7.7" height="7.2"/>
		
			<rect x="219.5" y="119" transform="matrix(0.9999 -1.612072e-02 1.612072e-02 0.9999 -1.9467 3.6168)" class="st5" width="7.7" height="7.2"/>
		
			<rect x="227.2" y="118.8" transform="matrix(0.9999 -1.612072e-02 1.612072e-02 0.9999 -1.9437 3.7409)" class="st5" width="7.7" height="7.2"/>
		
			<rect x="265.7" y="118.2" transform="matrix(0.9999 -1.612072e-02 1.612072e-02 0.9999 -1.9287 4.3614)" class="st5" width="7.7" height="7.2"/>
		
			<rect x="273.4" y="118.1" transform="matrix(0.9999 -1.612072e-02 1.612072e-02 0.9999 -1.9257 4.4855)" class="st5" width="7.7" height="7.2"/>
		
			<rect x="327.3" y="117.2" transform="matrix(0.9999 -1.612072e-02 1.612072e-02 0.9999 -1.9047 5.3543)" class="st5" width="7.7" height="7.2"/>
		
			<rect x="335" y="117.1" transform="matrix(0.9999 -1.612072e-02 1.612072e-02 0.9999 -1.9017 5.4784)" class="st5" width="7.7" height="7.2"/>
		
			<rect x="365.8" y="116.6" transform="matrix(0.9999 -1.612072e-02 1.612072e-02 0.9999 -1.8897 5.9748)" class="st5" width="7.7" height="7.2"/>
		
			<rect x="373.5" y="116.5" transform="matrix(0.9999 -1.612072e-02 1.612072e-02 0.9999 -1.8867 6.0989)" class="st5" width="7.7" height="7.2"/>
		
			<rect x="381.2" y="116.4" transform="matrix(0.9999 -1.612072e-02 1.612072e-02 0.9999 -1.8837 6.223)" class="st5" width="7.7" height="7.2"/>
		
			<rect x="388.9" y="116.2" transform="matrix(0.9999 -1.612072e-02 1.612072e-02 0.9999 -1.8807 6.3471)" class="st5" width="7.7" height="7.2"/>
		
			<rect x="396.6" y="116.1" transform="matrix(0.9999 -1.612072e-02 1.612072e-02 0.9999 -1.8777 6.4712)" class="st5" width="7.7" height="7.2"/>
		
			<rect x="404.3" y="116" transform="matrix(0.9999 -1.612072e-02 1.612072e-02 0.9999 -1.8747 6.5953)" class="st5" width="7.7" height="7.2"/>
		
			<rect x="412" y="115.9" transform="matrix(0.9999 -1.612072e-02 1.612072e-02 0.9999 -1.8717 6.7194)" class="st5" width="7.7" height="7.2"/>
		
			<rect x="427.4" y="115.6" transform="matrix(0.9999 -1.612072e-02 1.612072e-02 0.9999 -1.8657 6.9676)" class="st5" width="7.7" height="7.2"/>
		
			<rect x="435.1" y="115.5" transform="matrix(0.9999 -1.612072e-02 1.612072e-02 0.9999 -1.8627 7.0917)" class="st5" width="7.7" height="7.2"/>
		
			<rect x="458.2" y="115.1" transform="matrix(0.9999 -1.612072e-02 1.612072e-02 0.9999 -1.8537 7.464)" class="st5" width="7.7" height="7.2"/>
		
			<rect x="465.9" y="115" transform="matrix(0.9999 -1.612072e-02 1.612072e-02 0.9999 -1.8507 7.5881)" class="st5" width="7.7" height="7.2"/>
		
			<rect x="473.6" y="114.9" transform="matrix(0.9999 -1.612072e-02 1.612072e-02 0.9999 -1.8477 7.7122)" class="st5" width="7.7" height="7.2"/>
		
			<rect x="157.8" y="112.8" transform="matrix(0.9999 -1.612072e-02 1.612072e-02 0.9999 -1.8551 2.6211)" class="st5" width="7.7" height="7.2"/>
		
			<rect x="165.5" y="112.7" transform="matrix(0.9999 -1.612072e-02 1.612072e-02 0.9999 -1.8521 2.7453)" class="st5" width="7.7" height="7.2"/>
		
			<rect x="180.9" y="112.4" transform="matrix(0.9999 -1.612072e-02 1.612072e-02 0.9999 -1.846 2.9935)" class="st5" width="7.7" height="7.2"/>
		
			<rect x="188.6" y="112.3" transform="matrix(0.9999 -1.612072e-02 1.612072e-02 0.9999 -1.843 3.1176)" class="st5" width="7.7" height="7.2"/>
		
			<rect x="119.3" y="113.4" transform="matrix(0.9999 -1.612072e-02 1.612072e-02 0.9999 -1.8701 2.0006)" class="st5" width="7.7" height="7.2"/>
		
			<rect x="127" y="113.3" transform="matrix(0.9999 -1.612072e-02 1.612072e-02 0.9999 -1.8671 2.1247)" class="st5" width="7.7" height="7.2"/>
		
			<rect x="427.2" y="101.3" transform="matrix(0.9999 -1.612072e-02 1.612072e-02 0.9999 -1.6343 6.962)" class="st5" width="7.7" height="7.2"/>
		
			<rect x="434.9" y="101.1" transform="matrix(0.9999 -1.612072e-02 1.612072e-02 0.9999 -1.6313 7.0861)" class="st5" width="7.7" height="7.2"/>
		
			<rect x="442.6" y="101" transform="matrix(0.9999 -1.612072e-02 1.612072e-02 0.9999 -1.6283 7.2102)" class="st5" width="7.7" height="7.2"/>
		
			<rect x="450.3" y="100.9" transform="matrix(0.9999 -1.612072e-02 1.612072e-02 0.9999 -1.6253 7.3343)" class="st5" width="7.7" height="7.2"/>
		
			<rect x="458" y="100.8" transform="matrix(0.9999 -1.612072e-02 1.612072e-02 0.9999 -1.6223 7.4584)" class="st5" width="7.7" height="7.2"/>
		
			<rect x="157.7" y="105.6" transform="matrix(0.9999 -1.612072e-02 1.612072e-02 0.9999 -1.7394 2.6184)" class="st5" width="7.7" height="7.2"/>
		
			<rect x="165.4" y="105.5" transform="matrix(0.9999 -1.612072e-02 1.612072e-02 0.9999 -1.7364 2.7425)" class="st5" width="7.7" height="7.2"/>
		
			<rect x="180.8" y="105.2" transform="matrix(0.9999 -1.612072e-02 1.612072e-02 0.9999 -1.7304 2.9907)" class="st5" width="7.7" height="7.2"/>
		
			<rect x="188.5" y="105.1" transform="matrix(0.9999 -1.612072e-02 1.612072e-02 0.9999 -1.7274 3.1148)" class="st5" width="7.7" height="7.2"/>
		
			<rect x="196.2" y="105" transform="matrix(0.9999 -1.612072e-02 1.612072e-02 0.9999 -1.7244 3.2389)" class="st5" width="7.7" height="7.2"/>
		
			<rect x="203.9" y="104.9" transform="matrix(0.9999 -1.612072e-02 1.612072e-02 0.9999 -1.7214 3.363)" class="st5" width="7.7" height="7.2"/>
		
			<rect x="211.6" y="104.7" transform="matrix(0.9999 -1.612072e-02 1.612072e-02 0.9999 -1.7184 3.4871)" class="st5" width="7.7" height="7.2"/>
		
			<rect x="219.3" y="104.6" transform="matrix(0.9999 -1.612072e-02 1.612072e-02 0.9999 -1.7154 3.6112)" class="st5" width="7.7" height="7.2"/>
		
			<rect x="227" y="104.5" transform="matrix(0.9999 -1.612072e-02 1.612072e-02 0.9999 -1.7124 3.7353)" class="st5" width="7.7" height="7.2"/>
		
			<rect x="265.5" y="103.9" transform="matrix(0.9999 -1.612072e-02 1.612072e-02 0.9999 -1.6974 4.3558)" class="st5" width="7.7" height="7.2"/>
		
			<rect x="273.2" y="103.7" transform="matrix(0.9999 -1.612072e-02 1.612072e-02 0.9999 -1.6944 4.4799)" class="st5" width="7.7" height="7.2"/>
		
			<rect x="327.1" y="102.9" transform="matrix(0.9999 -1.612072e-02 1.612072e-02 0.9999 -1.6733 5.3487)" class="st5" width="7.7" height="7.2"/>
		
			<rect x="334.8" y="102.8" transform="matrix(0.9999 -1.612072e-02 1.612072e-02 0.9999 -1.6703 5.4728)" class="st5" width="7.7" height="7.2"/>
		
			<rect x="365.6" y="102.3" transform="matrix(0.9999 -1.612072e-02 1.612072e-02 0.9999 -1.6583 5.9692)" class="st5" width="7.7" height="7.2"/>
		
			<rect x="373.3" y="102.1" transform="matrix(0.9999 -1.612072e-02 1.612072e-02 0.9999 -1.6553 6.0933)" class="st5" width="7.7" height="7.2"/>
		
			<rect x="119.2" y="106.2" transform="matrix(0.9999 -1.612072e-02 1.612072e-02 0.9999 -1.7544 1.9978)" class="st5" width="7.7" height="7.2"/>
		
			<rect x="126.9" y="106.1" transform="matrix(0.9999 -1.612072e-02 1.612072e-02 0.9999 -1.7514 2.1219)" class="st5" width="7.7" height="7.2"/>
		
			<rect x="457.9" y="93.6" transform="matrix(0.9999 -1.612072e-02 1.612072e-02 0.9999 -1.5066 7.4556)" class="st5" width="7.7" height="7.2"/>
		
			<rect x="465.6" y="93.5" transform="matrix(0.9999 -1.612072e-02 1.612072e-02 0.9999 -1.5036 7.5798)" class="st5" width="7.7" height="7.2"/>
		
			<rect x="473.3" y="93.3" transform="matrix(0.9999 -1.612072e-02 1.612072e-02 0.9999 -1.5006 7.7039)" class="st5" width="7.7" height="7.2"/>
		
			<rect x="365.5" y="95.1" transform="matrix(0.9999 -1.612072e-02 1.612072e-02 0.9999 -1.5427 5.9664)" class="st5" width="7.7" height="7.2"/>
		
			<rect x="373.2" y="95" transform="matrix(0.9999 -1.612072e-02 1.612072e-02 0.9999 -1.5397 6.0905)" class="st5" width="7.7" height="7.2"/>
		
			<rect x="380.9" y="94.8" transform="matrix(0.9999 -1.612072e-02 1.612072e-02 0.9999 -1.5367 6.2146)" class="st5" width="7.7" height="7.2"/>
		
			<rect x="388.6" y="94.7" transform="matrix(0.9999 -1.612072e-02 1.612072e-02 0.9999 -1.5337 6.3387)" class="st5" width="7.7" height="7.2"/>
		
			<rect x="396.3" y="94.6" transform="matrix(0.9999 -1.612072e-02 1.612072e-02 0.9999 -1.5307 6.4628)" class="st5" width="7.7" height="7.2"/>
		
			<rect x="404" y="94.5" transform="matrix(0.9999 -1.612072e-02 1.612072e-02 0.9999 -1.5277 6.5869)" class="st5" width="7.7" height="7.2"/>
		
			<rect x="427.1" y="94.1" transform="matrix(0.9999 -1.612072e-02 1.612072e-02 0.9999 -1.5186 6.9592)" class="st5" width="7.7" height="7.2"/>
		
			<rect x="434.8" y="94" transform="matrix(0.9999 -1.612072e-02 1.612072e-02 0.9999 -1.5156 7.0833)" class="st5" width="7.7" height="7.2"/>
		
			<rect x="327" y="95.7" transform="matrix(0.9999 -1.612072e-02 1.612072e-02 0.9999 -1.5577 5.3459)" class="st5" width="7.7" height="7.2"/>
		
			<rect x="334.7" y="95.6" transform="matrix(0.9999 -1.612072e-02 1.612072e-02 0.9999 -1.5547 5.47)" class="st5" width="7.7" height="7.2"/>
		
			<rect x="257.7" y="96.8" transform="matrix(0.9999 -1.612072e-02 1.612072e-02 0.9999 -1.5847 4.2289)" class="st5" width="7.7" height="7.2"/>
		
			<rect x="265.4" y="96.7" transform="matrix(0.9999 -1.612072e-02 1.612072e-02 0.9999 -1.5817 4.353)" class="st5" width="7.7" height="7.2"/>
		
			<rect x="273.1" y="96.6" transform="matrix(0.9999 -1.612072e-02 1.612072e-02 0.9999 -1.5787 4.4771)" class="st5" width="7.7" height="7.2"/>
		
			<rect x="280.8" y="96.4" transform="matrix(0.9999 -1.612072e-02 1.612072e-02 0.9999 -1.5757 4.6012)" class="st5" width="7.7" height="7.2"/>
		
			<rect x="219.2" y="97.4" transform="matrix(0.9999 -1.612072e-02 1.612072e-02 0.9999 -1.5997 3.6084)" class="st5" width="7.7" height="7.2"/>
		
			<rect x="226.9" y="97.3" transform="matrix(0.9999 -1.612072e-02 1.612072e-02 0.9999 -1.5967 3.7325)" class="st5" width="7.7" height="7.2"/>
		
			<rect x="180.7" y="98.1" transform="matrix(0.9999 -1.612072e-02 1.612072e-02 0.9999 -1.6147 2.9879)" class="st5" width="7.7" height="7.2"/>
		
			<rect x="188.4" y="97.9" transform="matrix(0.9999 -1.612072e-02 1.612072e-02 0.9999 -1.6117 3.112)" class="st5" width="7.7" height="7.2"/>
		
			<rect x="119.1" y="99.1" transform="matrix(0.9999 -1.612072e-02 1.612072e-02 0.9999 -1.6387 1.995)" class="st5" width="7.7" height="7.2"/>
		
			<rect x="126.8" y="98.9" transform="matrix(0.9999 -1.612072e-02 1.612072e-02 0.9999 -1.6357 2.1191)" class="st5" width="7.7" height="7.2"/>
		
			<rect x="134.5" y="98.8" transform="matrix(0.9999 -1.612072e-02 1.612072e-02 0.9999 -1.6327 2.2432)" class="st5" width="7.7" height="7.2"/>
		
			<rect x="142.2" y="98.7" transform="matrix(0.9999 -1.612072e-02 1.612072e-02 0.9999 -1.6297 2.3673)" class="st5" width="7.7" height="7.2"/>
		
			<rect x="149.9" y="98.6" transform="matrix(0.9999 -1.612072e-02 1.612072e-02 0.9999 -1.6267 2.4915)" class="st5" width="7.7" height="7.2"/>
		
			<rect x="157.6" y="98.4" transform="matrix(0.9999 -1.612072e-02 1.612072e-02 0.9999 -1.6237 2.6156)" class="st5" width="7.7" height="7.2"/>
		
			<rect x="165.3" y="98.3" transform="matrix(0.9999 -1.612072e-02 1.612072e-02 0.9999 -1.6207 2.7397)" class="st5" width="7.7" height="7.2"/>
		
			<rect x="465.4" y="86.3" transform="matrix(0.9999 -1.612072e-02 1.612072e-02 0.9999 -1.388 7.577)" class="st5" width="7.7" height="7.2"/>
		
			<rect x="473.1" y="86.2" transform="matrix(0.9999 -1.612072e-02 1.612072e-02 0.9999 -1.385 7.7011)" class="st5" width="7.7" height="7.2"/>
		
			<rect x="426.9" y="86.9" transform="matrix(0.9999 -1.612072e-02 1.612072e-02 0.9999 -1.403 6.9564)" class="st5" width="7.7" height="7.2"/>
		
			<rect x="426.8" y="79.7" transform="matrix(0.9999 -1.612072e-02 1.612072e-02 0.9999 -1.2873 6.9536)" class="st5" width="7.7" height="7.2"/>
		
			<rect x="365.2" y="80.7" transform="matrix(0.9999 -1.612072e-02 1.612072e-02 0.9999 -1.3113 5.9608)" class="st5" width="7.7" height="7.2"/>
		
			<rect x="372.9" y="80.6" transform="matrix(0.9999 -1.612072e-02 1.612072e-02 0.9999 -1.3083 6.0849)" class="st5" width="7.7" height="7.2"/>
		
			<rect x="465.3" y="79.1" transform="matrix(0.9999 -1.612072e-02 1.612072e-02 0.9999 -1.2723 7.5742)" class="st5" width="7.7" height="7.2"/>
		
			<rect x="473" y="79" transform="matrix(0.9999 -1.612072e-02 1.612072e-02 0.9999 -1.2693 7.6983)" class="st5" width="7.7" height="7.2"/>
		
			<rect x="434.5" y="79.6" transform="matrix(0.9999 -1.612072e-02 1.612072e-02 0.9999 -1.2843 7.0777)" class="st5" width="7.7" height="7.2"/>
		
			<rect x="326.8" y="88.5" transform="matrix(0.9999 -1.612072e-02 1.612072e-02 0.9999 -1.442 5.3431)" class="st5" width="7.7" height="7.2"/>
		
			<rect x="249.9" y="89.8" transform="matrix(0.9999 -1.612072e-02 1.612072e-02 0.9999 -1.472 4.102)" class="st5" width="7.7" height="7.2"/>
		
			<rect x="219.1" y="90.3" transform="matrix(0.9999 -1.612072e-02 1.612072e-02 0.9999 -1.484 3.6056)" class="st5" width="7.7" height="7.2"/>
		
			<rect x="119" y="91.9" transform="matrix(0.9999 -1.612072e-02 1.612072e-02 0.9999 -1.523 1.9922)" class="st5" width="7.7" height="7.2"/>
		
			<rect x="126.7" y="91.8" transform="matrix(0.9999 -1.612072e-02 1.612072e-02 0.9999 -1.52 2.1163)" class="st5" width="7.7" height="7.2"/>
		
			<rect x="226.8" y="90.1" transform="matrix(0.9999 -1.612072e-02 1.612072e-02 0.9999 -1.481 3.7297)" class="st5" width="7.7" height="7.2"/>
		
			<rect x="157.5" y="91.3" transform="matrix(0.9999 -1.612072e-02 1.612072e-02 0.9999 -1.508 2.6128)" class="st5" width="7.7" height="7.2"/>
		
			<rect x="165.2" y="91.1" transform="matrix(0.9999 -1.612072e-02 1.612072e-02 0.9999 -1.505 2.7369)" class="st5" width="7.7" height="7.2"/>
		
			<rect x="180.6" y="90.9" transform="matrix(0.9999 -1.612072e-02 1.612072e-02 0.9999 -1.499 2.9851)" class="st5" width="7.7" height="7.2"/>
		
			<rect x="188.3" y="90.8" transform="matrix(0.9999 -1.612072e-02 1.612072e-02 0.9999 -1.496 3.1092)" class="st5" width="7.7" height="7.2"/>
		
			<rect x="257.6" y="89.6" transform="matrix(0.9999 -1.612072e-02 1.612072e-02 0.9999 -1.469 4.2261)" class="st5" width="7.7" height="7.2"/>
		
			<rect x="280.7" y="89.3" transform="matrix(0.9999 -1.612072e-02 1.612072e-02 0.9999 -1.46 4.5984)" class="st5" width="7.7" height="7.2"/>
		
			<rect x="288.4" y="89.1" transform="matrix(0.9999 -1.612072e-02 1.612072e-02 0.9999 -1.457 4.7225)" class="st5" width="7.7" height="7.2"/>
		
			<rect x="334.5" y="88.4" transform="matrix(0.9999 -1.612072e-02 1.612072e-02 0.9999 -1.439 5.4672)" class="st5" width="7.7" height="7.2"/>
		
			<rect x="434.6" y="86.8" transform="matrix(0.9999 -1.612072e-02 1.612072e-02 0.9999 -1.4 7.0805)" class="st5" width="7.7" height="7.2"/>
		
			<rect x="365.3" y="87.9" transform="matrix(0.9999 -1.612072e-02 1.612072e-02 0.9999 -1.427 5.9636)" class="st5" width="7.7" height="7.2"/>
		
			<rect x="373" y="87.8" transform="matrix(0.9999 -1.612072e-02 1.612072e-02 0.9999 -1.424 6.0877)" class="st5" width="7.7" height="7.2"/>
		
			<rect x="326.7" y="81.4" transform="matrix(0.9999 -1.612072e-02 1.612072e-02 0.9999 -1.3263 5.3403)" class="st5" width="7.7" height="7.2"/>
		
			<rect x="334.4" y="81.2" transform="matrix(0.9999 -1.612072e-02 1.612072e-02 0.9999 -1.3233 5.4644)" class="st5" width="7.7" height="7.2"/>
		
			<rect x="280.5" y="82.1" transform="matrix(0.9999 -1.612072e-02 1.612072e-02 0.9999 -1.3443 4.5956)" class="st5" width="7.7" height="7.2"/>
		
			<rect x="288.2" y="82" transform="matrix(0.9999 -1.612072e-02 1.612072e-02 0.9999 -1.3413 4.7197)" class="st5" width="7.7" height="7.2"/>
		
			<rect x="249.7" y="82.6" transform="matrix(0.9999 -1.612072e-02 1.612072e-02 0.9999 -1.3563 4.0992)" class="st5" width="7.7" height="7.2"/>
		
			<rect x="257.4" y="82.5" transform="matrix(0.9999 -1.612072e-02 1.612072e-02 0.9999 -1.3533 4.2233)" class="st5" width="7.7" height="7.2"/>
		
			<rect x="211.2" y="83.2" transform="matrix(0.9999 -1.612072e-02 1.612072e-02 0.9999 -1.3714 3.4787)" class="st5" width="7.7" height="7.2"/>
		
			<rect x="218.9" y="83.1" transform="matrix(0.9999 -1.612072e-02 1.612072e-02 0.9999 -1.3684 3.6028)" class="st5" width="7.7" height="7.2"/>
		
			<rect x="249.6" y="75.4" transform="matrix(0.9999 -1.612072e-02 1.612072e-02 0.9999 -1.2407 4.0964)" class="st5" width="7.7" height="7.2"/>
		
			<rect x="157.2" y="76.9" transform="matrix(0.9999 -1.612072e-02 1.612072e-02 0.9999 -1.2767 2.6072)" class="st5" width="7.7" height="7.2"/>
		
			<rect x="164.9" y="76.8" transform="matrix(0.9999 -1.612072e-02 1.612072e-02 0.9999 -1.2737 2.7313)" class="st5" width="7.7" height="7.2"/>
		
			<rect x="195.7" y="76.3" transform="matrix(0.9999 -1.612072e-02 1.612072e-02 0.9999 -1.2617 3.2277)" class="st5" width="7.7" height="7.2"/>
		
			<rect x="203.4" y="76.2" transform="matrix(0.9999 -1.612072e-02 1.612072e-02 0.9999 -1.2587 3.3518)" class="st5" width="7.7" height="7.2"/>
		
			<rect x="118.7" y="77.5" transform="matrix(0.9999 -1.612072e-02 1.612072e-02 0.9999 -1.2917 1.9866)" class="st5" width="7.7" height="7.2"/>
		
			<rect x="126.4" y="77.4" transform="matrix(0.9999 -1.612072e-02 1.612072e-02 0.9999 -1.2887 2.1107)" class="st5" width="7.7" height="7.2"/>
		
			<rect x="211.1" y="76" transform="matrix(0.9999 -1.612072e-02 1.612072e-02 0.9999 -1.2557 3.4759)" class="st5" width="7.7" height="7.2"/>
		
			<rect x="257.3" y="75.3" transform="matrix(0.9999 -1.612072e-02 1.612072e-02 0.9999 -1.2377 4.2205)" class="st5" width="7.7" height="7.2"/>
		
			<rect x="280.4" y="74.9" transform="matrix(0.9999 -1.612072e-02 1.612072e-02 0.9999 -1.2287 4.5928)" class="st5" width="7.7" height="7.2"/>
		
			<rect x="288.1" y="74.8" transform="matrix(0.9999 -1.612072e-02 1.612072e-02 0.9999 -1.2257 4.7169)" class="st5" width="7.7" height="7.2"/>
		
			<rect x="311.2" y="74.4" transform="matrix(0.9999 -1.612072e-02 1.612072e-02 0.9999 -1.2167 5.0893)" class="st5" width="7.7" height="7.2"/>
		
			<rect x="157.3" y="84.1" transform="matrix(0.9999 -1.612072e-02 1.612072e-02 0.9999 -1.3924 2.61)" class="st5" width="7.7" height="7.2"/>
		
			<rect x="318.9" y="74.3" transform="matrix(0.9999 -1.612072e-02 1.612072e-02 0.9999 -1.2137 5.2134)" class="st5" width="7.7" height="7.2"/>
		
			<rect x="326.6" y="74.2" transform="matrix(0.9999 -1.612072e-02 1.612072e-02 0.9999 -1.2107 5.3375)" class="st5" width="7.7" height="7.2"/>
		
			<rect x="334.3" y="74.1" transform="matrix(0.9999 -1.612072e-02 1.612072e-02 0.9999 -1.2077 5.4616)" class="st5" width="7.7" height="7.2"/>
		
			<rect x="342" y="73.9" transform="matrix(0.9999 -1.612072e-02 1.612072e-02 0.9999 -1.2047 5.5857)" class="st5" width="7.7" height="7.2"/>
		
			<rect x="349.7" y="73.8" transform="matrix(0.9999 -1.612072e-02 1.612072e-02 0.9999 -1.2016 5.7098)" class="st5" width="7.7" height="7.2"/>
		
			<rect x="118.8" y="84.7" transform="matrix(0.9999 -1.612072e-02 1.612072e-02 0.9999 -1.4074 1.9894)" class="st5" width="7.7" height="7.2"/>
		
			<rect x="426.7" y="72.6" transform="matrix(0.9999 -1.612072e-02 1.612072e-02 0.9999 -1.1716 6.9508)" class="st5" width="7.7" height="7.2"/>
		
			<rect x="365.1" y="73.6" transform="matrix(0.9999 -1.612072e-02 1.612072e-02 0.9999 -1.1956 5.958)" class="st5" width="7.7" height="7.2"/>
		
			<rect x="372.8" y="73.4" transform="matrix(0.9999 -1.612072e-02 1.612072e-02 0.9999 -1.1926 6.0821)" class="st5" width="7.7" height="7.2"/>
		
			<rect x="380.5" y="73.3" transform="matrix(0.9999 -1.612072e-02 1.612072e-02 0.9999 -1.1896 6.2062)" class="st5" width="7.7" height="7.2"/>
		
			<rect x="388.2" y="73.2" transform="matrix(0.9999 -1.612072e-02 1.612072e-02 0.9999 -1.1866 6.3303)" class="st5" width="7.7" height="7.2"/>
		
			<rect x="395.9" y="73.1" transform="matrix(0.9999 -1.612072e-02 1.612072e-02 0.9999 -1.1836 6.4544)" class="st5" width="7.7" height="7.2"/>
		
			<rect x="403.6" y="72.9" transform="matrix(0.9999 -1.612072e-02 1.612072e-02 0.9999 -1.1806 6.5785)" class="st5" width="7.7" height="7.2"/>
		
			<rect x="411.3" y="72.8" transform="matrix(0.9999 -1.612072e-02 1.612072e-02 0.9999 -1.1776 6.7026)" class="st5" width="7.7" height="7.2"/>
		
			<rect x="434.4" y="72.4" transform="matrix(0.9999 -1.612072e-02 1.612072e-02 0.9999 -1.1686 7.0749)" class="st5" width="7.7" height="7.2"/>
		
			<rect x="442.1" y="72.3" transform="matrix(0.9999 -1.612072e-02 1.612072e-02 0.9999 -1.1656 7.199)" class="st5" width="7.7" height="7.2"/>
		
			<rect x="449.8" y="72.2" transform="matrix(0.9999 -1.612072e-02 1.612072e-02 0.9999 -1.1626 7.3232)" class="st5" width="7.7" height="7.2"/>
		
			<rect x="457.5" y="72.1" transform="matrix(0.9999 -1.612072e-02 1.612072e-02 0.9999 -1.1596 7.4473)" class="st5" width="7.7" height="7.2"/>
		
			<rect x="465.2" y="71.9" transform="matrix(0.9999 -1.612072e-02 1.612072e-02 0.9999 -1.1566 7.5714)" class="st5" width="7.7" height="7.2"/>
		
			<rect x="126.5" y="84.6" transform="matrix(0.9999 -1.612072e-02 1.612072e-02 0.9999 -1.4044 2.1135)" class="st5" width="7.7" height="7.2"/>
		
			<rect x="188.1" y="83.6" transform="matrix(0.9999 -1.612072e-02 1.612072e-02 0.9999 -1.3804 3.1064)" class="st5" width="7.7" height="7.2"/>
		
			<rect x="195.8" y="83.5" transform="matrix(0.9999 -1.612072e-02 1.612072e-02 0.9999 -1.3774 3.2305)" class="st5" width="7.7" height="7.2"/>
		
			<rect x="165" y="84" transform="matrix(0.9999 -1.612072e-02 1.612072e-02 0.9999 -1.3894 2.7341)" class="st5" width="7.7" height="7.2"/>
	</g>
	<g id="HAYTEROUTLINE">
		<g>
			<path class="st10" d="M119.6,127l-0.8-49.8l15.4-0.3l0.4,21.4l23.1-0.4l-0.4-21.4l15.4-0.3l0.8,49.8l-15.4,0.3l-0.4-21.4
				l-23.1,0.4l0.4,21.4L119.6,127z"/>
			<path class="st10" d="M181.3,126l-0.6-35.6l7.7-0.1l-0.1-7.1L196,83l-0.1-7.1l23.1-0.4l0.1,7.1l7.7-0.1l0.1,7.1l7.7-0.1l0.6,35.6
				l-15.4,0.3l-0.2-14.2l-23.1,0.4l0.2,14.2L181.3,126z M196.3,104.4l23.1-0.4l-0.2-14.2l-7.7,0.1l-0.1-7.1l-7.7,0.1l0.1,7.1
				l-7.7,0.1L196.3,104.4z"/>
			<path class="st10" d="M266,124.6l-0.4-21.4l-7.7,0.1l-0.1-7.1l-7.7,0.1L249.8,75l15.4-0.3l0.4,21.4l15.4-0.3l-0.4-21.4l15.4-0.3
				l0.4,21.4l-7.7,0.1l0.1,7.1l-7.7,0.1l0.4,21.4L266,124.6z"/>
			<path class="st10" d="M327.6,123.5l-0.7-42.7l-15.4,0.3l-0.1-7.1l46.2-0.8l0.1,7.1l-15.4,0.3l0.7,42.7L327.6,123.5z"/>
			<path class="st10" d="M366.1,122.9l-0.8-49.8l53.9-0.9l0.1,7.1l-38.5,0.6l0.2,14.2l30.8-0.5l0.1,7.1l-30.8,0.5l0.2,14.2l38.5-0.6
				l0.1,7.1L366.1,122.9z"/>
			<path class="st10" d="M427.8,121.9L426.9,72l46.2-0.8l0.1,7.1l7.7-0.1l0.4,21.4l-15.4,0.3l0.1,7.1l7.7-0.1l0.1,7.1l7.7-0.1
				l0.1,7.1l-23.1,0.4l-0.1-7.1l-7.7,0.1l-0.1-7.1l-7.7,0.1l0.2,14.2L427.8,121.9z M442.8,100.3l15.4-0.3l-0.1-7.1l7.7-0.1
				l-0.2-14.2l-23.1,0.4L442.8,100.3z"/>
		</g>
	</g>
</g>
</svg>
