<?xml version="1.0" encoding="UTF-8"?>
<svg id="Layer_4" data-name="Layer 4" xmlns="http://www.w3.org/2000/svg" viewBox="0 0 1190 815">
  <defs>
    <style>
      .cls-1 {
        fill: #000;
        stroke: #000;
        stroke-miterlimit: 10;
        stroke-width: 9px;
      }
    </style>
  </defs>
  <g>
    <path class="cls-1" d="M709.38,567.57c-5.55,9.15-12.12,16.65-21.22,21.99-14.09,8.28-37.15,7.33-49.2-3.77-6.05-5.58-9.02-12.83-10.51-20.77-.19-1.01-.39-2.02-.59-3.03-4.32,5.68-8.18,11.46-12.74,16.61-11.68,13.16-26.52,18.2-43.9,15.9-11.55-1.53-19.57-10.07-21.81-23.12-.25-1.45-.52-2.89-.75-4.15-4.16,5.32-7.84,11.06-12.53,15.82-19.47,19.78-52.25,14.49-65.16-10.13-8.15-15.54-8.92-32.15-7.5-49.05,1.13-13.36,4.6-26.12,12.3-37.33,10.12-14.73,24.61-20.87,42.13-20.74,10.58.08,20.34,3.2,29.57,8.14,3.63-6.63,9.51-8.91,16.57-6.63,3.26,1.05,4.81,3.08,4.77,6.54-.08,7.26-.02,14.52-.02,21.78,0,20.3-.08,40.61.07,60.91.03,4.12.53,8.32,1.51,12.31,1.35,5.51,4.52,7.93,10.02,8.22,8.96.46,16.99-2.13,23.75-8.11,11.42-10.1,17.4-23.57,22.64-37.41.68-1.8.48-3.98.48-5.99.03-16.54,0-33.08.03-49.62,0-6.85,1.94-8.85,8.78-9.11,1.74-.07,3.51-.04,5.24.19,4.75.63,6.54,2.82,6.55,7.95.01,25.01-.19,50.02.16,75.03.08,5.74,1.08,11.89,3.4,17.08,3.61,8.08,13.18,11.22,23.7,9.28,12.64-2.33,20.28-10.86,26.18-21.34,5.81-10.33,9.1-21.18,8.54-33.39-.7-15.16-.17-30.38-.16-45.58,0-3.4-.16-7.16,3.96-8.31,5.08-1.42,10.43-2.25,14.87,1.61,1.17,1.02,1.67,3.36,1.67,5.1.08,62.39.14,124.78,0,187.17-.03,12.75-2.32,25.1-9.77,35.93-8.14,11.83-20.01,17.07-33.76,18.58-14.72,1.62-28.82-.61-41.17-9.15-4.99-3.45-9.35-8-13.34-12.61-3.14-3.63-2.33-7.05,1.13-10.26,6.08-5.64,9.7-5.55,15.86.45,9.72,9.47,21.02,14.49,34.92,13.26,11.18-1,19.33-6.53,22.6-17.47,1.82-6.09,2.83-12.63,2.89-18.98.29-30.25.13-60.51.12-90.76,0-1.01-.17-2.02-.26-3.03ZM548.43,516.93c0-6.99-.13-13.98.06-20.96.08-2.83-.93-4.44-3.43-5.62-9.82-4.65-20.13-6.72-30.9-5.38-10.07,1.25-18.05,6.33-22.62,15.48-9.68,19.38-10.15,39.57-2.92,59.66,4.8,13.33,16.64,18.56,30.23,14.84,13.01-3.56,29.55-25.18,29.58-38.68.01-6.45,0-12.9,0-19.35Z"/>
    <path class="cls-1" d="M992.87,553.72c-6.58,7.12-12.68,14.6-19.67,21.13-23.39,21.84-54.96,26.16-82.04,12.76-6.22-3.08-11.38-8.3-17.54-12.92-4.92,2.96-10.73,6.73-16.79,10.05-12.37,6.77-25.06,12.25-39.82,9.73-16.03-2.74-27.22-11.5-32.19-26.83-2.57-7.92-3.84-16.5-4.17-24.84-.64-16.11-.19-32.27-.19-48.4v-4.98c-5.58,0-10.9.01-16.23,0-7.29-.02-8.98-1.73-9.04-9.04,0-1.08-.02-2.15.04-3.23.27-4.88,1.94-6.66,7.02-6.89,4.43-.2,8.88-.05,13.32-.05,1.45,0,2.91,0,4.89,0,0-1.75,0-3.18,0-4.6,0-13.98,0-27.97,0-41.95,0-6.41,1.17-7.84,7.38-8.7,1.83-.25,3.76-.29,5.59-.05,5.93.79,7.57,2.69,7.59,8.74.04,13.72.01,27.43.01,41.15,0,1.6,0,3.21,0,5.43,3.57,0,6.89,0,10.2,0,6.46,0,12.92-.11,19.38.04,5.69.13,7.62,2.19,7.86,7.91.06,1.47.08,2.97-.1,4.43-.61,4.9-2.69,6.77-7.71,6.81-8.21.07-16.42.02-24.63.02-1.46,0-2.92,0-4.62,0-.15,1.32-.36,2.34-.36,3.36.07,17.61-.02,35.22.35,52.83.17,8.44,2.44,16.54,8.2,23.02,7.22,8.12,16.59,10.03,26.78,7.56,10.49-2.54,19.3-8.58,28.12-14.51,1.78-1.2,1.8-2.25,1.19-4.31-7.43-24.79-6.75-48.75,8.14-70.99,11.99-17.91,36.27-25.6,54.97-17.42,10,4.38,15.37,12.43,16.27,23.09,1.37,16.07-6.03,28.7-16.62,39.97-10.25,10.91-21.98,20.01-34.12,28.65-.64.45-1.23.98-2.11,1.69,5.8,8.36,13.85,12.75,23.43,14.28,20.53,3.28,37.72-4.16,52.73-17.46,9.63-8.53,17.42-18.63,22.97-30.3.88-1.86,1.44-4.07,1.45-6.12.12-15.73.05-31.47.07-47.2,0-6.23,2.1-8.38,8.43-8.69,1.61-.08,3.23-.05,4.83.07,5.08.38,7.21,2.56,7.29,7.69.09,6.11.02,12.22.99,18.6.69-1.04,1.39-2.08,2.08-3.14,7.11-10.96,15.67-20.26,29-23.36,9.12-2.12,17.93-.94,25.71,4.64,3.89,2.79,4.21,5.48,1.93,10.21-2.34,4.85-5.36,6.56-9.73,5.84-5.5-.91-11.15-2.69-16.55-2.16-10.45,1.01-17.37,8.25-22.39,16.73-4.13,6.98-7.08,14.68-10.33,22.16-.71,1.64-.66,3.68-.67,5.54-.04,18.69-.02,37.38-.03,56.07,0,6.37-1.91,8.33-8.35,8.63-1.47.07-2.96.07-4.43-.01-5.56-.32-7.74-2.53-7.77-8.06-.06-9.68-.02-19.36-.02-29.05,0-1.28,0-2.55,0-3.55ZM884.54,548.19c13.27-10.02,25.55-19.66,33.97-33.29,3.6-5.82,6-11.96,5.69-18.92-.26-5.85-3.26-9.43-9-10.7-8.88-1.98-15.93,1.6-21.36,8.11-10.23,12.27-12.67,26.88-11.3,42.34.35,3.93,1.23,7.81,1.99,12.47Z"/>
    <path class="cls-1" d="M414.75,474.24h-127.29c0,1.84,0,3.53,0,5.23,0,34.96,0,69.92,0,104.88,0,3.49.38,7.2-3.9,8.78-5.17,1.9-10.27,1.96-15.04-1.08-.78-.5-1.33-1.71-1.53-2.68-.38-1.82-.58-3.71-.58-5.57-.03-75.84-.02-151.67-.02-227.51,0-3.64-.39-7.8,3.75-9.39,5.01-1.93,10.5-2.2,15.07.93,1.57,1.08,2.16,4.47,2.17,6.82.14,31.46.09,62.93.09,94.39,0,1.73,0,3.45,0,5.51h127.29c0-1.83,0-3.54,0-5.25,0-31.33,0-62.66,0-93.99,0-7.77,1.52-9.32,9.42-9.52,1.74-.04,3.54-.1,5.23.24,3.61.72,6.18,2.59,6.15,6.73,0,1.21.02,2.42.02,3.63,0,75.7,0,151.4-.02,227.1,0,3.52.91,7.71-3.4,9.49-4.88,2.02-10.16,2.49-14.67-.59-1.64-1.12-2.59-4.31-2.61-6.57-.19-22.59-.11-45.18-.11-67.77,0-13.04,0-26.09,0-39.13,0-1.45,0-2.89,0-4.7Z"/>
  </g>
  <g>
    <path class="cls-1" d="M475.2,228.29c-6.06,5.33-12.49,7.24-19.46,6.19-4.33-.65-8.55-2.23-12.73-3.65-10.52-3.57-16.07-2.51-22.9,6.04-9.91,12.4-15.77,26.56-16,42.6-.2,13.9-.02,27.81-.06,41.71-.02,5.94-1.67,7.63-7.63,7.97-1.72.1-3.47.09-5.18-.07-4.15-.38-5.95-2.26-6-6.47-.08-7.22-.02-14.44-.02-22.52-3.62,4.85-6.63,9.01-9.78,13.07-10.61,13.63-30.04,19.97-46.56,14.99-7.47-2.26-11.61-7.98-13.97-15.06-.91-2.75-1.45-5.63-2.33-9.15-2.21,3.3-4.01,6.22-6.03,8.97-11.55,15.77-29.15,20.99-47.16,13.61-10.56-4.33-17.07-12.81-20.8-23.21-6.3-17.55-5.9-35.44-1.37-53.31,2.64-10.39,7.02-19.93,15.29-27.18,12.73-11.16,27.64-13.49,43.68-9.79,5.46,1.26,10.66,3.65,16,5.53,2.34-5.69,11.09-8.64,16.59-4.87,1.45.99,2.36,3.7,2.4,5.65.22,11.19.08,22.39.12,33.59.06,15.13.17,30.26.29,45.38,0,1.22.15,2.45.28,3.67.97,8.67,5.2,11.97,13.93,11.33,11.26-.82,19.68-6.52,25.42-15.62,5-7.94,8.9-16.58,13.05-25.03.87-1.77.89-4.06.9-6.11.07-14.52.04-29.04.04-43.56,0-9.45,4.04-12.52,13.47-10.29,3.6.85,5.54,2.74,5.42,6.69-.18,6.22-.05,12.45-.05,19.63,3.1-5.33,5.35-10.05,8.41-14.18,2.59-3.49,5.8-6.71,9.29-9.32,7.48-5.6,15.59-5.01,23.75-1.26,3.46,1.59,6.91,3.27,10.52,4.45,8.84,2.88,19.15-4.68,19.16-13.9.01-31.5.01-63,0-94.49,0-3.39-.27-6.96,4.08-7.97,4.62-1.07,9.32-1.57,13.42,1.62.66.52.99,1.67,1.13,2.58.2,1.33.1,2.7.1,4.05,0,60.41,0,120.82.03,181.23,0,3.68.22,7.38.64,11.03.84,7.35,4.75,10.53,12.18,10.43,10.29-.14,18.12-4.98,24.48-12.56,7.13-8.49,11.53-18.49,15.58-28.65.52-1.31.46-2.9.46-4.36.03-15.75,0-31.5.02-47.25,0-5.73,1.91-7.7,7.7-8,1.23-.06,2.47-.04,3.7.03,5.61.3,7.49,2.19,7.5,7.76.03,22.39,0,44.79.04,67.18,0,3.19.02,6.43.57,9.56,2.16,12.12,11.98,18.27,24.84,15.63,10.42-2.14,17.31-8.96,22.58-17.61,2.1-3.44,3.79-7.15,5.41-10.86,2.53-5.8,3.62-11.83,3.49-18.25-.29-15.13-.1-30.27-.09-45.4,0-5.79,1.82-7.69,7.68-8.01,1.84-.1,3.74-.16,5.55.14,3.37.57,5.67,2.35,5.67,6.12,0,.98.02,1.97.02,2.95,0,55.61.13,111.23-.15,166.84-.04,7.87-1.13,16.01-3.4,23.53-5.24,17.39-18.11,26.29-35.87,28.42-14.04,1.68-27.4-.55-39.18-8.73-4.09-2.85-7.73-6.47-11.11-10.17-3.11-3.41-2.61-7.83.49-10.55,4.75-4.18,8.62-4.62,12.42-1.26,6.3,5.56,12.54,11.43,21.15,12.97,5.15.92,10.62,1.26,15.79.61,11.34-1.42,18.12-9.43,20.08-22.71.53-3.64.81-7.34.82-11.01.07-27.56.04-55.12.03-82.68,0-.73-.07-1.45-.16-3.19-1.17,1.72-1.93,2.71-2.55,3.77-11.48,19.59-31.52,27.01-52.97,19.37-10.81-3.85-16.14-12.34-18.62-22.99-.35-1.5-.62-3.02-1.03-5.03-2.34,3.56-4.29,6.78-6.49,9.82-9.68,13.36-22.35,21.4-39.37,21.1-15.26-.27-24.3-8.61-25.96-23.7-.43-3.9-.65-7.84-.66-11.76-.06-20.3-.03-40.6-.03-60.9v-5.11ZM312.59,258.06c0-6.52-.08-13.04.05-19.55.05-2.29-.63-3.84-2.86-4.5-5.76-1.7-11.44-3.99-17.33-4.89-16.9-2.58-28.57,3.88-34.66,19.52-5.89,15.13-5.92,30.88-1.34,46.27,4.45,14.95,17.39,21.04,31.31,15.63,6.52-2.53,11.28-7.31,15.3-12.91,6.29-8.76,10.91-17.99,9.58-29.25-.4-3.4-.06-6.88-.06-10.32Z"/>
    <path class="cls-1" d="M54.6,220.49c.07-28.84,4.54-53.38,17.85-75.51,12.81-21.29,31.17-35.54,55.97-40.93,17.33-3.76,34.46-3.27,51.15,2.8,12.58,4.58,23.16,12.07,30.69,23.36,2.19,3.29,2.03,5.5-.82,8.17-1.25,1.17-2.7,2.14-4.13,3.1-2.87,1.93-5.27,1.12-7.57-1.2-7.76-7.87-16.96-13.45-27.53-16.8-18.22-5.77-35.85-4.38-52.84,4.37-17.99,9.26-28.43,24.77-35.03,43.08-7.08,19.66-8.34,40.03-6.56,60.75,1.23,14.37,4.35,28.19,10.66,41.16,7.88,16.19,19.73,28.59,36.89,35.02,20.03,7.51,39.12,4.82,56.16-7.91,8.13-6.08,15.06-13.75,22.52-20.73,1.76-1.65,3.16-4.11,6.17-3.12,3.74,1.24,7.07,3.22,8.63,6.99.41.99-.14,2.74-.83,3.75-10.48,15.38-22.73,29.18-40.29,36.51-27.91,11.65-54.69,8.45-79.45-8.83-17.16-11.98-27.3-29.08-34.1-48.42-5.58-15.87-7.41-32.3-7.56-45.62Z"/>
  </g>
</svg>