<?xml version="1.0" encoding="utf-8"?>
<!-- Generator: Adobe Illustrator 25.2.3, SVG Export Plug-In . SVG Version: 6.00 Build 0)  -->
<svg version="1.1" id="Layer_1" xmlns="http://www.w3.org/2000/svg" xmlns:xlink="http://www.w3.org/1999/xlink" x="0px" y="0px"
	 viewBox="0 0 640 480" style="enable-background:new 0 0 640 480;" xml:space="preserve">
<style type="text/css">
	.st0{fill:#E0F0F5;stroke:#E0F0F5;stroke-miterlimit:10;}
	.st1{fill:#CFE1E7;}
</style>
<path class="st0" d="M251.5,67.5c-1.9,0.2-5.6,0.5-13,1c-8.1,0.6-12.4,0.9-18,1c-2.9,0.1-3.4,0-13,0c-10.3,0-15.5,0-18,0
	c-8.3,0.2-15.7,0.6-24,2c-4.1,0.7-6.9,1.4-10,3c-2.3,1.2-4.5,3.1-9,7c-4.4,3.8-5.1,4.8-5,6c0.2,2.4,3.4,4.2,5,5c4.2,2.2,6.2,1,8,3
	c2,2.2,1.9,6.5,0,8c-1.1,0.9-2.4,0.4-6,0c0,0,0,0-12,0c-9,0-9,0-9,0c-1.8,0.2-9.3,1-17,6c-3.4,2.2-7,7-7,7l-1.3,3.2
	c-0.5,1.2-0.8,2.4-1.1,3.7l-0.6,3.1c0,1-3,2-4,2c-6,0-4.6,0.6-15,2c-7,1-10.5,1.5-14,4c-4.5,3.2-6.4,7.7-7,9c-1.4,3.2-1.6,5.9-2,10
	c-0.4,4.2-0.6,6.4,0,8c1.8,5,7.9,7.4,12,9c5.9,2.3,8,1.5,10,4c0,0,1.6,2,2,2c0.3,0,1,2,1,3c0,1.1,1.2,10.1,6,16
	c9.2,11.5,35,5.9,44,4c15.1-3.3,17.1-7.1,33-9c8.8-1.1,22.3-2.5,26,4c1.9,3.3,1.5,8.5-1,11c-2.7,2.7-6,0.5-13,2
	c-5.8,1.2-5.3,3.1-16,8c-8.5,3.9-11.1,3.7-13,7c-2.3,3.9-1.5,8.4-1,11c1.6,8.9,7.9,14.1,9,15c2,1.6,6.2,4.5,23,6
	c12.8,1.1,27.9,2,33.5,1.9c0,0,1.1,0,2.5,0.1c4.4,0.2,8.4,0.4,12.3,2.8c0.4,0.2,1,0.6,1.7,1.2c2.6,2.1,5.8,6.3,5,9
	c-1.2,4-8.1,2.5-17,8c-3.1,1.9-10,6.2-12,14c-2.1,8.3,2.6,15.4,3,16c4.9,7.2,13.2,8.9,24,11c9.9,1.9,14.6,1.4,26,2
	c10.8,0.6,18.2,1.7,33,4c22.6,3.5,33.9,5.2,41,9c2.3,1.3,27.6,15.1,27,33c-0.4,10.2-8.8,11.7-12,27c-0.6,2.6-3.3,15.6,2,26
	c5.2,10.1,16.4,14.6,42,20c32.3,6.8,77.2,12.6,78,8c0.6-3.3-21.8-11.4-34-15c-18.3-5.4-26.7-4.9-33-13c-5.7-7.4-5.9-16.9-6-21
	c-0.1-3.6,0.2-12.2,5-21c5.8-10.6,14.9-15.7,23-20c21.4-11.4,29.3-5.4,46-17c3.8-2.6,11.4-8.1,17-18c4.4-7.8,5.4-14.4,7-27
	c2.4-17.9,3.5-26.9,0-35c-1-2.3-3-6.2-23-23c-13.6-11.4-20.4-17.1-24-19c-10.7-5.5-23.9-5.7-50-6c-19.9-0.2-29.8-0.3-41,1
	c-13.8,1.6-26.1,4.5-46,4c-10.7-0.3-19.2-1.4-21-6c-1.8-4.7,5.2-8.5,4-15c-1.6-8.9-16.8-13.1-20-14c-12.8-3.6-16.6,1-28-3
	c-3.7-1.3-15.4-5.4-17-14c-1.5-7.8,5.8-16,12-20c12.8-8.4,22.9-0.6,33-9c5.9-4.9,9.5-13.6,8-21c-2.2-10.6-28.3-4.9-36-7
	c-7.9-2.1-7.1-10.3-5-13c3-4,13.7-4.7,23-11c19.3-13.2,36-6.3,53-19c10.8-8,12.6-24.4,10-26c-2.5-1.6-8.8,10.8-25,17
	c-7.3,2.8-6.2,0.3-22,4C266.8,63.7,263.4,66.1,251.5,67.5z"/>
<path class="st1" d="M189.5,69.5c0.6,3.1-34.2,9.2-34,19c0.1,5.5,11.1,7.1,11,12c-0.3,9.5-42.5,14.7-42,21c0.2,2.9,9.5,3.2,10,7
	c0.3,2.5-3.4,5.5-17,12c-19.8,9.4-26.5,10.1-27,14c-0.6,5.1,10.3,11.9,21,14c11.1,2.2,15.4-2,32-5c7-1.3,19.3-1.2,44-1
	c25.2,0.2,28.6,1,32,4c8,7.1,10.1,21.4,6,32c-5.8,15.1-21.7,16.4-22,27c-0.3,9.6,12.4,17.1,14,18c15.1,8.6,27.3,0.7,59-3
	c21-2.5,13.3,1.3,61,0c28.3-0.8,40-2.3,47,6c5.3,6.2,7.8,17.8,3,25c-9.9,14.9-42.2-1.3-59,17c-4.3,4.6-8.5,12.5-6,18
	c1.8,4,7.4,7,38,8c33.7,1.1,46.3-2,52,6c3.9,5.4,3,13.8,0,19c-5.2,9-14.8,5.4-26,14c-12,9.2-15,24.1-17,34c-2.2,11-4.2,20.6,1,29
	c3.8,6.1,11.5,9.1,27,15c8.7,3.3,17.6,6.6,30,8c9.8,1.1,10.5,2.1,20.5,3.5c9.9,1.4,22.8,1.8,22.5,4.5c-0.1,0.7,1.4,0.6-13.5-0.5
	c-36.1-2.7-64.1-7.5-96-21c-3.9-1.6-8.5-8.6-8-24c0.1-2.7-1.9-13.2,8-25c5-6,4-12,2.5-19.5c-1.5-7.7,0.5-5.5-2-16
	c-2-8.2-13-9.9-20.6-11.1c-4-0.7-7.9-1.8-11.6-3.5c-10.8-5-38.5-15.2-82.8-13.3c-30.2-6.5-35.8-11.2-36-15c-0.3-4.6,7.4-9.5,13-13
	c8.1-5.1,13.1-5.3,21-12c4.3-3.6,5.9-6.2,6-9c0.1-4-3-7.1-4-8c-7.6-7.3-18.6-2.3-38-4c-20.7-1.8-34.6-9.9-38-12
	c-5.5-3.4-16.9-8.7-16-13c0.8-4,11-2.2,24-8c11.6-5.2,25.7-16.4,24-25c-1.6-8-16.4-11.9-25-13c-29.4-3.7-41.1,18.7-63,12
	c-4.5-1.4-1.4-1.5-27-19c-17.3-11.8-22.4-14.2-22-18c0.9-7.5,23.4-14.1,40-19c3.3-1,13.1-3.8,13-7c-0.1-2.6-6.8-3.3-8-8
	c-0.8-3.1,1.4-6.2,2-7c4.2-5.4,11.1-3.1,24-6c6.2-1.4,17.9-4,19-10c0.8-4-6.6-5.6-7-11c-0.5-6.6,9-12.2,12-14
	C173.6,66.7,189.1,67.5,189.5,69.5z"/>
</svg>
