<?xml version="1.0" encoding="utf-8"?>
<!-- Generator: Adobe Illustrator 25.2.3, SVG Export Plug-In . SVG Version: 6.00 Build 0)  -->
<svg version="1.1" id="Layer_1" xmlns="http://www.w3.org/2000/svg" xmlns:xlink="http://www.w3.org/1999/xlink" x="0px" y="0px"
	 viewBox="0 0 1836.3 2733.7" style="enable-background:new 0 0 1836.3 2733.7;" xml:space="preserve">
<style type="text/css">
	.st0{fill:#DFDFDF;}
	.st1{fill:#BCE1E9;}
	.st2{fill:#A3A3A3;}
	.st3{fill:#DEF9FF;}
	.st4{fill:#FFFFFF;}
	.st5{fill:#F06464;}
</style>
<polyline class="st0" points="79.1,876.7 13.7,953.7 14.4,976.5 61.9,1029.6 373.8,1232 378.4,1292.5 402,1336.8 501.7,1390.7 
	525.6,1385.1 450.7,1291.6 446.9,1197.8 471.1,1142.2 466.7,1024.2 451,977.4 406.5,936.3 369.7,944.1 369.2,973.2 398.4,982.7 
	374.8,1033.3 288.8,1070.9 226.8,1039.4 200.5,966.7 156.7,929.4 79.1,876.7 79.1,876.7 79.1,876.7 79.1,876.7 "/>
<g>
	<path d="M564.6,1936.4c-12.2-12.8-12.2-28.1-10.1-44.1c0.3-2.6-0.8-5.6-1.9-8.1c-2.9-6.6-5.9-13.2-9.3-19.6
		c-2.3-4.4-5.6-8.2-7.8-12.6c-4.7-9.2-8.6-18.6-8.2-29.3c0.2-6.4-1.2-12.3-6.5-17c-2.1-1.8-3.5-5.1-3.9-7.9
		c-0.8-6.3-4.6-8.8-10.2-8.7c-15.4,0.2-27.2-8.1-38.6-16.5c-8.1-6-17.1-11.2-21.4-21.4c-9.1-21.8-16.3-43.8-17.8-67.9
		c-1.7-27.6-2.3-55.1-2.3-82.7c0-21.6,4.3-42.2,13.4-61.8c5.4-11.7,11.2-23.3,17.2-34.7c8-15.3,20.2-26.1,36.5-31.9
		c7.5-2.6,15.1-5.1,22.3-7.5c1.1-16.8,2.3-33.8,3.4-51.1c-10.6-4.5-21.6-8.9-32.3-13.8c-17.4-8-34.9-16.3-49.6-28.7
		c-12.6-10.6-25.4-21.5-35.5-34.3c-10.3-13-19.1-27.4-23.6-44.3c-5-18.8-9.4-38-19.2-55.2c-1.6-2.8-3.3-6-5.8-7.7
		c-14.3-9.6-28.8-19-43.5-27.9c-9.9-6-20.5-10.9-30.4-16.9c-14.7-8.9-29-18.4-43.5-27.5c-4.7-3-9.8-5.3-14.5-8.4
		c-8.3-5.4-16.3-11.3-24.6-16.7c-8-5.3-16.4-10-24.3-15.4c-10.9-7.4-21.5-15.1-32.1-22.9c-11.6-8.6-23-17.5-34.4-26.5
		c-3.6-2.8-6.8-6.2-10.3-9.1c-11.3-9.6-23.2-18.6-33.9-28.8c-17.3-16.3-35.9-31.5-47.5-53c-1.7-3.1-4.8-5.9-5.5-9.1
		c-1-5.1,1.6-9.4,4.7-13.6c9.5-12.8,18.1-26.2,27.8-38.8c5.4-7,12.5-12.8,18.8-19.1c6.3-6.4,12.7-12.6,18.8-19.2
		c3.1-3.3,6-4.9,10.4-2.4c8.5,4.9,18,8.4,25.6,14.5c12.8,10.2,27.5,17.1,41,26c12.9,8.4,24.4,18.3,34.1,29.9
		c5.1,6.1,8.2,14.3,10.3,22.1c5.1,18.3,12.5,35.5,23.7,50.8c7.6,10.4,16,20.6,25.7,29c6.2,5.4,15.2,8.3,23.4,10.4
		c6.8,1.7,14.4,1.2,21.6,0.5c19.9-2,38.1-9.5,54.9-19.7c8-4.9,15-12,21.4-19.1c5.4-6.1,10-13.3,13.5-20.7c2.3-4.8,2.7-10.8,2.8-16.3
		c0-7.1-1.5-8-8.4-8c-3.3,0-6.7,0.3-9.8-0.4c-7.5-1.6-11.1-7.4-9.5-14.8c1.4-6.1,4.2-11.2,10-14.2c4.1-2.2,8.6-4.1,12-7
		c8.2-7,16.1-5.2,24.7-0.8c13.2,6.7,24,16.6,35.3,25.6c3.9,3.1,6.8,7.1,5.3,14c-2.4-0.9-4.9-1.3-6.7-2.7c-9-6.8-17.5-14.2-26.8-20.5
		c-5.9-4-12.9-6.4-19.9-9.8c-7.9,6.9-17.6,10.4-26.6,18.8c3.5,0.6,4.6,1,5.7,0.9c14.7-2.1,25,5.6,25.6,20.2
		c0.3,7.2-0.4,14.3-3.5,21.3c-4.9,11-10.8,21-20,29.3c-6.9,6.2-12.9,13.3-21.1,18c-20.2,11.4-41.2,20.6-64.9,19.7
		c-25.2-1-46.9-10.3-62-31.6c-8.6-12.2-17.8-24.1-25.3-36.9c-4.8-8.1-7-17.6-10.4-26.5c-3-7.7-4.6-16.5-9.5-22.7
		c-7-8.9-14.8-17.7-24.9-23.9c-19.1-11.7-38.1-23.8-57.2-35.5c-2.8-1.7-6.1-2.6-9.1-4c-4.3-2.1-7.8-0.4-10.8,2.6
		c-4.7,4.7-8.7,10-13.7,14.3c-12,10.4-20.3,23.5-28,37.1c-3.5,6.3-8.7,11.6-13.1,17.4c-5,6.7-4.9,7.8,1,14.3c2,2.2,3.9,4.5,5.6,6.9
		c8.6,12.4,20,21.9,31.3,31.7c6.5,5.7,12.8,11.6,19.2,17.4c9.5,8.5,18.7,17.5,28.7,25.4c18.1,14.4,36.3,28.6,55.1,42.2
		c11.2,8.1,23.5,14.9,35.3,22.2c18.6,11.4,37.1,22.9,55.8,34.2c19,11.4,38.3,22.5,57.4,34c11.6,7,22.9,14.5,34.3,21.8
		c2,1.2,3.9,2.9,6.1,3.3c10,1.9,14.1,10.2,19.3,17.3c0.6,0.8,0.9,1.8,1,2.8c4.6,26.5,13.9,51.6,24.7,76.1c3.4,7.7,9.2,14.6,15,20.9
		c12.9,14.3,28,26.6,43.9,37.1c13.4,8.9,28.7,14.9,43.3,21.9c2.8,1.3,6.2,1.3,10.3,0.6c-2.6-2.7-4.9-5.9-7.9-8.2
		c-14.9-11.4-24.6-27.1-35.9-41.7c-4.8-6.2-7.8-15.3-18.2-15.1c-4-15.1-11.4-28.6-13.3-44c-3.4-29.1-2.5-57.5,10.3-84.5
		c10.5-22.3,13.6-45.9,12.4-70.3c-1.7-35.2-3-70.4-4.8-105.5c-0.8-14.9-2.5-29.8-3.5-44.7c-0.9-13.2-0.9-26.5-2.3-39.7
		c-2.8-28.2-6.4-56.4-9.3-84.6c-1.7-16.8-2.5-33.7-4.2-50.6c-1.5-15.5-3.8-30.9-5.5-46.4c-1.2-10.9-2.3-21.8-2.9-32.8
		c-1.4-24.2-4.2-48.1-8.2-72c-2.8-16.3-5.6-32.5-8.1-48.8c-0.5-3.4-0.8-7.6,0.6-10.5c2.5-5.3,1.5-8.1-3.2-11.6
		c-14.8-10.7-29.4-21.7-43.7-33c-16.6-13.2-32.6-27-49.1-40.2c-17.5-14-35.3-27.6-52.8-41.7c-7.9-6.4-15.3-13.6-22.8-20.6
		c-18.1-16.6-36.3-33.1-54.1-50c-7.2-6.8-13-14.9-20.1-21.8c-12.1-11.8-20.9-25.9-30.1-39.9c-8.3-12.6-13.5-26.5-17.1-40.9
		c-3.1-12.1-5.1-24.5-6.8-36.9c-1.4-9.8-2.2-19.7-2.2-29.6c0-10.5-2.2-21,0.2-31.6c1-4.5,2.4-7.3,7.6-8.5c7.9,6.6,18,9.2,28,12.7
		c6.9,2.4,12.6,7.9,18.9,12.1c1.6,1.1,2.9,3.1,4.5,3.3c13,2,22.2,11,32.6,17.8c9.4,6.2,19.3,11.9,27.8,19.2
		c17.8,15.3,38.7,26.3,56.9,41c6.9,5.6,13.3,11.6,20.1,17.3c9.4,7.8,19.1,15.3,28.3,23.3c18,15.8,35.6,31.9,53.5,47.7
		c11.2,9.8,22.6,19.3,35.6,30.3c0.7-4.6,1.8-7.3,1.4-9.9c-4-27-3.7-54.2-3.4-81.4c0.2-21.6-0.1-43.2,0.4-64.8
		c0.8-30.4,2.1-60.7,3.2-91.1c1-27.2,1.8-54.5,2.9-81.7c0.2-5.1-1.4-11.5,4.4-14.3c6.6-3.1,9.5,3.8,12.7,7.2
		c20.9,21.8,42.1,43.3,61.6,66.2c12,14,21.9,29.9,31.4,45.8c6.6,11,10.4,23.5,11.6,36.7c2.1,23.5,5.1,46.9,7.2,70.3
		c1.8,21.2,2.6,42.5,4.5,63.6c1.7,18.8,3.9,37.6,6.6,56.3c3.9,27.2,6.9,54.4,8,81.9c0.1,3.3,1.9,7.1,0.8,9.8c-4.3,11,2,17,8.9,23.8
		c13.4,13.2,26.1,27.2,39.3,40.7c12.5,12.8,24.8,25.9,38,38.1c20.4,18.7,37,40.7,55.8,60.7c15,16,28.9,32.8,43.4,49.2
		c11,12.4,21.5,25.4,33.3,36.9c13.2,12.9,27.7,24.5,42.1,37c3.1-2.6,5.4-4.4,7.5-6.4c12-11.4,23.7-23,34.7-35.4
		c12.4-13.8,26.5-26.1,39.7-39.2c22.4-22.2,45.3-43.8,65.4-68.2c12.9-15.6,27.8-29.4,41.4-44.3c14.6-16,31.3-29.4,47.7-43.4
		c18.2-15.5,35-32.5,52.9-48.3c15.9-14.1,32.2-27.7,48.6-41.2c14.3-11.8,29.6-22.5,43.3-35c21.9-20,45.9-36.8,70.9-52.5
		c11.4-7.2,21.3-16.8,32.1-25.1c6.6-5,13.2-10.1,20.3-14.3c13.5-8,24.2-19.6,36.4-29.2c5.7-4.5,11.2-8.1,18.6-8.4
		c1.9-0.1,3.8-1.6,5.5-4.2c-4.4-0.9-8.7-2.3-13.1-2.7c-16.8-1.8-33.6-3.8-50.5-4.7c-19.9-1.1-39.9-0.6-59.7-1.7
		c-16.2-0.9-32.3-3.1-48.4-5.1c-22.7-2.8-45.4-5.8-68.1-8.8c-15.5-2-30.9-4.3-46.4-6.3c-20.7-2.6-41.6-4.5-62.2-7.8
		c-21.3-3.4-42.4-8.1-63.6-12.3c-8.8-1.7-17.5-3.5-26.3-5.3c-24.3-5-46-16.9-68.8-25.8c-17.7-6.9-34.1-16.1-49.5-27
		c-12.7-8.9-24.6-19.1-37.5-27.6c-10.2-6.7-18.2-16.5-29.8-21.2c-6.6-2.7-10-7.2-9-14.7c0.4-2.5-0.4-5.2-0.8-8.8
		c6.3-3.3,12.5-7.1,19.1-10c17.5-7.8,35.6-14.5,52.7-23c10.7-5.4,21.6-9.9,32.5-14.5c9.6-4.1,19.4-7.3,29.7-7.4
		c23.2-0.1,46.5,0.5,69.8,0.8c3.3,0,6.6,0.3,9.8-0.1c22.8-2.8,45,2.5,67.3,5.4c29.6,3.8,59.2,7.7,88.8,11.9
		c20.4,2.9,40.7,6.4,61.1,9.3c17.4,2.4,34.9,4.5,52.3,6.5c22.8,2.6,45.6,5.1,68.3,7.5c11.9,1.3,23.9,2.1,35.7,3.6
		c12.2,1.5,24.3,3.9,36.4,5.5c20.1,2.7,40.2,5,60.2,7.6c23.6,3,47.5,3.6,70.7,10.5c13.3,3.9,27.5,4.5,41.1,7.3
		c19.1,3.9,38.2,7.9,57.1,13c8.8,2.4,16.8,7.7,25.4,11.3c6.7,2.8,13.5,5.6,20.5,7.4c13.2,3.3,26.7,5.5,39.8,9
		c5.9,1.6,11.7,4.7,16.8,8.3c8.2,5.6,15.7,12.1,23.5,18.4c16.8,13.6,26.5,31.9,33.1,52c7.6,23.1,7,46.9,4.5,70.8
		c-3.1,30.7-13,59.6-23.2,88.3c-4.7,13.3-13,25.3-20.1,37.6c-7.6,13.2-15.8,26.1-23.9,39c-3,4.7-6,9.7-9.8,13.7
		c-23.2,24.3-42.7,51.6-62.3,78.8c-1.7,2.4-3.6,4.7-5.7,6.9c-12.4,13-24.6,26.1-37.3,38.7c-7,7-15.1,12.8-22.4,19.5
		c-13.2,12-26.4,24.1-39.4,36.4c-23.3,22.2-46.6,44.4-69.6,66.9c-17.5,17.2-34.4,35.1-51.7,52.5c-7.9,8-16,15.8-24.5,23.2
		c-4.9,4.3-4.4,8.6-2.9,14.2c5.5,20.1,14.6,39.2,17.7,60c0.9,5.9,1.4,11.9,1.2,17.9c-0.3,7.7-2.3,14.4-9.6,19.5
		c-10.6,7.4-20.3,16.1-30.1,24.4c-1.6,1.3-2.9,3.7-3.3,5.8c-2.5,16.5,0.3,32.4,7.3,47.5c3.2,6.8,9.7,9.4,16.7,8.5
		c12.8-1.6,25.6-3.9,38.2-6.6c10-2.2,14.3-1.8,19.5,6.8c5.3,8.8,9.6,18.2,13.7,27.6c1.9,4.3-0.1,8.7-2.9,12.8
		c-7.3,10.8-17.7,17.7-28.6,24.3c-7.7,4.6-15.2,9.6-22.4,14.8c-3.6,2.7-6.4,6.4-11.1,11.2c4.5,0.8,6.9,1.7,9.3,1.5
		c11.6-1,23.1-2.9,34.6-3.2c11.2-0.4,22.5-0.1,33.5,1.4c13.5,1.9,21.2,13,23.1,26c3.1,21.3-7.3,34-24.2,43.4
		c-8.1,4.5-16.5,8.7-22.7,15.9c-2.5,2.9-4.8,6-7.8,9.6c12.9,3.2,23.9,3.8,35.5-0.1c7.8-2.6,17-5.9,24.6,1.1
		c3.8,3.5,7.6,7.7,9.4,12.4c3.9,10.1,7.7,20.5,9.6,31.1c2.5,13.8,0.6,26.5-13,35.6c-8.6,5.7-17.9,11.5-24.1,22
		c4.6,1.6,8.7,3.2,12.9,4.4c3.8,1.1,7.9,1.3,11.6,2.7c3.5,1.3,6.2,0.8,9.4-0.7c2.4-1.1,6.1-2,8.2-0.9c9.5,5,16.5,12.4,20.4,22.9
		c4.1,11.1-0.7,18.8-8.3,25.4c-5.5,4.8-11.6,9.2-18.1,12.2c-4.6,2.2-10.4,2.8-15.5,2.3c-9.2-0.9-11.7-8.2-6-15.6
		c1.2-1.5,2.3-3.1,4.2-5.5c-2.7-0.3-4.2-0.7-5.6-0.6c-12.4,1.5-21.5-5-30.1-12.5c-1-0.9-1.5-2.6-2.6-3
		c-14.1-4.8-13.8-18.5-17.8-29.2c-4.5-12.2-0.4-22.8,9.4-31.1c6.1-5.1,12.8-9.4,18.7-14.7c4.4-3.8,8-8.6,13.1-14.2
		c-3.8-0.4-6.1-0.7-8.5-0.8c-11.2-0.4-22.3-1.8-33.7-1c-18,1.2-33-9.5-39.9-27.3c-5.8-15,1.3-37.6,14.4-47.5
		c8.1-6.1,16.3-12.1,24.7-18.3c-0.6-0.7-1.1-1.8-1.8-1.9c-7.9-1-15.8-1.9-23.7-2.6c-2-0.2-4.2-0.3-5.9,0.5
		c-14.5,6.9-28.3,0.4-41.4-3.8c-15.5-4.9-23.2-23.6-20.7-39.9c2.2-14.1,12.5-20.3,22.7-27c7.7-5.1,15.6-10,22.9-15.6
		c3.2-2.5,5-6.6,8.8-11.9c-7.5,0.7-12.6,1.6-17.7,1.7c-11.2,0.2-22.5,0.6-33.7-0.4c-5-0.4-10.6-3.1-14.2-6.6
		c-10-9.6-20.7-19-25.6-32.4c-3.8-10.3-6.6-20.9-9.4-31.5c-4.6-17.7-8.9-35.4-13.4-53.1c-0.3-1.1-1.4-2.1-2.5-3.8
		c-7.5,7.4-13.4,14.9-14.7,25.3c-0.3,2.6-0.9,5.3-2.2,7.5c-11.6,21-17.7,44.2-26,66.5c-10.7,28.5-21.3,57.1-32,85.6
		c-7.6,20.4-15.2,40.9-22.8,61.3c-2.9,7.7-6,15.4-8.6,23.2c-8.2,24.1-16,48.4-24.5,72.5c-9.2,26.3-19,52.4-28.5,78.5
		c-5.5,15.3-11.2,30.5-16.6,45.8c-9.1,26-18.2,52-27.1,78c-4.5,13.2-8.1,26.6-12.6,39.8c-4.6,13.5-10.1,26.6-14.7,40.1
		c-7.4,21.7-14.4,43.5-21.5,65.3c-2.9,8.8-5.7,17.6-8.9,26.2c-0.7,2-2.7,4-4.6,4.8c-3.9,1.7-8.1,3.3-12.3,3.7
		c-16.6,1.7-27.4,10.5-33,26.1c-2.6,7.2-5.8,8.2-12.9,4.9c-16.8-7.8-33-17-50.9-21.9c-7.6-2.1-15.4-4-23.2-4.6
		c-9.6-0.7-18.1-3.8-26.6-7.7c-4.4-2-4.8-5.4-2.1-9.8c11.1-17.8,10.4-30.1-2.4-47.4c-2.7-3.7-5.6-7.5-7.3-11.6
		c-3.9-9.2-6.5-18.5-2.4-28.8c3.2-7.9,4.9-16.3,8.7-24.2c6.7-14,12.4-28.6,18.2-43.1c7.6-19,15.1-38.2,22.4-57.4
		c6-15.8,11.5-31.8,17.7-47.5c7-17.9,14.5-35.7,21.9-53.5c12.1-29.1,24.3-58.1,37.1-88.6c-3.4,2.7-6.1,4.7-8.5,6.8
		c-14.9,13.2-30.7,25.5-44.4,39.9c-17.2,17.9-37.8,31.4-56.8,46.9c-16.7,13.6-33.5,27.2-50.7,40.2c-11.3,8.6-23.6,16-35.1,24.4
		c-21.1,15.2-43.8,27.7-67.5,38.3c-12.6,5.7-26.2,9.1-40.1,10.2c-27.1,2.2-53.6-0.8-79.5-9.3c-2.4-0.8-5.1-0.5-9.3-0.9
		c1.5,10.3,2.7,19.7,4.2,29c1.9,11.8,4.4,23.5,2.3,35.5c-0.7,4.3,0.5,7.6,3,11.1c11.3,16.6,18,35,23.2,54.4
		c7.7,28.4,8.1,56.6,1.4,85.2c-4.3,18-7.3,36.4-12.7,54.1c-4.1,13.5-11,26.1-17.2,40.4c1.8,3.1,5,7.4,6.9,12.2
		c1.8,4.5,3.8,9.7,3.1,14.2c-2.1,12.1-4.5,24.4-13.2,33.9c-4.1,4.6-9.3,8.2-14.9,13.1c7.7,1.3,14.4,2.1,21,3.5
		c15.7,3.4,24.3,13.9,24.7,30.1c0.1,5.3,1.6,8.8,6.6,12c13.3,8.7,18.7,22.7,21.4,37.6c0.9,5,0.1,10.3,0.1,16.5
		c2.9-0.4,6.1,0,8.6-1.2c14.1-6.6,27.9-13.6,42-20.2c5.4-2.5,11-5,16.8-6.1c8.8-1.6,16,6.8,15.5,15.7c-1.4,23.9-7.2,47-12.1,70.4
		c-4.2,19.8-7,39.9-10.4,59.9c-0.8,4.9-1.4,9.9-2.9,14.6c-5.7,17.5-7.7,35.6-9.6,53.8c-0.8,7.6-2.5,15-3.7,22.5
		c-0.3,1.9,0,3.9,0,6.8c3.3-0.6,6-0.5,8.2-1.6c7.4-3.7,14.4-8,21.9-11.7c13.4-6.5,27.2-12.5,40.5-19.1c8.9-4.4,17.9-8.9,25.9-14.8
		c10.5-7.7,22-12.1,34.7-15.3c4.6,5,6.5,10.3,4.5,17.1c-4.9,16.8-8.9,34-14.3,50.6c-6,18.5-13.4,36.6-19.7,55.1
		c-5.8,16.9-10.7,34.2-16.4,51.1c-3.9,11.6-8.6,22.9-12.9,34.4c-9,24.3-17.8,48.6-26.8,72.8c-3.1,8.4-7.2,16.4-10.3,24.7
		c-3.5,9.3-6.3,18.8-9.5,28.3c-7.6,22.3-15.4,44.5-22.8,66.8c-7.1,21.3-14.2,42.5-23.1,63.2c-15.7,36.2-31.1,72.5-46.1,108.9
		c-7.1,17.1-13,34.7-19.6,52c-1.4,3.7-3.4,7.1-5.1,10.6c-7.7-0.1-8.6-5.7-8.7-10.4c-0.6-19.8-0.7-39.7-0.8-59.5
		c-0.1-24-0.3-47.9,0.2-71.9c0.5-23.9,1.8-47.9,2.8-71.8c0.5-13.2,1.2-26.5,1.7-39.7c0.6-15.2,1.2-30.3,1.7-45.5c0.1-4-0.2-8-0.4-12
		c-0.8-19.9-1.7-39.7-2.5-59.6c-0.1-4,0.7-7.9,0.5-11.9c-0.5-12.6-1.2-25.1-1.9-39.6c-5.2,2-9.2,3.2-12.8,4.9
		c-5.4,2.5-10.4,5.9-15.9,8c-9.7,3.8-18.3,9.1-26.5,15.6c-5.7,4.5-12.3,7.9-18.8,11.2c-14.2,7.2-28.5,14.2-42.9,21
		c-5.4,2.5-11.2,4-16.9,5.8c-4.7,1.5-8.4-1.1-7.5-5.8c2.5-14.3,5.5-28.5,8.1-42.8c2.2-12.1,4-24.2,5.9-36.4
		c3.5-22.6,6.9-45.2,10.2-67.8c3.2-22,6.1-44,9.3-66c2.7-18.3,5.9-36.6,8.8-54.8c1-6.5,1.6-13.2,2.7-19.7c3.9-23.5,8.2-47,9-70.9
		c0.2-5.6,2.2-11.7-5.1-15.6c-3.4-1.8,0-8.6,5.5-10.2c4.5-1.3,9.1-2.4,13.7-2.9c13.6-1.2,25-8.4,37.2-13.3c2-0.8,3.5-3.5,4.8-5.5
		C562.5,1941.7,563.2,1939.5,564.6,1936.4z M1748,416.4c-7-1.3-8.7,2.7-10.3,5.4c-10.4,17.5-23,33.6-37.3,47.7
		c-26.9,26.6-55.2,51.7-83.2,77.1c-6.1,5.5-13.2,9.9-20.2,14.4c-1.6,1-5,1.3-6.2,0.2c-1.4-1.1-1.7-4.1-1.6-6.3
		c0.1-1.8,1.3-3.7,2.3-5.4c12.1-18.3,26.5-34.9,41.9-50.4c12.8-13,27.2-24.5,36.8-40.4c4.6-7.7,9.9-14.9,14.7-22.5
		c10.5-16.4,22.6-31.9,27.5-51.3c2.4-9.6,5.8-18.9,8.4-28.5c1.7-6,3.8-12.1,4.1-18.2c1-17.2,1.6-34.4,1.5-51.6
		c0-11.1,0.5-22.1-2.2-33.4c-2.3-9.2-7-14.7-14.3-18.9c-5.7-3.3-12-5.5-17.6-8.9c-16.3-10.1-34.4-14-53.1-14.9
		c-8.1-0.4-16.7,1-24.5,3.3c-6.1,1.8-11.3,6.6-17.2,9.6c-12.7,6.5-25.6,12.5-38.4,19c-12.7,6.4-25.6,12.6-37.7,19.9
		c-19.1,11.4-35.5,26.9-55.9,36.3c-0.9,0.4-1.7,1.1-2.5,1.7c-14,11-28.2,21.9-42.1,33.2c-10.3,8.4-20,17.4-30.3,25.9
		c-9.5,7.8-19.5,14.9-28.9,22.8c-27.7,23.2-54.1,47.9-82.8,69.9c-11.1,8.5-21.6,17.6-32.3,26.6c-8.6,7.2-17.8,14-25.4,22.2
		c-13.4,14.6-30.9,23.7-45.8,36.2c-13.4,11.3-28,21.2-41.5,32.3c-14.7,12.1-28.8,24.9-43,37.6c-11.8,10.5-23.6,21.1-35.2,31.8
		c-18.2,16.9-36.2,34-54.3,50.9c-6.5,6.1-13.3,11.8-19.5,18.1c-13.3,13.4-26.4,27-39.5,40.6c-8.3,8.6-16.1,17.6-24.6,25.9
		c-19.3,18.8-38.8,37.3-58.2,55.9c-5.3,5.1-11,9.7-15.9,15.1c-16.5,18.2-32.8,36.5-51.7,52.4c-18.3,15.4-36.3,31.2-54.3,46.9
		c-23.8,20.7-48.1,40.9-71.1,62.4c-21.1,19.7-40.7,40.9-61,61.5c-9.3,9.4-18.8,18.7-27.6,28.6c-9.7,10.9-19.2,22-28,33.7
		c-10.2,13.5-20.2,27.2-28.9,41.6c-7.7,12.7-13.3,26.6-20,39.9c-5.7,11.3-8.2,23.2-6.7,35.6c1.5,12.8,5,25.5,5.7,38.3
		c1,18.7,14,30.5,22.9,44.7c1.1,1.7,3.1,2.9,4.9,4.5c7.8-7.3,15-14.1,22.3-20.8c1.7-1.6,3.4-3.5,5.5-4.2c8.4-3,14.2-9.6,20.8-15
		c7.2-5.9,7.7-6.5,13.7,0c12.4,13.3,24.2,27.2,36.2,41c1.2,1.4,2.3,4,1.7,5.4c-2.1,5-4,10.8-7.7,14.5
		c-10.4,10.2-21.7,19.6-32.7,29.3c-8.1,7.1-16.3,14.2-25,21.7c18.2,10.7,35.4,20.2,55.2,23c15.8,2.2,31.7,3.4,47.6,4.2
		c11,0.6,22.3-0.3,32.1-5.5c6.8-3.6,13.8-5.6,20.9-7.9c16.9-5.6,31.9-15,46.3-25c19.3-13.5,38.3-27.5,57.1-41.7
		c22-16.7,44.3-33,65.3-50.9c30.5-26,60.1-53.2,89.8-80.2c24.8-22.5,49.4-45.2,73.8-68.1c17.1-16.1,33.7-32.7,50.4-49.2
		c15.8-15.6,31.4-31.5,47.3-47.1c23.2-22.8,46.8-45.2,69.8-68.3c13.8-13.8,26.5-28.8,38.7-44.1c11.7-14.7,26.2-27.2,39.7-40.5
		c14.4-14.1,29.4-27.7,43.7-42c20.4-20.5,40.4-41.4,60.6-62.1c16.7-17.1,33.3-34.4,50.2-51.3c17.9-17.8,35.9-35.5,54.3-52.7
		c20.2-18.9,39.2-39.2,60.3-57.2c16.9-14.4,32.1-30.8,49.1-45.2c18.9-15.9,31.7-36.6,47-55.3c9.6-11.8,18.6-24.2,28.5-35.7
		c7.4-8.6,14.9-16.9,20.1-27.1c2.1-4.1,4.8-7.9,7.2-11.9C1727.4,449.9,1737.3,433.8,1748,416.4z M784.3,127.7c2,1.7,3.3,3.1,4.9,4.2
		c16.1,11.6,32.1,23.4,48.3,34.8c19.7,14,39.5,27.7,62.3,36.9c20.3,8.1,39.6,18.3,61.3,23c20.4,4.4,40.5,10.3,61,14.1
		c24.8,4.6,49.9,7.7,74.8,11.3c16.7,2.4,33.5,4.7,50.2,6.9c25,3.3,50,6.5,75,9.7c22.1,2.9,44,6.2,66.4,6.4c18.9,0.1,37.9,1.3,56.7,3
		c19.8,1.8,39.7,3.9,59.1,7.9c11.3,2.4,18.4-1.6,25.3-8.9c0.7-0.7,1.5-1.4,2.2-2.1c16.4-16.2,34.9-29.5,54.3-41.9
		c15.4-9.8,31.6-18.5,46.6-28.9c15.2-10.5,31.9-17.3,49.1-23.1c10.6-3.6,22.1-4.3,33.2-6.1c6.2-1,12.4-1.7,18.7-2.5
		c0-0.7,0.1-1.5,0.1-2.2c-7.8-3.3-15.4-7.6-23.5-9.8c-13.4-3.6-27-6.1-40.6-8.8c-13.3-2.6-26.7-5.1-40.1-7.3
		c-21.3-3.4-42.6-6.5-63.9-9.5c-16.1-2.3-32.1-4.3-48.2-6.4c-18.7-2.5-37.5-5.1-56.2-7.4c-9.8-1.2-19.7-1.6-29.5-2.7
		c-14.2-1.6-28.3-3.9-42.5-5.4c-27-2.9-54-5.3-81-8.5c-15.5-1.8-30.8-5-46.3-7.2c-18.7-2.7-37.4-5.2-56.1-7.6
		c-20-2.5-39.9-4.8-59.9-7.3c-21.1-2.6-42.1-5.8-63.5-5.6c-16.9,0.1-33.9-0.7-50.8-1.1c-14.9-0.3-30-1.4-44.5,3.7
		c-20.7,7.3-40.4,16.7-59.9,26.7c-4.7,2.4-9.5,4.6-14.5,6.4C802.7,116.1,793.5,121.1,784.3,127.7z M787.2,837.8
		c-5.4-5.9-10.7-11.6-16-17.3c-16.4-17.9-32.8-35.7-49-53.7c-10-11-19.9-22.2-29.6-33.5c-12.6-14.7-25-29.7-37.6-44.5
		c-6-7-12.3-13.8-18.3-20.8c-9.7-11.2-18.8-23-29-33.7c-9.6-10-20-19.2-30.8-27.9c-8.4-6.8-17.7-12.4-28.4-13.2
		c-2.1,3.2-3.5,5.8-5.4,7.9c-7.3,8.1-14.7,16-22.2,24c-18.7,20-21.7,45-21.5,70.5c0.1,11.5,3.1,22.9,4.9,34.3
		c1.9,12.1,4.4,24.1,6,36.3c2.1,15.4,3.5,30.8,5.3,46.2c3.6,30.2,7.5,60.5,11,90.7c3.3,29,2,58.3,6.6,87.2c2.9,18,4.1,36.2,6.5,54.2
		c0.5,3.5,0.3,8,5.2,11.1c5.4-5.5,10.5-11.1,16-16.4c11.5-11.1,23-22.1,34.7-32.9c7.3-6.8,15.7-12.5,22.3-19.8
		c14.6-16.1,31.3-29.7,47.9-43.5c16.6-13.8,33.8-27,49.8-41.4c22-19.8,43.2-40.4,66.6-58.5C783.8,841.9,784.9,840.2,787.2,837.8z
		 M896.9,1576.2c2.2,1.6,3.1,2.7,4.2,3.1c17,6.5,33.9,13.4,51.1,19.2c11.5,3.9,23.5,6.2,35.3,9.3c0.6,0.2,1.3,0.4,1.9,0.5
		c8.8,1.5,9,1.4,12.1-7.2c8.9-25,17.7-50,26.8-74.9c3.9-10.6,8.7-20.8,12.5-31.4c6.1-17.1,11.5-34.4,17.5-51.5
		c4.9-14,10.1-27.9,15.1-41.9c2.6-7.1,5.5-14.2,7.7-21.4c7.2-23.4,13.3-47.2,21.3-70.3c9.8-28.4,21-56.4,31.9-84.4
		c4.6-12,10.2-23.6,14.9-35.6c3.3-8.3,5.5-17.1,8.8-25.4c9.6-24.2,19.7-48.3,29.4-72.5c4.6-11.4,8.6-23,13.2-34.3
		c5.1-12.5,10.7-24.9,16-37.3c0.8-1.9,1.1-4.1,2.2-8.4c-13.4,12.8-25.3,23.9-36.8,35.3c-27.3,27.2-54.3,54.7-81.7,81.8
		c-12.8,12.6-26.5,24.3-39.5,36.7c-6.6,6.2-15,11.6-12.2,23c0.3,1-0.9,2.4-1.4,3.6c-8.1,18.9-16.2,37.7-22.2,57.4
		c-4.2,13.9-10,27.3-15.2,41c-5.7,15.1-11.3,30.1-17.1,45.2c-9.6,25-19.4,50-29,75c-5.3,13.9-10.1,28-15.8,41.8
		c-9.9,23.8-20.6,47.4-30.5,71.2C910,1541.1,903.6,1558.8,896.9,1576.2z M1692.3,193.8c-7.1-2.9-11.8-6.1-16.8-6.6
		c-9.8-0.9-19.9-0.9-29.8-0.3c-9.6,0.6-19.1,3.2-28.7,3.6c-25.7,1-48.4,10.4-70,23.5c-11.3,6.9-22.8,13.4-34.1,20.4
		c-13,8-26.4,15.5-38.6,24.6c-21.2,16-41.4,33.2-62.2,49.8c-4.4,3.5-8.7,7.4-13.6,10c-11.1,5.7-22.9,10.2-31.5,20
		c-2.3,2.6-6,4.1-9.1,6c-5,3.2-10.3,6.2-15,9.8c-7.3,5.7-13.9,12.2-21.3,17.7c-10.7,7.8-21.9,14.8-32.8,22.3
		c-14.4,10-28.9,20-43,30.5c-8.5,6.3-16.3,13.4-24.4,20.1c-17.6,14.5-35.4,28.9-52.9,43.5c-18.3,15.3-36.5,30.8-54.6,46.3
		c-7.8,6.7-15.2,13.8-22.8,20.7c-2.2,2-4.3,4.2-6.5,6.2c-14.4,13.2-29.1,26-43.3,39.5c-10.5,10.1-20.4,20.9-30.5,31.4
		c-5.3,5.5-11,10.7-15.6,16.7c-17.1,22.5-38,41.5-58,61.3c-14.2,14-28.9,27.4-43.1,41.4c-4.2,4.1-7,9.8-11.3,13.9
		c-17.1,16.2-34.5,32.2-51.8,48.2c-9,8.3-19.4,15.4-27,24.8c-6.3,7.9-14,13.6-21.5,19.9c-11.7,9.7-23.4,19.5-34.9,29.5
		c-8.7,7.6-16.8,16-25.6,23.5c-11.3,9.7-23.3,18.7-34.7,28.4c-9.1,7.7-17.8,15.9-26.7,23.7c-9.8,8.5-20.6,16-29.3,25.5
		c-9.3,10-19,19.3-30.1,27.1c-1.6,1.1-2.7,2.9-4,4.3c-8.4,8.5-16.8,17-25.4,25.4c-13.5,13.2-27.9,25.5-40.5,39.5
		c-13.2,14.8-25.8,30.5-36.6,47.2c-11.2,17.5-19.9,36.6-29.7,55c-3.6,6.7-7.6,13.3-10.4,20.3c-10.9,27.1-10.3,55-4.2,83.1
		c0.3,1.5,1,3.6,2.2,4.2c5.2,2.5,6.2,7.9,7.8,12.3c7.8,20.3,22.6,35.3,36.5,51.4c8.7-4.5,15.7-9.7,19.7-18.3
		c-3.8-6.3-6.6-13-11.3-17.9c-8.6-9.1-13.4-19.7-15.4-31.6c-3.4-20.5-9.8-40.5-6.3-62c2.2-13.9,4.8-27.2,12.9-39
		c6.5-9.5,13.2-19,19-28.9c13.2-22.9,30.9-42.4,47.8-62.3c13.5-15.9,28.5-30.6,43-45.7c8.5-8.9,17.3-17.4,26-26.1
		c11.1-11,21.8-22.3,33.4-32.8c25.9-23.4,52.1-46.4,78.4-69.3c17.5-15.2,36.1-29.3,52.9-45.2c19.7-18.8,37.9-39.1,57-58.6
		c9.7-10,19.7-19.6,29.6-29.4c9.5-9.5,21.6-16.5,28-28.9c0.4-0.8,1.6-1.1,2.4-1.7c4-2.8,8.2-5.4,11.9-8.6
		c14.7-12.5,28.6-25.7,41.7-39.9c18.8-20.3,39-39.4,59-58.6c13.9-13.4,28.2-26.3,42.6-39.2c13.3-11.9,27.2-23.1,40.3-35.1
		c22.5-20.6,45.6-40.4,70.2-58.7c12.7-9.5,24.5-20.2,36.7-30.5c16.4-13.9,32.8-27.9,49.2-41.8c11.7-9.8,23.8-19.2,35.4-29.2
		c14.1-12.2,27.8-24.9,41.7-37.2c7.7-6.8,15.4-13.5,23.3-20c14.1-11.6,28.3-23,42.3-34.6c16.9-14,33.4-28.4,52.3-39.7
		c10-5.9,21.2-10.6,29.4-18.4c13-12.5,28.9-19.9,44-28.6c16.9-9.7,35-17.5,51.9-27.2c19-11,38.7-17.6,60.7-15.1
		c28.2,3.2,53.8,13.5,76.7,30.3c3.7,2.7,6.3,4.8,11.4,2.5c3-1.4,7.5,0.4,11.4,0.8c1.6,0.2,3.2,0.7,4.8,1.1c0.3-0.6,0.7-1.2,1-1.8
		c-10.7-9.7-20.8-20.4-32.4-28.9C1711.5,197.4,1702.6,189.7,1692.3,193.8z M563.1,506.6c0-10.4,0.6-18.4-0.1-26.2
		c-2.2-22.4-4.7-44.8-7.4-67.2c-2.1-17.8-5-35.4-6.7-53.2c-1.9-19.8-2.7-39.7-4.5-59.5c-2-22.1-5.8-44.1-6.7-66.3
		c-0.9-22.9-9.9-42.1-22.3-60.5c-18.8-27.9-42.3-51.8-65.9-75.5c-1.7-1.7-3.9-3.1-6.9-5.4c-0.8,3.5-1.6,5.6-1.7,7.7
		c-0.8,16.2-1.5,32.4-2.2,48.6c-1.3,29.4-2.7,58.9-3.8,88.3c-0.8,21.9-1.1,43.8-1.8,65.7c-0.3,10.9-0.9,21.7-1.2,32.6
		c-0.3,10.2-1,20.5-0.2,30.7c1.5,17.5,3.4,34.8,7.3,52.1c2.6,11.7,8.5,17.2,19.3,19.1c6.9,1.3,13.8,2.2,20.6,3.6
		c13.4,2.7,26,7,35.9,17.4c13.6,14.4,27.6,28.3,41.5,42.4C557.8,502.5,559.6,503.7,563.1,506.6z M464.7,454.9c-3.6-1.7-5-2.9-6.6-3
		c-9.7-0.6-16.7-6.6-23.2-12.5c-22.8-20.6-44.8-42-67.7-62.3c-23-20.5-46.4-40.5-70.3-59.9c-16.6-13.5-34.2-25.8-51.7-38.2
		c-16.1-11.4-32.8-22.2-49.1-33.4c-13.6-9.3-29.4-15-41.7-26.5c-0.9-0.8-2.5-0.9-3.7-1.5c-5.1-2.2-10.2-4.7-15.4-6.7
		c-4.1-1.5-8.4-2.5-13.1-3.8c-2.7,20.3-1.5,39,1.6,57.7c2.8,16.6,8.7,31.8,18,45.6c5.9,8.8,11.2,18.2,18.5,25.8
		c19,19.9,39.3,38.6,58.4,58.4c9.1,9.4,20.6,15.4,29.8,24.2c9.8,9.4,20.6,16.4,33,21.1c14.5,5.4,27.2,15.3,42.9,18
		c0.9,0.2,1.9,0.7,2.7,1.3c9.5,7.1,21.3,7.3,32.1,9.2c14.5,2.6,29.6,2.4,44.5,2.2c10.9-0.1,21.7-2.4,32.7-2.9
		C446.9,467.1,454.3,460.5,464.7,454.9z M825.7,803c-23.3-21.5-45.4-42.3-65.2-65.6c-26-30.6-52.1-61.2-79.1-91
		c-22.2-24.5-45.8-48-68.8-71.7c-15.5-15.9-31.3-31.5-46.7-47.5c-15.5-16-30.6-32.2-46-48.2c-5.8-6-11.7-11.8-17.9-17.3
		c-1.8-1.6-4.8-2.8-7.1-2.5c-5.1,0.6-9.7,2.7-15.4,1.1c-3.2-0.9-7.4,1.7-8.9,6.4c-0.7,2.2-2.6,5-4.7,5.7c-16,5.6-32.4,9.7-49.4,10.4
		c-17.2,0.7-34.6,1.3-51.7-0.4c-13.4-1.3-26.6-5.3-39.5-9.3c-10.1-3.1-19.5-8.1-29.2-12.4c-2.1-0.9-4-2.4-6-3.5
		c-10.5-5.4-21.1-10.8-31.6-16.2c-0.4-0.2-1.2,0.4-1.7,0.6c0,0.6-0.3,1.5,0,1.8c7.9,7.1,15.6,14.4,23.8,21.1
		c11.6,9.3,23.8,17.9,35.4,27.2c14.1,11.3,28,22.9,41.9,34.5c5.3,4.4,10.2,9.5,15.5,13.9c5.1,4.2,10.5,7.9,15.7,11.9
		c2.1,1.6,4.1,3.4,6.3,4.9c13.8,9.6,28.6,18,41.1,29c9.1,8,16.3,9.6,28.1,6.5c10.8-2.8,21.8-5.1,32.4-8.8c17.4-6.1,34-10.3,53.2-5.6
		c14.5,3.6,26.9,9.4,37.4,18.9c18.7,16.8,35.7,35.3,52,54.5c30.1,35.7,60.3,71.4,90.8,106.9c12.9,15,26.2,29.6,39.7,44.1
		c8.5,9.1,17.7,17.5,27.2,27C806.6,820.7,815.7,812.2,825.7,803z M471.1,1142.2c9.1-5,10.6-12.8,15-18.4
		c14-17.6,25.7-37.2,42.3-52.8c2.2-2.1,4-5.8,3.9-8.6c-0.2-6.6-1.4-13.1-2.5-19.6c-2.8-16.6-7.7-33-7.2-50.1c0-0.3-0.1-0.7-0.1-1
		c-2.4-26-5-52.1-7.3-78.1c-1.7-19.5-2.5-39.1-4.8-58.5c-3.3-28.3-7.2-56.6-11.7-84.8c-4.2-26.1-10.4-51.9-12.4-78.4
		c-0.3-3.9,0.3-7.8,0.7-11.7c0.4-3.6,1.7-7.2,1.7-10.8c-0.1-20.9,10.1-37.4,22.2-53.1c6.1-8,12.5-15.8,18.7-23.7
		c-0.3-0.6-0.6-1.2-0.9-1.8c-24.5,4.5-47.7,14.4-74.7,19.9c-7.8-5.4-18-12.4-29.1-20.1c-0.2,2.4-0.5,3.6-0.3,4.7
		c2.7,18.7,4.6,37.5,8.5,56c3.5,16.6,5.4,33.2,6.2,50.1c0.3,6.6,0.5,13.2,1.1,19.7c2,19.5,4.6,38.9,6.4,58.4
		c1.7,18.4,2.5,37,4.1,55.4c1.1,12.2,2.7,24.3,4.3,36.4c1.3,9.8,3.3,19.5,4,29.4c1.4,18.8,1.9,37.6,3.1,56.4
		c1.4,22.5,3.3,44.9,4.5,67.4c1.7,31.1,3,62.2,4.4,93.3C471.4,1125.1,471.1,1132.7,471.1,1142.2z M683.1,2155.1
		c-0.1-6-0.5-9.8-0.1-13.6c1.2-11.5,2.8-23,4.2-34.6c1.5-12.5,2.4-25,4.5-37.4c4.6-26.8,9.8-53.5,14.7-80.2
		c2.4-13.1,3.3-26.5,7-39.2c3.3-11.4,3.3-22.9,3.8-34.4c0.5-10.1-3.2-12.2-12.1-7.8c-5.3,2.6-10.4,5.7-15.8,8
		c-8.6,3.7-17.2,7.1-26,10.2c-7.8,2.7-15.7,5.2-23.7,7.1c-5.8,1.4-8.1-1.9-6.1-7.5c1.4-4,3.2-8,3.7-12.1c0.6-5.2,0.9-10.7-0.2-15.8
		c-2.2-10.5-6.5-20-17.5-25c-3.5,4.4-7.7,8.4-2.3,12.5c9,7,9.7,17.6,13.3,26.9c0.7,1.9,0.8,5.4-0.4,6.6
		c-7.2,7.1-13.4,15.2-25.1,16.3c-12,1.1-20.2-5.6-27.9-12.3c-10.3-9-11.1-32.7,4.7-43.8c2.8-2,5.6-4,9.5-6.8
		c-2.2-1.4-3.1-2.5-3.9-2.4c-6.2,0.7-12.2,1.4-16.8,7c-5.4,6.5-7.5,13.4-8.1,21.8c-0.7,10.7,1.1,20.5,7.1,29.4
		c2.4,3.5,5.2,6.7,8.1,10.4c-4.7,3.9-8.5,7.8-8.6,14.1c0,1.7-3.2,3.9-5.4,4.7c-15.5,5.9-31,11.5-47.7,17.5
		c-0.9,6.3-2.6,13.5-2.8,20.7c-0.9,31.3-7.8,61.9-11.6,92.8c-2,15.8-4.5,31.5-6.7,47.3c-0.5,3.6-0.8,7.2-1.4,10.8
		c-2.2,14.5-4.4,28.9-6.5,43.3c-2.5,17-4.9,34.1-7.4,51.1c-4.7,31.8-9.4,63.6-14,95.4c-0.2,1.2,0.2,2.5,0.3,3.7
		c7.3,0.5,8.9,0.2,14.5-2.8c9-4.9,18.2-9.6,27.1-14.7c10.9-6.3,21.7-12.9,32.3-19.7c6.1-4,11.5-8.8,18.9-10.7
		c4.3-1.1,8.5-4,11.9-7.1c5.8-5.3,12-7.6,19.8-6.6c6.2,0.8,8.8,2,9.5,7.9c1.3,11.5,2.6,23,3,34.5c0.7,20.9,0.8,41.8,1,62.7
		c0.1,20.2,0.4,40.4,0,60.5c-0.6,28.2-1.8,56.4-2.9,84.7c-0.5,14.3-1.8,28.5-2,42.8c-0.4,32.6-0.3,65.2-0.3,97.8
		c0,2.1,0.9,4.1,1.7,7.6c1.6-2.3,2.5-3.2,3-4.3c4.7-10.9,9.5-21.7,14-32.7c12.1-29.4,23.9-59,36-88.4c5.6-13.5,12.3-26.5,17.4-40.1
		c6.7-18,12.3-36.4,18.4-54.7c5.2-15.7,10.3-31.5,15.9-47.1c7.6-21.2,15.8-42.2,23.7-63.3c7.1-19.3,14-38.6,21.2-57.9
		c4.7-12.7,10.2-25.2,14.6-38c7.8-22.9,14.7-46.1,22.4-69.1c4.2-12.6,10-24.7,13.7-37.4c4.7-15.9,8.1-32.1,11.9-48.2
		c0.4-1.8-0.3-3.8-0.5-6.1c-9.8,1.6-16.4,7.9-23.6,12.9c-4.1,2.8-8,6.1-12.4,8.1c-26.1,12.2-52.6,23.7-77.5,38.4
		C694.5,2151.4,689.9,2152.5,683.1,2155.1z M1032.7,1192.8c-1.5,0.8-2.8,1.2-3.7,2.1c-7.9,7.6-16.2,14.9-23.5,23
		c-3.9,4.3-6.8,9.8-9.1,15.2c-4.7,10.9-8.4,22.2-13,33.1c-8.9,20.9-18.4,41.6-27.1,62.6c-8.2,19.8-15.8,39.9-23.6,59.9
		c-4.2,10.7-7.9,21.7-12.2,32.4c-4,9.8-8.7,19.3-12.6,29.2c-6.2,15.7-12.1,31.6-18,47.5c-7.7,20.8-18.7,40.3-24,62
		c-1.6,6.6-1.5,12.4,1.4,18.2c2.1,4.1,4.8,7.9,7.4,11.8c8.9,13.4,14,27.7,10.3,44c-0.9,4.1-2,8.1-3.4,13.6
		c15.5,2.2,31.2,2.2,45.6,8.3c14.3,6,28.7,11.6,43.7,17.7c5.8-11.9,14.1-20.2,25.8-24.5c5-1.8,10.2-2.9,15.3-4.2
		c4.1-1.1,7.3-3.1,9-7.2c2.7-6.7,5.8-13.4,8.1-20.2c6.7-20.4,12.9-41,19.7-61.5c3.1-9.4,7.3-18.5,10.4-28
		c9.1-28,17.5-56.3,26.9-84.1c9.6-28.3,20.1-56.2,30.2-84.3c10.2-28.2,20.6-56.4,30.6-84.7c6.8-19.3,14.2-38.4,19.9-58.2
		c6.8-23.1,16.2-45.4,24.5-68c6.1-16.5,12.2-32.9,18.3-49.4c6.4-17.4,12.5-34.8,19-52.1c8.5-22.3,17.2-44.5,25.8-66.8
		c0.3-0.7-0.4-1.7-1.1-4.1c-4.5,4.6-8.3,8.6-12.2,12.4c-5.4,5.3-10.9,10.4-9.3,19.3c0.4,2.1-0.4,4.7-1.3,6.8
		c-6.9,17.1-14,34.2-21.1,51.3c-5.3,12.8-11,25.5-16,38.4c-7.6,19.3-14.7,38.8-22.1,58.1c-1.8,4.6-4.2,9-6,13.6
		c-8.3,21.2-16.5,42.5-24.6,63.8c-7.1,18.5-14.2,37.1-21,55.7c-4.5,12.4-8.5,25.1-12.8,37.6c-3.1,9-6.5,17.9-9.6,26.9
		c-6.3,18.4-12.4,36.9-18.7,55.3c-5.5,15.9-11.3,31.7-16.6,47.7c-4.8,14.4-8.8,29-13.6,43.3c-3.1,9.4-7.4,18.4-10.7,27.8
		c-6.1,17.1-15.3,32.9-20.1,50.6c-2.4,8.9-6.2,17.4-10.1,25.8c-5.7,12.3-12.3,15.5-24.5,10.6c-11.7-4.8-23.8-7.8-35.8-11.4
		c-17.4-5.2-34.2-12.6-51-19.4c-8.7-3.6-8.5-3.9-7.4-13.4c0.4-3.9,0.1-8,0.4-11.9c0.2-2.2,0.7-4.5,1.5-6.6
		c5.3-12.8,10.9-25.6,16.2-38.4c6.1-14.8,12-29.8,18.1-44.6c10.9-26.3,22.4-52.3,32.5-78.9c6-15.7,10.8-31.9,17.6-47.4
		c8.2-18.8,14.9-38.3,22.2-57.5c6.4-17,12.9-33.9,19.1-51C1021.8,1225,1027,1209.3,1032.7,1192.8z M518.8,1496.9
		c-6,0.5-12,2.7-17,6.4c-13.5,9.9-22.8,23.1-28.2,38.8c-7.1,20.8-11.7,41.9-9.4,64.2c1.4,14,0.4,28.3,1.2,42.4
		c0.8,14.2,2.5,28.3,3.9,42.5c1.1,10.8,4.8,20.6,11.6,29.2c2,2.6,3.8,5.4,6.1,7.7c7.5,7.4,15,14.8,22.9,21.8c2.2,2,5.8,2.4,9.9,4
		c2.1-12.2,9.8-19.3,19.2-24.8c10.6-6.2,21-2.6,32.1,3.1c4.1-11.8,8.9-22.1,11.2-32.8c3.2-15.2,4.8-30.7,6.7-46.2
		c2.2-17.8,2.2-35.9-1-53.3c-3.6-19.4-9.4-38.5-18.1-56.6c-3.7-7.7-8.6-11.4-17-10.4c-2.3,0.3-4.7,0.2-7-0.3
		c-8.5-1.7-15.9-5-19.2-13.8C524.1,1511.8,521.6,1504.7,518.8,1496.9z M1419.9,1039.3c-0.6-0.9-1.2-1.7-1.8-2.6
		c-8.5,0.7-17,1.9-25.6,2c-11.9,0.2-21.6-1.9-27.5-15.5c-7.4-17-11.4-33.9-9.4-52c0.6-5.2,3-11.4,6.7-15c8.6-8.5,18.5-15.6,28-23.3
		c4.1-3.3,6.7-7.8,6.8-12.8c0.2-7.3,0.4-14.9-1.4-21.8c-4.2-15.6-9.7-30.9-14.8-46.3c-0.6-1.7-2-3.2-3.4-5.4
		c-7.4,7.3-14.2,13.8-20.9,20.7c-16.6,17.1-32.7,34.8-52.1,48.9c-4,2.9-7.8,6.2-8.1,11.8c7.5,3.8,8.7,11.5,10.8,18.2
		c5.8,18.7,10.3,37.7,16.3,56.3c6,18.5,14.3,35.5,35.6,41.7c5.4,1.6,10.5,3.8,16.3,3.2c13.5-1.3,27.1-2.6,40.6-4.3
		C1417.3,1043,1418.5,1040.6,1419.9,1039.3z M564.3,1759.8c-3.3-8.6-9.8-11.5-18.1-9.7c-3.6,0.8-6.9,3.5-10.2,5.6
		c-7.2,4.6-14.8,8.2-23.2,4.9c-5.1-2-9.4-6-14-9.2c-9.7-6.9-17.2-15.8-24.9-24.9c-8.7-10.3-12.5-21.8-14.4-34.1
		c-2.3-14.6-3.2-29.5-4-44.3c-1.1-19.5-1.5-38.9-2.1-58.4c-0.1-2.3-0.1-4.7,0.4-7c2.6-12.3,5.2-24.6,8.1-36.8
		c4.2-17.6,13.2-32.5,26.6-44.5c15.5-13.9,33.1-21.9,54.7-16.9c2.6,0.6,5.4,0.1,8.6,0.1c-0.8-1.4-0.9-2.4-1.4-2.5
		c-15-5.6-30.3-6.9-45.9-2.7c-14.3,3.9-26.5,11.1-34.4,23.7c-12.9,20.6-22.4,42.7-28.9,66.2c-1.2,4.4-1.7,9.1-2.2,13.7
		c-2.6,25.5-2.1,51-0.7,76.5c1.2,22.5,3.3,44.8,10,66.4c3.3,10.6,7.6,21.1,15.1,28.6c11.6,11.5,24.2,21.7,41.9,24.4
		c14.1,2.1,27.2,3.2,41.2-0.9C556.6,1775,562.8,1770.2,564.3,1759.8z M1743.2,242.1c-5.5,6.2-7.3,12.4-5.3,19.6
		c0.5,1.9,0.7,3.9,0.7,5.9c-0.4,19.5-0.9,39.1-1.4,58.6c-0.1,2.3,0,4.7-0.5,7c-3,13.5-6.1,27-9.4,40.5c-3.5,14.2-8.2,28-16.4,40.4
		c-9.5,14.4-18.5,29.1-27.9,43.5c-10.7,16.4-22.6,31.8-37.6,44.7c-1.3,1.1-2,2.8-3,4.2c0.5,0.4,0.9,0.9,1.4,1.3
		c10.5-8.9,21.8-17,31.3-26.8c13.3-13.8,25.4-28.8,37.9-43.4c2.8-3.2,4.9-7,7.7-10.2c9.6-11,17-23.4,24.1-36.1
		c2.9-5.2,5.9-10.3,8.6-15.5c3.8-7.5,3.8-15.9,5.8-23.7c3.5-14,2.3-27.6,0.7-41.4c-1.5-12.5-4-24.9-4.4-37.4
		c-0.3-9.7-3.4-18.1-7.7-26.3C1746.5,245.2,1744.7,243.8,1743.2,242.1z M518.5,1377.7c2.6,2.8,4.6,5.5,7.1,7.4
		c5.4,4.2,11,8.2,16.7,12c8.4,5.7,10.3,5.4,17.7-1.9c1.2-1.2,2.4-2.3,3.7-3.4c13.5-11.7,27.1-23.3,40.6-35c1.9-1.7,3.4-3.9,5.6-6.5
		c-6.7-7.5-12.8-14.9-19.6-21.6c-5.4-5.3-7.5-4.9-13.6,0c-16.4,13.4-32.9,26.8-49.3,40.3C524.6,1371.5,521.9,1374.4,518.5,1377.7z
		 M574.3,1430.3c-8-3.7-17.9-8.2-27.8-12.7c-10.2-4.6-13.4-2.8-16.3,7.9c-3.6,13.3-1.6,26.7-1.5,40.4c8.1,0.9,15.4,3.2,23.7,1.3
		c8.3-1.9,15.5,2.8,20.1,10.1c4.1,6.5,2,12.8-1.4,18.8c-4.5,8.2-12.6,11.7-20.8,14.4c-3.9,1.3-8-0.6-10-4.8c-1.9-4-3.4-8.1-5.1-12.3
		c-3.5-0.5-6.5,0.6-6,4.5c3,24.4,23.9,29.5,38.2,20.5c6.7-4.2,10.3-10.4,13.7-16.6c5.1-9.4,6.4-20.9,1-29.6
		C574.2,1459.4,578.9,1445.9,574.3,1430.3z M580.5,1735.5c1.3,2.3,3.3,3.2,5.2,0.5c2.4-3.5,5-7.2,6.4-11.2
		c4.6-13.5,9-27.1,12.9-40.8c1.7-6,2.2-12.3,3.2-18.5c2.2-13.3,4.9-26.6,6.4-40.1c2.4-21.1-1.8-41.4-6.6-61.9
		c-4.2-17.6-14.7-30.8-24-46.3c-4.4,3.5-8.1,6.5-12.3,9.9C611.4,1595.6,607,1665,580.5,1735.5z M1452.9,1127.8
		c3.9,4.8,6.5,8,9.2,11.2c8.3,9.9,7.5,20.5-2.8,28.4c-6,4.6-12.9,8-19,12.6c-6.3,4.8-12.9,9.5-17.7,15.6c-7.8,9.7-7.2,25.7,0.6,35.4
		c3.5,4.4,7.3,9.3,14.8,10c-1.5-2.7-2.3-4.8-3.6-6.5c-5.8-7.3-4.5-15.3-1.6-22.8c5.1-13.1,15-22.5,26.6-30.1
		c6.6-4.3,13.5-8.3,19.7-13.2c6.8-5.3,10.2-18.5,6.8-26.3c-3.3-7.5-8.1-14-17.4-14.4C1464.1,1127.6,1459.6,1127.8,1452.9,1127.8z
		 M1436.9,1030.2c-1.5,5.3-2.2,9.8-4.1,13.8c-7.6,16.3-17.4,31.1-32,42c-6.1,4.6-12.6,8.6-19,12.7c-9.1,5.8-17.9,11.6-17.2,24.5
		c0.4,7.6,4,13.5,9.7,17.6c3.1,2.2,7.5,2.5,12.3,3.9c-6.5-19.1-1.7-35.7,13-47.4c5.4-4.3,11.5-7.8,17.2-11.8
		c10.5-7.4,21-14.9,31.5-22.2c3-2.1,3.6-4.8,2.6-7.8C1447.8,1046.8,1445.8,1037.7,1436.9,1030.2z M578.4,1888.8
		c13.9,7.2,25.4,3.8,30.5-7.9c4.4-10,7.6-19.2,2.6-31.1c-6.6-15.6-23.1-25.6-38.7-19.5c-1.5,0.6-3.7,3.1-3.4,4
		c0.6,1.8,2.5,3.7,4.3,4.4c2,0.8,4.6,0.2,6.9,0.4c13.4,1,18,6.2,18.6,19.3c0.5,11.5-6.8,18-14.3,24.6
		C583,1884.8,581.1,1886.4,578.4,1888.8z M1461.7,1315.2c14.4-10.9,28-21.3,41.7-31.6c5.4-4.1,8.2-9.5,8.4-16.3
		c0.2-8.7-1.4-17-5.5-25.4c-0.7,1.3-1.3,2-1.6,2.8c-0.5,1.2-1,2.5-1.2,3.8c-1.2,14.1-9.5,23.7-19.9,32.1
		c-6.5,5.2-12.9,10.4-19.6,15.2c-4.4,3.2-5.5,7.2-4.4,12.1C1460.1,1310.2,1460.9,1312.4,1461.7,1315.2z M559.3,1742.3
		c2.7,2.5,4.8,4.6,7,6.5c10.9,9.4,13,22.4,14.7,35.5c0.2,1.5-0.2,3.4-1.1,4.7c-5,7.6-11.4,13.6-20.7,15.7c-1.9,0.4-4.4,0.2-5.6,1.4
		c-1.5,1.4-2.9,4.2-2.4,5.8c0.7,2.1,3.4,5.3,5,5.1c4.8-0.6,10.6-1.2,14-4.1c9.3-7.9,17.1-16.9,20.9-29.3c4.1-13.4-2.7-23.1-9.2-32.9
		c-2.5-3.7-6.8-6.3-10.7-8.8C567.9,1739.9,564.1,1737.9,559.3,1742.3z M579.7,1898.3c-0.4,3.5-1,5.4-0.9,7.3
		c0.5,12.9,11.4,20.8,23.7,17.6c7.8-2,12.8-7.8,18.3-12.5c-1.2-8.3-3.9-15.1-11.6-20.1C600.8,1896.5,591.5,1900.6,579.7,1898.3z
		 M1507.6,1349.8c0.1-0.3,0.1-0.6,0.2-1c2.3,0,4.7,0.2,7,0c5.2-0.5,6.7-3.7,4.9-8.9c-1.1-3.3-3.1-4.7-6.3-5.5
		c-11.5-3-22.9-6.2-34.4-9.3c-1.2-0.3-2.7-0.3-4-0.2c-5.7,0.6-7.9,4.6-4.2,8.8c3.6,4.1,7.8,8.7,12.7,10.6
		C1491.2,1347.2,1499.6,1348.1,1507.6,1349.8z M1442.8,1226.2c3.5,4.8,6.3,9.2,9.8,12.9c1.8,1.9,5.1,3.4,7.7,3.5
		c10.6,0.4,21.1,0.2,31.9,0.2c1.8-7.5-4.1-11.7-5.5-16.6C1472.1,1226.2,1458.1,1226.2,1442.8,1226.2z M568.5,1851.6
		c-13.3,1.4-18.4-7-21.7-17.4c-1.2-3.8-2.5-7.5-3.5-11.4c-2-7.8,1.4-14.4,5.2-20.7c3-5,8.3-2.7,12.8-3.2c0.5-0.1,0.9-0.7,1.3-1.1
		c-3.7-5.5-9.3-7.6-15-5.8c-5.9,1.9-10.9,8.4-10.7,14.2c0.1,2.6,0.7,5.3,0.6,7.9c-0.6,14.5,0.8,27.9,11.7,39.4
		C556.7,1861.5,560.8,1861.9,568.5,1851.6z M1394.9,1129.3c5.4,11.1,5.7,11.2,15.9,11.9c2.6,0.2,5.5,0.2,7.8,1.3
		c10.3,4.9,21.2,3.5,32.3,4.3c0.3-5.7-2.3-8-6.3-9.9c-4.2-1.9-8-4.5-12.2-6.4c-2-0.9-4.4-1.2-6.6-1.2
		C1415.8,1129.2,1405.9,1129.3,1394.9,1129.3z M1515.3,1368.9c0.3,0.6,0.6,1.3,0.9,1.9c5.8-4,12.2-7.4,17.4-12
		c6.1-5.5,5.9-9.3,0-18.5c1,10.3-4.9,15.4-10.8,20.6C1520,1363.3,1517.8,1366.2,1515.3,1368.9z M174.6,364.7
		c9.1,10.8,17.7,22.2,30.3,29.4C197.3,381.7,186.1,373.1,174.6,364.7z M592.4,1861.7c0.2-7.8-4.6-10.1-11.1-12.6
		c-1.9,4.5-3.6,8.8-5.8,13.9C582,1862.5,587.1,1862.1,592.4,1861.7z M566.7,1868.4c-2.2-0.8-4.7-2.5-7.2-2.4
		c-3.3,0.1-7.1,1.8-6.1,6.1c0.4,1.5,3.9,3.2,6,3.2C562.7,1875.4,566,1874.1,566.7,1868.4z M1764.2,264.2c1.5,8.8,3.1,17.7,4.6,26.5
		C1771,281.2,1772,272,1764.2,264.2z M557.5,1496.8c7.7-4.6,7.7-4.6,6.2-13.4c-2.7,0.9-5.4,1.9-7.8,2.7
		C556.4,1489.7,556.9,1493.2,557.5,1496.8z M562.7,1784.4c2.7,1.8,4.5,3.3,6.5,4.1c1.3,0.5,4.1,0.1,4.3-0.6c0.6-1.9,1-4.4,0.2-6.2
		c-0.5-1.3-3.4-2.7-4.6-2.3C566.9,1780.2,565.3,1782.3,562.7,1784.4z M533.3,1793c-3.4-0.2-6.3-1.2-7.3-0.2c-2,2-1.7,4.7,2,6.3
		C529.4,1797.5,530.8,1795.9,533.3,1793z M544.1,1495c4,6.2,4,6.2,10.1,2.5C550.9,1496.7,547.8,1495.9,544.1,1495z"/>
	<path d="M288,1156.5c-5.9-0.3-10.1-2.3-14.8-5.7c-14.6-10.6-29.8-20.4-44.7-30.5c-3.3-2.2-6.1-5.1-9.4-7.3
		c-15.4-10.9-30.9-21.7-46.3-32.6c-13.2-9.3-26.5-18.6-39.6-28.1c-11.8-8.6-23.3-17.5-35-26.2c-3.2-2.4-6.8-4.2-9.7-6.9
		c-1.7-1.6-3.3-4.1-3.6-6.4c-0.4-3.5,1.7-5.7,5.6-4.8c2.2,0.5,4.5,1.3,6.4,2.6c15.7,11,33.6,16.4,51.9,21.4
		c16.1,4.4,32.3,9.6,44.3,22.8c3.3,3.6,8,5.9,11.5,9.3c14.6,14.3,29,29,43.6,43.2c11.7,11.3,23.7,22.3,35.5,33.5
		c2.6,2.5,5.1,5.2,7.3,8.1c1,1.4,1.9,3.8,1.4,5.1C292.1,1155.3,289.6,1155.7,288,1156.5z M232.4,1110c0.9-0.9,1.7-1.8,2.6-2.7
		c-16.5-15.7-33-31.4-49.6-47c-12.7-12-29.1-15-45.8-17.6C170.5,1065.1,201.4,1087.5,232.4,1110z"/>
	<path class="st1" d="M1748,416.4c-10.7,17.4-20.6,33.4-30.4,49.4c-2.4,4-5.2,7.8-7.2,11.9c-5.1,10.2-12.7,18.5-20.1,27.1
		c-9.9,11.6-18.9,23.9-28.5,35.7c-15.3,18.8-28.1,39.4-47,55.3c-17,14.3-32.2,30.8-49.1,45.2c-21.1,18-40.1,38.3-60.3,57.2
		c-18.4,17.2-36.4,34.9-54.3,52.7c-16.9,16.9-33.5,34.1-50.2,51.3c-20.2,20.7-40.2,41.6-60.6,62.1c-14.3,14.3-29.3,27.8-43.7,42
		c-13.5,13.2-28.1,25.8-39.7,40.5c-12.2,15.4-24.8,30.3-38.7,44.1c-23,23-46.6,45.5-69.8,68.3c-15.9,15.6-31.5,31.4-47.3,47.1
		c-16.7,16.5-33.3,33.1-50.4,49.2c-24.4,23-49,45.6-73.8,68.1c-29.7,27-59.3,54.1-89.8,80.2c-21,17.9-43.3,34.2-65.3,50.9
		c-18.8,14.2-37.8,28.2-57.1,41.7c-14.4,10-29.4,19.4-46.3,25c-7.1,2.3-14.2,4.3-20.9,7.9c-9.8,5.2-21.1,6.1-32.1,5.5
		c-15.9-0.8-31.8-2-47.6-4.2c-19.7-2.8-37-12.3-55.2-23c8.7-7.6,16.9-14.6,25-21.7c11-9.7,22.3-19,32.7-29.3
		c3.7-3.7,5.6-9.4,7.7-14.5c0.6-1.3-0.6-4-1.7-5.4c-11.9-13.8-23.7-27.7-36.2-41c-6-6.4-6.5-5.8-13.7,0c-6.6,5.4-12.4,11.9-20.8,15
		c-2.1,0.7-3.8,2.7-5.5,4.2c-7.3,6.7-14.5,13.5-22.3,20.8c-1.8-1.6-3.8-2.7-4.9-4.5c-8.9-14.2-21.9-26-22.9-44.7
		c-0.7-12.8-4.1-25.5-5.7-38.3c-1.5-12.4,1.1-24.4,6.7-35.6c6.7-13.3,12.4-27.2,20-39.9c8.7-14.4,18.7-28.1,28.9-41.6
		c8.8-11.6,18.2-22.8,28-33.7c8.8-9.9,18.3-19.1,27.6-28.6c20.2-20.6,39.9-41.8,61-61.5c23-21.5,47.3-41.7,71.1-62.4
		c18-15.7,36-31.4,54.3-46.9c18.9-15.9,35.2-34.3,51.7-52.4c4.9-5.4,10.6-10.1,15.9-15.1c19.4-18.6,39-37.1,58.2-55.9
		c8.5-8.3,16.4-17.3,24.6-25.9c13.1-13.6,26.2-27.2,39.5-40.6c6.3-6.3,13.1-12,19.5-18.1c18.1-17,36.1-34,54.3-50.9
		c11.6-10.8,23.4-21.3,35.2-31.8c14.2-12.6,28.4-25.5,43-37.6c13.5-11.2,28.1-21.1,41.5-32.3c14.9-12.5,32.4-21.6,45.8-36.2
		c7.6-8.2,16.8-15,25.4-22.2c10.7-9,21.2-18.1,32.3-26.6c28.7-22,55.1-46.7,82.8-69.9c9.4-7.9,19.4-15,28.9-22.8
		c10.2-8.4,20-17.5,30.3-25.9c13.9-11.3,28-22.2,42.1-33.2c0.8-0.6,1.6-1.3,2.5-1.7c20.5-9.3,36.9-24.9,55.9-36.3
		c12.2-7.3,25.1-13.4,37.7-19.9c12.7-6.5,25.6-12.5,38.4-19c5.9-3,11.1-7.8,17.2-9.6c7.8-2.3,16.4-3.7,24.5-3.3
		c18.7,0.9,36.7,4.8,53.1,14.9c5.6,3.4,11.9,5.6,17.6,8.9c7.3,4.2,12.1,9.7,14.3,18.9c2.7,11.3,2.2,22.3,2.2,33.4
		c0.1,17.2-0.5,34.4-1.5,51.6c-0.4,6.1-2.5,12.2-4.1,18.2c-2.7,9.5-6,18.9-8.4,28.5c-4.9,19.4-17,34.9-27.5,51.3
		c-4.8,7.5-10.1,14.8-14.7,22.5c-9.6,15.9-23.9,27.5-36.8,40.4c-15.4,15.6-29.8,32.1-41.9,50.4c-1.1,1.6-2.2,3.5-2.3,5.4
		c-0.1,2.1,0.2,5.2,1.6,6.3c1.2,1,4.7,0.8,6.2-0.2c6.9-4.5,14.1-8.9,20.2-14.4c28-25.4,56.3-50.6,83.2-77.1
		c14.3-14.1,26.9-30.2,37.3-47.7C1739.3,419.1,1741,415.2,1748,416.4z M823.1,1301.9c1.6-0.9,2.7-1.5,3.8-2.1
		c8.3-4.2,16.5-8.5,24.8-12.6c9.8-4.9,18.9-10.8,27.2-18.2c9.8-8.9,20.6-16.7,31.2-24.7c7.9-6,16.6-11.1,24.2-17.4
		c12.7-10.7,24.6-22.2,37.2-33c10.1-8.6,20.7-16.5,30.9-25c9.2-7.6,17.6-16.3,27.3-23.2c8.7-6.2,16.7-13,24.5-20.2
		c11.5-10.5,23.2-20.7,35-30.9c25.8-22.1,48.6-47.2,71.1-72.5c18.7-21,38.7-40.7,57.8-61.2c7.7-8.3,16.6-15.1,24.9-22.7
		c11.9-10.7,23.1-22,34.6-33.1c20.8-20.1,41.6-40.1,62.2-60.3c13.7-13.4,27.4-26.9,40.9-40.6c9.6-9.7,19.9-18.6,30.6-27.1
		c10.1-8,18.6-17.9,27.8-27.1c8.9-8.9,17.5-18.2,26.5-27c10.4-10.2,21.5-19.7,31.6-30.3c18.5-19.5,36.3-39.6,56.8-57
		c11.3-9.6,18.9-21.9,26.2-34.5c4.8-8.3,2.8-17.4-5.8-21.5c-1.8-0.9-6.1-0.2-7,1.1c-7,11.5-19,17.5-28.4,26.2
		c-13.8,12.8-27.8,25.3-40.4,39.2c-7.3,8-14.7,16.1-22.8,23.3c-17.6,15.5-33.8,32.5-50.5,49c-9.4,9.3-18.7,18.8-28.3,27.8
		c-14.5,13.6-29.6,26.5-43.9,40.3c-15.6,15.1-28.4,32.8-45.3,46.9c-13.6,11.5-24.6,26-37.8,38.1c-10,9.1-16.7,21.1-27.9,28.9
		c-3,2.1-5.7,4.6-8.4,7c-21.4,19-42.8,37.8-63.9,57c-8,7.3-15.6,15.2-22.4,23.6c-5.3,6.7-8.4,15.1-17.1,18.7c-1.3,0.5-1.9,2.7-3,3.9
		c-6.9,7.5-13.5,15.5-21,22.4c-9.5,8.7-21,15.1-28.3,26.2c-0.9,1.4-2.2,2.5-3.5,3.6c-18.2,17-36.4,34.1-54.8,50.9
		c-9.2,8.5-18.8,16.5-28.2,24.7c-3.7,3.3-7.2,6.9-11.1,9.9c-6.8,5.2-14.1,9.8-20.6,15.2c-15,12.5-29.7,25.3-44.5,38
		c-7.5,6.5-16.1,12.2-21.8,20.1c-9,12.5-18.5,23.9-31,33.1c-10.1,7.4-19.2,16.2-28.5,24.7c-4.9,4.5-9.3,9.6-13.6,14.6
		c-0.9,1-1.3,3.2-0.8,4.4C820.1,1299.9,821.8,1300.7,823.1,1301.9z M591.3,1391.6c1.9,4.1,2.5,8.8,5.1,10.4
		c9.7,6.2,19.5,14.1,30.2,16.3c22.5,4.5,45.4,5.3,67.2-5.4c16.1-7.9,32.5-15.1,45.9-27.4c3.8-3.5,5.4-11,3.1-15.4
		c-2.6-4.6-7.1-5.9-12-5.3c-3.3,0.4-6.8,1-9.6,2.5c-12.3,6.8-25.2,11.6-38.6,15.5c-16.5,4.8-33.3,4.9-50.1,4.4
		c-5.8-0.1-11.8-3.8-17.3-3.1C607.5,1385.2,600.2,1388.7,591.3,1391.6z"/>
	<path class="st0" d="M784.3,127.7c9.2-6.7,18.4-11.7,28.4-15.3c4.9-1.8,9.8-4,14.5-6.4c19.5-10,39.2-19.4,59.9-26.7
		c14.5-5.1,29.5-4,44.5-3.7c16.9,0.3,33.9,1.2,50.8,1.1c21.4-0.2,42.4,3,63.5,5.6c20,2.4,40,4.7,59.9,7.3
		c18.7,2.4,37.4,4.9,56.1,7.6c15.4,2.2,30.8,5.4,46.3,7.2c27,3.2,54,5.5,81,8.5c14.2,1.6,28.3,3.8,42.5,5.4
		c9.8,1.1,19.7,1.5,29.5,2.7c18.8,2.3,37.5,4.9,56.2,7.4c16.1,2.1,32.2,4.2,48.2,6.4c21.3,3,42.6,6.1,63.9,9.5
		c13.4,2.1,26.8,4.6,40.1,7.3c13.6,2.7,27.3,5.1,40.6,8.8c8.1,2.2,15.7,6.5,23.5,9.8c0,0.7-0.1,1.5-0.1,2.2
		c-6.2,0.8-12.5,1.5-18.7,2.5c-11.1,1.8-22.6,2.6-33.2,6.1c-17.1,5.8-33.9,12.6-49.1,23.1c-15,10.4-31.2,19.1-46.6,28.9
		c-19.3,12.3-37.9,25.7-54.3,41.9c-0.7,0.7-1.5,1.4-2.2,2.1c-6.9,7.2-13.9,11.2-25.3,8.9c-19.4-4-39.3-6-59.1-7.9
		c-18.8-1.8-37.8-2.9-56.7-3c-22.4-0.1-44.3-3.5-66.4-6.4c-25-3.2-50-6.4-75-9.7c-16.8-2.2-33.5-4.5-50.2-6.9
		c-25-3.6-50-6.7-74.8-11.3c-20.5-3.8-40.6-9.7-61-14.1c-21.6-4.6-41-14.8-61.3-23c-22.8-9.2-42.6-22.9-62.3-36.9
		c-16.2-11.5-32.2-23.2-48.3-34.8C787.6,130.8,786.3,129.4,784.3,127.7z M892.7,123c2.7,0,5.9,0.8,8.5-0.1
		c12.1-4.3,24.2-1.4,36.4-0.9c17.2,0.8,34.4,1.2,51.5,1.6c19.5,0.5,39.1,0.2,58.6,1.2c9.2,0.5,15-2.9,19.7-11.6
		c-3.2-2-6-4.3-9.2-5.6c-9.2-3.6-18.5-6.8-27.8-10c-8.5-2.9-16.9-7.2-25.5-7.9c-18.9-1.5-38-4.3-56.7,1.8
		c-7.8,2.6-15.7,5.2-23.5,7.8c-5.6,1.8-11.5,3.2-16.9,5.5c-3.8,1.6-6.8,4.8-10.5,6.5C890.7,114.5,890.6,114.3,892.7,123z"/>
	<path class="st2" d="M896.9,1576.2c6.7-17.5,13.1-35.1,20.3-52.5c9.9-23.9,20.6-47.4,30.5-71.2c5.7-13.7,10.5-27.9,15.8-41.8
		c9.6-25,19.4-50,29-75c5.8-15,11.4-30.1,17.1-45.2c5.1-13.6,10.9-27.1,15.2-41c6-19.7,14.2-38.5,22.2-57.4c0.5-1.2,1.6-2.6,1.4-3.6
		c-2.8-11.4,5.6-16.8,12.2-23c13.1-12.3,26.7-24,39.5-36.7c27.4-27.1,54.4-54.6,81.7-81.8c11.5-11.4,23.4-22.4,36.8-35.3
		c-1.1,4.3-1.4,6.4-2.2,8.4c-5.3,12.5-10.9,24.8-16,37.3c-4.6,11.4-8.6,23-13.2,34.3c-9.7,24.2-19.8,48.2-29.4,72.5
		c-3.3,8.3-5.5,17.1-8.8,25.4c-4.7,12-10.2,23.6-14.9,35.6c-10.9,28-22.1,56-31.9,84.4c-8,23.1-14.1,46.9-21.3,70.3
		c-2.2,7.2-5.1,14.3-7.7,21.4c-5.1,14-10.3,27.9-15.1,41.9c-5.9,17.1-11.4,34.4-17.5,51.5c-3.8,10.6-8.6,20.9-12.5,31.4
		c-9.1,24.9-17.8,49.9-26.8,74.9c-3.1,8.6-3.4,8.7-12.1,7.2c-0.7-0.1-1.3-0.3-1.9-0.5c-11.8-3-23.8-5.4-35.3-9.3
		c-17.2-5.8-34.1-12.7-51.1-19.2C900,1578.9,899.1,1577.9,896.9,1576.2z"/>
	<path class="st3" d="M1692.3,193.8c10.3-4.1,19.2,3.5,27.3,9.6c11.6,8.6,21.7,19.2,32.4,28.9c-0.3,0.6-0.7,1.2-1,1.8
		c-1.6-0.4-3.2-0.9-4.8-1.1c-3.8-0.5-8.3-2.2-11.4-0.8c-5.1,2.3-7.7,0.3-11.4-2.5c-22.9-16.8-48.4-27.1-76.7-30.3
		c-22.1-2.5-41.8,4.2-60.7,15.1c-16.9,9.8-35,17.5-51.9,27.2c-15.1,8.7-30.9,16.1-44,28.6c-8.2,7.8-19.5,12.4-29.4,18.4
		c-18.9,11.3-35.4,25.7-52.3,39.7c-14,11.6-28.3,23-42.3,34.6c-7.9,6.5-15.7,13.2-23.3,20c-14,12.4-27.6,25-41.7,37.2
		c-11.6,10-23.7,19.3-35.4,29.2c-16.5,13.8-32.8,27.9-49.2,41.8c-12.2,10.3-23.9,21-36.7,30.5c-24.5,18.2-47.6,38.1-70.2,58.7
		c-13.1,12-27,23.2-40.3,35.1c-14.4,12.9-28.7,25.8-42.6,39.2c-20,19.2-40.2,38.3-59,58.6c-13.1,14.2-27,27.4-41.7,39.9
		c-3.7,3.2-7.9,5.7-11.9,8.6c-0.8,0.6-2,0.9-2.4,1.7c-6.5,12.5-18.5,19.5-28,28.9c-9.8,9.8-19.9,19.5-29.6,29.4
		c-19,19.5-37.2,39.8-57,58.6c-16.8,16-35.4,30-52.9,45.2c-26.3,22.9-52.5,45.9-78.4,69.3c-11.6,10.4-22.3,21.8-33.4,32.8
		c-8.7,8.7-17.5,17.2-26,26.1c-14.5,15.1-29.4,29.8-43,45.7c-16.9,19.9-34.6,39.4-47.8,62.3c-5.8,10-12.5,19.4-19,28.9
		c-8,11.8-10.6,25.1-12.9,39c-3.4,21.5,2.9,41.5,6.3,62c2,11.9,6.8,22.5,15.4,31.6c4.6,4.9,7.4,11.6,11.3,17.9
		c-4,8.6-11,13.8-19.7,18.3c-13.9-16.1-28.7-31-36.5-51.4c-1.7-4.4-2.6-9.7-7.8-12.3c-1.2-0.6-1.9-2.7-2.2-4.2
		c-6.1-28.1-6.7-56,4.2-83.1c2.8-7,6.8-13.6,10.4-20.3c9.8-18.4,18.5-37.5,29.7-55c10.7-16.7,23.3-32.3,36.6-47.2
		c12.5-14,27-26.4,40.5-39.5c8.6-8.4,16.9-16.9,25.4-25.4c1.4-1.4,2.5-3.2,4-4.3c11.2-7.8,20.9-17,30.1-27.1
		c8.7-9.5,19.5-17,29.3-25.5c9-7.8,17.6-16.1,26.7-23.7c11.4-9.6,23.3-18.7,34.7-28.4c8.8-7.5,16.9-15.9,25.6-23.5
		c11.5-10,23.2-19.8,34.9-29.5c7.5-6.2,15.2-11.9,21.5-19.9c7.5-9.4,18-16.5,27-24.8c17.4-16,34.7-31.9,51.8-48.2
		c4.3-4.1,7.1-9.7,11.3-13.9c14.2-14,29-27.4,43.1-41.4c20-19.8,40.9-38.7,58-61.3c4.6-6,10.3-11.2,15.6-16.7
		c10.1-10.5,19.9-21.4,30.5-31.4c14.1-13.5,28.8-26.4,43.3-39.5c2.2-2,4.3-4.2,6.5-6.2c7.6-6.9,15-14.1,22.8-20.7
		c18.1-15.6,36.3-31,54.6-46.3c17.5-14.6,35.3-29,52.9-43.5c8.1-6.7,15.9-13.8,24.4-20.1c14.1-10.5,28.5-20.5,43-30.5
		c10.9-7.6,22.1-14.5,32.8-22.3c7.4-5.4,14-12,21.3-17.7c4.7-3.6,10-6.6,15-9.8c3.1-2,6.8-3.4,9.1-6c8.6-9.9,20.4-14.3,31.5-20
		c4.9-2.5,9.2-6.4,13.6-10c20.7-16.6,41-33.8,62.2-49.8c12.1-9.2,25.6-16.6,38.6-24.6c11.3-7,22.8-13.5,34.1-20.4
		c21.6-13.1,44.3-22.5,70-23.5c9.6-0.4,19.1-3,28.7-3.6c9.9-0.6,19.9-0.6,29.8,0.3C1680.5,187.7,1685.2,190.9,1692.3,193.8z"/>
	<path class="st0" d="M563.1,506.6c-3.5-2.8-5.3-4.1-6.8-5.6c-13.9-14.1-27.9-28-41.5-42.4c-9.9-10.4-22.5-14.7-35.9-17.4
		c-6.8-1.4-13.7-2.3-20.6-3.6c-10.8-2-16.7-7.4-19.3-19.1c-3.9-17.3-5.8-34.6-7.3-52.1c-0.8-10.2-0.1-20.5,0.2-30.7
		c0.3-10.9,0.9-21.7,1.2-32.6c0.6-21.9,1-43.8,1.8-65.7c1.1-29.4,2.5-58.9,3.8-88.3c0.7-16.2,1.4-32.4,2.2-48.6
		c0.1-2.1,0.9-4.2,1.7-7.7c3,2.3,5.2,3.7,6.9,5.4c23.6,23.7,47.1,47.6,65.9,75.5c12.4,18.3,21.4,37.5,22.3,60.5
		c0.9,22.1,4.7,44.2,6.7,66.3c1.8,19.8,2.5,39.7,4.5,59.5c1.7,17.8,4.6,35.5,6.7,53.2c2.7,22.4,5.3,44.8,7.4,67.2
		C563.7,488.2,563.1,496.2,563.1,506.6z"/>
	<path class="st2" d="M464.7,454.9c-10.5,5.6-17.8,12.2-28.5,12.7c-10.9,0.5-21.8,2.9-32.7,2.9c-14.8,0.1-29.9,0.3-44.5-2.2
		c-10.8-1.9-22.6-2.2-32.1-9.2c-0.8-0.6-1.7-1.2-2.7-1.3c-15.7-2.6-28.3-12.5-42.9-18c-12.4-4.6-23.2-11.7-33-21.1
		c-9.1-8.8-20.7-14.8-29.8-24.2c-19.1-19.8-39.4-38.5-58.4-58.4c-7.2-7.6-12.6-17-18.5-25.8c-9.3-13.9-15.2-29-18-45.6
		c-3.1-18.7-4.3-37.3-1.6-57.7c4.8,1.4,9.1,2.3,13.1,3.8c5.2,2,10.3,4.5,15.4,6.7c1.2,0.5,2.8,0.6,3.7,1.5
		c12.2,11.5,28.1,17.2,41.7,26.5c16.3,11.2,32.9,22,49.1,33.4c17.5,12.4,35.1,24.7,51.7,38.2c23.9,19.4,47.3,39.4,70.3,59.9
		c22.9,20.4,45,41.8,67.7,62.3c6.6,5.9,13.5,11.9,23.2,12.5C459.7,452,461.2,453.2,464.7,454.9z"/>
	<path class="st0" d="M825.7,803c-9.9,9.2-19.1,17.7-28.4,26.4c-9.6-9.4-18.7-17.9-27.2-27c-13.5-14.5-26.9-29.1-39.7-44.1
		c-30.4-35.5-60.7-71.1-90.8-106.9c-16.2-19.2-33.3-37.7-52-54.5c-10.5-9.5-22.9-15.3-37.4-18.9c-19.2-4.8-35.8-0.5-53.2,5.6
		c-10.5,3.7-21.6,5.9-32.4,8.8c-11.8,3.1-19,1.6-28.1-6.5c-12.5-11-27.3-19.4-41.1-29c-2.2-1.5-4.2-3.3-6.3-4.9
		c-5.3-4-10.7-7.7-15.7-11.9c-5.3-4.4-10.2-9.4-15.5-13.9C344,514.6,330.1,503,316,491.7c-11.6-9.3-23.8-17.9-35.4-27.2
		c-8.3-6.6-15.9-14-23.8-21.1c-0.3-0.3,0-1.2,0-1.8c0.5-0.2,1.3-0.8,1.7-0.6c10.6,5.3,21.1,10.7,31.6,16.2c2.1,1.1,3.9,2.5,6,3.5
		c9.7,4.3,19.2,9.3,29.2,12.4c12.9,4,26.1,8.1,39.5,9.3c17.1,1.6,34.5,1.1,51.7,0.4c16.9-0.7,33.4-4.8,49.4-10.4
		c2-0.7,4-3.5,4.7-5.7c1.5-4.7,5.7-7.3,8.9-6.4c5.6,1.6,10.3-0.5,15.4-1.1c2.3-0.3,5.3,1,7.1,2.5c6.2,5.5,12.2,11.3,17.9,17.3
		c15.4,16,30.5,32.3,46,48.2c15.5,15.9,31.3,31.5,46.7,47.5c23.1,23.8,46.6,47.2,68.8,71.7c27,29.8,53.1,60.3,79.1,91
		C780.2,760.7,802.4,781.6,825.7,803z M446.4,531.4c0.5,9.8,10.1,21.4,19.6,23.6c7.5,1.7,12.7-2.3,17.4-7.3c4.2-4.4,6-9.9,4-15.5
		c-3.4-9.6-15.5-20.4-29.1-16.6C450.6,517.7,446,523.2,446.4,531.4z"/>
	<path class="st0" d="M471.1,1142.2c0-9.6,0.3-17.1,0-24.7c-1.3-31.1-2.7-62.2-4.4-93.3c-1.2-22.5-3.1-44.9-4.5-67.4
		c-1.2-18.8-1.7-37.6-3.1-56.4c-0.7-9.8-2.7-19.6-4-29.4c-1.6-12.1-3.2-24.2-4.3-36.4c-1.6-18.5-2.4-37-4.1-55.4
		c-1.8-19.5-4.3-38.9-6.4-58.4c-0.7-6.5-0.8-13.1-1.1-19.7c-0.8-16.8-2.7-33.5-6.2-50.1c-3.9-18.4-5.8-37.3-8.5-56
		c-0.2-1.1,0.1-2.3,0.3-4.7c11.1,7.7,21.3,14.7,29.1,20.1c27.1-5.5,50.2-15.3,74.7-19.9c0.3,0.6,0.6,1.2,0.9,1.8
		c-6.2,7.9-12.6,15.8-18.7,23.7c-12.1,15.7-22.2,32.2-22.2,53.1c0,3.6-1.3,7.2-1.7,10.8c-0.4,3.9-1,7.8-0.7,11.7
		c2,26.5,8.3,52.3,12.4,78.4c4.5,28.2,8.3,56.5,11.7,84.8c2.3,19.4,3.1,39,4.8,58.5c2.3,26.1,4.8,52.1,7.3,78.1c0,0.3,0.1,0.7,0.1,1
		c-0.5,17.1,4.4,33.5,7.2,50.1c1.1,6.5,2.4,13.1,2.5,19.6c0.1,2.9-1.7,6.6-3.9,8.6c-16.6,15.7-28.2,35.2-42.3,52.8
		C481.7,1129.4,480.2,1137.2,471.1,1142.2z"/>
	<path class="st0" d="M683.1,2155.1c6.8-2.6,11.4-3.7,15.2-6c24.9-14.8,51.4-26.2,77.5-38.4c4.4-2.1,8.4-5.3,12.4-8.1
		c7.2-5,13.8-11.2,23.6-12.9c0.2,2.4,0.9,4.4,0.5,6.1c-3.8,16.1-7.2,32.4-11.9,48.2c-3.8,12.7-9.5,24.8-13.7,37.4
		c-7.7,23-14.7,46.2-22.4,69.1c-4.3,12.8-9.8,25.3-14.6,38c-7.2,19.2-14.1,38.6-21.2,57.9c-7.8,21.1-16,42.1-23.7,63.3
		c-5.6,15.6-10.6,31.4-15.9,47.1c-6.1,18.2-11.7,36.7-18.4,54.7c-5.1,13.6-11.8,26.6-17.4,40.1c-12.1,29.4-23.9,58.9-36,88.4
		c-4.5,11-9.3,21.8-14,32.7c-0.5,1.1-1.4,2-3,4.3c-0.8-3.5-1.7-5.5-1.7-7.6c0-32.6-0.1-65.2,0.3-97.8c0.2-14.3,1.4-28.5,2-42.8
		c1.1-28.2,2.2-56.4,2.9-84.7c0.4-20.2,0.2-40.4,0-60.5c-0.2-20.9-0.3-41.8-1-62.7c-0.4-11.5-1.7-23.1-3-34.5
		c-0.7-5.9-3.2-7.1-9.5-7.9c-7.9-1-14,1.3-19.8,6.6c-3.4,3.1-7.6,5.9-11.9,7.1c-7.4,1.9-12.8,6.7-18.9,10.7
		c-10.6,6.9-21.4,13.4-32.3,19.7c-8.9,5.2-18,9.9-27.1,14.7c-5.6,3-7.1,3.3-14.5,2.8c-0.1-1.2-0.4-2.5-0.3-3.7
		c4.6-31.8,9.4-63.6,14-95.4c2.5-17,4.9-34.1,7.4-51.1c2.1-14.5,4.4-28.9,6.5-43.3c0.5-3.6,0.8-7.2,1.4-10.8
		c2.2-15.8,4.7-31.5,6.7-47.3c3.9-30.9,10.8-61.5,11.6-92.8c0.2-7.2,1.9-14.4,2.8-20.7c16.7-6.1,32.2-11.7,47.7-17.5
		c2.2-0.8,5.4-3.1,5.4-4.7c0.1-6.4,4-10.2,8.6-14.1c-2.9-3.8-5.7-7-8.1-10.4c-6-8.9-7.7-18.6-7.1-29.4c0.5-8.4,2.7-15.3,8.1-21.8
		c4.6-5.6,10.6-6.3,16.8-7c0.7-0.1,1.6,1,3.9,2.4c-3.9,2.8-6.7,4.8-9.5,6.8c-15.8,11-15,34.8-4.7,43.8c7.7,6.8,15.8,13.4,27.9,12.3
		c11.7-1.1,17.9-9.2,25.1-16.3c1.2-1.2,1.2-4.7,0.4-6.6c-3.6-9.3-4.4-20-13.3-26.9c-5.3-4.1-1.2-8.1,2.3-12.5
		c11,5,15.3,14.5,17.5,25c1.1,5.1,0.8,10.6,0.2,15.8c-0.5,4.1-2.2,8.2-3.7,12.1c-2,5.6,0.3,8.9,6.1,7.5c8-1.9,15.9-4.4,23.7-7.1
		c8.8-3.1,17.4-6.5,26-10.2c5.4-2.3,10.5-5.3,15.8-8c8.9-4.4,12.6-2.3,12.1,7.8c-0.6,11.5-0.5,22.9-3.8,34.4
		c-3.7,12.7-4.6,26.1-7,39.2c-4.8,26.8-10.1,53.4-14.7,80.2c-2.1,12.4-3,24.9-4.5,37.4c-1.4,11.5-2.9,23-4.2,34.6
		C682.6,2145.3,683,2149.1,683.1,2155.1z M605.2,2622.3c9.7-4.8,10.8-5.6,11.9-13.4c1.6-10.7,4.8-20.5,11.6-29.1
		c1-1.3,1.6-2.9,2.3-4.4c7.2-17.4,15-34.6,21.3-52.3c8.8-24.9,16.4-50.3,24.7-75.3c5-15,10.3-30,15.7-44.9
		c3.6-10,7.9-19.7,11.4-29.7c6.6-18.4,12.4-37,19.3-55.3c4.3-11.4,10.1-22.3,15.1-33.5c3.7-8.4,7.3-16.9,10.7-25.5
		c4.9-12.3,9.3-24.7,14.2-37c7-17.5,15-34.6,21.1-52.4c4.6-13.4,7.1-27.6,10-41.5c0.5-2.5-0.4-6.1-2.1-7.9c-0.9-1.1-5-0.2-7.1,0.8
		c-17.3,8.3-34.8,16.3-51.5,25.6c-18.4,10.2-38.7,15.3-58,24.4c-4.2-17.9-1.7-35.5-1.9-52.9c-0.1-15.2,2.8-30.4,4.9-45.5
		c1.7-12.5,4.2-24.9,5.9-37.4c2.8-20.7,7.1-41.1,13.5-61.1c4.2-13.2,6.2-26.8,3.9-40.5c-11.4-1.9-21.6-1.9-31.6,3.6
		c-5.4,3-11.8,4-17.7,6.1c-19.3,6.9-38.5,14-57.8,20.7c-13.4,4.7-26.9,9.3-40.5,13.3c-8.8,2.6-17.9,4.2-27,6.1
		c-6.1,1.3-7.8,4.7-3.3,8.4c3.4,2.9,2.6,5.6,2.3,8.8c-1,11.2-2.2,22.5-3,33.7c-2,26.1-3.2,52.4-5.8,78.4c-1.7,16.8-5.8,33.3-8.1,50
		c-2.3,16.1-5.3,32-10.8,47.3c-1.5,4.1-3,8.1-3.9,12.4c-3.4,15.9-6.6,31.8-9.9,47.8c-1.9,9.4-4.3,18.7-5.7,28.2
		c-0.8,5.4-0.5,11.1,0.3,16.6c0.2,1.5,4,3.9,5.8,3.6c3.5-0.6,6.7-2.6,9.9-4.4c3.8-2.1,7.3-4.6,11-6.8c8.5-5.1,17-10.2,25.6-15.2
		c10.2-6.1,20.3-12.5,30.7-18.3c6.3-3.5,13.1-6,19.6-9.2c8.8-4.3,17.6-8.8,26.8-13.4c1.5,2.1,3.3,3.6,3.5,5.3
		c1.6,11.1,3.4,22.2,4,33.4c0.5,9.6-0.8,19.2-0.8,28.8c0.2,23.6,0.6,47.1,1.2,70.7c0.2,8.6,1.8,17.2,1.5,25.8
		c-0.4,12.8-2.1,25.6-2.8,38.5c-1.5,27.2-3,54.3-4.1,81.5c-1,25.5-2.2,51-6.2,76.3C604.8,2614.5,605.2,2617.7,605.2,2622.3z"/>
	<path class="st0" d="M1032.7,1192.8c-5.7,16.5-10.9,32.2-16.5,47.6c-6.2,17.1-12.6,34-19.1,51c-7.3,19.2-14,38.7-22.2,57.5
		c-6.8,15.5-11.6,31.7-17.6,47.4c-10.1,26.6-21.7,52.6-32.5,78.9c-6.1,14.8-12,29.8-18.1,44.6c-5.3,12.8-10.9,25.6-16.2,38.4
		c-0.9,2-1.4,4.3-1.5,6.6c-0.3,4,0.1,8-0.4,11.9c-1,9.4-1.3,9.8,7.4,13.4c16.9,6.9,33.6,14.2,51,19.4c12,3.6,24.1,6.6,35.8,11.4
		c12.1,5,18.8,1.7,24.5-10.6c3.9-8.4,7.7-16.9,10.1-25.8c4.8-17.7,14-33.5,20.1-50.6c3.3-9.3,7.5-18.4,10.7-27.8
		c4.8-14.3,8.8-29,13.6-43.3c5.3-16,11.1-31.8,16.6-47.7c6.3-18.4,12.4-36.9,18.7-55.3c3.1-9,6.5-17.9,9.6-26.9
		c4.3-12.5,8.3-25.2,12.8-37.6c6.8-18.7,13.9-37.2,21-55.7c8.1-21.3,16.4-42.6,24.6-63.8c1.8-4.6,4.3-9,6-13.6
		c7.4-19.3,14.6-38.8,22.1-58.1c5.1-12.9,10.7-25.6,16-38.4c7.1-17.1,14.1-34.2,21.1-51.3c0.9-2.1,1.6-4.7,1.3-6.8
		c-1.5-8.8,3.9-13.9,9.3-19.3c3.9-3.8,7.7-7.8,12.2-12.4c0.7,2.4,1.4,3.5,1.1,4.1c-8.6,22.3-17.3,44.5-25.8,66.8
		c-6.5,17.3-12.7,34.7-19,52.1c-6.1,16.5-12.2,32.9-18.3,49.4c-8.3,22.6-17.8,44.9-24.5,68c-5.8,19.7-13.1,38.8-19.9,58.2
		c-10,28.3-20.4,56.5-30.6,84.7c-10.1,28.1-20.6,56-30.2,84.3c-9.4,27.9-17.8,56.1-26.9,84.1c-3.1,9.4-7.3,18.5-10.4,28
		c-6.7,20.4-12.9,41-19.7,61.5c-2.3,6.9-5.4,13.5-8.1,20.2c-1.7,4.1-4.9,6.1-9,7.2c-5.1,1.3-10.3,2.5-15.3,4.2
		c-11.7,4.2-20,12.6-25.8,24.5c-15-6-29.4-11.7-43.7-17.7c-14.4-6.1-30.1-6.1-45.6-8.3c1.4-5.5,2.5-9.5,3.4-13.6
		c3.7-16.3-1.4-30.6-10.3-44c-2.6-3.9-5.3-7.7-7.4-11.8c-2.9-5.8-3-11.6-1.4-18.2c5.3-21.8,16.3-41.2,24-62
		c5.9-15.9,11.7-31.7,18-47.5c3.9-9.8,8.7-19.3,12.6-29.2c4.3-10.7,8-21.6,12.2-32.4c7.8-20,15.4-40.1,23.6-59.9
		c8.7-21,18.2-41.7,27.1-62.6c4.6-10.9,8.3-22.2,13-33.1c2.3-5.4,5.2-10.9,9.1-15.2c7.4-8.1,15.6-15.4,23.5-23
		C1029.9,1194,1031.2,1193.6,1032.7,1192.8z"/>
	<path class="st2" d="M1419.9,1039.3c-1.3,1.4-2.6,3.7-4.1,3.9c-13.5,1.7-27,3-40.6,4.3c-5.7,0.6-10.8-1.6-16.3-3.2
		c-21.2-6.2-29.5-23.2-35.6-41.7c-6-18.6-10.5-37.7-16.3-56.3c-2.1-6.7-3.2-14.4-10.8-18.2c0.3-5.6,4.1-8.9,8.1-11.8
		c19.4-14.1,35.5-31.8,52.1-48.9c6.6-6.8,13.5-13.4,20.9-20.7c1.4,2.3,2.8,3.7,3.4,5.4c5.1,15.4,10.6,30.7,14.8,46.3
		c1.9,6.9,1.6,14.5,1.4,21.8c-0.1,5-2.8,9.5-6.8,12.8c-9.4,7.7-19.3,14.8-28,23.3c-3.7,3.6-6.1,9.7-6.7,15c-2,18.1,2,35,9.4,52
		c5.9,13.6,15.6,15.7,27.5,15.5c8.5-0.1,17-1.3,25.6-2C1418.7,1037.6,1419.3,1038.4,1419.9,1039.3z"/>
	<path class="st0" d="M564.3,1759.8c-1.5,10.4-7.7,15.2-17.9,18.2c-14,4.1-27.1,3-41.2,0.9c-17.7-2.7-30.4-12.9-41.9-24.4
		c-7.5-7.5-11.8-18.1-15.1-28.6c-6.7-21.7-8.8-43.9-10-66.4c-1.4-25.6-1.9-51.1,0.7-76.5c0.5-4.6,1-9.3,2.2-13.7
		c6.5-23.4,16-45.6,28.9-66.2c7.9-12.7,20.1-19.9,34.4-23.7c15.6-4.2,30.9-2.9,45.9,2.7c0.4,0.2,0.6,1.1,1.4,2.5
		c-3.1,0-6,0.5-8.6-0.1c-21.6-5-39.2,3-54.7,16.9c-13.4,12-22.4,27-26.6,44.5c-2.9,12.2-5.5,24.5-8.1,36.8c-0.5,2.2-0.5,4.6-0.4,7
		c0.6,19.5,1,39,2.1,58.4c0.8,14.8,1.7,29.7,4,44.3c1.9,12.3,5.7,23.7,14.4,34.1c7.7,9.1,15.2,18,24.9,24.9c4.5,3.3,8.9,7.2,14,9.2
		c8.4,3.4,16.1-0.2,23.2-4.9c3.3-2.1,6.6-4.8,10.2-5.6C554.5,1748.2,561,1751.2,564.3,1759.8z"/>
	<path class="st3" d="M1743.2,242.1c1.5,1.7,3.4,3.1,4.3,4.9c4.4,8.2,7.4,16.6,7.7,26.3c0.4,12.5,2.9,24.9,4.4,37.4
		c1.6,13.8,2.8,27.3-0.7,41.4c-1.9,7.8-2,16.2-5.8,23.7c-2.7,5.3-5.7,10.4-8.6,15.5c-7.1,12.7-14.4,25.1-24.1,36.1
		c-2.8,3.2-5,7-7.7,10.2c-12.5,14.6-24.5,29.6-37.9,43.4c-9.5,9.8-20.8,17.9-31.3,26.8c-0.5-0.4-0.9-0.9-1.4-1.3
		c1-1.4,1.7-3.1,3-4.2c14.9-12.9,26.9-28.3,37.6-44.7c9.4-14.4,18.5-29.1,27.9-43.5c8.2-12.4,12.9-26.2,16.4-40.4
		c3.3-13.5,6.4-27,9.4-40.5c0.5-2.2,0.5-4.6,0.5-7c0.5-19.5,1-39.1,1.4-58.6c0-2-0.2-4-0.7-5.9
		C1735.8,254.5,1737.6,248.3,1743.2,242.1z"/>
	<path class="st3" d="M518.5,1377.7c3.4-3.3,6.1-6.2,9.1-8.7c16.4-13.5,32.8-26.9,49.3-40.3c6-4.9,8.2-5.3,13.6,0
		c6.8,6.7,12.9,14.1,19.6,21.6c-2.3,2.7-3.7,4.9-5.6,6.5c-13.5,11.7-27,23.4-40.6,35c-1.3,1.1-2.5,2.2-3.7,3.4
		c-7.5,7.3-9.3,7.6-17.7,1.9c-5.7-3.8-11.3-7.8-16.7-12C523.1,1383.2,521.1,1380.5,518.5,1377.7z"/>
	<path class="st2" d="M574.3,1430.3c4.6,15.5-0.1,29.1,7.9,41.9c5.4,8.7,4.1,20.3-1,29.6c-3.3,6.2-7,12.4-13.7,16.6
		c-14.2,9-35.1,3.9-38.2-20.5c-0.5-3.9,2.5-5,6-4.5c1.7,4.1,3.2,8.3,5.1,12.3c2,4.1,6,6.1,10,4.8c8.2-2.8,16.2-6.2,20.8-14.4
		c3.4-6.1,5.5-12.4,1.4-18.8c-4.6-7.3-11.8-12-20.1-10.1s-15.6-0.4-23.7-1.3c-0.1-13.6-2.1-27,1.5-40.4c2.9-10.8,6.1-12.6,16.3-7.9
		C556.4,1422.1,566.3,1426.7,574.3,1430.3z"/>
	<path class="st2" d="M580.5,1735.5c26.5-70.5,30.9-139.9-8.9-208.3c4.2-3.4,7.9-6.4,12.3-9.9c9.3,15.5,19.8,28.7,24,46.3
		c4.9,20.5,9,40.9,6.6,61.9c-1.5,13.4-4.2,26.7-6.4,40.1c-1,6.2-1.5,12.5-3.2,18.5c-3.9,13.7-8.3,27.3-12.9,40.8
		c-1.4,4-4,7.6-6.4,11.2C583.8,1738.8,581.8,1737.8,580.5,1735.5z"/>
	<path class="st0" d="M1452.9,1127.8c6.6,0,11.1-0.2,15.6,0c9.3,0.5,14.1,6.9,17.4,14.4c3.4,7.8,0,21-6.8,26.3
		c-6.2,4.8-13.1,8.8-19.7,13.2c-11.6,7.6-21.5,17-26.6,30.1c-2.9,7.4-4.1,15.5,1.6,22.8c1.3,1.7,2.1,3.8,3.6,6.5
		c-7.5-0.8-11.3-5.6-14.8-10c-7.7-9.6-8.3-25.6-0.6-35.4c4.8-6.1,11.4-10.8,17.7-15.6c6-4.6,13-8,19-12.6c10.2-7.9,11-18.5,2.8-28.4
		C1459.4,1135.9,1456.8,1132.6,1452.9,1127.8z"/>
	<path class="st0" d="M1436.9,1030.2c8.9,7.5,11,16.6,14,25.2c1.1,3,0.4,5.8-2.6,7.8c-10.6,7.3-21,14.8-31.5,22.2
		c-5.7,4-11.8,7.5-17.2,11.8c-14.7,11.7-19.5,28.3-13,47.4c-4.8-1.4-9.2-1.7-12.3-3.9c-5.8-4.1-9.3-10-9.7-17.6
		c-0.7-12.9,8.2-18.6,17.2-24.5c6.4-4.1,12.9-8.1,19-12.7c14.6-10.9,24.4-25.7,32-42C1434.7,1040,1435.4,1035.5,1436.9,1030.2z"/>
	<path class="st0" d="M578.4,1888.8c2.7-2.4,4.6-4.1,6.4-5.7c7.5-6.6,14.8-13.2,14.3-24.6c-0.6-13.1-5.3-18.3-18.6-19.3
		c-2.3-0.2-4.9,0.4-6.9-0.4c-1.8-0.7-3.7-2.6-4.3-4.4c-0.3-0.9,1.9-3.4,3.4-4c15.5-6.1,32,3.9,38.7,19.5c5,11.8,1.8,21.1-2.6,31.1
		C603.8,1892.6,592.3,1896.1,578.4,1888.8z"/>
	<path class="st0" d="M1461.7,1315.2c-0.8-2.8-1.6-5-2.1-7.2c-1.1-5,0-8.9,4.4-12.1c6.7-4.8,13.1-10.1,19.6-15.2
		c10.4-8.3,18.7-18,19.9-32.1c0.1-1.3,0.7-2.6,1.2-3.8c0.3-0.8,0.8-1.5,1.6-2.8c4.1,8.4,5.7,16.7,5.5,25.4c-0.2,6.8-3,12.2-8.4,16.3
		C1489.7,1293.9,1476.1,1304.2,1461.7,1315.2z"/>
	<path class="st0" d="M559.3,1742.3c4.8-4.4,8.6-2.5,11.8-0.4c3.9,2.5,8.2,5.1,10.7,8.8c6.6,9.8,13.3,19.4,9.2,32.9
		c-3.8,12.4-11.6,21.4-20.9,29.3c-3.4,2.9-9.2,3.5-14,4.1c-1.5,0.2-4.3-3-5-5.1c-0.5-1.6,1-4.4,2.4-5.8c1.2-1.1,3.7-1,5.6-1.4
		c9.3-2,15.6-8.1,20.7-15.7c0.8-1.3,1.3-3.2,1.1-4.7c-1.7-13.2-3.8-26.2-14.7-35.5C564.1,1746.9,562,1744.8,559.3,1742.3z"/>
	<path class="st2" d="M1507.6,1349.8c-8-1.7-16.4-2.5-24-5.4c-4.9-1.9-9.1-6.4-12.7-10.6c-3.7-4.2-1.5-8.3,4.2-8.8
		c1.3-0.1,2.7-0.2,4,0.2c11.5,3,22.9,6.2,34.4,9.3c3.1,0.8,5.1,2.3,6.3,5.5c1.8,5.1,0.3,8.4-4.9,8.9c-2.3,0.2-4.6,0-7,0
		C1507.8,1349.1,1507.7,1349.4,1507.6,1349.8z"/>
	<path class="st2" d="M1442.8,1226.2c15.3,0,29.2,0,43.9,0c1.4,4.9,7.3,9.1,5.5,16.6c-10.8,0-21.4,0.2-31.9-0.2
		c-2.7-0.1-5.9-1.6-7.7-3.5C1449.1,1235.4,1446.3,1231,1442.8,1226.2z"/>
	<path class="st0" d="M568.5,1851.6c-7.6,10.3-11.7,9.9-19.4,1.8c-10.8-11.4-12.3-24.9-11.7-39.4c0.1-2.6-0.5-5.2-0.6-7.9
		c-0.2-5.8,4.9-12.3,10.7-14.2c5.6-1.8,11.2,0.3,15,5.8c-0.4,0.4-0.8,1.1-1.3,1.1c-4.4,0.5-9.8-1.8-12.8,3.2
		c-3.8,6.3-7.2,12.9-5.2,20.7c1,3.8,2.3,7.6,3.5,11.4C550.1,1844.6,555.2,1853,568.5,1851.6z"/>
	<path class="st2" d="M1394.9,1129.3c11,0,20.9-0.1,30.8,0.1c2.2,0,4.6,0.3,6.6,1.2c4.2,1.9,8,4.5,12.2,6.4c4,1.8,6.6,4.2,6.3,9.9
		c-11.1-0.8-22,0.6-32.3-4.3c-2.3-1.1-5.1-1.2-7.8-1.3C1400.6,1140.5,1400.3,1140.4,1394.9,1129.3z"/>
	<path class="st0" d="M1515.3,1368.9c2.4-2.7,4.7-5.6,7.4-7.9c5.9-5.2,11.8-10.4,10.8-20.6c5.9,9.2,6.2,13,0,18.5
		c-5.2,4.7-11.6,8.1-17.4,12C1515.9,1370.2,1515.6,1369.5,1515.3,1368.9z"/>
	<path class="st2" d="M174.6,364.7c11.5,8.4,22.7,17,30.3,29.4C192.2,386.9,183.7,375.5,174.6,364.7z"/>
	<path class="st4" d="M592.4,1861.7c-5.3,0.4-10.4,0.8-16.9,1.3"/>
	<path class="st2" d="M566.7,1868.4c-0.7,5.7-4,7-7.3,6.9c-2.1-0.1-5.6-1.7-6-3.2c-1-4.2,2.7-5.9,6.1-6.1
		C562,1865.9,564.5,1867.6,566.7,1868.4z"/>
	<path d="M557.5,1496.8c-0.5-3.6-1-7.1-1.6-10.7c2.3-0.8,5-1.7,7.8-2.7C565.2,1492.2,565.2,1492.2,557.5,1496.8z"/>
	<path d="M562.7,1784.4c2.6-2.1,4.3-4.2,6.4-4.9c1.2-0.4,4,1,4.6,2.3c0.8,1.8,0.4,4.3-0.2,6.2c-0.2,0.6-3,1-4.3,0.6
		C567.2,1787.7,565.4,1786.2,562.7,1784.4z"/>
	<path class="st2" d="M533.3,1793c-2.5,2.9-3.9,4.5-5.3,6.1c-3.7-1.6-4-4.3-2-6.3C527,1791.9,529.9,1792.9,533.3,1793z"/>
	<path class="st4" d="M544.1,1495c3.8,0.9,6.8,1.7,10.1,2.5C548.1,1501.2,548.1,1501.2,544.1,1495z"/>
	<path class="st2" d="M232.4,1110c-30.9-22.5-61.9-44.9-92.8-67.4c16.7,2.6,33.1,5.6,45.8,17.6c16.6,15.6,33.1,31.4,49.6,47
		C234.1,1108.2,233.2,1109.1,232.4,1110z"/>
	<path d="M823.1,1301.9c-1.3-1.1-3.1-1.9-3.5-3.2c-0.5-1.2-0.1-3.4,0.8-4.4c4.4-5,8.8-10.1,13.6-14.6c9.3-8.5,18.4-17.3,28.5-24.7
		c12.6-9.2,22-20.6,31-33.1c5.7-7.8,14.3-13.6,21.8-20.1c14.7-12.8,29.5-25.6,44.5-38c6.6-5.5,13.9-10,20.6-15.2
		c3.9-3,7.3-6.6,11.1-9.9c9.4-8.3,19-16.3,28.2-24.7c18.4-16.9,36.5-33.9,54.8-50.9c1.2-1.1,2.6-2.2,3.5-3.6
		c7.3-11.1,18.8-17.5,28.3-26.2c7.5-6.9,14.1-14.9,21-22.4c1.1-1.2,1.7-3.3,3-3.9c8.7-3.6,11.8-12.1,17.1-18.7
		c6.7-8.4,14.4-16.3,22.4-23.6c21.1-19.3,42.6-38.1,63.9-57c2.7-2.4,5.5-4.9,8.4-7c11.2-7.8,17.9-19.8,27.9-28.9
		c13.2-12,24.2-26.6,37.8-38.1c16.8-14.2,29.6-31.9,45.3-46.9c14.3-13.8,29.4-26.7,43.9-40.3c9.7-9,19-18.5,28.3-27.8
		c16.6-16.5,32.8-33.5,50.5-49c8.1-7.2,15.5-15.2,22.8-23.3c12.6-14,26.6-26.4,40.4-39.2c9.4-8.7,21.4-14.8,28.4-26.2
		c0.8-1.4,5.1-2,7-1.1c8.7,4.1,10.6,13.1,5.8,21.5c-7.2,12.7-14.8,24.9-26.2,34.5c-20.5,17.4-38.3,37.5-56.8,57
		c-10,10.6-21.2,20.1-31.6,30.3c-9,8.8-17.6,18-26.5,27c-9.1,9.2-17.7,19.1-27.8,27.1c-10.7,8.5-21,17.3-30.6,27.1
		c-13.5,13.7-27.2,27.2-40.9,40.6c-20.7,20.2-41.5,40.2-62.2,60.3c-11.5,11.1-22.8,22.4-34.6,33.1c-8.3,7.5-17.3,14.4-24.9,22.7
		c-19.1,20.6-39.1,40.2-57.8,61.2c-22.5,25.3-45.4,50.4-71.1,72.5c-11.8,10.1-23.6,20.4-35,30.9c-7.8,7.2-15.8,14-24.5,20.2
		c-9.7,6.9-18.1,15.6-27.3,23.2c-10.2,8.5-20.9,16.4-30.9,25c-12.6,10.8-24.5,22.4-37.2,33c-7.6,6.4-16.2,11.4-24.2,17.4
		c-10.6,8-21.4,15.8-31.2,24.7c-8.3,7.5-17.3,13.3-27.2,18.2c-8.3,4.1-16.5,8.4-24.8,12.6C825.8,1300.3,824.7,1301,823.1,1301.9z
		 M1569.3,594.9c-7.5,6.8-13.3,12.1-19.2,17.4c-8.9,8-18.1,15.7-26.6,24.1c-14.1,14-27.5,28.7-41.5,42.8
		c-6.8,6.8-14.4,12.8-21.3,19.5c-21.2,20.7-42.2,41.5-63.3,62.3c-19.6,19.3-39.4,38.5-58.9,58c-5.2,5.1-9.3,11.3-14.6,16.3
		c-11.1,10.5-23.4,19.8-33.7,30.9c-18.4,20-37.2,39.5-57.5,57.6c-16.8,15-34,29.6-50.2,45.2c-18.1,17.5-35.2,36-52.7,54
		c-4.2,4.3-8,9-12.7,12.6c-16.1,12.3-30.6,26.3-44.2,41.3c-4.7,5.1-9.1,10.6-14.2,15.2c-13,11.7-26.7,22.7-39.6,34.5
		c-10.5,9.6-20.1,20.1-30.6,29.7c-6.1,5.5-13.3,9.7-19.7,15c-17.7,14.5-35.2,29.3-52.9,44c-7.8,6.5-16.5,12.3-23.3,19.7
		c-9.3,10.3-17.3,21.7-29.6,29.1c-3.9,2.4-6.6,6.9-10.5,11.1c7.7-2.3,19.8-10.3,27.1-17.3c4.6-4.3,9.3-8.6,14.2-12.5
		c15.2-11.9,30.5-23.6,45.7-35.4c4.5-3.4,9.1-6.7,13.3-10.4c9.7-8.6,18.9-17.7,28.7-26c19.7-16.7,39.9-32.9,59.7-49.5
		c12.9-10.8,25.9-21.5,38.1-33.1c18.6-17.6,36.8-35.6,54.6-53.9c14.6-15,28.4-30.6,42.4-46.1c7.1-7.8,13.9-15.9,20.9-23.9
		c6.3-7.2,11.8-15.7,19.4-21.2c8.6-6.2,17.1-11.9,24.7-19.5c25.4-25.2,51.7-49.5,77.4-74.4c24.8-24,49.2-48.4,73.9-72.5
		c6.4-6.3,13.7-11.7,20.1-18c15.9-15.6,31.4-31.6,47.2-47.3c11.5-11.5,23.3-22.6,34.7-34.2c9.5-9.7,18.4-20,28-29.6
		c8.4-8.4,17.9-15.8,26-24.5c7.2-7.7,13.1-16.7,19.4-25.2C1569,600.1,1568.8,598.5,1569.3,594.9z"/>
	<path d="M591.3,1391.6c8.9-2.9,16.2-6.4,23.8-7.3c5.6-0.7,11.5,3,17.3,3.1c16.8,0.4,33.6,0.3,50.1-4.4c13.5-3.9,26.4-8.7,38.6-15.5
		c2.8-1.6,6.3-2.1,9.6-2.5c4.9-0.7,9.4,0.6,12,5.3c2.4,4.3,0.8,11.9-3.1,15.4c-13.5,12.2-29.8,19.5-45.9,27.4
		c-21.8,10.7-44.8,9.9-67.2,5.4c-10.8-2.2-20.5-10.1-30.2-16.3C593.8,1400.4,593.2,1395.7,591.3,1391.6z M609.6,1398
		c15,13.6,34,13.3,51.8,12.4c25.5-1.3,47.5-13.7,68.3-27.8c2.1-1.5,3.4-4.2,5.2-6.6c-4.8-3.8-7.9-1.5-11,0.3
		c-13.7,7.6-28.2,13.6-43.4,16.8c-21.4,4.4-43.2,8.1-64.9,0.8C611.9,1392.5,610.3,1394.6,609.6,1398z"/>
	<path d="M892.7,123c-2-8.7-1.9-8.5,4.6-11.6c3.7-1.8,6.8-4.9,10.5-6.5c5.4-2.3,11.3-3.7,16.9-5.5c7.8-2.6,15.7-5.2,23.5-7.8
		c18.7-6.1,37.8-3.2,56.7-1.8c8.7,0.7,17.1,5,25.5,7.9c9.3,3.2,18.6,6.4,27.8,10c3.2,1.2,6,3.6,9.2,5.6
		c-4.7,8.7-10.5,12.1-19.7,11.6c-19.5-1-39.1-0.8-58.6-1.2c-17.2-0.4-34.4-0.8-51.5-1.6c-12.2-0.6-24.3-3.4-36.4,0.9
		C898.6,123.7,895.4,123,892.7,123z M939.6,109.5c28.9,6.4,57.9,1.2,87,0.8c-6.2-2.6-12.4-4.5-18.8-5.3c-8.9-1-18.1-0.1-26.8-1.9
		C966.2,100.2,952.8,103.3,939.6,109.5z"/>
	<path d="M446.4,531.4c-0.4-8.1,4.1-13.7,11.9-15.8c13.7-3.8,25.7,7,29.1,16.6c2,5.6,0.2,11-4,15.5c-4.8,5-10,9-17.4,7.3
		C456.5,552.7,446.9,541.1,446.4,531.4z M467.8,528.4c-1,0.1-2,0.1-2.9,0.4c-2.3,0.9-5.7,1.4-6.5,3.1c-0.7,1.5,1.3,4.4,2.3,6.7
		c0.4,0.9,1,1.7,1.7,2.4c3,3.1,6.8,3.5,9.7,0.9c2.1-1.9,4.1-5.5,3.8-8.2C475.5,530,472.1,527.9,467.8,528.4z"/>
	<path d="M605.2,2622.3c0-4.6-0.4-7.8,0.1-10.8c4-25.3,5.2-50.8,6.2-76.3c1.1-27.2,2.6-54.4,4.1-81.5c0.7-12.8,2.4-25.6,2.8-38.5
		c0.3-8.6-1.3-17.2-1.5-25.8c-0.6-23.6-1-47.1-1.2-70.7c-0.1-9.6,1.3-19.3,0.8-28.8c-0.6-11.2-2.4-22.3-4-33.4
		c-0.2-1.7-2-3.2-3.5-5.3c-9.2,4.6-18,9.1-26.8,13.4c-6.5,3.2-13.3,5.7-19.6,9.2c-10.4,5.8-20.5,12.2-30.7,18.3
		c-8.5,5.1-17.1,10.1-25.6,15.2c-3.7,2.2-7.3,4.7-11,6.8c-3.2,1.8-6.5,3.8-9.9,4.4c-1.8,0.3-5.6-2-5.8-3.6
		c-0.8-5.4-1.1-11.2-0.3-16.6c1.4-9.5,3.7-18.8,5.7-28.2c3.3-15.9,6.5-31.9,9.9-47.8c0.9-4.2,2.4-8.3,3.9-12.4
		c5.5-15.4,8.6-31.2,10.8-47.3c2.3-16.7,6.4-33.2,8.1-50c2.7-26.1,3.9-52.3,5.8-78.4c0.8-11.2,2-22.5,3-33.7
		c0.3-3.2,1.1-5.9-2.3-8.8c-4.5-3.7-2.8-7.1,3.3-8.4c9-1.9,18.1-3.5,27-6.1c13.6-4,27.1-8.6,40.5-13.3c19.3-6.8,38.5-13.8,57.8-20.7
		c5.9-2.1,12.3-3.2,17.7-6.1c10-5.5,20.2-5.5,31.6-3.6c2.3,13.7,0.3,27.4-3.9,40.5c-6.4,20-10.7,40.3-13.5,61.1
		c-1.7,12.5-4.2,24.9-5.9,37.4c-2,15.1-5,30.4-4.9,45.5c0.2,17.4-2.3,35,1.9,52.9c19.3-9.1,39.6-14.2,58-24.4
		c16.8-9.3,34.3-17.2,51.5-25.6c2.1-1,6.1-1.8,7.1-0.8c1.6,1.9,2.6,5.4,2.1,7.9c-3,13.9-5.4,28.1-10,41.5
		c-6.1,17.8-14.1,34.9-21.1,52.4c-4.9,12.3-9.4,24.7-14.2,37c-3.4,8.6-7,17.1-10.7,25.5c-5,11.2-10.7,22.1-15.1,33.5
		c-6.9,18.2-12.8,36.9-19.3,55.3c-3.6,10-7.8,19.8-11.4,29.7c-5.4,14.9-10.7,29.9-15.7,44.9c-8.3,25.1-15.9,50.4-24.7,75.3
		c-6.3,17.7-14.1,34.9-21.3,52.3c-0.6,1.5-1.2,3.2-2.3,4.4c-6.8,8.5-10,18.4-11.6,29.1C615.9,2616.7,614.9,2617.5,605.2,2622.3z
		 M489.3,2304.4c0.8,0.4,1.6,0.7,2.4,1.1c7.2-4.5,14.5-9,21.7-13.5c10.3-6.5,20.8-13,30.9-19.8c13.8-9.2,30.3-13.3,43.5-23.6
		c4.6-3.6,10.5-5.5,15.9-7.8c8.8-3.7,15.3-0.2,17.7,9.2c4.9,19.2,4.5,38.7,4.4,58.3c0,7.2-0.6,14.5-0.4,21.7c0.3,13,2,26,1,38.8
		c-1.1,14.3-0.9,28.4-0.5,42.7c0.5,17.5-0.9,35.1-1.9,52.6c-0.9,16.2-3,32.3-3.4,48.4c-0.3,17.6,0.5,35.2-3,52.6
		c-0.7,3.4-0.4,7-0.5,10.7c5.8,0.5,6.6-2.9,7.8-6c3.4-8.6,7-17.2,10.3-25.9c4.1-10.8,8.1-21.7,11.8-32.6
		c7.5-22.3,14.8-44.6,22.2-66.9c0.5-1.6,1.2-3.1,1.8-4.7c3.9-11.2,7.7-22.4,11.8-33.6c3.8-10.3,8.4-20.2,11.9-30.6
		c11.6-34.9,24.4-69.4,38.8-103.3c4.9-11.6,9.4-23.3,14.1-35c3.2-8,5.6-16.3,9.5-23.9c13.1-25.7,21.4-53,26.8-82.1
		c-2.1,0.6-4,0.8-5.6,1.7c-5.9,3-11.6,6.5-17.6,9.3c-20.4,9.3-41,18.5-61.5,27.6c-1.8,0.8-4,1.1-5.4,2.3c-5.8,4.9-12.6,5.2-19.6,5.2
		c-6.1,0.1-8.3-1.3-8.5-7.1c-0.6-17.9-1.2-35.7-0.9-53.6c0.2-11.9,1.7-23.8,2.7-35.7c0.3-3.9,1.1-7.8,1.7-11.7
		c1.9-11.1,4.1-22.2,5.8-33.4c3.4-21.6,6.5-43.2,13.5-64c2.3-6.9,3.6-14.1,4.9-21.3c1-5.4-1.3-7.4-6.7-6.5c-2.9,0.5-5.9,1.3-8.7,2.3
		c-26.3,9.1-52.6,18.4-79,27.2c-17,5.6-34.1,10.7-51.4,15.4c-9.6,2.6-12.1,4-12.5,13.8c-0.5,11.5,0,23.1,0.1,34.6
		c0,4,0.5,8,0.1,11.9c-1.3,12.1-2.9,24.2-4.3,36.3c-2.6,21.4-4.8,42.8-8,64.1c-2.1,14.1-5.5,27.9-8.4,41.9
		c-4,19.4-12.3,37.7-15,57.6c-1.6,12.5-5.1,24.7-7.5,37.1C490.7,2292.2,490.2,2298.3,489.3,2304.4z"/>
	<path class="st3" d="M1569.3,594.9c-0.5,3.6-0.3,5.2-1,6.1c-6.3,8.5-12.3,17.4-19.4,25.2c-8.1,8.7-17.6,16.1-26,24.5
		c-9.6,9.6-18.5,19.9-28,29.6c-11.4,11.6-23.2,22.7-34.7,34.2c-15.8,15.7-31.3,31.7-47.2,47.3c-6.4,6.3-13.6,11.7-20.1,18
		c-24.7,24.1-49.1,48.4-73.9,72.5c-25.7,24.9-52,49.2-77.4,74.4c-7.6,7.5-16.2,13.3-24.7,19.5c-7.6,5.5-13,14-19.4,21.2
		c-7,7.9-13.8,16-20.9,23.9c-14,15.5-27.9,31.1-42.4,46.1c-17.8,18.3-36.1,36.4-54.6,53.9c-12.2,11.5-25.2,22.3-38.1,33.1
		c-19.8,16.6-40,32.8-59.7,49.5c-9.9,8.3-19.1,17.5-28.7,26c-4.2,3.7-8.9,7-13.3,10.4c-15.2,11.8-30.5,23.5-45.7,35.4
		c-5,3.9-9.7,8.1-14.2,12.5c-7.3,6.9-19.4,14.9-27.1,17.3c3.9-4.3,6.5-8.8,10.5-11.1c12.3-7.4,20.3-18.8,29.6-29.1
		c6.8-7.5,15.5-13.2,23.3-19.7c17.6-14.7,35.1-29.5,52.9-44c6.4-5.2,13.6-9.4,19.7-15c10.5-9.6,20.1-20.1,30.6-29.7
		c12.9-11.8,26.6-22.8,39.6-34.5c5.1-4.6,9.5-10.1,14.2-15.2c13.6-15,28.1-29,44.2-41.3c4.7-3.6,8.6-8.3,12.7-12.6
		c17.5-18,34.6-36.5,52.7-54c16.2-15.6,33.4-30.2,50.2-45.2c20.3-18.1,39.1-37.6,57.5-57.6c10.3-11.2,22.6-20.4,33.7-30.9
		c5.3-5,9.4-11.2,14.6-16.3c19.5-19.4,39.3-38.6,58.9-58c21.1-20.8,42.1-41.6,63.3-62.3c6.9-6.7,14.5-12.7,21.3-19.5
		c14-14.1,27.4-28.8,41.5-42.8c8.5-8.4,17.7-16.1,26.6-24.1C1555.9,606.9,1561.8,601.6,1569.3,594.9z"/>
	<path class="st3" d="M609.6,1398c0.7-3.3,2.2-5.5,6.2-4.1c21.7,7.2,43.5,3.6,64.9-0.8c15.2-3.1,29.7-9.1,43.4-16.8
		c3.1-1.7,6.2-4,11-0.3c-1.9,2.4-3.1,5.2-5.2,6.6c-20.8,14.1-42.8,26.5-68.3,27.8C643.6,1411.2,624.7,1411.6,609.6,1398z"/>
	<path class="st2" d="M939.6,109.5c13.3-6.1,26.6-9.3,41.3-6.4c8.7,1.8,17.9,0.9,26.8,1.9c6.4,0.7,12.7,2.7,18.8,5.3
		C997.5,110.6,968.5,115.9,939.6,109.5z"/>
	<path class="st2" d="M467.8,528.4c4.3-0.5,7.7,1.6,8.1,5.4c0.3,2.6-1.7,6.3-3.8,8.2c-2.9,2.5-6.8,2.2-9.7-0.9
		c-0.7-0.7-1.3-1.5-1.7-2.4c-1-2.2-3.1-5.2-2.3-6.7c0.8-1.7,4.2-2.2,6.5-3.1C465.8,528.5,466.8,528.5,467.8,528.4z"/>
	<path class="st5" d="M489.3,2304.4c0.8-6,1.4-12.1,2.6-18.1c2.4-12.4,5.9-24.6,7.5-37.1c2.6-19.9,10.9-38.2,15-57.6
		c2.9-13.9,6.3-27.8,8.4-41.9c3.2-21.3,5.4-42.7,8-64.1c1.5-12.1,3.1-24.2,4.3-36.3c0.4-3.9,0-7.9-0.1-11.9
		c-0.1-11.5-0.6-23.1-0.1-34.6c0.5-9.8,3-11.2,12.5-13.8c17.2-4.7,34.4-9.8,51.4-15.4c26.4-8.8,52.7-18.1,79-27.2
		c2.8-1,5.7-1.8,8.7-2.3c5.4-0.9,7.7,1.1,6.7,6.5c-1.3,7.2-2.6,14.4-4.9,21.3c-7,20.8-10.1,42.4-13.5,64
		c-1.7,11.2-3.9,22.2-5.8,33.4c-0.7,3.9-1.4,7.8-1.7,11.7c-1.1,11.9-2.6,23.8-2.7,35.7c-0.3,17.9,0.3,35.7,0.9,53.6
		c0.2,5.8,2.4,7.1,8.5,7.1c7-0.1,13.8-0.4,19.6-5.2c1.4-1.2,3.6-1.5,5.4-2.3c20.5-9.2,41.1-18.3,61.5-27.6c6-2.7,11.7-6.3,17.6-9.3
		c1.6-0.8,3.5-1.1,5.6-1.7c-5.4,29-13.6,56.3-26.8,82.1c-3.9,7.6-6.3,15.9-9.5,23.9c-4.6,11.7-9.2,23.5-14.1,35
		c-14.4,33.9-27.1,68.4-38.8,103.3c-3.4,10.4-8.1,20.3-11.9,30.6c-4.1,11.1-7.9,22.4-11.8,33.6c-0.5,1.6-1.3,3.1-1.8,4.7
		c-7.4,22.3-14.7,44.7-22.2,66.9c-3.7,11-7.7,21.8-11.8,32.6c-3.3,8.7-6.9,17.2-10.3,25.9c-1.2,3.1-2,6.4-7.8,6
		c0.2-3.7-0.1-7.3,0.5-10.7c3.5-17.4,2.7-35,3-52.6c0.3-16.2,2.5-32.3,3.4-48.4c1-17.5,2.4-35.1,1.9-52.6
		c-0.4-14.3-0.6-28.4,0.5-42.7c1-12.8-0.8-25.9-1-38.8c-0.1-7.2,0.4-14.5,0.4-21.7c0.1-19.5,0.5-39.1-4.4-58.3
		c-2.4-9.4-8.9-12.9-17.7-9.2c-5.5,2.3-11.4,4.2-15.9,7.8c-13.3,10.3-29.7,14.4-43.5,23.6c-10.2,6.8-20.6,13.2-30.9,19.8
		c-7.2,4.6-14.5,9-21.7,13.5C490.9,2305.1,490.1,2304.7,489.3,2304.4z"/>
</g>
</svg>
