<?xml version="1.0" encoding="UTF-8"?>
<svg id="Layer_8" data-name="Layer 8" xmlns="http://www.w3.org/2000/svg" viewBox="0 0 1190 815">
  <defs>
    <style>
      .cls-1 {
        fill: none;
        stroke-width: 0px;
      }
    </style>
  </defs>
  <path class="cls-1" d="M1115,665c-54-864-465-82-465-82l1.53,45.82c.31,9.22,3.51,18.11,9.15,25.42l8.32,10.77s104.82-32.84-23-194c-127.82-161.16-135,77-135,77,0,0-21-121-83.97-134.76s-76.03,120.11-76.03,120.11c0,0-20.05-85.32-31-91.35s-38-18-38-18c0,0,149-206,157-220s23.89-61.76,23.89-61.76c0,0-39.02-12.85-145.89,52.76-101,62-83,101-83,101,0,0-19,65,14.13,64.25s21.87-9.25,33.78-21.72,0-41.13,0-41.13c0,0-45.91-90.39-77.91-138.39s-75.5-41.5-75.5-41.5"/>
</svg>