<?xml version="1.0" encoding="UTF-8"?>
<svg id="Layer_8" data-name="Layer 8" xmlns="http://www.w3.org/2000/svg" viewBox="0 0 1190 815">
  <defs>
    <style>
      .cls-1 {
        fill: none;
        stroke-width: 0px;
      }
    </style>
  </defs>
  <path class="cls-1" d="M955.48,137.5c-268.52,125.5-305.48,445.5-305.48,445.5l1.53,45.82c.31,9.22,3.51,18.11,9.15,25.42l8.32,10.77s104.82-32.84-23-194-135,77-135,77c0,0-21-121-83.97-134.76s-76.03,120.11-76.03,120.11c0,0-43-100.35-53.95-106.39s-15.14-2.87-15.14-2.87c0,0,149.09-206.1,157.09-220.1s23.89-61.76,23.89-61.76c0,0,28.11-8.24-96.89,1.76s-117.87,145.1-117.87,145.1c0,0-33.13,71.9,0,71.15s21.87-9.25,33.78-21.72,0-41.13,0-41.13c0,0-45.91-90.39-77.91-138.39s-75.5-41.5-75.5-41.5"/>
</svg>