<?xml version="1.0" encoding="utf-8"?>
<!-- Generator: Adobe Illustrator 25.2.3, SVG Export Plug-In . SVG Version: 6.00 Build 0)  -->
<svg version="1.1" id="Layer_1" xmlns="http://www.w3.org/2000/svg" xmlns:xlink="http://www.w3.org/1999/xlink" x="0px" y="0px"
	 viewBox="0 0 134 1024" style="enable-background:new 0 0 134 1024;" xml:space="preserve">
<style type="text/css">
	.st0{fill:#fde9e2;}
	.st1{fill:#ffd9d6;}
</style>
<rect class="st0" width="134" height="416"/>
<ellipse class="st1" cx="67" cy="338" rx="67" ry="57"/>
<path class="st1" d="M134,342l-15.1-17l0.1-23l5.4,6.3c0.4,0.5,0.8,0.9,1.2,1.3c2,1.8,3.5,3,6.3,3.4c0.3,0.1-0.3,0,0,0h1h1V342z"/>
<path class="st1" d="M0.1,342.1l15.1-17l-0.1-23l-5.4,6.3c-0.4,0.5-0.8,0.9-1.2,1.3c-2,1.8-3.5,3-6.3,3.4c-0.3,0.1,0.3,0,0,0h-1h-1
	V342.1z"/>
<rect y="321" class="st1" width="134" height="703"/>
</svg>
