<?xml version="1.0" encoding="UTF-8"?>
<svg xmlns="http://www.w3.org/2000/svg" version="1.1" viewBox="0 0 217.91 222.55">
  <!-- Generator: Adobe Illustrator 28.6.0, SVG Export Plug-In . SVG Version: 1.2.0 Build 709)  -->
  <g>
    <g id="Layer_1">
      <path d="M89.05,101.27C48.96,86.52,31.02,55.45,25.46,14.72h5.1c.82,4.81,1.4,9.68,2.5,14.44,5.21,22.58,16.05,41.75,34.94,55.68,26.95,19.89,62.27,18.11,87.44-4.23,17.84-15.84,27.48-36.04,31.1-59.35.33-2.13.55-4.28.83-6.57h5.29c-5.52,40.66-23.43,71.78-63.56,86.58,42.06,12.53,64.21,57.58,63.49,95.55h-4.71c-.27-3.92-.38-7.91-.85-11.85-3.12-26.08-13.43-48.57-34.12-65.36-27.95-22.68-65.65-21.04-92.07,3.72-16.77,15.72-25.92,35.4-29.25,57.93-.75,5.09-.97,10.26-1.45,15.59h-4.43c-1.58-31.52,17.16-81.52,63.34-95.56Z"/>
    </g>
  </g>
</svg>